<svg width="42" height="42" viewBox="0 0 42 42" fill="none" xmlns="http://www.w3.org/2000/svg">
<path d="M7.875 42C7.763 42 7.64925 41.9772 7.54075 41.9335C7.2135 41.7987 7 41.4785 7 41.125V33.25H4.375C1.9635 33.25 0 31.2882 0 28.875V4.375C0 1.96175 1.9635 0 4.375 0H37.625C40.0365 0 42 1.96175 42 4.375V28.875C42 31.2882 40.0365 33.25 37.625 33.25H16.9872L8.49275 41.7445C8.3265 41.9108 8.1025 42 7.875 42ZM4.375 1.75C2.92775 1.75 1.75 2.92775 1.75 4.375V28.875C1.75 30.3223 2.92775 31.5 4.375 31.5H7.875C8.358 31.5 8.75 31.892 8.75 32.375V39.0127L16.0055 31.7572C16.17 31.5927 16.3923 31.5 16.625 31.5H37.625C39.0723 31.5 40.25 30.3223 40.25 28.875V4.375C40.25 2.92775 39.0723 1.75 37.625 1.75H4.375Z" fill="#00CACE"/>
<path d="M22.7502 26.25H19.2502C18.4084 26.25 17.5002 25.6042 17.5002 24.185V21.875C17.5002 20.8495 17.0574 19.9115 16.3172 19.3655C14.2714 17.8605 13.0779 15.4507 13.1269 12.922C13.2057 8.75525 16.6864 5.31125 20.8847 5.25C22.9812 5.2605 25.0322 6.02525 26.5477 7.5215C28.0474 9.002 28.8752 10.9742 28.8752 13.0778C28.8752 15.5312 27.6939 17.8745 25.7147 19.3445C24.9534 19.9097 24.5002 20.86 24.5002 21.8872V24.5C24.5002 25.466 23.7144 26.25 22.7502 26.25ZM20.9984 7C20.9687 7 20.9389 7 20.9092 7C17.7014 7.04725 14.9382 9.7755 14.8769 12.957C14.8384 14.917 15.7642 16.786 17.3549 17.9567C18.5414 18.8317 19.2502 20.2965 19.2502 21.875V24.185C19.2502 24.4457 19.3132 24.5315 19.3132 24.5315L22.7502 24.5V21.8872C22.7502 20.3105 23.4677 18.8353 24.6699 17.9393C26.2309 16.7808 27.1252 15.008 27.1252 13.0778C27.1252 11.4468 26.4829 9.9155 25.3174 8.7675C24.1607 7.62475 22.6294 7 20.9984 7Z" fill="#00CACE"/>
<path d="M23.6248 22.75H18.3748C17.8918 22.75 17.4998 22.358 17.4998 21.875C17.4998 21.392 17.8918 21 18.3748 21H23.6248C24.1078 21 24.4998 21.392 24.4998 21.875C24.4998 22.358 24.1078 22.75 23.6248 22.75Z" fill="#00CACE"/>
</svg>
