<svg width="25" height="24" viewBox="0 0 25 24" fill="none" xmlns="http://www.w3.org/2000/svg">
<path d="M1.51108 14.4909C1.2902 14.492 1.11024 14.3139 1.10914 14.093C1.10803 13.8721 1.2862 13.6921 1.50709 13.691H1.51108C1.73197 13.691 1.91103 13.8701 1.91103 14.091C1.91103 14.3119 1.73197 14.4909 1.51108 14.4909Z" fill="#428DFF"/>
<path d="M4.7354 4.40065C4.95628 4.40065 5.13535 4.22159 5.13535 4.0007V3.60076C5.13535 3.37987 4.95628 3.20081 4.7354 3.20081C4.51451 3.20081 4.33545 3.37987 4.33545 3.60076V4.0007C4.33545 4.22159 4.51451 4.40065 4.7354 4.40065Z" fill="#428DFF"/>
<path d="M4.7354 5.20056C4.51451 5.20056 4.33545 5.37962 4.33545 5.60051V6.00046C4.33545 6.22135 4.51451 6.40041 4.7354 6.40041C4.95628 6.40041 5.13535 6.22135 5.13535 6.00046V5.60051C5.13535 5.37962 4.95628 5.20056 4.7354 5.20056Z" fill="#428DFF"/>
<path d="M3.53557 5.20053H3.93551C4.1564 5.20053 4.33546 5.02147 4.33546 4.80058C4.33546 4.5797 4.1564 4.40063 3.93551 4.40063H3.53557C3.31468 4.40063 3.13562 4.5797 3.13562 4.80058C3.13562 5.02147 3.31468 5.20053 3.53557 5.20053Z" fill="#428DFF"/>
<path d="M5.53532 5.20053H5.93527C6.15615 5.20053 6.33522 5.02147 6.33522 4.80058C6.33522 4.5797 6.15615 4.40063 5.93527 4.40063H5.53532C5.31444 4.40063 5.13538 4.5797 5.13538 4.80058C5.13538 5.02147 5.31444 5.20053 5.53532 5.20053Z" fill="#428DFF"/>
<path d="M10.7347 1.20106C10.9556 1.20106 11.1346 1.022 11.1346 0.801117V0.401169C11.1346 0.180284 10.9556 0.0012207 10.7347 0.0012207C10.5138 0.0012207 10.3347 0.180284 10.3347 0.401169V0.801117C10.3347 1.022 10.5138 1.20106 10.7347 1.20106Z" fill="#428DFF"/>
<path d="M10.7347 2.00098C10.5138 2.00098 10.3347 2.18004 10.3347 2.40092V2.80087C10.3347 3.02176 10.5138 3.20082 10.7347 3.20082C10.9556 3.20082 11.1346 3.02176 11.1346 2.80087V2.40092C11.1346 2.18004 10.9556 2.00098 10.7347 2.00098Z" fill="#428DFF"/>
<path d="M9.53483 2.00094H9.93478C10.1557 2.00094 10.3347 1.82188 10.3347 1.601C10.3347 1.38011 10.1557 1.20105 9.93478 1.20105H9.53483C9.31395 1.20105 9.13489 1.38011 9.13489 1.601C9.13489 1.82188 9.31395 2.00094 9.53483 2.00094Z" fill="#428DFF"/>
<path d="M11.5346 2.00094H11.9345C12.1554 2.00094 12.3345 1.82188 12.3345 1.601C12.3345 1.38011 12.1554 1.20105 11.9345 1.20105H11.5346C11.3137 1.20105 11.1346 1.38011 11.1346 1.601C11.1346 1.82188 11.3137 2.00094 11.5346 2.00094Z" fill="#428DFF"/>
<path d="M5.13542 12.7996C4.91454 12.7996 4.73547 12.9786 4.73547 13.1995V13.5995C4.73547 13.8203 4.91454 13.9994 5.13542 13.9994C5.35631 13.9994 5.53537 13.8203 5.53537 13.5995V13.1995C5.53537 12.9786 5.35631 12.7996 5.13542 12.7996Z" fill="#428DFF"/>
<path d="M4.73547 15.5991C4.73547 15.82 4.91454 15.9991 5.13542 15.9991C5.35631 15.9991 5.53537 15.82 5.53537 15.5991V15.1992C5.53537 14.9783 5.35631 14.7993 5.13542 14.7993C4.91454 14.7993 4.73547 14.9783 4.73547 15.1992V15.5991Z" fill="#428DFF"/>
<path d="M4.33554 13.9994H3.93559C3.71471 13.9994 3.53564 14.1785 3.53564 14.3993C3.53564 14.6202 3.71471 14.7993 3.93559 14.7993H4.33554C4.55642 14.7993 4.73549 14.6202 4.73549 14.3993C4.73549 14.1785 4.55642 13.9994 4.33554 13.9994Z" fill="#428DFF"/>
<path d="M5.93535 14.7993H6.33529C6.55618 14.7993 6.73524 14.6202 6.73524 14.3993C6.73524 14.1785 6.55618 13.9994 6.33529 13.9994H5.93535C5.71446 13.9994 5.5354 14.1785 5.5354 14.3993C5.5354 14.6202 5.71446 14.7993 5.93535 14.7993Z" fill="#428DFF"/>
<path d="M19.5336 7.60025C20.1963 7.60025 20.7335 8.13744 20.7335 8.8001C20.7335 9.02099 20.9125 9.20005 21.1334 9.20005C21.3543 9.20005 21.5333 9.02099 21.5333 8.8001C21.532 7.69622 20.6375 6.80168 19.5336 6.80035C19.3127 6.80035 19.1337 6.97942 19.1337 7.2003C19.1337 7.42119 19.3127 7.60025 19.5336 7.60025Z" fill="#428DFF"/>
<path d="M16.734 6.01646C16.8335 6.0165 16.9295 5.97942 17.0032 5.91247C17.2468 5.68844 17.5732 5.57662 17.903 5.60412C18.1222 5.6193 18.3125 5.45493 18.3295 5.23592C18.3464 5.01692 18.1835 4.82526 17.9646 4.80662C17.4154 4.7656 16.8734 4.95133 16.4648 5.32055C16.3425 5.43171 16.3012 5.60665 16.3608 5.76079C16.4204 5.91493 16.5687 6.01652 16.734 6.01646Z" fill="#428DFF"/>
<path d="M24.3329 10.1999C24.3311 9.43525 24.0378 8.70006 23.5126 8.14419C23.5261 8.03003 23.5329 7.91519 23.533 7.80024C23.5349 6.68269 22.9138 5.65727 21.9225 5.14138C21.8299 4.06118 21.1611 3.11522 20.1735 2.66782C19.186 2.22041 18.0338 2.34135 17.1607 2.98406C16.8321 2.86239 16.4844 2.80036 16.134 2.80088C15.3377 2.80006 14.574 3.11673 14.0119 3.68077C12.6535 3.36823 11.2585 4.03048 10.6419 5.28056C10.4099 5.22807 10.1727 5.20124 9.93481 5.20057C8.16855 5.20255 6.73721 6.6339 6.73523 8.40016C6.73523 8.46535 6.73922 8.53254 6.74362 8.60013L3.79721 9.53041C3.2438 9.70438 2.79307 10.1099 2.56177 10.6419L1.77227 12.464C1.71314 12.5955 1.72938 12.7487 1.81477 12.8649C1.90017 12.9811 2.04149 13.0423 2.18466 13.0251C2.32783 13.008 2.45067 12.9151 2.50618 12.782L3.29567 10.9598C3.4345 10.6405 3.70524 10.3972 4.03758 10.2931L9.50367 8.56854C10.3327 8.30707 11.228 8.3512 12.0273 8.69292L14.0647 9.56481L14.0763 9.56961L14.3382 9.68199C14.5331 9.76418 14.6871 9.9208 14.7659 10.117C14.8448 10.3133 14.842 10.5329 14.7582 10.7271C14.5794 11.1322 14.1079 11.318 13.7007 11.1438L12.3157 10.5515C11.9253 10.3854 11.4852 10.3792 11.0903 10.5343L9.59765 11.1246L9.01173 10.8738C8.80863 10.7869 8.57352 10.8811 8.4866 11.0842C8.39968 11.2873 8.49387 11.5224 8.69697 11.6093L9.43408 11.9249L18.6477 15.8676C18.844 15.9506 18.9987 16.1092 19.0768 16.3075C19.1553 16.5027 19.1519 16.7212 19.0676 16.9139C18.8893 17.3195 18.4173 17.5055 18.0102 17.3306H18.0074L11.745 14.651C11.5419 14.564 11.3068 14.6582 11.2198 14.8613C11.1329 15.0644 11.2271 15.2995 11.4302 15.3865L18.6657 18.4837C18.8764 18.5714 19.043 18.74 19.1284 18.9516C19.2058 19.1418 19.2038 19.3552 19.1228 19.5439C18.929 19.9547 18.4407 20.133 18.0278 19.9439L17.0639 19.5315L17.0583 19.5283H17.0551L10.7927 16.8487C10.5896 16.7616 10.3544 16.8557 10.2674 17.0588C10.1803 17.2619 10.2744 17.4971 10.4775 17.5842L16.7491 20.2682C16.9422 20.3522 17.0943 20.5088 17.1727 20.7042C17.2507 20.8993 17.2471 21.1176 17.1627 21.3101C16.9844 21.7155 16.5126 21.9015 16.1056 21.7268L14.2626 20.9385L9.10332 18.7304C8.90021 18.6435 8.6651 18.7377 8.57819 18.9408C8.49127 19.1439 8.58546 19.379 8.78856 19.4659L13.9479 21.674C14.1441 21.7572 14.2988 21.9157 14.377 22.114C14.4555 22.3091 14.4522 22.5276 14.3678 22.7203C14.189 23.1255 13.7175 23.3113 13.3104 23.1371L5.25542 19.6847C5.00428 19.5775 4.76612 19.4421 4.54551 19.2812L1.62709 17.1518C1.17544 16.8262 1.01177 16.2298 1.23394 15.7192C1.2911 15.588 1.27393 15.4363 1.18891 15.3213C1.10389 15.2062 0.963932 15.1452 0.821758 15.1613C0.679583 15.1774 0.55679 15.2681 0.499635 15.3993C0.125723 16.2537 0.398765 17.2533 1.15515 17.7989L4.07477 19.9283C4.34407 20.1246 4.63467 20.2899 4.94106 20.421L12.9976 23.869C13.8098 24.2162 14.75 23.8438 15.1041 23.0347C15.2145 22.7761 15.2537 22.4928 15.2177 22.214L15.7928 22.4599C16.6047 22.8079 17.5451 22.4355 17.8986 21.6261C18.0146 21.357 18.0532 21.0608 18.0102 20.771C18.1299 20.7989 18.2524 20.8135 18.3753 20.8146C18.447 20.8138 18.5186 20.8084 18.5897 20.7986H20.3335C20.9064 20.8025 21.4371 20.4976 21.7224 20.0006C22.0076 19.5037 22.0032 18.8917 21.7109 18.3989H21.9333C22.5247 18.3986 23.0677 18.072 23.3452 17.5497C23.6227 17.0275 23.5894 16.3947 23.2587 15.9044C23.9016 15.684 24.3334 15.0794 24.3334 14.3998C24.3334 13.7202 23.9016 13.1156 23.2587 12.8952C23.3878 12.7034 23.4733 12.4857 23.509 12.2573C24.0398 11.7041 24.3351 10.9665 24.3329 10.1999ZM9.2633 7.80584L7.53752 8.35017C7.56471 7.04535 8.62971 6.00149 9.93481 6.00047C10.2098 6.00036 10.4828 6.04674 10.7423 6.13765C10.8429 6.17361 10.9537 6.16726 11.0495 6.12005C11.1455 6.07344 11.219 5.99035 11.2534 5.88928C11.6387 4.74474 12.8776 4.12789 14.0231 4.51026C14.1771 4.55831 14.3449 4.5091 14.4486 4.38548C14.8663 3.88693 15.4836 3.59948 16.134 3.60078C16.4529 3.60034 16.7679 3.67069 17.0563 3.80675C17.2002 3.87418 17.3704 3.85001 17.4898 3.74516C18.1386 3.17658 19.0602 3.04052 19.8457 3.39737C20.6311 3.75422 21.1348 4.53786 21.1334 5.40055C21.1333 5.56196 21.2304 5.70755 21.3793 5.7697C22.2 6.11016 22.7344 6.91177 22.7331 7.80024C22.7336 7.93576 22.7202 8.07098 22.6932 8.20378C22.6644 8.34135 22.7099 8.48393 22.8131 8.57934C23.5426 9.23543 23.7396 10.3002 23.2931 11.1738C23.0063 10.6958 22.4907 10.4024 21.9333 10.3999H15.6213C15.6241 10.117 15.5453 9.83933 15.3945 9.6H15.5341C16.4176 9.6 17.1339 8.88375 17.1339 8.00021C17.1339 7.11667 16.4176 6.40042 15.5341 6.40042H13.0264C11.9683 6.40136 10.9457 6.7823 10.1448 7.47388L9.93841 7.65266C9.70973 7.68606 9.484 7.73728 9.2633 7.80584ZM11.2802 7.65585C11.8142 7.35833 12.4151 7.20156 13.0264 7.20031H15.5341C15.9759 7.20031 16.334 7.55844 16.334 8.00021C16.334 8.44198 15.9759 8.80011 15.5341 8.80011H14.3114L12.3429 7.95782C12.0027 7.81301 11.6457 7.71156 11.2802 7.65585ZM21.1334 19.1988C21.1334 19.6405 20.7752 19.9987 20.3335 19.9987H19.7831C19.8087 19.9531 19.8355 19.9083 19.8571 19.8595C20.0236 19.4757 20.029 19.041 19.8719 18.6532C19.8354 18.5649 19.7914 18.4798 19.7403 18.3989H20.3335C20.7752 18.3989 21.1334 18.757 21.1334 19.1988ZM22.4984 17.3642C22.3489 17.5148 22.1454 17.5993 21.9333 17.599L19.5736 17.599C19.9403 17.1544 20.0344 16.5448 19.8187 16.0104C19.8187 16.0064 19.8143 16.0032 19.8127 15.9992H21.9333C22.2565 15.9996 22.5477 16.1945 22.6713 16.4931C22.795 16.7917 22.7267 17.1355 22.4984 17.3642ZM23.533 14.3994C23.533 14.8412 23.1749 15.1993 22.7331 15.1993H19.0856C19.0456 15.1773 19.0056 15.1509 18.9628 15.1321L10.6439 11.5725L11.3862 11.2786C11.5849 11.2008 11.8062 11.204 12.0025 11.2874L13.3864 11.8797C14.1346 12.1974 15.0023 11.9053 15.4061 11.1998H21.9333C22.375 11.1998 22.7331 11.5579 22.7331 11.9997C22.7331 12.4415 22.375 12.7996 21.9333 12.7996H16.7339C16.513 12.7996 16.334 12.9787 16.334 13.1995C16.334 13.4204 16.513 13.5995 16.7339 13.5995H22.7331C23.1749 13.5995 23.533 13.9576 23.533 14.3994Z" fill="#428DFF"/>
</svg>
