<svg width="28" height="26" viewBox="0 0 28 26" fill="none" xmlns="http://www.w3.org/2000/svg">
<path d="M15.6409 11.7458C15.6409 10.841 14.9048 10.1048 13.9999 10.1048C13.0951 10.1048 12.3589 10.841 12.3589 11.7458C12.3589 12.6507 13.0951 13.3868 13.9999 13.3868C14.9048 13.3868 15.6409 12.6507 15.6409 11.7458ZM13.9999 12.2928C13.6983 12.2928 13.4529 12.0474 13.4529 11.7458C13.4529 11.4442 13.6983 11.1988 13.9999 11.1988C14.3016 11.1988 14.5469 11.4442 14.5469 11.7458C14.5469 12.0474 14.3016 12.2928 13.9999 12.2928Z" fill="#132968"/>
<path d="M9.0771 12.8398C9.0771 12.6043 9.09384 12.3677 9.12688 12.1365C9.1696 11.8375 8.96179 11.5604 8.66275 11.5177C8.36381 11.4749 8.08659 11.6828 8.04387 11.9818C8.00355 12.2641 7.98309 12.5528 7.98309 12.8399V13.17C7.98309 13.4721 8.22799 13.717 8.5301 13.717C8.83221 13.717 9.0771 13.4721 9.0771 13.17V12.8398Z" fill="#132968"/>
<path d="M9.80241 10.2657C9.9769 9.9818 10.1814 9.71421 10.4103 9.47046C10.6171 9.25024 10.6062 8.90404 10.3859 8.69722C10.1657 8.49057 9.81948 8.50145 9.61271 8.72162C9.33336 9.01919 9.08359 9.34596 8.87037 9.69282C8.71218 9.95018 8.79259 10.287 9.04995 10.4453C9.30775 10.6038 9.6446 10.5225 9.80241 10.2657Z" fill="#132968"/>
<path d="M20.0172 15.365C20.0172 15.0629 19.7723 14.8179 19.4702 14.8179C19.1681 14.8179 18.9232 15.0629 18.9232 15.365V16.4787C18.9232 16.7807 19.1681 17.0257 19.4702 17.0257C19.7723 17.0257 20.0172 16.7807 20.0172 16.4787V15.365Z" fill="#132968"/>
<path d="M19.1107 9.66236C18.8953 9.31666 18.6437 8.99141 18.3628 8.69581C18.1547 8.47679 17.8085 8.46798 17.5895 8.67601C17.3705 8.88414 17.3616 9.23034 17.5697 9.44936C17.7998 9.69152 18.0058 9.95785 18.1822 10.2409C18.3423 10.4978 18.6799 10.5754 18.9357 10.4159C19.1921 10.2561 19.2704 9.91874 19.1107 9.66236Z" fill="#132968"/>
<path d="M20.017 12.8398C20.017 12.5406 19.9948 12.2401 19.951 11.9464C19.9066 11.6476 19.6284 11.4416 19.3294 11.486C19.0306 11.5305 18.8245 11.8088 18.8689 12.1076C18.9048 12.3481 18.9229 12.5944 18.923 12.8398V13.1375C18.923 13.4396 19.1679 13.6845 19.47 13.6845C19.7721 13.6845 20.017 13.4396 20.017 13.1375V12.8398Z" fill="#132968"/>
<path d="M19.4702 21.5003C19.1681 21.5003 18.9232 21.7452 18.9232 22.0473V23.161C18.9232 23.4631 19.1681 23.708 19.4702 23.708C19.7723 23.708 20.0172 23.4631 20.0172 23.161V22.0473C20.0172 21.7452 19.7723 21.5003 19.4702 21.5003Z" fill="#132968"/>
<path d="M20.0172 18.7061C20.0172 18.4041 19.7723 18.1591 19.4702 18.1591C19.1681 18.1591 18.9232 18.4041 18.9232 18.7061V19.8198C18.9232 20.1219 19.1681 20.3668 19.4702 20.3668C19.7723 20.3668 20.0172 20.1219 20.0172 19.8198V18.7061Z" fill="#132968"/>
<path d="M8.53009 21.5328C8.22799 21.5328 7.98309 21.7777 7.98309 22.0798V23.1935C7.98309 23.4955 8.22799 23.7405 8.53009 23.7405C8.8322 23.7405 9.07709 23.4955 9.07709 23.1935V22.0798C9.07709 21.7777 8.83215 21.5328 8.53009 21.5328Z" fill="#132968"/>
<path d="M15.1981 6.94221C14.9019 6.88258 14.6135 7.07387 14.5535 7.36996C14.4937 7.66605 14.6852 7.9546 14.9813 8.01449C15.3082 8.08057 15.6293 8.18062 15.9357 8.31179C16.2139 8.43092 16.5352 8.3015 16.6539 8.02428C16.7728 7.74657 16.644 7.42504 16.3663 7.30613C15.9913 7.14558 15.5983 7.02316 15.1981 6.94221Z" fill="#132968"/>
<path d="M9.07709 18.7385C9.07709 18.4364 8.8322 18.1915 8.53009 18.1915C8.22799 18.1915 7.98309 18.4364 7.98309 18.7385V19.8522C7.98309 20.1543 8.22799 20.3992 8.53009 20.3992C8.8322 20.3992 9.07709 20.1543 9.07709 19.8522V18.7385Z" fill="#132968"/>
<path d="M9.07709 15.3974C9.07709 15.0954 8.8322 14.8504 8.53009 14.8504C8.22799 14.8504 7.98309 15.0954 7.98309 15.3974V16.5111C7.98309 16.8132 8.22799 17.0581 8.53009 17.0581C8.8322 17.0581 9.07709 16.8132 9.07709 16.5111V15.3974Z" fill="#132968"/>
<path d="M12.7667 6.94927C12.3672 7.03252 11.975 7.15734 11.6009 7.32019C11.3239 7.44075 11.1971 7.76304 11.3176 8.04004C11.4377 8.31611 11.7595 8.44422 12.0375 8.32328C12.3431 8.19025 12.6636 8.08829 12.99 8.02029C13.2857 7.95859 13.4755 7.6689 13.4138 7.37314C13.3521 7.07748 13.0623 6.88789 12.7667 6.94927Z" fill="#132968"/>
<path d="M27.7833 10.3028L24.393 7.7341V2.44678H24.94C25.2422 2.44678 25.487 2.20183 25.487 1.89978C25.487 1.59772 25.2422 1.35278 24.94 1.35278H19.47C19.1679 1.35278 18.923 1.59772 18.923 1.89978C18.923 2.20183 19.1679 2.44678 19.47 2.44678H20.017V4.41899L14.3303 0.110973C14.135 -0.036991 13.865 -0.036991 13.6697 0.110973L0.216712 10.3028C-0.0207958 10.4827 -0.070573 10.8196 0.104686 11.0605L1.39178 12.8301C1.57147 13.0773 1.92062 13.1301 2.16541 12.9437L3.60697 11.8469V25.4209C3.60697 25.7229 3.85187 25.9679 4.15398 25.9679H23.846C24.1481 25.9679 24.393 25.7229 24.393 25.4209V20.4978C24.393 20.1958 24.1481 19.9508 23.846 19.9508C23.5439 19.9508 23.299 20.1958 23.299 20.4978V24.8738H15.641V19.9508H16.188C16.4901 19.9508 16.735 19.7059 16.735 19.4038V16.1218C16.735 14.6137 15.5081 13.3868 14 13.3868C12.4919 13.3868 11.265 14.6137 11.265 16.1218V19.4038C11.265 19.7059 11.5099 19.9508 11.812 19.9508H12.359V24.8738H4.70098V11.0145L14 3.93977L23.299 11.0142V15.5748C23.299 15.8768 23.5439 16.1218 23.846 16.1218C24.1481 16.1218 24.393 15.8768 24.393 15.5748V11.8467L25.8346 12.9436C26.0792 13.1298 26.4284 13.0773 26.6082 12.83L27.8953 11.0604C28.0706 10.8196 28.0208 10.4827 27.7833 10.3028ZM12.359 16.1218C12.359 15.217 13.0952 14.4808 14 14.4808C14.9049 14.4808 15.641 15.217 15.641 16.1218V18.8568H15.094C14.7919 18.8568 14.547 19.1018 14.547 19.4038V24.8738H13.453V19.4038C13.453 19.1018 13.2081 18.8568 12.906 18.8568H12.359V16.1218ZM21.111 2.44678H23.299V6.90534L21.111 5.24781V2.44678ZM26.0523 11.7345L14.3312 2.81715C14.2333 2.74276 14.1166 2.70551 14 2.70551C13.8833 2.70551 13.7666 2.74276 13.6687 2.81715L1.9477 11.7345L1.30492 10.8508L14 1.23326C14.4827 1.59893 26.0037 10.3271 26.695 10.8508L26.0523 11.7345Z" fill="#132968"/>
<path d="M23.8426 18.5833C24.1447 18.5833 24.3896 18.3384 24.3896 18.0363C24.3896 17.7342 24.1447 17.4893 23.8426 17.4893C23.5405 17.4893 23.2956 17.7342 23.2956 18.0363C23.2956 18.3384 23.5405 18.5833 23.8426 18.5833Z" fill="#132968"/>
</svg>
