<svg width="159" height="121" viewBox="0 0 159 121" fill="none" xmlns="http://www.w3.org/2000/svg">
<g filter="url(#filter0_d)">
<g clip-path="url(#clip0)">
<rect x="35" y="21" width="89" height="52" fill="#00CACE"/>
<rect x="35" y="21" width="89" height="52" fill="url(#paint0_linear)"/>
</g>
</g>
<g clip-path="url(#clip1)">
<path fill-rule="evenodd" clip-rule="evenodd" d="M95.75 56V42.5C95.75 41.9033 95.5129 41.331 95.091 40.909C94.669 40.4871 94.0967 40.25 93.5 40.25H90.863C89.0737 40.249 87.358 39.5377 86.093 38.2722L84.2255 36.4093C83.8047 35.9884 83.2344 35.7513 82.6393 35.75H77.363C76.7663 35.7501 76.1941 35.9873 75.7722 36.4093L73.9093 38.2722C72.6437 39.5382 70.9271 40.2496 69.137 40.25H66.5C65.9033 40.25 65.331 40.4871 64.909 40.909C64.4871 41.331 64.25 41.9033 64.25 42.5V56C64.25 56.5967 64.4871 57.169 64.909 57.591C65.331 58.0129 65.9033 58.25 66.5 58.25H93.5C94.0967 58.25 94.669 58.0129 95.091 57.591C95.5129 57.169 95.75 56.5967 95.75 56ZM66.5 38C65.3065 38 64.1619 38.4741 63.318 39.318C62.4741 40.1619 62 41.3065 62 42.5V56C62 57.1935 62.4741 58.3381 63.318 59.182C64.1619 60.0259 65.3065 60.5 66.5 60.5H93.5C94.6935 60.5 95.8381 60.0259 96.682 59.182C97.5259 58.3381 98 57.1935 98 56V42.5C98 41.3065 97.5259 40.1619 96.682 39.318C95.8381 38.4741 94.6935 38 93.5 38H90.863C89.6696 37.9997 88.5252 37.5255 87.6815 36.6815L85.8185 34.8185C84.9748 33.9745 83.8304 33.5003 82.637 33.5H77.363C76.1696 33.5003 75.0252 33.9745 74.1815 34.8185L72.3185 36.6815C71.4748 37.5255 70.3304 37.9997 69.137 38H66.5Z" fill="white"/>
<path fill-rule="evenodd" clip-rule="evenodd" d="M80 53.75C81.4918 53.75 82.9226 53.1574 83.9775 52.1025C85.0324 51.0476 85.625 49.6168 85.625 48.125C85.625 46.6332 85.0324 45.2024 83.9775 44.1475C82.9226 43.0926 81.4918 42.5 80 42.5C78.5082 42.5 77.0774 43.0926 76.0225 44.1475C74.9676 45.2024 74.375 46.6332 74.375 48.125C74.375 49.6168 74.9676 51.0476 76.0225 52.1025C77.0774 53.1574 78.5082 53.75 80 53.75ZM80 56C82.0886 56 84.0916 55.1703 85.5685 53.6935C87.0453 52.2166 87.875 50.2136 87.875 48.125C87.875 46.0364 87.0453 44.0334 85.5685 42.5565C84.0916 41.0797 82.0886 40.25 80 40.25C77.9114 40.25 75.9084 41.0797 74.4315 42.5565C72.9547 44.0334 72.125 46.0364 72.125 48.125C72.125 50.2136 72.9547 52.2166 74.4315 53.6935C75.9084 55.1703 77.9114 56 80 56Z" fill="white"/>
<path d="M68.75 43.625C68.75 43.9234 68.6315 44.2095 68.4205 44.4205C68.2095 44.6315 67.9234 44.75 67.625 44.75C67.3266 44.75 67.0405 44.6315 66.8295 44.4205C66.6185 44.2095 66.5 43.9234 66.5 43.625C66.5 43.3266 66.6185 43.0405 66.8295 42.8295C67.0405 42.6185 67.3266 42.5 67.625 42.5C67.9234 42.5 68.2095 42.6185 68.4205 42.8295C68.6315 43.0405 68.75 43.3266 68.75 43.625Z" fill="white"/>
</g>
<defs>
<filter id="filter0_d" x="0.866665" y="0.519999" width="157.267" height="120.267" filterUnits="userSpaceOnUse" color-interpolation-filters="sRGB">
<feFlood flood-opacity="0" result="BackgroundImageFix"/>
<feColorMatrix in="SourceAlpha" type="matrix" values="0 0 0 0 0 0 0 0 0 0 0 0 0 0 0 0 0 0 127 0"/>
<feOffset dy="13.6533"/>
<feGaussianBlur stdDeviation="17.0667"/>
<feColorMatrix type="matrix" values="0 0 0 0 0.0509804 0 0 0 0 0.247059 0 0 0 0 0.403922 0 0 0 0.1 0"/>
<feBlend mode="normal" in2="BackgroundImageFix" result="effect1_dropShadow"/>
<feBlend mode="normal" in="SourceGraphic" in2="effect1_dropShadow" result="shape"/>
</filter>
<linearGradient id="paint0_linear" x1="-13.8572" y1="-71.6472" x2="148.679" y2="-47.5935" gradientUnits="userSpaceOnUse">
<stop stop-color="#428DFF"/>
<stop offset="1" stop-color="white" stop-opacity="0"/>
</linearGradient>
<clipPath id="clip0">
<path d="M35 37C35 28.1634 42.1634 21 51 21H108C116.837 21 124 28.1634 124 37V57C124 65.8366 116.837 73 108 73H51C42.1634 73 35 65.8366 35 57V37Z" fill="white"/>
</clipPath>
<clipPath id="clip1">
<rect width="36" height="36" fill="white" transform="translate(62 29)"/>
</clipPath>
</defs>
</svg>
