<svg width="28" height="28" viewBox="0 0 28 28" fill="none" xmlns="http://www.w3.org/2000/svg">
<path d="M21.8383 4.00006H19.0391C18.7155 4.00006 18.4531 4.2624 18.4531 4.586C18.4531 4.90959 18.7155 5.17194 19.0391 5.17194H21.8383C22.3841 5.17194 22.8281 5.616 22.8281 6.16182V8.961C22.8281 9.28459 23.0905 9.54694 23.4141 9.54694C23.7377 9.54694 24 9.28459 24 8.961V6.16182C24 4.96983 23.0302 4.00006 21.8383 4.00006V4.00006Z" fill="#428DFF"/>
<path d="M4.58594 9.54694C4.90953 9.54694 5.17187 9.28459 5.17187 8.961V6.16182C5.17187 5.616 5.61594 5.17194 6.16172 5.17194H8.96094C9.28453 5.17194 9.54687 4.90959 9.54687 4.586C9.54687 4.2624 9.28453 4.00006 8.96094 4.00006H6.16172C4.96977 4.00006 4 4.96983 4 6.16182V8.961C4 9.28459 4.26234 9.54694 4.58594 9.54694Z" fill="#428DFF"/>
<path d="M8.96094 22.8282H6.16172C5.61594 22.8282 5.17187 22.3841 5.17187 21.8383V19.0391C5.17187 18.7155 4.90953 18.4532 4.58594 18.4532C4.26234 18.4532 4 18.7155 4 19.0391V21.8383C4 23.0303 4.96977 24.0001 6.16172 24.0001H8.96094C9.28453 24.0001 9.54687 23.7377 9.54687 23.4141C9.54687 23.0905 9.28453 22.8282 8.96094 22.8282Z" fill="#428DFF"/>
<path d="M23.4141 18.4532C23.0905 18.4532 22.8281 18.7155 22.8281 19.0391V21.8383C22.8281 22.3841 22.3841 22.8282 21.8383 22.8282H19.0391C18.7155 22.8282 18.4531 23.0905 18.4531 23.4141C18.4531 23.7377 18.7155 24.0001 19.0391 24.0001H21.8383C23.0303 24.0001 24 23.0303 24 21.8383V19.0391C24 18.7155 23.7377 18.4532 23.4141 18.4532Z" fill="#428DFF"/>
<path d="M17.3455 8.29694H19.2039C19.4576 8.29694 19.6641 8.50338 19.6641 8.75717V10.6155C19.6641 10.9391 19.9264 11.2015 20.25 11.2015C20.5736 11.2015 20.836 10.9391 20.836 10.6155V8.75717C20.836 7.85721 20.1038 7.12506 19.2039 7.12506H17.3455C17.0219 7.12506 16.7595 7.3874 16.7595 7.711C16.7595 8.03459 17.0219 8.29694 17.3455 8.29694Z" fill="#428DFF"/>
<path d="M7.16406 8.75717V10.6155C7.16406 10.9391 7.42641 11.2015 7.75 11.2015C8.07359 11.2015 8.33594 10.9391 8.33594 10.6155V8.75717C8.33594 8.50338 8.54242 8.29694 8.79617 8.29694H10.6546C10.9782 8.29694 11.2405 8.03459 11.2405 7.711C11.2405 7.3874 10.9782 7.12506 10.6546 7.12506H8.79617C7.89625 7.12506 7.16406 7.85721 7.16406 8.75717Z" fill="#428DFF"/>
<path d="M10.6546 19.6251H8.79617C8.54238 19.6251 8.33594 19.4186 8.33594 19.1648V17.3065C8.33594 16.9829 8.07359 16.7205 7.75 16.7205C7.42641 16.7205 7.16406 16.9829 7.16406 17.3065V19.1648C7.16406 20.0648 7.89625 20.7969 8.79617 20.7969H10.6546C10.9782 20.7969 11.2405 20.5346 11.2405 20.211C11.2405 19.8874 10.9782 19.6251 10.6546 19.6251Z" fill="#428DFF"/>
<path d="M20.836 19.1648V17.3065C20.836 16.9829 20.5736 16.7205 20.25 16.7205C19.9264 16.7205 19.6641 16.9829 19.6641 17.3065V19.1648C19.6641 19.4186 19.4576 19.6251 19.2039 19.6251H17.3455C17.0219 19.6251 16.7595 19.8874 16.7595 20.211C16.7595 20.5346 17.0219 20.7969 17.3455 20.7969H19.2039C20.1038 20.7969 20.836 20.0648 20.836 19.1648Z" fill="#428DFF"/>
<path d="M4.03906 14.0001C4.03906 14.3237 4.30141 14.586 4.625 14.586H23.375C23.6986 14.586 23.9609 14.3237 23.9609 14.0001C23.9609 13.6765 23.6986 13.4141 23.375 13.4141H4.625C4.30141 13.4141 4.03906 13.6765 4.03906 14.0001Z" fill="#428DFF"/>
</svg>
