<svg width="16" height="15" viewBox="0 0 16 15" fill="none" xmlns="http://www.w3.org/2000/svg">
<path d="M1 7H12.86L9.23 2.64C9.06026 2.43578 8.9786 2.1725 9.00298 1.90808C9.02736 1.64365 9.15578 1.39974 9.36 1.23C9.56422 1.06026 9.8275 0.978601 10.0919 1.00298C10.3563 1.02736 10.6003 1.15578 10.77 1.36L15.77 7.36C15.8036 7.40772 15.8337 7.45786 15.86 7.51C15.86 7.56 15.86 7.59 15.93 7.64C15.9753 7.75466 15.9991 7.87671 16 8C15.9991 8.12329 15.9753 8.24534 15.93 8.36C15.93 8.41 15.93 8.44 15.86 8.49C15.8337 8.54214 15.8036 8.59228 15.77 8.64L10.77 14.64C10.676 14.7529 10.5582 14.8437 10.4252 14.9059C10.2921 14.9681 10.1469 15.0002 10 15C9.76635 15.0005 9.53991 14.9191 9.36 14.77C9.25874 14.6861 9.17504 14.583 9.11369 14.4666C9.05234 14.3503 9.01454 14.2229 9.00246 14.092C8.99039 13.961 9.00427 13.8289 9.04331 13.7033C9.08236 13.5777 9.1458 13.4611 9.23 13.36L12.86 9H1C0.734783 9 0.480429 8.89464 0.292892 8.70711C0.105356 8.51957 0 8.26522 0 8C0 7.73478 0.105356 7.48043 0.292892 7.29289C0.480429 7.10536 0.734783 7 1 7Z" fill="white"/>
</svg>
