<svg width="28" height="28" viewBox="0 0 28 28" fill="none" xmlns="http://www.w3.org/2000/svg">
<path d="M22.0313 19.6093L15.6753 18.2467L14.0607 16.0067C14.8258 15.5513 15.4713 14.92 15.9437 14.1652C16.416 13.4104 16.7016 12.5539 16.7767 11.6667H17.2667C17.6376 11.6656 17.9931 11.5177 18.2554 11.2554C18.5177 10.9931 18.6656 10.6376 18.6667 10.2667V9.33333C18.6656 8.96237 18.5177 8.60692 18.2554 8.34461C17.9931 8.0823 17.6376 7.93444 17.2667 7.93333H16.8V6.74333C17.3727 6.36161 17.8425 5.84475 18.1681 5.2384C18.4936 4.63206 18.6649 3.95488 18.6667 3.26667V0.466667C18.6667 0.342899 18.6175 0.2242 18.53 0.136683C18.4425 0.0491665 18.3238 0 18.2 0H7.93333C6.81996 0.00172789 5.75267 0.444781 4.9654 1.23206C4.17812 2.01934 3.73506 3.08662 3.73334 4.2V5.13333C3.73471 5.67084 3.921 6.19151 4.26091 6.6079C4.60082 7.02429 5.07365 7.31104 5.6 7.42V7.93333H5.13334C4.76237 7.93444 4.40692 8.0823 4.14461 8.34461C3.8823 8.60692 3.73444 8.96237 3.73334 9.33333V10.2667C3.73444 10.6376 3.8823 10.9931 4.14461 11.2554C4.40692 11.5177 4.76237 11.6656 5.13334 11.6667H5.62334C5.69841 12.5539 5.98397 13.4104 6.45632 14.1652C6.92867 14.92 7.5742 15.5513 8.33934 16.0067L6.72467 18.2467L0.368668 19.6093C0.264122 19.6318 0.170458 19.6895 0.103349 19.7727C0.0362395 19.856 -0.000244498 19.9597 1.23323e-06 20.0667V25.6667C0.000237294 25.7768 0.0391403 25.8834 0.109926 25.9679C0.180711 26.0523 0.278888 26.1092 0.387335 26.1287L11.1207 27.9953C11.1734 28.0016 11.2266 28.0016 11.2793 27.9953L22.0127 26.1287C22.1211 26.1092 22.2193 26.0523 22.2901 25.9679C22.3609 25.8834 22.3998 25.7768 22.4 25.6667V20.0667C22.4002 19.9597 22.3638 19.856 22.2967 19.7727C22.2295 19.6895 22.1359 19.6318 22.0313 19.6093ZM5.6 10.7333H5.13334C5.00957 10.7333 4.89087 10.6842 4.80335 10.5967C4.71584 10.5091 4.66667 10.3904 4.66667 10.2667V9.33333C4.66667 9.20957 4.71584 9.09087 4.80335 9.00335C4.89087 8.91583 5.00957 8.86667 5.13334 8.86667H5.6V10.7333ZM17.2667 8.86667C17.3904 8.86667 17.5091 8.91583 17.5967 9.00335C17.6842 9.09087 17.7333 9.20957 17.7333 9.33333V10.2667C17.7333 10.3904 17.6842 10.5091 17.5967 10.5967C17.5091 10.6842 17.3904 10.7333 17.2667 10.7333H16.8V8.86667H17.2667ZM5.6 6.06667V6.44933C5.32805 6.35247 5.09256 6.17417 4.92555 5.9387C4.75855 5.70322 4.66816 5.42201 4.66667 5.13333V4.2C4.66766 3.33393 5.01214 2.50361 5.62454 1.89121C6.23695 1.2788 7.06726 0.934321 7.93333 0.933333H17.7333V3.26667C17.7326 3.7291 17.6331 4.18603 17.4415 4.60693C17.25 5.02783 16.9708 5.40299 16.6227 5.70733C16.5746 5.66375 16.5171 5.63182 16.4547 5.614L9.45467 3.74733C9.33492 3.71552 9.20745 3.7323 9.1 3.794L5.83333 5.66067C5.76212 5.70178 5.70303 5.76099 5.66206 5.83228C5.62108 5.90358 5.59968 5.98444 5.6 6.06667ZM6.53334 11.2V6.33733L9.39867 4.69933L15.8667 6.426V11.2C15.8667 12.4377 15.375 13.6247 14.4998 14.4998C13.6247 15.375 12.4377 15.8667 11.2 15.8667C9.96232 15.8667 8.77534 15.375 7.90017 14.4998C7.025 13.6247 6.53334 12.4377 6.53334 11.2ZM9.18867 16.422C10.4822 16.926 11.9178 16.926 13.2113 16.422L14.6487 18.424L11.2 19.5767L7.75134 18.424L9.18867 16.422ZM6.53334 26.25L3.73334 25.76V23.8H6.53334V26.25ZM18.6667 25.76L15.8667 26.25V23.8H18.6667V25.76ZM21.4667 25.2747L19.6 25.5967V23.3333C19.6 23.2096 19.5508 23.0909 19.4633 23.0033C19.3758 22.9158 19.2571 22.8667 19.1333 22.8667H15.4C15.2762 22.8667 15.1575 22.9158 15.07 23.0033C14.9825 23.0909 14.9333 23.2096 14.9333 23.3333V26.4087L11.2 27.062L7.46667 26.4087V23.3333C7.46667 23.2096 7.4175 23.0909 7.32999 23.0033C7.24247 22.9158 7.12377 22.8667 7 22.8667H3.26667C3.1429 22.8667 3.0242 22.9158 2.93669 23.0033C2.84917 23.0909 2.8 23.2096 2.8 23.3333V25.5967L0.933335 25.2747V20.4447L6.972 19.1473L11.0507 20.51C11.1478 20.5411 11.2522 20.5411 11.3493 20.51L15.428 19.1473L21.4667 20.4447V25.2747Z" fill="#132968"/>
<path d="M15.1923 8.78825L14.6743 8.01172C14.3366 8.23744 13.9395 8.35792 13.5333 8.35792C13.1271 8.35792 12.73 8.23744 12.3923 8.01172L11.8743 8.78825C12.3654 9.1163 12.9427 9.29139 13.5333 9.29139C14.1239 9.29139 14.7012 9.1163 15.1923 8.78825Z" fill="#132968"/>
<path d="M7.72564 8.01172L7.20764 8.78825C7.69873 9.1163 8.27606 9.29139 8.86664 9.29139C9.45722 9.29139 10.0345 9.1163 10.5256 8.78825L10.0076 8.01172C9.66992 8.23744 9.27284 8.35792 8.86664 8.35792C8.46043 8.35792 8.06336 8.23744 7.72564 8.01172Z" fill="#132968"/>
<path d="M25.9966 6.86325C26.0618 6.79799 26.1062 6.71484 26.1242 6.62433C26.1422 6.53382 26.133 6.44001 26.0977 6.35475C26.0624 6.26949 26.0026 6.19661 25.9258 6.14533C25.8491 6.09405 25.7589 6.06667 25.6666 6.06665H22.4V6.99998H24.5401L22.5367 9.00338C22.4715 9.06865 22.427 9.15179 22.409 9.2423C22.391 9.33281 22.4003 9.42663 22.4356 9.51189C22.4709 9.59715 22.5307 9.67003 22.6074 9.7213C22.6841 9.77258 22.7743 9.79996 22.8666 9.79998H26.1333V8.86665H23.9932L25.9966 6.86325Z" fill="#132968"/>
<path d="M22.2633 11.5299C22.3285 11.4647 22.373 11.3815 22.391 11.291C22.409 11.2005 22.3997 11.1067 22.3644 11.0214C22.3291 10.9362 22.2693 10.8633 22.1926 10.812C22.1159 10.7607 22.0257 10.7334 21.9334 10.7333H19.6V11.6667H20.8068L19.7368 12.7367C19.6715 12.802 19.6271 12.8851 19.6091 12.9757C19.5911 13.0662 19.6003 13.16 19.6357 13.2452C19.671 13.3305 19.7308 13.4034 19.8075 13.4547C19.8842 13.5059 19.9744 13.5333 20.0667 13.5333H22.4V12.6H21.1932L22.2633 11.5299Z" fill="#132968"/>
<path d="M24.9266 3.73333L27.8633 0.7966C27.9285 0.731336 27.973 0.648193 27.991 0.557682C28.009 0.46717 27.9997 0.373354 27.9644 0.288095C27.9291 0.202835 27.8693 0.129959 27.7926 0.0786793C27.7159 0.0273999 27.6257 1.97047e-05 27.5334 0H23.3334V0.933333H26.4068L23.4701 3.87007C23.4049 3.93533 23.3604 4.01847 23.3424 4.10899C23.3244 4.1995 23.3337 4.29331 23.369 4.37857C23.4043 4.46383 23.4641 4.53671 23.5408 4.58799C23.6176 4.63927 23.7078 4.66665 23.8 4.66667H28V3.73333H24.9266Z" fill="#132968"/>
<path d="M1.8667 6.06665H2.80003V6.99998H1.8667V6.06665Z" fill="#132968"/>
<path d="M0.933289 7H1.86662V7.93332H0.933289V7Z" fill="#132968"/>
<path d="M2.79999 7H3.73332V7.93332H2.79999V7Z" fill="#132968"/>
<path d="M1.8667 7.93332H2.80003V8.86666H1.8667V7.93332Z" fill="#132968"/>
<path d="M0.933289 2.33331H1.86662V3.26665H0.933289V2.33331Z" fill="#132968"/>
<path d="M0 3.26666H0.933333V4.2H0V3.26666Z" fill="#132968"/>
<path d="M1.8667 3.26666H2.80003V4.2H1.8667V3.26666Z" fill="#132968"/>
<path d="M0.933289 4.20001H1.86662V5.13335H0.933289V4.20001Z" fill="#132968"/>
<path d="M0.933289 9.79999H1.86662V10.7333H0.933289V9.79999Z" fill="#132968"/>
<path d="M0 10.7333H0.933333V11.6667H0V10.7333Z" fill="#132968"/>
<path d="M1.8667 10.7333H2.80003V11.6667H1.8667V10.7333Z" fill="#132968"/>
<path d="M0.933289 11.6667H1.86662V12.6H0.933289V11.6667Z" fill="#132968"/>
<path d="M19.6 6.06665H20.5334V6.99998H19.6V6.06665Z" fill="#132968"/>
<path d="M20.5333 7H21.4667V7.93332H20.5333V7Z" fill="#132968"/>
<path d="M18.6666 7H19.6V7.93332H18.6666V7Z" fill="#132968"/>
<path d="M19.6 7.93332H20.5334V8.86666H19.6V7.93332Z" fill="#132968"/>
<path d="M20.5333 2.33331H21.4667V3.26665H20.5333V2.33331Z" fill="#132968"/>
<path d="M21.4667 3.26666H22.4V4.2H21.4667V3.26666Z" fill="#132968"/>
<path d="M19.6 3.26666H20.5334V4.2H19.6V3.26666Z" fill="#132968"/>
<path d="M20.5333 4.20001H21.4667V5.13335H20.5333V4.20001Z" fill="#132968"/>
<path d="M10.7333 21.4667H11.6667V22.4H10.7333V21.4667Z" fill="#132968"/>
<path d="M10.7333 23.3333H11.6667V24.2666H10.7333V23.3333Z" fill="#132968"/>
<path d="M10.7333 25.2H11.6667V26.1334H10.7333V25.2Z" fill="#132968"/>
</svg>
