<svg width="24" height="25" viewBox="0 0 24 25" fill="none" xmlns="http://www.w3.org/2000/svg">
<path fill-rule="evenodd" clip-rule="evenodd" d="M12.0005 23.2405C5.92536 23.2405 1.00049 18.3157 1.00049 12.2405C1.00049 6.16541 5.92536 1.24054 12.0005 1.24054C18.0756 1.24054 23.0005 6.16541 23.0005 12.2405C23.0005 18.3157 18.0756 23.2405 12.0005 23.2405ZM12 21.24C16.9706 21.24 21 17.2105 21 12.24C21 7.26939 16.9706 3.23995 12 3.23995C7.02947 3.23995 3.00003 7.26939 3.00003 12.24C3.00003 17.2105 7.02947 21.24 12 21.24ZM15.2929 8.53286L9.99999 13.8258L7.7071 11.5329L6.29288 12.9471L9.99999 16.6542L16.7071 9.94707L15.2929 8.53286Z" fill="#4AD295"/>
</svg>
