<svg width="29" height="28" viewBox="0 0 29 28" fill="none" xmlns="http://www.w3.org/2000/svg">
<g clip-path="url(#clip0)">
<path d="M20.502 7.74811C20.502 6.43155 19.4557 5.36002 18.1494 5.31793V4.68945H21.342C22.6852 4.68945 23.7741 5.77829 23.7741 7.12155V11.7388C23.7741 11.8813 23.6587 11.9969 23.5162 11.9969C21.8515 11.9969 20.5018 10.6472 20.5018 8.98242V7.74811H20.502Z" fill="#A3C1F6"/>
<path d="M19.1423 6.28564H19.3549C19.7274 6.28564 20.0295 5.9838 20.0295 5.61124V4.69565C20.0295 4.32309 19.7274 4.02124 19.3549 4.02124H19.1423C18.77 4.02124 18.4679 4.3233 18.4679 4.69565V5.61124C18.4679 5.9838 18.77 6.28564 19.1423 6.28564Z" fill="white"/>
<path d="M8.04523 7.74811C8.04523 6.43155 9.09155 5.36002 10.3976 5.31793V4.68945H7.20505C5.86179 4.68945 4.77295 5.77829 4.77295 7.12155V11.7388C4.77295 11.8813 4.88852 11.9969 5.03101 11.9969C6.69577 11.9969 8.04523 10.6472 8.04523 8.98242V7.74811Z" fill="#A3C1F6"/>
<path d="M21.3422 4.68945H19.8549C21.1982 4.68945 22.287 5.77829 22.287 7.12155V11.7347C22.6626 11.9026 23.0783 11.9969 23.5162 11.9969C23.6587 11.9969 23.7743 11.8813 23.7743 11.7388V7.12155C23.7741 5.77829 22.6852 4.68945 21.3422 4.68945Z" fill="#7FABF9"/>
<path d="M8.91061 5.31793C7.60431 5.36002 6.55798 6.43155 6.55798 7.74811V8.98242C6.55798 10.2093 5.82483 11.2641 4.77295 11.7345V11.7388C4.77295 11.8813 4.88852 11.9966 5.03101 11.9966C6.69556 11.9966 8.04523 10.6472 8.04523 8.98242V7.74789C8.04523 6.43155 9.09155 5.36002 10.3976 5.31793H8.91061Z" fill="#7FABF9"/>
<path d="M9.40473 6.28564H9.19217C8.81961 6.28564 8.51776 5.9838 8.51776 5.61124V4.69565C8.51776 4.32309 8.81982 4.02124 9.19217 4.02124H9.40473C9.77728 4.02124 10.0791 4.3233 10.0791 4.69565V5.61124C10.0793 5.9838 9.77728 6.28564 9.40473 6.28564Z" fill="white"/>
<path d="M19.705 8.1275H19.602V7.29736C19.602 4.70419 17.4998 2.60193 14.9066 2.60193H13.655C11.0616 2.60193 8.95953 4.70419 8.95953 7.29736V8.1275H8.72818C8.1734 8.1275 7.72372 8.57739 7.72372 9.13217V9.59552C7.72372 10.3663 8.34857 10.9913 9.11954 10.9913C9.18085 10.9913 9.24045 10.9849 9.29855 10.9745C9.99304 12.6997 11.6813 13.918 13.655 13.918H14.9066C16.8785 13.918 18.5655 12.7016 19.2613 10.9787C19.3126 10.9862 19.3645 10.9913 19.4179 10.9913C20.179 10.9913 20.796 10.3742 20.796 9.61304V9.21848C20.796 8.61606 20.3076 8.1275 19.705 8.1275Z" fill="white"/>
<path d="M19.3208 8.37125H19.2341V7.5643C19.2341 5.04355 17.4651 3 15.283 3H14.2298C12.0475 3 10.2787 5.04355 10.2787 7.5643V8.37125H10.084C9.61719 8.37125 9.2388 8.80858 9.2388 9.34786V9.79827C9.2388 10.5475 9.7646 11.1551 10.4133 11.1551C10.4649 11.1551 10.5151 11.1489 10.564 11.1387C11.1484 12.8157 12.569 14 14.2298 14H15.283C16.9424 14 18.3619 12.8176 18.9474 11.1428C18.9906 11.1501 19.0342 11.1551 19.0792 11.1551C19.7197 11.1551 20.2388 10.5552 20.2388 9.8153V9.43176C20.2388 8.84616 19.8279 8.37125 19.3208 8.37125Z" fill="#E7ECFB"/>
<path d="M19.705 8.1275H19.602V7.29736C19.602 4.70419 17.4998 2.60193 14.9066 2.60193H13.655C13.6334 2.60193 13.612 2.60321 13.5907 2.60364C16.1541 2.63803 18.2218 4.72577 18.2218 7.29736V9.22253C18.2218 11.7941 16.1541 13.8819 13.5907 13.9165C13.612 13.9167 13.6334 13.918 13.655 13.918H14.9066C16.8785 13.918 18.5655 12.7018 19.2611 10.9787C19.3123 10.9862 19.3645 10.9913 19.4179 10.9913C20.179 10.9913 20.796 10.3744 20.796 9.61325V9.21848C20.796 8.61606 20.3076 8.1275 19.705 8.1275Z" fill="#E7ECFB"/>
<path d="M12.7387 6.03036H15.8228C17.3727 6.03036 18.7469 6.78189 19.602 7.93994V7.29736C19.602 4.70419 17.4998 2.60193 14.9066 2.60193H13.655C11.0616 2.60193 8.95953 4.70419 8.95953 7.29736V7.93994C9.81445 6.78189 11.1887 6.03036 12.7387 6.03036Z" fill="#A3C1F6"/>
<path d="M14.9066 2.60193H13.655C13.4821 2.60193 13.3119 2.61197 13.144 2.63013C15.1426 2.84653 16.764 4.31668 17.2073 6.23801C18.1772 6.53708 19.0128 7.14185 19.602 7.93994V7.29736C19.602 4.70419 17.4998 2.60193 14.9066 2.60193Z" fill="#7FABF9"/>
<path d="M14.2806 12.3338C15.3511 12.3338 16.2325 11.5244 16.3461 10.4842C16.3594 10.3625 16.2641 10.2559 16.1417 10.2559H12.4195C12.2971 10.2559 12.2019 10.3625 12.2151 10.4842C12.3287 11.5244 13.2102 12.3338 14.2806 12.3338Z" fill="white"/>
<path d="M26.7332 19.6503H26.6302V18.8202C26.6302 16.227 24.528 14.1248 21.9348 14.1248H20.6832C18.09 14.1248 15.9877 16.227 15.9877 18.8202V19.6503H15.7566C15.2016 19.6503 14.7519 20.1002 14.7519 20.655V21.1181C14.7519 21.8891 15.377 22.5142 16.1477 22.5142C16.209 22.5142 16.2686 22.5078 16.327 22.4973C17.0215 24.2225 18.7095 25.4408 20.6832 25.4408H21.9348C23.907 25.4408 25.5939 24.2244 26.2895 22.5016C26.3408 22.5088 26.3929 22.5139 26.4463 22.5139C27.2074 22.5139 27.8244 21.897 27.8244 21.1359V20.7413C27.8244 20.1389 27.3358 19.6503 26.7332 19.6503Z" fill="white"/>
<path d="M26.3206 19.3713H26.234V18.5643C26.234 16.0436 24.465 14 22.2829 14H21.2297C19.0477 14 17.2787 16.0436 17.2787 18.5643V19.3713H17.0842C16.6172 19.3713 16.2388 19.8086 16.2388 20.3479V20.7981C16.2388 21.5475 16.7648 22.1551 17.4133 22.1551C17.4649 22.1551 17.5151 22.1489 17.5641 22.1387C18.1485 23.8157 19.569 25 21.2297 25H22.2829C23.9424 25 25.362 23.8176 25.9473 22.1428C25.9904 22.1499 26.0343 22.1549 26.0792 22.1549C26.7197 22.1549 27.2388 21.5552 27.2388 20.8153V20.4318C27.2388 19.8462 26.8277 19.3713 26.3206 19.3713Z" fill="#E7ECFB"/>
<path d="M26.7332 19.6503H26.6302V18.8202C26.6302 16.227 24.528 14.1248 21.9348 14.1248H20.6832C20.6616 14.1248 20.6404 14.126 20.6189 14.1263C23.1823 14.1609 25.2502 16.2484 25.2502 18.8202V20.7454C25.2502 23.317 23.1823 25.4045 20.6189 25.4391C20.6404 25.4395 20.6616 25.4408 20.6832 25.4408H21.9348C23.9067 25.4408 25.5939 24.2244 26.2895 22.5016C26.3408 22.509 26.3927 22.5142 26.4461 22.5142C27.2072 22.5142 27.8244 21.897 27.8244 21.1359V20.7413C27.8244 20.1389 27.3358 19.6503 26.7332 19.6503Z" fill="#C9D8FB"/>
<path d="M19.7669 17.5532H22.851C24.4011 17.5532 25.7751 18.3047 26.6302 19.4628V18.8202C26.6302 16.227 24.528 14.1248 21.9348 14.1248H20.6832C18.09 14.1248 15.9877 16.227 15.9877 18.8202V19.4628C16.8429 18.3047 18.2169 17.5532 19.7669 17.5532Z" fill="#A3C1F6"/>
<path d="M21.3088 23.8566C22.3793 23.8566 23.2607 23.0472 23.3744 22.0068C23.3876 21.8853 23.2923 21.7787 23.1699 21.7787H19.4477C19.3253 21.7787 19.2301 21.8853 19.2435 22.0068C19.3572 23.0472 20.2386 23.8566 21.3088 23.8566Z" fill="white"/>
<path d="M12.6347 19.6503H12.5317V18.8202C12.5317 16.227 10.4295 14.1248 7.8363 14.1248H6.58469C3.99152 14.1248 1.88925 16.227 1.88925 18.8202V19.6503H1.65811C1.10312 19.6503 0.653442 20.1002 0.653442 20.655V21.1181C0.653442 21.8891 1.2785 22.5142 2.04926 22.5142C2.11057 22.5142 2.17017 22.5078 2.22849 22.4973C2.92276 24.2225 4.61102 25.4408 6.58469 25.4408H7.8363C9.80847 25.4408 11.4955 24.2244 12.191 22.5016C12.2423 22.5088 12.2944 22.5139 12.3478 22.5139C13.1089 22.5139 13.7259 21.897 13.7259 21.1359V20.7413C13.7257 20.1389 13.2373 19.6503 12.6347 19.6503Z" fill="white"/>
<path d="M12.3206 19.3713H12.234V18.5643C12.234 16.0436 10.465 14 8.28292 14H7.22973C5.04767 14 3.27869 16.0436 3.27869 18.5643V19.3713H3.08419C2.61719 19.3713 2.2388 19.8086 2.2388 20.3479V20.7981C2.2388 21.5475 2.76477 22.1551 3.41333 22.1551C3.46492 22.1551 3.51507 22.1489 3.56414 22.1387C4.14835 23.8157 5.56896 25 7.22973 25H8.28292C9.94243 25 11.362 23.8176 11.9473 22.1428C11.9904 22.1499 12.0343 22.1549 12.0792 22.1549C12.7197 22.1549 13.2388 21.5552 13.2388 20.8153V20.4318C13.2386 19.8462 12.8277 19.3713 12.3206 19.3713Z" fill="#E7ECFB"/>
<path d="M12.6347 19.6503H12.5317V18.8202C12.5317 16.227 10.4295 14.1248 7.8363 14.1248H6.58469C6.56311 14.1248 6.54196 14.126 6.52039 14.1263C9.08386 14.1609 11.1517 16.2484 11.1517 18.8202V20.7454C11.1517 23.317 9.08386 25.4045 6.52039 25.4391C6.54196 25.4395 6.56311 25.4408 6.58469 25.4408H7.8363C9.80826 25.4408 11.4955 24.2244 12.191 22.5016C12.2423 22.509 12.2942 22.5142 12.3476 22.5142C13.1087 22.5142 13.7257 21.897 13.7257 21.1359V20.7413C13.7257 20.1389 13.2373 19.6503 12.6347 19.6503Z" fill="#C9D8FB"/>
<path d="M5.66846 17.5532H8.75253C10.3026 17.5532 11.6766 18.3047 12.5317 19.4628V18.8202C12.5317 16.227 10.4295 14.1248 7.8363 14.1248H6.58469C3.99152 14.1248 1.88925 16.227 1.88925 18.8202V19.4628C2.74438 18.3047 4.11841 17.5532 5.66846 17.5532Z" fill="#A3C1F6"/>
<path d="M21.9348 14.1248H20.6832C20.5255 14.1248 20.3698 14.1329 20.2162 14.1478C22.2456 14.3484 23.8941 15.841 24.3304 17.7916C25.2596 18.1001 26.0603 18.6907 26.6302 19.4626V18.8202C26.6302 16.227 24.528 14.1248 21.9348 14.1248Z" fill="#7FABF9"/>
<path d="M7.8363 14.1248H6.58469C6.42703 14.1248 6.2713 14.1329 6.11771 14.1478C8.14713 14.3484 9.79565 15.841 10.2319 17.7916C11.1611 18.1001 11.9618 18.6907 12.5317 19.4626V18.8202C12.5317 16.227 10.4295 14.1248 7.8363 14.1248Z" fill="#7FABF9"/>
<path d="M5.83038 20.286C5.83038 20.6268 5.55417 20.9028 5.21365 20.9028C4.87292 20.9028 4.59671 20.6268 4.59671 20.286C4.59671 19.9455 4.87292 19.6693 5.21365 19.6693C5.55417 19.6693 5.83038 19.9455 5.83038 20.286Z" fill="#7FABF9"/>
<path d="M9.82407 20.286C9.82407 20.6268 9.54807 20.9028 9.20734 20.9028C8.86682 20.9028 8.59061 20.6268 8.59061 20.286C8.59061 19.9455 8.86682 19.6693 9.20734 19.6693C9.54807 19.6693 9.82407 19.9455 9.82407 20.286Z" fill="#7FABF9"/>
<path d="M7.21041 23.8566C8.28087 23.8566 9.16228 23.0472 9.27593 22.0068C9.28917 21.8853 9.1939 21.7787 9.07149 21.7787H5.34932C5.22691 21.7787 5.13185 21.8853 5.14509 22.0068C5.25874 23.0472 6.13994 23.8566 7.21041 23.8566Z" fill="white"/>
<path d="M27.0447 19.2683V18.8202C27.0447 16.0025 24.7525 13.7101 21.9348 13.7101H20.6832C17.8655 13.7101 15.5731 16.0025 15.5731 18.8202V19.2474C14.8769 19.3378 14.3373 19.9344 14.3373 20.655V21.1181C14.3373 22.0877 15.1034 22.8816 16.0621 22.9266C16.9042 24.7153 18.6869 25.8552 20.6832 25.8552H21.9348C23.9309 25.8552 25.7144 24.7147 26.5565 22.9254C27.4939 22.8681 28.2388 22.0875 28.2388 21.136V20.7413C28.2388 20.0179 27.7259 19.4121 27.0447 19.2683ZM20.6832 14.5392H21.9348C24.149 14.5392 25.9759 16.2291 26.1938 18.3869C25.2731 17.5925 24.0847 17.1385 22.851 17.1385H19.767C18.5333 17.1385 17.3449 17.5925 16.4242 18.3869C16.6419 16.2291 18.4688 14.5392 20.6832 14.5392ZM27.4098 21.136C27.4098 21.6673 26.9776 22.0995 26.4461 22.0995C26.4188 22.0995 26.3878 22.0969 26.3485 22.0914C26.1594 22.0636 25.9766 22.1693 25.905 22.3464C25.2477 23.9745 23.6893 25.0261 21.9348 25.0261H20.6832C18.9266 25.0261 17.3676 23.9727 16.7113 22.3426C16.6472 22.1834 16.4936 22.0826 16.327 22.0826C16.3026 22.0826 16.2779 22.0847 16.2533 22.0892C16.2148 22.0963 16.1805 22.0995 16.1478 22.0995C15.6067 22.0995 15.1664 21.6594 15.1664 21.1181V20.655C15.1664 20.3296 15.4311 20.0649 15.7564 20.0649H15.9875C16.2166 20.0649 16.4022 19.8793 16.4022 19.6503V19.6027C17.2112 18.5766 18.4587 17.9678 19.767 17.9678H22.8508C24.1591 17.9678 25.4066 18.5766 26.2156 19.6027V19.6503C26.2156 19.8793 26.4012 20.0649 26.6302 20.0649H26.7332C27.1062 20.0649 27.4098 20.3683 27.4098 20.7413V21.136Z" fill="#428DFF"/>
<path d="M12.9464 19.2681V18.8202C12.9464 16.0025 10.654 13.7101 7.8363 13.7101H6.58469C3.767 13.7101 1.47461 16.0025 1.47461 18.8202V19.2476C0.778412 19.3378 0.2388 19.9346 0.2388 20.655V21.1181C0.2388 22.0877 1.00485 22.8818 1.96359 22.9266C2.80569 24.7155 4.58838 25.8554 6.58469 25.8554H7.8363C9.83261 25.8554 11.6159 24.7147 12.458 22.9254C13.3952 22.8681 14.1403 22.0873 14.1403 21.136V20.7413C14.1403 20.0179 13.6274 19.4121 12.9464 19.2681ZM13.3112 21.136C13.3112 21.6673 12.8789 22.0995 12.3476 22.0995C12.3203 22.0995 12.2893 22.0969 12.25 22.0914C12.0613 22.0636 11.8778 22.1693 11.8065 22.3464C11.1492 23.9745 9.59079 25.0261 7.83609 25.0261H6.58447C4.82806 25.0261 3.26904 23.9727 2.61279 22.3426C2.54871 22.1834 2.39511 22.0826 2.22849 22.0826C2.20413 22.0826 2.17957 22.0847 2.15479 22.0892C2.11633 22.0963 2.08173 22.0995 2.04926 22.0995C1.50815 22.0995 1.06787 21.6594 1.06787 21.1181V20.655C1.06787 20.3296 1.33255 20.0649 1.6579 20.0649H1.88904C2.11804 20.0649 2.30368 19.8793 2.30368 19.6503V19.6027C3.11267 18.5766 4.36023 17.9678 5.66846 17.9678C5.66846 17.9678 7.81567 17.9678 8.47558 17.9678C9.13548 17.9678 9.11659 17.1385 8.47558 17.1385C7.83456 17.1385 5.66846 17.1385 5.66846 17.1385C4.43478 17.1385 3.2464 17.5925 2.32547 18.3869C2.54337 16.2291 4.37027 14.5392 6.58469 14.5392H7.8363C10.0499 14.5392 11.8763 16.2281 12.0951 18.3848C11.9041 18.2195 11.7012 18.0676 11.4861 17.9308C11.2927 17.8082 11.0366 17.8655 10.9138 18.0588C10.7911 18.2521 10.8484 18.5083 11.0417 18.6309C11.4547 18.893 11.8152 19.2205 12.1171 19.6042V19.6503C12.1171 19.8793 12.3027 20.0647 12.5317 20.0647H12.6347C13.0077 20.0647 13.3112 20.3683 13.3112 20.7413V21.136Z" fill="#428DFF"/>
<path d="M5.03104 12.4113C6.18994 12.4113 7.24246 11.8377 7.87115 10.9055C8.17685 11.1971 8.58423 11.3829 9.03369 11.4041C9.87601 13.1927 11.6587 14.3326 13.655 14.3326H14.9066C16.9027 14.3326 18.6862 13.1921 19.5284 11.4028C19.9708 11.3756 20.3702 11.1872 20.6689 10.8958C21.2961 11.8345 22.3499 12.4113 23.5163 12.4113C23.8871 12.4113 24.1888 12.1096 24.1888 11.7388V7.12155C24.1888 5.55185 22.9119 4.27502 21.3422 4.27502H20.3568C20.1897 3.8826 19.8003 3.60681 19.3476 3.60681H19.1496C18.9509 3.60681 18.7585 3.66214 18.5916 3.76105C17.6609 2.79184 16.3531 2.1875 14.9066 2.1875H13.655C12.2058 2.1875 10.8958 2.79398 9.96487 3.76617C9.79633 3.66406 9.60065 3.60681 9.39749 3.60681H9.19968C8.74701 3.60681 8.35757 3.8826 8.19052 4.27502H7.20508C5.63559 4.27502 4.35855 5.55206 4.35855 7.12155V11.7388C4.35834 12.1096 4.66019 12.4113 5.03104 12.4113ZM19.4179 10.5769C19.3906 10.5769 19.3596 10.5741 19.3203 10.5686C19.1312 10.5408 18.9482 10.6468 18.8768 10.8236C18.2195 12.4517 16.6611 13.5035 14.9064 13.5035H13.6548C11.8984 13.5035 10.3394 12.4502 9.68311 10.8198C9.61902 10.6606 9.46542 10.56 9.2988 10.56C9.27444 10.56 9.24966 10.5622 9.2251 10.5664C9.18665 10.5735 9.15204 10.5769 9.11957 10.5769C8.57825 10.5769 8.13818 10.1366 8.13818 9.59552V9.13217C8.13818 8.80682 8.40286 8.54214 8.72821 8.54214H8.95935C9.18835 8.54214 9.37399 8.35672 9.37399 8.1275V8.08008C10.1828 7.05383 11.4305 6.44501 12.7386 6.44501H15.8226C17.1309 6.44501 18.3784 7.05383 19.1874 8.08008V8.1275C19.1874 8.35651 19.373 8.54214 19.6021 8.54214H19.705C20.078 8.54214 20.3813 8.84549 20.3813 9.21869V9.61325C20.3816 10.1445 19.9492 10.5769 19.4179 10.5769ZM23.3597 7.12155V11.5775C22.3962 11.5209 21.5537 10.9439 21.1525 10.0655C21.1901 9.92087 21.2106 9.76941 21.2106 9.61325V9.21848C21.2106 8.88522 21.1006 8.57739 20.9165 8.32767C20.9165 8.32767 20.9118 7.55563 20.9022 7.46057C20.8795 7.23285 20.6759 7.06622 20.4484 7.08951C20.2207 7.11215 20.0545 7.31531 20.0771 7.54324C20.084 7.61075 20.0874 7.67975 20.0874 7.74789V7.7637C20.0639 7.75751 20.0406 7.75046 20.0167 7.74554V7.29736C20.0167 7.03098 19.996 6.76929 19.9567 6.51379C20.2525 6.31427 20.4442 5.97632 20.4442 5.60397V5.10388H21.3422C22.4546 5.10388 23.3597 6.009 23.3597 7.12155ZM19.1496 4.43588H19.3476C19.495 4.43588 19.6149 4.55573 19.6149 4.70291V5.31152C19.4843 5.00327 19.3243 4.71039 19.1387 4.43652C19.1423 4.43631 19.146 4.43588 19.1496 4.43588ZM13.655 3.01657H14.9066C17.1208 3.01657 18.9477 4.70633 19.1656 6.86414C18.2449 6.06989 17.0565 5.61594 15.8228 5.61594H12.7388C11.5049 5.61594 10.3165 6.06989 9.39578 6.86414C9.61368 4.70633 11.4406 3.01657 13.655 3.01657ZM9.19946 4.43588H9.39749C9.40582 4.43588 9.41394 4.43674 9.42206 4.43738C9.22958 4.72128 9.06531 5.0257 8.93243 5.34613V4.70291C8.93243 4.55573 9.05228 4.43588 9.19946 4.43588ZM5.18762 7.12155C5.18762 6.009 6.09253 5.10388 7.20508 5.10388H8.10336V5.60397C8.10336 5.98444 8.2999 6.32581 8.60345 6.52298C8.565 6.7757 8.54492 7.03418 8.54492 7.29736V7.72482C8.5163 7.72845 8.4881 7.73337 8.46011 7.73871C8.46033 7.67355 8.46353 7.6084 8.46994 7.54431C8.4928 7.31659 8.3266 7.11343 8.09888 7.09058C7.87115 7.06772 7.66779 7.23392 7.64493 7.46164C7.63553 7.55606 7.63062 8.23367 7.63062 8.23367C7.42981 8.47849 7.30911 8.79144 7.30911 9.13217V9.59552C7.30911 9.76941 7.33411 9.93753 7.38025 10.0969C6.97287 10.9567 6.13696 11.5213 5.18762 11.5775V7.12155Z" fill="#428DFF"/>
<path d="M12.9005 8.76321C12.9005 9.10394 12.6245 9.37994 12.2838 9.37994C11.9432 9.37994 11.667 9.10394 11.667 8.76321C11.667 8.4227 11.9432 8.14648 12.2838 8.14648C12.6245 8.14648 12.9005 8.4227 12.9005 8.76321Z" fill="#428DFF"/>
<path d="M16.8944 8.76321C16.8944 9.10394 16.6182 9.37994 16.2776 9.37994C15.9369 9.37994 15.6609 9.10394 15.6609 8.76321C15.6609 8.4227 15.9369 8.14648 16.2776 8.14648C16.6182 8.14648 16.8944 8.4227 16.8944 8.76321Z" fill="#428DFF"/>
<path d="M16.142 9.84143H12.4197C12.2438 9.84143 12.0757 9.91641 11.9582 10.0476C11.8405 10.1785 11.7841 10.3541 11.8033 10.5291C11.9416 11.7944 13.0067 12.7482 14.2807 12.7482C15.555 12.7482 16.6201 11.7944 16.7583 10.5291C16.7774 10.3541 16.721 10.1785 16.6035 10.0474C16.486 9.91641 16.3176 9.84143 16.142 9.84143ZM14.2807 11.9191C13.5102 11.9191 12.8542 11.3966 12.6694 10.6705H15.8923C15.7075 11.3966 15.0515 11.9191 14.2807 11.9191Z" fill="#428DFF"/>
<path d="M9.07173 21.364H5.34934C5.17353 21.364 5.00541 21.4392 4.88791 21.5702C4.77021 21.7013 4.71381 21.8769 4.73304 22.0519C4.87125 23.317 5.93638 24.271 7.21043 24.271C8.48469 24.271 9.54982 23.317 9.68803 22.0519C9.70704 21.8769 9.65065 21.7013 9.53315 21.5702C9.41566 21.4392 9.24754 21.364 9.07173 21.364ZM7.21043 23.4419C6.43989 23.4419 5.78385 22.9192 5.59906 22.1933H8.822C8.63722 22.9194 7.98118 23.4419 7.21043 23.4419Z" fill="#428DFF"/>
<path d="M23.1702 21.364H19.4478C19.272 21.364 19.1038 21.4392 18.9864 21.5702C18.8689 21.7013 18.8122 21.8769 18.8315 22.0519C18.9697 23.317 20.0346 24.271 21.3089 24.271C22.5831 24.271 23.6482 23.317 23.7865 22.0521C23.8057 21.8769 23.7493 21.7013 23.6318 21.5704C23.5141 21.4392 23.346 21.364 23.1702 21.364ZM21.3089 23.4419C20.5381 23.4419 19.8821 22.9192 19.6975 22.1933H22.9204C22.7356 22.9192 22.0796 23.4419 21.3089 23.4419Z" fill="#428DFF"/>
<path d="M19.9289 20.286C19.9289 20.6268 19.6527 20.9028 19.3122 20.9028C18.9714 20.9028 18.6952 20.6268 18.6952 20.286C18.6952 19.9455 18.9714 19.6693 19.3122 19.6693C19.6527 19.6693 19.9289 19.9455 19.9289 20.286Z" fill="#428DFF"/>
<path d="M23.9226 20.286C23.9226 20.6268 23.6466 20.9028 23.3058 20.9028C22.9651 20.9028 22.6891 20.6268 22.6891 20.286C22.6891 19.9455 22.9651 19.6693 23.3058 19.6693C23.6466 19.6693 23.9226 19.9455 23.9226 20.286Z" fill="#428DFF"/>
<path d="M5.83038 20.286C5.83038 20.6268 5.55417 20.9028 5.21365 20.9028C4.87292 20.9028 4.59671 20.6268 4.59671 20.286C4.59671 19.9455 4.87292 19.6693 5.21365 19.6693C5.55417 19.6693 5.83038 19.9455 5.83038 20.286Z" fill="#428DFF"/>
<path d="M9.82407 20.286C9.82407 20.6268 9.54807 20.9028 9.20734 20.9028C8.86682 20.9028 8.59061 20.6268 8.59061 20.286C8.59061 19.9455 8.86682 19.6693 9.20734 19.6693C9.54807 19.6693 9.82407 19.9455 9.82407 20.286Z" fill="#428DFF"/>
<circle cx="9.99124" cy="17.8483" r="0.5" fill="#428DFF"/>
</g>
<defs>
<clipPath id="clip0">
<rect width="28" height="28" fill="white" transform="translate(0.2388)"/>
</clipPath>
</defs>
</svg>
