<svg width="117" height="117" viewBox="0 0 117 117" fill="none" xmlns="http://www.w3.org/2000/svg">
<path d="M36.411 5.33891C32.1186 1.92982 26.7268 0.209836 21.2532 0.503576C15.7796 0.797317 10.6028 3.08446 6.69991 6.93335C2.82922 10.8297 0.536766 16.0202 0.263934 21.5055C-0.0088978 26.9909 1.75718 32.3833 5.22214 36.6445C11.462 22.7613 22.5512 11.6305 36.411 5.33891Z" fill="white"/>
<path d="M65.3446 28.9444C65.3446 28.0161 64.9759 27.1259 64.3195 26.4695C63.6631 25.8131 62.7729 25.4444 61.8446 25.4444C60.9163 25.4444 60.0261 25.8131 59.3697 26.4695C58.7134 27.1259 58.3446 28.0161 58.3446 28.9444V63.9444L85.8002 77.5555C86.6356 77.9629 87.5986 78.0217 88.4775 77.7191C89.3563 77.4164 90.0789 76.777 90.4863 75.9416C90.8937 75.1062 90.9525 74.1431 90.6498 73.2643C90.3472 72.3855 89.7078 71.6629 88.8724 71.2555L65.3057 59.5888L65.3446 28.9444Z" fill="white"/>
<path d="M100.889 100.033C108.012 92.8174 112.961 83.7422 115.168 73.8458C117.376 63.9494 116.754 53.6315 113.372 44.0722C110.663 44.5514 107.896 44.617 105.167 44.2667C109.265 54.2426 109.781 65.3301 106.628 75.6437C103.475 85.9574 96.8467 94.8605 87.8706 100.839C78.8946 106.818 68.1248 109.503 57.3926 108.438C46.6604 107.373 36.6283 102.624 29.0022 94.9979C21.3762 87.3718 16.6269 77.3397 15.562 66.6075C14.497 55.8753 17.1822 45.1056 23.1609 36.1295C29.1396 27.1535 38.0428 20.5253 48.3564 17.3721C58.6701 14.2188 69.7575 14.7352 79.7334 18.8334C79.5859 17.6724 79.508 16.5036 79.5001 15.3334C79.5156 13.7559 79.6586 12.1822 79.9279 10.6278C68.3098 6.6333 55.6822 6.68568 44.0977 10.7764C32.5131 14.8671 22.6526 22.7557 16.119 33.16C9.58541 43.5642 6.76275 55.8724 8.10986 68.0839C9.45696 80.2954 14.8946 91.6924 23.539 100.422L13.6223 110.339C12.8952 111.082 12.4928 112.083 12.5038 113.122C12.5147 114.161 12.9381 115.153 13.6807 115.881C14.4233 116.608 15.4243 117.01 16.4636 116.999C17.5029 116.988 18.4952 116.565 19.2223 115.822L29.5668 105.478C39.0266 112.636 50.5787 116.484 62.4416 116.428C74.3046 116.372 85.8197 112.415 95.2112 105.167L105.867 115.822C106.611 116.459 107.568 116.792 108.546 116.754C109.525 116.717 110.454 116.311 111.146 115.618C111.839 114.926 112.245 113.997 112.282 113.019C112.32 112.04 111.987 111.083 111.35 110.339L100.889 100.033Z" fill="white"/>
</svg>
