<svg width="24" height="25" viewBox="0 0 24 25" fill="none" xmlns="http://www.w3.org/2000/svg">
<path fill-rule="evenodd" clip-rule="evenodd" d="M12 4.23987C14.7276 4.23987 17.3357 5.67049 19.7663 8.02102C20.5955 8.82291 21.3457 9.67902 22.0061 10.5355C22.4046 11.0523 22.6875 11.4589 22.8425 11.7011L23.1871 12.2399L22.8425 12.7787C22.6875 13.0209 22.4046 13.4274 22.0061 13.9442C21.3457 14.8007 20.5955 15.6568 19.7663 16.4587C17.3357 18.8092 14.7276 20.2399 12 20.2399C9.27247 20.2399 6.66434 18.8092 4.23373 16.4587C3.40451 15.6568 2.65433 14.8007 1.99393 13.9442C1.59543 13.4274 1.3125 13.0209 1.15759 12.7787L0.812988 12.2399L1.15759 11.7011C1.3125 11.4589 1.59543 11.0523 1.99393 10.5355C2.65433 9.67902 3.40451 8.82291 4.23373 8.02102C6.66434 5.67049 9.27247 4.23987 12 4.23987ZM20.4223 11.7567C19.8177 10.9726 19.1302 10.1881 18.376 9.45872C16.2826 7.43425 14.1051 6.23987 12.0001 6.23987C9.89498 6.23987 7.71755 7.43425 5.6241 9.45872C4.8699 10.1881 4.18245 10.9726 3.57781 11.7567C3.44722 11.9261 3.32655 12.0877 3.21622 12.2399C3.32655 12.392 3.44722 12.5536 3.57781 12.723C4.18245 13.5072 4.8699 14.2917 5.6241 15.021C7.71755 17.0455 9.89498 18.2399 12.0001 18.2399C14.1051 18.2399 16.2826 17.0455 18.376 15.021C19.1302 14.2917 19.8177 13.5072 20.4223 12.723C20.5529 12.5536 20.6736 12.392 20.7839 12.2399C20.6736 12.0877 20.5529 11.9261 20.4223 11.7567ZM8 12.2399C8 14.449 9.79086 16.2399 12 16.2399C14.2091 16.2399 16 14.449 16 12.2399C16 10.0307 14.2091 8.23986 12 8.23986C9.79086 8.23986 8 10.0307 8 12.2399ZM14 12.2399C14 13.3445 13.1046 14.2399 12 14.2399C10.8955 14.2399 10 13.3445 10 12.2399C10 11.1353 10.8955 10.2399 12 10.2399C13.1046 10.2399 14 11.1353 14 12.2399Z" fill="#132968"/>
</svg>
