<svg width="24" height="25" viewBox="0 0 24 25" fill="none" xmlns="http://www.w3.org/2000/svg">
<g clip-path="url(#clip0)">
<path d="M12 24.3066C18.6274 24.3066 24 18.934 24 12.3066C24 5.67916 18.6274 0.30658 12 0.30658C5.37258 0.30658 0 5.67916 0 12.3066C0 18.934 5.37258 24.3066 12 24.3066Z" fill="#3B5998"/>
<path d="M14.5306 12.5445H12.8213V18.8066H10.2316V12.5445H8.99988V10.3438H10.2316V8.91969C10.2316 7.90129 10.7153 6.30658 12.8443 6.30658L14.7626 6.31461V8.45079H13.3708C13.1425 8.45079 12.8214 8.56485 12.8214 9.05066V10.3459H14.7568L14.5306 12.5445Z" fill="white"/>
</g>
<defs>
<clipPath id="clip0">
<rect width="24" height="24" fill="white" transform="translate(0 0.30658)"/>
</clipPath>
</defs>
</svg>
