<svg width="29" height="28" viewBox="0 0 29 28" fill="none" xmlns="http://www.w3.org/2000/svg">
<g clip-path="url(#clip0)">
<path d="M11.6177 14.9567C11.8442 14.9567 12.0279 14.7731 12.0279 14.5466V3.29254C12.0279 1.92937 13.1369 0.820332 14.5001 0.820332C15.8632 0.820332 16.9723 1.92937 16.9723 3.29254V4.94414C16.9723 5.17066 17.1559 5.35431 17.3825 5.35431C17.6091 5.35431 17.7926 5.17066 17.7926 4.94414V3.29254C17.7926 1.47703 16.3156 0 14.5001 0C12.6846 0 11.2075 1.47703 11.2075 3.29254V14.5466C11.2075 14.7731 11.3912 14.9567 11.6177 14.9567Z" fill="#132968"/>
<path d="M18.1918 17.4871C17.938 17.2837 17.7926 16.986 17.7926 16.6705V6.58479C17.7926 6.35827 17.609 6.17462 17.3824 6.17462C17.1558 6.17462 16.9722 6.35827 16.9722 6.58479V16.6705C16.9722 17.2362 17.2297 17.7671 17.6785 18.127C18.8897 19.0985 19.5844 20.5448 19.5844 22.0953C19.5844 23.4668 19.0465 24.7525 18.07 25.7156C17.0935 26.6785 15.7992 27.197 14.4275 27.1792C11.6895 27.1411 9.44132 24.8821 9.41584 22.1437C9.40124 20.5723 10.0972 19.1072 11.3251 18.1242C11.7716 17.7666 12.0278 17.2369 12.0278 16.6707V16.1872C12.0278 15.9606 11.8441 15.777 11.6176 15.777C11.3911 15.777 11.2074 15.9606 11.2074 16.1872V16.6707C11.2074 16.9864 11.0634 17.2828 10.8124 17.4838C9.38658 18.6252 8.57855 20.3265 8.59551 22.1513C8.60984 23.6953 9.22224 25.153 10.3198 26.2558C11.4174 27.3587 12.8721 27.978 14.416 27.9994C14.4443 27.9999 14.4725 28 14.5007 28C16.0629 28 17.5321 27.3981 18.6459 26.2997C19.7801 25.1812 20.4047 23.6881 20.4047 22.0953C20.4047 20.2947 19.5982 18.6151 18.1918 17.4871Z" fill="#132968"/>
<path d="M15.5695 2.18164C15.2646 1.88807 14.8636 1.7351 14.4409 1.75118C13.6091 1.78263 12.9576 2.47187 12.9576 3.32037V17.587C12.9576 17.9486 12.7739 18.2779 12.4662 18.4678L12.3216 18.557C11.0706 19.3294 10.3319 20.667 10.3456 22.135C10.3663 24.3726 12.2033 26.2183 14.4404 26.2495C14.4605 26.2498 14.5002 26.25 14.5003 26.25C15.6889 26.25 16.7843 25.7631 17.5846 24.879C18.2232 24.1735 18.6013 23.2616 18.6493 22.3112C18.7259 20.7933 17.9707 19.3548 16.6786 18.557L16.5339 18.4677C16.2262 18.2778 16.0426 17.9485 16.0426 17.5869V3.29253C16.0426 2.86995 15.8745 2.47542 15.5695 2.18164ZM14.4719 2.57091C14.4813 2.57058 14.4907 2.57036 14.5 2.57036C14.6877 2.57036 14.8644 2.64157 15.0005 2.77255C15.1435 2.91025 15.2223 3.09494 15.2223 3.29253V5.05012H13.7779V3.32031C13.7779 2.92152 14.0892 2.58535 14.4719 2.57091ZM16.1029 19.1658L16.2476 19.2551C17.3009 19.9054 17.8924 21.0324 17.83 22.2699C17.7915 23.0318 17.4884 23.7629 16.9765 24.3285C16.3337 25.0386 15.4543 25.4297 14.5015 25.4297C14.5004 25.4297 14.4684 25.4296 14.4524 25.4294C14.4522 25.4294 14.4521 25.4294 14.452 25.4294C12.6567 25.4044 11.1826 23.9232 11.166 22.1275C11.155 20.9491 11.7482 19.8753 12.7527 19.2552L12.8973 19.1659C13.4488 18.8254 13.778 18.2352 13.778 17.587V5.87051H15.2223V6.77774H14.9103C14.6837 6.77774 14.5002 6.96138 14.5002 7.1879C14.5002 7.41442 14.6837 7.59807 14.9103 7.59807H15.2223V8.74604H14.9103C14.6837 8.74604 14.5002 8.92969 14.5002 9.15621C14.5002 9.38273 14.6837 9.56637 14.9103 9.56637H15.2223V10.7143H14.9103C14.6837 10.7143 14.5002 10.898 14.5002 11.1245C14.5002 11.351 14.6837 11.5347 14.9103 11.5347H15.2223V12.6827H14.9103C14.6837 12.6827 14.5002 12.8663 14.5002 13.0928C14.5002 13.3193 14.6837 13.503 14.9103 13.503H15.2223V14.651H14.9103C14.6837 14.651 14.5002 14.8346 14.5002 15.0611C14.5002 15.2876 14.6837 15.4713 14.9103 15.4713H15.2223V17.587C15.2223 18.2351 15.5515 18.8253 16.1029 19.1658Z" fill="#132968"/>
</g>
<defs>
<clipPath id="clip0">
<rect width="28" height="28" fill="white" transform="translate(0.5)"/>
</clipPath>
</defs>
</svg>
