<svg width="21" height="18" viewBox="0 0 21 18" fill="none" xmlns="http://www.w3.org/2000/svg">
<path d="M17 6.00004C16.3811 6.00178 15.7778 6.19491 15.2729 6.55297C14.7681 6.91103 14.3863 7.41649 14.18 8.00004H1C0.734784 8.00004 0.48043 8.10539 0.292893 8.29293C0.105357 8.48047 0 8.73482 0 9.00004C0 9.26525 0.105357 9.51961 0.292893 9.70714C0.48043 9.89468 0.734784 10 1 10H14.18C14.3635 10.5189 14.6861 10.9773 15.1126 11.3251C15.5392 11.6729 16.0532 11.8966 16.5984 11.9719C17.1435 12.0471 17.6989 11.9709 18.2037 11.7516C18.7085 11.5323 19.1432 11.1784 19.4603 10.7286C19.7775 10.2788 19.9647 9.75045 20.0017 9.20134C20.0386 8.65222 19.9238 8.10353 19.6697 7.61531C19.4157 7.12709 19.0323 6.71816 18.5614 6.43326C18.0905 6.14837 17.5504 5.99849 17 6.00004ZM17 10C16.8022 10 16.6089 9.94139 16.4444 9.83151C16.28 9.72162 16.1518 9.56545 16.0761 9.38272C16.0004 9.19999 15.9806 8.99893 16.0192 8.80495C16.0578 8.61096 16.153 8.43278 16.2929 8.29293C16.4327 8.15308 16.6109 8.05784 16.8049 8.01925C16.9989 7.98067 17.2 8.00047 17.3827 8.07616C17.5654 8.15184 17.7216 8.28002 17.8315 8.44447C17.9414 8.60891 18 8.80225 18 9.00004C18 9.26525 17.8946 9.51961 17.7071 9.70714C17.5196 9.89468 17.2652 10 17 10ZM1 4.00004H2.18C2.3902 4.57919 2.77363 5.07958 3.27817 5.43319C3.7827 5.78681 4.38388 5.97651 5 5.97651C5.61612 5.97651 6.2173 5.78681 6.72184 5.43319C7.22637 5.07958 7.6098 4.57919 7.82 4.00004H19C19.2652 4.00004 19.5196 3.89468 19.7071 3.70714C19.8946 3.51961 20 3.26525 20 3.00004C20 2.73482 19.8946 2.48047 19.7071 2.29293C19.5196 2.10539 19.2652 2.00004 19 2.00004H7.82C7.6098 1.42088 7.22637 0.920496 6.72184 0.566878C6.2173 0.213259 5.61612 0.0235596 5 0.0235596C4.38388 0.0235596 3.7827 0.213259 3.27817 0.566878C2.77363 0.920496 2.3902 1.42088 2.18 2.00004H1C0.734784 2.00004 0.48043 2.10539 0.292893 2.29293C0.105357 2.48047 0 2.73482 0 3.00004C0 3.26525 0.105357 3.51961 0.292893 3.70714C0.48043 3.89468 0.734784 4.00004 1 4.00004ZM5 2.00004C5.19778 2.00004 5.39112 2.05869 5.55557 2.16857C5.72002 2.27845 5.84819 2.43463 5.92388 2.61735C5.99957 2.80008 6.01937 3.00115 5.98079 3.19513C5.9422 3.38911 5.84696 3.56729 5.70711 3.70714C5.56725 3.847 5.38907 3.94224 5.19509 3.98082C5.00111 4.01941 4.80004 3.9996 4.61732 3.92392C4.43459 3.84823 4.27841 3.72006 4.16853 3.55561C4.05865 3.39116 4 3.19782 4 3.00004C4 2.73482 4.10536 2.48047 4.29289 2.29293C4.48043 2.10539 4.73478 2.00004 5 2.00004ZM19 14H11.82C11.6098 13.4209 11.2264 12.9205 10.7218 12.5669C10.2173 12.2133 9.61612 12.0236 9 12.0236C8.38388 12.0236 7.7827 12.2133 7.27816 12.5669C6.77363 12.9205 6.3902 13.4209 6.18 14H1C0.734784 14 0.48043 14.1054 0.292893 14.2929C0.105357 14.4805 0 14.7348 0 15C0 15.2653 0.105357 15.5196 0.292893 15.7071C0.48043 15.8947 0.734784 16 1 16H6.18C6.3902 16.5792 6.77363 17.0796 7.27816 17.4332C7.7827 17.7868 8.38388 17.9765 9 17.9765C9.61612 17.9765 10.2173 17.7868 10.7218 17.4332C11.2264 17.0796 11.6098 16.5792 11.82 16H19C19.2652 16 19.5196 15.8947 19.7071 15.7071C19.8946 15.5196 20 15.2653 20 15C20 14.7348 19.8946 14.4805 19.7071 14.2929C19.5196 14.1054 19.2652 14 19 14ZM9 16C8.80222 16 8.60888 15.9414 8.44443 15.8315C8.27998 15.7216 8.15181 15.5654 8.07612 15.3827C8.00043 15.2 7.98063 14.9989 8.01921 14.8049C8.0578 14.611 8.15304 14.4328 8.29289 14.2929C8.43275 14.1531 8.61093 14.0578 8.80491 14.0193C8.99889 13.9807 9.19996 14.0005 9.38268 14.0762C9.56541 14.1518 9.72159 14.28 9.83147 14.4445C9.94135 14.6089 10 14.8023 10 15C10 15.2653 9.89464 15.5196 9.70711 15.7071C9.51957 15.8947 9.26522 16 9 16Z" fill="white"/>
</svg>
