<svg width="24" height="25" viewBox="0 0 24 25" fill="none" xmlns="http://www.w3.org/2000/svg">
<g clip-path="url(#clip0)">
<path d="M12 24.3066C18.6274 24.3066 24 18.934 24 12.3066C24 5.67916 18.6274 0.30658 12 0.30658C5.37258 0.30658 0 5.67916 0 12.3066C0 18.934 5.37258 24.3066 12 24.3066Z" fill="#DC4E41"/>
<path d="M7.00313 12.4165C6.9032 9.78537 9.20785 7.35388 11.8416 7.32234C13.184 7.20784 14.49 7.72913 15.5059 8.57933C15.0891 9.03753 14.6651 9.49043 14.2122 9.91443C13.3179 9.37108 12.2411 8.95701 11.1959 9.32475C9.51007 9.80479 8.48912 11.7953 9.11299 13.4445C9.62964 15.167 11.7247 16.1123 13.3667 15.3887C14.2169 15.0843 14.7774 14.2998 15.0234 13.4569C14.049 13.4375 13.0744 13.4496 12.1 13.4227C12.0975 12.8429 12.0951 12.2654 12.0975 11.6857C13.7225 11.6832 15.3499 11.6784 16.9773 11.6929C17.0772 13.1134 16.8676 14.6336 15.9442 15.7737C14.6797 17.401 12.3435 17.8787 10.443 17.2402C8.42603 16.5778 6.95923 14.5458 7.00313 12.4165Z" fill="white"/>
</g>
<defs>
<clipPath id="clip0">
<rect width="24" height="24" fill="white" transform="translate(0 0.30658)"/>
</clipPath>
</defs>
</svg>
