<svg width="28" height="22" viewBox="0 0 28 22" fill="none" xmlns="http://www.w3.org/2000/svg">
<path d="M11.4618 20.8467C11.2041 20.8481 10.994 20.6403 10.9926 20.3826C10.9912 20.1249 11.199 19.9148 11.4567 19.9134H11.4618C11.7196 19.9134 11.9285 20.1223 11.9285 20.38C11.9285 20.6378 11.7196 20.8467 11.4618 20.8467Z" fill="#428DFF"/>
<path d="M7.79334 12.3791C9.80239 13.0072 11.8951 13.327 14 13.3278C16.105 13.327 18.1976 13.0072 20.2067 12.3791C20.3659 12.3295 20.4866 12.1988 20.5233 12.0362C20.5601 11.8736 20.5072 11.7037 20.3847 11.5905C20.2622 11.4774 20.0887 11.4382 19.9295 11.4877C16.0698 12.6964 11.933 12.6964 8.07334 11.4877C7.82721 11.4112 7.56562 11.5487 7.48907 11.7948C7.41253 12.0409 7.55001 12.3025 7.79614 12.3791H7.79334Z" fill="#428DFF"/>
<path d="M7.86149 9.59443C9.89255 9.90853 11.9448 10.0655 14 10.0639C16.0552 10.0655 18.1075 9.90853 20.1386 9.59443C20.3049 9.57052 20.4455 9.45903 20.5067 9.30254C20.568 9.14605 20.5403 8.96873 20.4344 8.83829C20.3284 8.70786 20.1606 8.64446 19.9948 8.6723C16.0217 9.28363 11.9784 9.28363 8.00522 8.6723C7.75224 8.63593 7.51707 8.80982 7.47771 9.06235C7.43835 9.31488 7.60944 9.55209 7.86149 9.59443Z" fill="#428DFF"/>
<path d="M7.73218 15.62C11.6874 17.5521 16.3126 17.5521 20.2678 15.62C20.4293 15.5553 20.5413 15.406 20.5585 15.2329C20.5756 15.0598 20.495 14.8915 20.3494 14.7963C20.2037 14.7011 20.0172 14.6948 19.8655 14.78C16.1642 16.5884 11.8357 16.5884 8.13445 14.78C7.98275 14.6948 7.79625 14.7011 7.65061 14.7963C7.50497 14.8915 7.42437 15.0598 7.44152 15.2329C7.45866 15.406 7.5707 15.5553 7.73218 15.62Z" fill="#428DFF"/>
<path d="M26.1333 5.40004H23.7141C23.5171 4.84268 22.9912 4.46916 22.4 4.46671H21.6953C19.9622 4.44408 18.3315 3.64185 17.2559 2.28271C16.4591 1.30297 15.2634 0.7342 14.0005 0.7342C12.7376 0.7342 11.5419 1.30297 10.745 2.28271C9.66915 3.64205 8.03809 4.44429 6.30467 4.46671H5.6C5.00883 4.46916 4.48292 4.84268 4.28587 5.40004H1.86667C0.835735 5.40004 0 6.23578 0 7.26671V9.60004C0 12.0603 2.21013 14.3241 4.88693 14.6811C5.08632 15.2253 5.33353 15.7508 5.62567 16.2514C6.09198 17.0429 6.65853 17.7709 7.31127 18.4172C7.97035 19.0586 8.71148 19.6099 9.51533 20.0566C9.62582 20.1195 9.75739 20.1337 9.87878 20.0961C10.0002 20.0584 10.1006 19.9722 10.1561 19.8578C10.2649 19.6332 10.1813 19.3627 9.96473 19.2386C9.2355 18.8328 8.56299 18.3325 7.9646 17.7508C7.37109 17.1625 6.85571 16.5003 6.43113 15.7806C6.01352 15.0566 5.68926 14.2826 5.46607 13.4771C5.25577 12.6678 5.14405 11.8361 5.13333 11V7.26671L6.53333 7.26438C9.03716 7.21557 11.3839 6.03455 12.915 4.05278C13.1794 3.72556 13.5773 3.53509 13.9979 3.53436C14.4186 3.53364 14.8172 3.72274 15.0827 4.04905C16.6158 6.02427 18.9562 7.20501 21.4559 7.26438H21.4667L22.8667 7.26671V11C22.8653 12.056 22.6892 13.1045 22.3454 14.1029V14.1076C21.2162 17.4918 18.2195 19.9084 14.6729 20.2951C14.2257 20.3455 13.7743 20.3455 13.3271 20.2951C13.1598 20.275 12.9946 20.3466 12.895 20.4825C12.7953 20.6184 12.7767 20.7974 12.8462 20.9509C12.9157 21.1044 13.0626 21.2086 13.2305 21.2233C13.7422 21.2812 14.2588 21.2812 14.7705 21.2233C18.5783 20.8122 21.8224 18.2746 23.1383 14.6778C25.8039 14.3101 28 12.0528 28 9.60004V7.26671C28 6.23578 27.1643 5.40004 26.1333 5.40004ZM4.2 11C4.21179 11.9013 4.33054 12.798 4.55373 13.6712C2.69733 13.2274 0.933333 11.6422 0.933333 9.60004V7.26671C0.933333 6.75124 1.3512 6.33338 1.86667 6.33338H4.2V11ZM21.4667 6.32871H21.4573C19.2381 6.26958 17.163 5.21576 15.806 3.45871C15.3633 2.9146 14.6988 2.5991 13.9974 2.59991C13.2959 2.60073 12.6322 2.91777 12.1907 3.46291C10.8348 5.21835 8.76143 6.27113 6.54407 6.33011H6.53333L5.13333 6.33338V5.86671C5.13333 5.60898 5.34227 5.40004 5.6 5.40004H6.30467C8.31923 5.37758 10.2164 4.44846 11.4693 2.87071C12.0887 2.10853 13.0186 1.66602 14.0007 1.66602C14.9828 1.66602 15.9127 2.10853 16.5321 2.87071C17.7845 4.44829 19.6812 5.37743 21.6953 5.40004H22.4C22.6577 5.40004 22.8667 5.60898 22.8667 5.86671V6.33338L21.4667 6.32871ZM27.0667 9.60004C27.0667 11.6403 25.3064 13.2242 23.4523 13.6717C23.6818 12.7996 23.7986 11.9018 23.8 11V6.33338H26.1333C26.6488 6.33338 27.0667 6.75124 27.0667 7.26671V9.60004Z" fill="#428DFF"/>
</svg>
