<svg width="80" height="23" viewBox="0 0 80 23" fill="none" xmlns="http://www.w3.org/2000/svg">
<path d="M0.530302 7.27958C0.700968 7.23691 0.946302 7.18358 1.2663 7.11958C1.60764 7.05558 1.9703 7.02358 2.3543 7.02358C3.1223 7.02358 3.67697 7.16225 4.0183 7.43958C4.38097 7.71691 4.5623 8.20758 4.5623 8.91158V22.2876C4.39163 22.3302 4.13563 22.3836 3.7943 22.4476C3.4743 22.5116 3.1223 22.5436 2.7383 22.5436C1.9703 22.5436 1.40497 22.4049 1.0423 22.1276C0.700968 21.8502 0.530302 21.3596 0.530302 20.6556V7.27958ZM0.210302 2.63958C0.210302 2.02091 0.423635 1.49825 0.850302 1.07158C1.2983 0.623578 1.86364 0.399578 2.5463 0.399578C3.22897 0.399578 3.78363 0.623578 4.2103 1.07158C4.63697 1.49825 4.8503 2.02091 4.8503 2.63958C4.8503 3.27958 4.63697 3.82358 4.2103 4.27158C3.78363 4.69825 3.22897 4.91158 2.5463 4.91158C1.86364 4.91158 1.2983 4.69825 0.850302 4.27158C0.423635 3.82358 0.210302 3.27958 0.210302 2.63958ZM21.4493 17.4236C21.236 17.5942 20.9586 17.7329 20.6173 17.8396C20.276 17.9462 19.8813 17.9996 19.4333 17.9996C18.8786 17.9996 18.4093 17.9356 18.0253 17.8076C17.6626 17.6582 17.4066 17.4022 17.2573 17.0396C16.3826 14.8636 15.6466 13.0076 15.0493 11.4716C14.452 9.93558 13.972 8.62358 13.6093 7.53558H13.4493C13.3853 8.96491 13.3213 10.2769 13.2573 11.4716C13.2146 12.6662 13.172 13.8396 13.1293 14.9916C13.0866 16.1222 13.0333 17.2742 12.9693 18.4476C12.9266 19.6209 12.8626 20.8902 12.7773 22.2556C12.564 22.3196 12.2973 22.3836 11.9773 22.4476C11.6573 22.5116 11.316 22.5436 10.9533 22.5436C9.52397 22.5436 8.8093 22.0102 8.8093 20.9436C8.8093 20.6022 8.81997 20.0796 8.8413 19.3756C8.88397 18.6502 8.92663 17.8182 8.9693 16.8796C9.0333 15.9196 9.0973 14.8742 9.1613 13.7436C9.24663 12.6129 9.3213 11.4716 9.3853 10.3196C9.47063 9.16758 9.55597 8.03691 9.6413 6.92758C9.72663 5.79691 9.8013 4.75158 9.8653 3.79158C10.036 3.57825 10.3453 3.36491 10.7933 3.15158C11.2626 2.91691 11.86 2.79958 12.5853 2.79958C13.396 2.79958 14.0466 2.93825 14.5373 3.21558C15.0493 3.47158 15.4333 3.90891 15.6893 4.52758C15.9666 5.18891 16.2546 5.91425 16.5533 6.70358C16.8733 7.49291 17.1933 8.30358 17.5133 9.13558C17.8333 9.96758 18.1426 10.7889 18.4413 11.5996C18.7613 12.3889 19.06 13.1356 19.3373 13.8396H19.4653C20.1906 11.8342 20.9053 9.89291 21.6093 8.01558C22.3346 6.13825 22.964 4.54891 23.4973 3.24758C23.7533 3.11958 24.084 3.01291 24.4893 2.92758C24.8946 2.84225 25.3106 2.79958 25.7373 2.79958C26.5266 2.79958 27.156 2.91691 27.6253 3.15158C28.0946 3.38625 28.3826 3.73825 28.4893 4.20758C28.5746 4.61291 28.6706 5.26358 28.7773 6.15958C28.884 7.03425 28.9906 8.03691 29.0973 9.16758C29.204 10.2982 29.3106 11.5036 29.4173 12.7836C29.524 14.0636 29.62 15.3009 29.7053 16.4956C29.7906 17.6689 29.8653 18.7462 29.9293 19.7276C29.9933 20.7089 30.036 21.4769 30.0573 22.0316C29.78 22.2022 29.4813 22.3302 29.1613 22.4156C28.8626 22.5009 28.4893 22.5436 28.0413 22.5436C27.4866 22.5436 26.996 22.4369 26.5693 22.2236C26.164 21.9889 25.94 21.5622 25.8973 20.9436C25.812 19.5996 25.7373 18.2876 25.6733 17.0076C25.6093 15.7062 25.556 14.4796 25.5133 13.3276C25.4706 12.1756 25.428 11.1196 25.3853 10.1596C25.3426 9.17825 25.3106 8.33558 25.2893 7.63158H25.1293C24.788 8.63425 24.3186 9.91425 23.7213 11.4716C23.124 13.0076 22.3666 14.9916 21.4493 17.4236ZM39.9793 19.7276C40.598 19.7276 41.1633 19.6742 41.6753 19.5676C42.1873 19.4396 42.5606 19.2902 42.7953 19.1196V15.5676L39.6913 15.8556C38.838 15.9409 38.1873 16.1329 37.7393 16.4316C37.2913 16.7089 37.0673 17.1569 37.0673 17.7756C37.0673 18.3942 37.2913 18.8742 37.7393 19.2156C38.2086 19.5569 38.9553 19.7276 39.9793 19.7276ZM39.8513 6.70358C41.942 6.70358 43.606 7.15158 44.8433 8.04758C46.102 8.94358 46.7313 10.3302 46.7313 12.2076V19.5996C46.7313 20.1116 46.6033 20.5169 46.3473 20.8156C46.0913 21.1142 45.7713 21.3809 45.3873 21.6156C44.79 21.9782 44.0326 22.2662 43.1153 22.4796C42.198 22.6929 41.1526 22.7996 39.9793 22.7996C37.846 22.7996 36.1606 22.3942 34.9233 21.5836C33.7073 20.7516 33.0993 19.5142 33.0993 17.8716C33.0993 16.4422 33.5473 15.3542 34.4433 14.6076C35.3606 13.8396 36.6833 13.3702 38.4113 13.1996L42.7953 12.7516V12.1756C42.7953 11.3649 42.4966 10.7676 41.8993 10.3836C41.3233 9.99958 40.502 9.80758 39.4353 9.80758C38.6033 9.80758 37.7926 9.91425 37.0033 10.1276C36.214 10.3196 35.51 10.5649 34.8913 10.8636C34.6566 10.6929 34.454 10.4689 34.2833 10.1916C34.134 9.89291 34.0593 9.57291 34.0593 9.23158C34.0593 8.80491 34.1553 8.46358 34.3473 8.20758C34.5606 7.93025 34.8913 7.68491 35.3393 7.47158C35.958 7.21558 36.662 7.02358 37.4513 6.89558C38.2406 6.76758 39.0406 6.70358 39.8513 6.70358ZM62.5221 18.0316C62.5221 19.5249 61.9674 20.6982 60.8581 21.5516C59.7487 22.3836 58.1274 22.7996 55.9941 22.7996C55.1194 22.7996 54.3194 22.7356 53.5941 22.6076C52.8901 22.4796 52.2714 22.2982 51.7381 22.0636C51.2261 21.8076 50.8207 21.5089 50.5221 21.1676C50.2447 20.8049 50.1061 20.4102 50.1061 19.9836C50.1061 19.5782 50.1914 19.2262 50.3621 18.9276C50.5541 18.6289 50.7994 18.3836 51.0981 18.1916C51.6954 18.5756 52.3781 18.9169 53.1461 19.2156C53.9354 19.5142 54.8421 19.6636 55.8661 19.6636C56.7407 19.6636 57.4021 19.5249 57.8501 19.2476C58.2981 18.9489 58.5221 18.5436 58.5221 18.0316C58.5221 17.1569 57.8821 16.5809 56.6021 16.3036L54.8101 15.8876C53.2314 15.5249 52.0581 14.9809 51.2901 14.2556C50.5434 13.5302 50.1701 12.5596 50.1701 11.3436C50.1701 9.95691 50.7247 8.83691 51.8341 7.98358C52.9434 7.10891 54.5007 6.67158 56.5061 6.67158C57.2741 6.67158 57.9781 6.73558 58.6181 6.86358C59.2794 6.97025 59.8447 7.14091 60.3141 7.37558C60.8047 7.58891 61.1781 7.85558 61.4341 8.17558C61.7114 8.47425 61.8501 8.82625 61.8501 9.23158C61.8501 9.61558 61.7647 9.95691 61.5941 10.2556C61.4234 10.5329 61.2207 10.7569 60.9861 10.9276C60.7941 10.7996 60.5381 10.6716 60.2181 10.5436C59.9194 10.4156 59.5781 10.2982 59.1941 10.1916C58.8314 10.0849 58.4367 9.99958 58.0101 9.93558C57.6047 9.85025 57.1994 9.80758 56.7941 9.80758C55.9621 9.80758 55.3114 9.94625 54.8421 10.2236C54.3727 10.4796 54.1381 10.8529 54.1381 11.3436C54.1381 11.7062 54.2661 12.0049 54.5221 12.2396C54.7994 12.4742 55.2687 12.6662 55.9301 12.8156L57.4981 13.1996C59.2687 13.6049 60.5487 14.2022 61.3381 14.9916C62.1274 15.7596 62.5221 16.7729 62.5221 18.0316ZM69.8733 22.2876C69.6813 22.3302 69.4253 22.3836 69.1053 22.4476C68.7853 22.5116 68.4226 22.5436 68.0173 22.5436C67.2706 22.5436 66.716 22.4049 66.3533 22.1276C65.9906 21.8502 65.8093 21.3596 65.8093 20.6556V1.51958C65.98 1.45558 66.2253 1.40225 66.5453 1.35958C66.8866 1.29558 67.26 1.26358 67.6653 1.26358C68.412 1.26358 68.9666 1.40225 69.3293 1.67958C69.692 1.95691 69.8733 2.44758 69.8733 3.15158V13.0716L76.0813 6.89558C76.892 6.89558 77.5426 7.07691 78.0333 7.43958C78.524 7.80225 78.7693 8.26091 78.7693 8.81558C78.7693 9.30625 78.6093 9.73291 78.2893 10.0956C77.9906 10.4582 77.5106 10.9169 76.8493 11.4716L73.3933 14.4796L79.5053 20.2076C79.42 20.9542 79.196 21.5409 78.8333 21.9676C78.4706 22.3729 77.948 22.5756 77.2653 22.5756C76.7746 22.5756 76.3373 22.4582 75.9533 22.2236C75.5906 21.9889 75.1426 21.5729 74.6093 20.9756L69.8733 15.7276V22.2876Z" fill="white"/>
</svg>
