<svg width="24" height="24" viewBox="0 0 24 24" fill="none" xmlns="http://www.w3.org/2000/svg">
<path d="M24 14.2257V9.77426L20.7137 9.11699C20.5732 8.69223 20.4013 8.27769 20.1998 7.87751L22.0591 5.08852L18.9114 1.94085L16.1224 3.80019C15.7223 3.59864 15.3078 3.42673 14.883 3.28621L14.2257 0H9.77426L9.11699 3.28626C8.69228 3.42678 8.27765 3.59873 7.87751 3.80024L5.08852 1.94089L1.94085 5.08856L3.80014 7.87755C3.59864 8.27779 3.42673 8.69228 3.28621 9.11704L0 9.77426V14.2257L3.28626 14.883C3.42678 15.3078 3.59868 15.7223 3.80019 16.1225L1.94089 18.9115L5.08856 22.0592L7.87755 20.1999C8.27774 20.4014 8.69228 20.5733 9.11704 20.7138L9.77426 24H14.2257L14.883 20.7137C15.3077 20.5732 15.7223 20.4013 16.1225 20.1998L18.9115 22.0591L22.0592 18.9114L20.1998 16.1224C20.4013 15.7223 20.5733 15.3077 20.7138 14.883L24 14.2257ZM20.2424 18.7316L18.7316 20.2424L16.1932 18.5502L13.6665 19.5976L13.0684 22.5882H10.9316L10.3335 19.5976L7.80687 18.5502L5.26842 20.2424L3.75755 18.7316L5.44984 16.1932L4.40235 13.6665L1.41176 13.0684V10.9316L4.4024 10.3335L5.44984 7.80687L3.75755 5.26847L5.26842 3.7576L7.80687 5.44993L10.3335 4.4024L10.9316 1.41176H13.0684L13.6665 4.40235L16.1931 5.44988L18.7315 3.75755L20.2424 5.26842L18.5501 7.80687L19.5976 10.3335L22.5882 10.9316V13.0683L19.5976 13.6664L18.5501 16.193L20.2424 18.7316Z" fill="#00CACE"/>
<path d="M14.3347 6.35291H9.33608L7.323 14.1176H11.0213L10.8022 18.3529H13.0872L17.2804 9.88232H13.2394L14.3347 6.35291ZM15.0062 11.2941L12.298 16.765L12.508 12.7058H9.14747L10.4285 7.76467H12.4184L11.323 11.2941H15.0062Z" fill="#00CACE"/>
</svg>
