<svg width="24" height="24" viewBox="0 0 24 24" fill="none" xmlns="http://www.w3.org/2000/svg">
<path d="M17.647 6.55798H6.35291V8.07137H17.647V6.55798Z" fill="#00CACE"/>
<path d="M17.647 10.0892H6.35291V11.6026H17.647V10.0892Z" fill="#00CACE"/>
<path d="M20.5266 18.1606H24V0H0V18.1606H12.2264C12.424 19.0271 12.9544 19.7867 13.6924 20.3282L12.2584 23.4209L13.8236 24L15.1975 21.037C15.572 21.1342 15.9673 21.1873 16.3765 21.1873C16.7939 21.1873 17.197 21.1322 17.5782 21.0312L18.95 23.9897L20.5152 23.4106L19.0794 20.3142C19.8076 19.7736 20.3305 19.0197 20.5266 18.1606ZM12.2264 16.6472H1.69412V1.51338H22.3059V16.6472H20.5266C20.1331 14.9224 18.4218 13.6205 16.3765 13.6205C14.3311 13.6205 12.6199 14.9224 12.2264 16.6472ZM13.8353 17.4039C13.8353 16.1522 14.9753 15.1338 16.3765 15.1338C17.7777 15.1338 18.9176 16.1522 18.9176 17.4039C18.9176 18.6556 17.7777 19.674 16.3765 19.674C14.9753 19.674 13.8353 18.6556 13.8353 17.4039Z" fill="#00CACE"/>
</svg>
