<svg width="140" height="140" viewBox="0 0 140 140" fill="none" xmlns="http://www.w3.org/2000/svg">
<path d="M80.5 93.1V60.2C80.5 57.7865 79.5413 55.4719 77.8347 53.7653C76.1281 52.0587 73.8135 51.1 71.4 51.1H60.2C57.7865 51.1 55.4719 52.0588 53.7653 53.7653C52.0588 55.4719 51.1 57.7865 51.1 60.2C51.1 62.6135 52.0588 64.9281 53.7653 66.6347C55.4719 68.3413 57.7865 69.3 60.2 69.3H62.3V93.1H56C53.5865 93.1 51.2719 94.0587 49.5653 95.7653C47.8587 97.4719 46.9 99.7865 46.9 102.2C46.9 104.613 47.8587 106.928 49.5653 108.635C51.2719 110.341 53.5865 111.3 56 111.3H86.8C89.2135 111.3 91.5281 110.341 93.2347 108.635C94.9413 106.928 95.9 104.613 95.9 102.2C95.9 99.7865 94.9413 97.4719 93.2347 95.7653C91.5281 94.0587 89.2135 93.1 86.8 93.1H80.5ZM78.9095 46.7095L76.4347 44.2347L78.9096 46.7095C80.6717 44.9474 81.8717 42.7023 82.3579 40.2581C82.8441 37.814 82.5945 35.2805 81.6409 32.9782C80.6872 30.6758 79.0723 28.708 77.0002 27.3235C74.9281 25.939 72.4921 25.2 70 25.2C66.6583 25.2 63.4534 26.5275 61.0905 28.8905C58.7275 31.2534 57.4 34.4583 57.4 37.8C57.4 40.292 58.139 42.7281 59.5235 44.8002C60.908 46.8722 62.8758 48.4872 65.1782 49.4409C67.4805 50.3945 70.014 50.6441 72.4581 50.1579C74.9023 49.6717 77.1474 48.4717 78.9095 46.7095ZM3.5 70C3.5 33.335 33.335 3.5 70 3.5C106.665 3.5 136.5 33.335 136.5 70C136.5 106.665 106.665 136.5 70 136.5C33.335 136.5 3.5 106.665 3.5 70Z" stroke="white" stroke-width="7"/>
</svg>
