<svg width="48" height="48" viewBox="0 0 48 48" fill="none" xmlns="http://www.w3.org/2000/svg">
<path d="M24 46.5C36.4264 46.5 46.5 36.4264 46.5 24C46.5 11.5736 36.4264 1.5 24 1.5C11.5736 1.5 1.5 11.5736 1.5 24C1.5 36.4264 11.5736 46.5 24 46.5Z" fill="#4FD1D9"/>
<path d="M20.25 20.8501H27.75V38.8501H20.25V20.8501Z" fill="white"/>
<path d="M24 16.6501C26.0711 16.6501 27.75 14.9712 27.75 12.9001C27.75 10.829 26.0711 9.15009 24 9.15009C21.9289 9.15009 20.25 10.829 20.25 12.9001C20.25 14.9712 21.9289 16.6501 24 16.6501Z" fill="white"/>
</svg>
