<svg width="320" height="345" viewBox="0 0 320 345" fill="none" xmlns="http://www.w3.org/2000/svg">
<g filter="url(#filter0_d)">
<path d="M0 20C0 8.95431 8.95431 0 20 0H300C311.046 0 320 8.9543 320 20V352H0V20Z" fill="white"/>
</g>
<path d="M31.877 145.152H26.8525V141.365H31.624V140.531H26.8525V136.983H31.877V136.136H25.9229V146H31.877V145.152ZM34.6377 146H35.54V136.136H34.6377V146ZM48.3145 141.14C48.1367 139.868 47.0635 138.774 45.3887 138.774C43.4541 138.774 42.1758 140.203 42.1758 142.445C42.1758 144.722 43.4541 146.116 45.3955 146.116C46.9678 146.116 48.123 145.159 48.3213 143.799H47.4258C47.2207 144.722 46.4756 145.316 45.4023 145.316C44.0146 145.316 43.0986 144.229 43.0986 142.445C43.0986 140.688 44.0078 139.574 45.3955 139.574C46.5166 139.574 47.2344 140.265 47.4258 141.14H48.3145ZM53.5088 139.567C54.7939 139.567 55.6484 140.545 55.6689 141.946H51.2803C51.3555 140.545 52.2373 139.567 53.5088 139.567ZM55.6143 143.983C55.416 144.763 54.6709 145.323 53.5977 145.323C52.1826 145.323 51.2734 144.325 51.2734 142.719V142.664H56.5986V142.281C56.5986 140.162 55.4092 138.774 53.5225 138.774C51.5947 138.774 50.3438 140.258 50.3438 142.466C50.3438 144.722 51.5811 146.116 53.5771 146.116C55.1426 146.116 56.2979 145.214 56.5098 143.983H55.6143ZM59.0586 146H59.9609V141.57C59.9609 140.422 60.6035 139.636 61.6152 139.636C61.9229 139.636 62.1758 139.684 62.292 139.738V138.85C62.1826 138.822 61.9707 138.774 61.7314 138.774C60.8564 138.774 60.1934 139.287 59.9336 140.155H59.9131V138.891H59.0586V146ZM64.9775 137.113V138.891H63.918V139.643H64.9775V144.25C64.9775 145.535 65.4561 146.041 66.6455 146.041C66.8369 146.041 67.2197 146.021 67.3154 146V145.228C67.2607 145.241 66.9189 145.255 66.8232 145.255C66.167 145.255 65.8799 144.94 65.8799 144.209V139.643H67.2812V138.891H65.8799V137.113H64.9775ZM69.8779 146H70.7803V138.891H69.8779V146ZM70.3291 137.455C70.6641 137.455 70.9375 137.188 70.9375 136.854C70.9375 136.525 70.6641 136.259 70.3291 136.259C70.001 136.259 69.7275 136.525 69.7275 136.854C69.7275 137.188 70.001 137.455 70.3291 137.455ZM74.0127 146H74.9219V139.643H76.4463V138.891H74.915V138.009C74.915 137.216 75.2773 136.867 75.9609 136.867C76.1523 136.867 76.3438 136.888 76.4873 136.915V136.17C76.3369 136.143 76.0771 136.115 75.8311 136.115C74.6416 136.115 74.0127 136.703 74.0127 137.988V138.891H73.0215V139.643H74.0127V146ZM78.9404 146H79.8428V138.891H78.9404V146ZM79.3916 137.455C79.7266 137.455 80 137.188 80 136.854C80 136.525 79.7266 136.259 79.3916 136.259C79.0635 136.259 78.79 136.525 78.79 136.854C78.79 137.188 79.0635 137.455 79.3916 137.455ZM88.4961 141.14C88.3184 139.868 87.2451 138.774 85.5703 138.774C83.6357 138.774 82.3574 140.203 82.3574 142.445C82.3574 144.722 83.6357 146.116 85.5771 146.116C87.1494 146.116 88.3047 145.159 88.5029 143.799H87.6074C87.4023 144.722 86.6572 145.316 85.584 145.316C84.1963 145.316 83.2803 144.229 83.2803 142.445C83.2803 140.688 84.1895 139.574 85.5771 139.574C86.6982 139.574 87.416 140.265 87.6074 141.14H88.4961ZM93.1709 145.337C92.207 145.337 91.5439 144.804 91.5439 144.031C91.5439 143.245 92.166 142.76 93.2871 142.685L95.3926 142.541V143.327C95.3926 144.455 94.415 145.337 93.1709 145.337ZM92.9863 146.116C94.0459 146.116 95.0166 145.528 95.4131 144.646H95.4336V146H96.2949V141.133C96.2949 139.684 95.2764 138.774 93.6562 138.774C92.0361 138.774 90.9902 139.677 90.8877 140.948H91.7627C91.9199 140.087 92.5898 139.574 93.6357 139.574C94.7432 139.574 95.3926 140.189 95.3926 141.215V141.83L93.1777 141.967C91.5371 142.076 90.6279 142.814 90.6279 144.031C90.6279 145.275 91.585 146.116 92.9863 146.116ZM101.749 146.116C102.897 146.116 103.807 145.453 104.21 144.496H104.23V146H105.092V136.136H104.183V140.354H104.162C103.786 139.431 102.877 138.774 101.729 138.774C99.9443 138.774 98.707 140.23 98.707 142.445C98.707 144.653 99.9512 146.116 101.749 146.116ZM101.906 139.574C103.26 139.574 104.189 140.729 104.189 142.445C104.189 144.168 103.26 145.316 101.906 145.316C100.539 145.316 99.6367 144.182 99.6367 142.445C99.6367 140.709 100.539 139.574 101.906 139.574ZM110.854 146.116C112.788 146.116 114.094 144.701 114.094 142.445C114.094 140.183 112.788 138.774 110.854 138.774C108.926 138.774 107.613 140.183 107.613 142.445C107.613 144.701 108.919 146.116 110.854 146.116ZM110.854 145.316C109.459 145.316 108.536 144.25 108.536 142.445C108.536 140.641 109.459 139.574 110.854 139.574C112.248 139.574 113.178 140.641 113.178 142.445C113.178 144.25 112.248 145.316 110.854 145.316ZM123.354 146.116C124.503 146.116 125.412 145.453 125.815 144.496H125.836V146H126.697V136.136H125.788V140.354H125.768C125.392 139.431 124.482 138.774 123.334 138.774C121.55 138.774 120.312 140.23 120.312 142.445C120.312 144.653 121.557 146.116 123.354 146.116ZM123.512 139.574C124.865 139.574 125.795 140.729 125.795 142.445C125.795 144.168 124.865 145.316 123.512 145.316C122.145 145.316 121.242 144.182 121.242 142.445C121.242 140.709 122.145 139.574 123.512 139.574ZM132.384 139.567C133.669 139.567 134.523 140.545 134.544 141.946H130.155C130.23 140.545 131.112 139.567 132.384 139.567ZM134.489 143.983C134.291 144.763 133.546 145.323 132.473 145.323C131.058 145.323 130.148 144.325 130.148 142.719V142.664H135.474V142.281C135.474 140.162 134.284 138.774 132.397 138.774C130.47 138.774 129.219 140.258 129.219 142.466C129.219 144.722 130.456 146.116 132.452 146.116C134.018 146.116 135.173 145.214 135.385 143.983H134.489ZM147.756 138.891H146.854V143.108C146.854 144.441 146.02 145.31 144.782 145.31C143.593 145.31 142.923 144.612 142.923 143.354V138.891H142.014V143.512C142.014 145.111 142.978 146.116 144.522 146.116C145.65 146.116 146.505 145.556 146.881 144.681H146.901V146H147.756V138.891ZM150.564 146H151.467V141.789C151.467 140.47 152.294 139.581 153.524 139.581C154.714 139.581 155.397 140.292 155.397 141.536V146H156.3V141.393C156.3 139.779 155.343 138.774 153.784 138.774C152.636 138.774 151.802 139.342 151.439 140.203H151.419V138.891H150.564V146ZM161.364 145.337C160.4 145.337 159.737 144.804 159.737 144.031C159.737 143.245 160.359 142.76 161.48 142.685L163.586 142.541V143.327C163.586 144.455 162.608 145.337 161.364 145.337ZM161.18 146.116C162.239 146.116 163.21 145.528 163.606 144.646H163.627V146H164.488V141.133C164.488 139.684 163.47 138.774 161.85 138.774C160.229 138.774 159.184 139.677 159.081 140.948H159.956C160.113 140.087 160.783 139.574 161.829 139.574C162.937 139.574 163.586 140.189 163.586 141.215V141.83L161.371 141.967C159.73 142.076 158.821 142.814 158.821 144.031C158.821 145.275 159.778 146.116 161.18 146.116ZM171.377 146H172.279V141.632C172.279 140.422 173.031 139.581 174.077 139.581C175.048 139.581 175.704 140.244 175.704 141.263V146H176.613V141.522C176.613 140.388 177.338 139.581 178.391 139.581C179.423 139.581 180.038 140.244 180.038 141.345V146H180.94V141.14C180.94 139.704 180.031 138.774 178.644 138.774C177.57 138.774 176.736 139.396 176.401 140.271H176.381C176.114 139.376 175.362 138.774 174.323 138.774C173.291 138.774 172.56 139.369 172.252 140.203H172.231V138.891H171.377V146ZM186.005 145.337C185.041 145.337 184.378 144.804 184.378 144.031C184.378 143.245 185 142.76 186.121 142.685L188.227 142.541V143.327C188.227 144.455 187.249 145.337 186.005 145.337ZM185.82 146.116C186.88 146.116 187.851 145.528 188.247 144.646H188.268V146H189.129V141.133C189.129 139.684 188.11 138.774 186.49 138.774C184.87 138.774 183.824 139.677 183.722 140.948H184.597C184.754 140.087 185.424 139.574 186.47 139.574C187.577 139.574 188.227 140.189 188.227 141.215V141.83L186.012 141.967C184.371 142.076 183.462 142.814 183.462 144.031C183.462 145.275 184.419 146.116 185.82 146.116ZM191.753 140.791C191.753 141.734 192.368 142.343 193.653 142.664L194.809 142.951C195.759 143.184 196.114 143.512 196.114 144.127C196.114 144.872 195.41 145.371 194.344 145.371C193.277 145.371 192.58 144.852 192.45 144.011H191.548C191.664 145.262 192.765 146.116 194.289 146.116C195.896 146.116 197.023 145.262 197.023 144.059C197.023 143.04 196.49 142.521 195.068 142.165L194.016 141.912C193.065 141.68 192.648 141.324 192.648 140.743C192.648 140.032 193.312 139.52 194.282 139.52C195.267 139.52 195.916 140.039 196.025 140.88H196.894C196.805 139.629 195.766 138.774 194.31 138.774C192.806 138.774 191.753 139.615 191.753 140.791ZM205.273 141.14C205.096 139.868 204.022 138.774 202.348 138.774C200.413 138.774 199.135 140.203 199.135 142.445C199.135 144.722 200.413 146.116 202.354 146.116C203.927 146.116 205.082 145.159 205.28 143.799H204.385C204.18 144.722 203.435 145.316 202.361 145.316C200.974 145.316 200.058 144.229 200.058 142.445C200.058 140.688 200.967 139.574 202.354 139.574C203.476 139.574 204.193 140.265 204.385 141.14H205.273ZM209.948 145.337C208.984 145.337 208.321 144.804 208.321 144.031C208.321 143.245 208.943 142.76 210.064 142.685L212.17 142.541V143.327C212.17 144.455 211.192 145.337 209.948 145.337ZM209.764 146.116C210.823 146.116 211.794 145.528 212.19 144.646H212.211V146H213.072V141.133C213.072 139.684 212.054 138.774 210.434 138.774C208.813 138.774 207.768 139.677 207.665 140.948H208.54C208.697 140.087 209.367 139.574 210.413 139.574C211.521 139.574 212.17 140.189 212.17 141.215V141.83L209.955 141.967C208.314 142.076 207.405 142.814 207.405 144.031C207.405 145.275 208.362 146.116 209.764 146.116ZM215.84 146H216.742V141.57C216.742 140.422 217.385 139.636 218.396 139.636C218.704 139.636 218.957 139.684 219.073 139.738V138.85C218.964 138.822 218.752 138.774 218.513 138.774C217.638 138.774 216.975 139.287 216.715 140.155H216.694V138.891H215.84V146ZM221.362 146H222.265V138.891H221.362V146ZM221.813 137.455C222.148 137.455 222.422 137.188 222.422 136.854C222.422 136.525 222.148 136.259 221.813 136.259C221.485 136.259 221.212 136.525 221.212 136.854C221.212 137.188 221.485 137.455 221.813 137.455ZM225.196 146H226.099V136.136H225.196V146ZM229.03 146H229.933V136.136H229.03V146ZM235.093 145.337C234.129 145.337 233.466 144.804 233.466 144.031C233.466 143.245 234.088 142.76 235.209 142.685L237.314 142.541V143.327C237.314 144.455 236.337 145.337 235.093 145.337ZM234.908 146.116C235.968 146.116 236.938 145.528 237.335 144.646H237.355V146H238.217V141.133C238.217 139.684 237.198 138.774 235.578 138.774C233.958 138.774 232.912 139.677 232.81 140.948H233.685C233.842 140.087 234.512 139.574 235.558 139.574C236.665 139.574 237.314 140.189 237.314 141.215V141.83L235.1 141.967C233.459 142.076 232.55 142.814 232.55 144.031C232.55 145.275 233.507 146.116 234.908 146.116ZM247.915 139.567C249.2 139.567 250.055 140.545 250.075 141.946H245.687C245.762 140.545 246.644 139.567 247.915 139.567ZM250.021 143.983C249.822 144.763 249.077 145.323 248.004 145.323C246.589 145.323 245.68 144.325 245.68 142.719V142.664H251.005V142.281C251.005 140.162 249.815 138.774 247.929 138.774C246.001 138.774 244.75 140.258 244.75 142.466C244.75 144.722 245.987 146.116 247.983 146.116C249.549 146.116 250.704 145.214 250.916 143.983H250.021ZM253.321 140.791C253.321 141.734 253.937 142.343 255.222 142.664L256.377 142.951C257.327 143.184 257.683 143.512 257.683 144.127C257.683 144.872 256.979 145.371 255.912 145.371C254.846 145.371 254.148 144.852 254.019 144.011H253.116C253.232 145.262 254.333 146.116 255.857 146.116C257.464 146.116 258.592 145.262 258.592 144.059C258.592 143.04 258.059 142.521 256.637 142.165L255.584 141.912C254.634 141.68 254.217 141.324 254.217 140.743C254.217 140.032 254.88 139.52 255.851 139.52C256.835 139.52 257.484 140.039 257.594 140.88H258.462C258.373 139.629 257.334 138.774 255.878 138.774C254.374 138.774 253.321 139.615 253.321 140.791ZM270.881 138.891H269.979V143.108C269.979 144.441 269.145 145.31 267.907 145.31C266.718 145.31 266.048 144.612 266.048 143.354V138.891H265.139V143.512C265.139 145.111 266.103 146.116 267.647 146.116C268.775 146.116 269.63 145.556 270.006 144.681H270.026V146H270.881V138.891ZM273.689 146H274.592V141.789C274.592 140.47 275.419 139.581 276.649 139.581C277.839 139.581 278.522 140.292 278.522 141.536V146H279.425V141.393C279.425 139.779 278.468 138.774 276.909 138.774C275.761 138.774 274.927 139.342 274.564 140.203H274.544V138.891H273.689V146ZM25.7793 164H26.6816V159.632C26.6816 158.422 27.4336 157.581 28.4795 157.581C29.4502 157.581 30.1064 158.244 30.1064 159.263V164H31.0156V159.522C31.0156 158.388 31.7402 157.581 32.793 157.581C33.8252 157.581 34.4404 158.244 34.4404 159.345V164H35.3428V159.14C35.3428 157.704 34.4336 156.774 33.0459 156.774C31.9727 156.774 31.1387 157.396 30.8037 158.271H30.7832C30.5166 157.376 29.7646 156.774 28.7256 156.774C27.6934 156.774 26.9619 157.369 26.6543 158.203H26.6338V156.891H25.7793V164ZM40.4072 163.337C39.4434 163.337 38.7803 162.804 38.7803 162.031C38.7803 161.245 39.4023 160.76 40.5234 160.685L42.6289 160.541V161.327C42.6289 162.455 41.6514 163.337 40.4072 163.337ZM40.2227 164.116C41.2822 164.116 42.2529 163.528 42.6494 162.646H42.6699V164H43.5312V159.133C43.5312 157.684 42.5127 156.774 40.8926 156.774C39.2725 156.774 38.2266 157.677 38.124 158.948H38.999C39.1562 158.087 39.8262 157.574 40.8721 157.574C41.9795 157.574 42.6289 158.189 42.6289 159.215V159.83L40.4141 159.967C38.7734 160.076 37.8643 160.814 37.8643 162.031C37.8643 163.275 38.8213 164.116 40.2227 164.116ZM46.2988 164H47.2012V159.57C47.2012 158.422 47.8438 157.636 48.8555 157.636C49.1631 157.636 49.416 157.684 49.5322 157.738V156.85C49.4229 156.822 49.2109 156.774 48.9717 156.774C48.0967 156.774 47.4336 157.287 47.1738 158.155H47.1533V156.891H46.2988V164ZM57.1328 159.14C56.9551 157.868 55.8818 156.774 54.207 156.774C52.2725 156.774 50.9941 158.203 50.9941 160.445C50.9941 162.722 52.2725 164.116 54.2139 164.116C55.7861 164.116 56.9414 163.159 57.1396 161.799H56.2441C56.0391 162.722 55.2939 163.316 54.2207 163.316C52.833 163.316 51.917 162.229 51.917 160.445C51.917 158.688 52.8262 157.574 54.2139 157.574C55.335 157.574 56.0527 158.265 56.2441 159.14H57.1328ZM61.8076 163.337C60.8438 163.337 60.1807 162.804 60.1807 162.031C60.1807 161.245 60.8027 160.76 61.9238 160.685L64.0293 160.541V161.327C64.0293 162.455 63.0518 163.337 61.8076 163.337ZM61.623 164.116C62.6826 164.116 63.6533 163.528 64.0498 162.646H64.0703V164H64.9316V159.133C64.9316 157.684 63.9131 156.774 62.293 156.774C60.6729 156.774 59.627 157.677 59.5244 158.948H60.3994C60.5566 158.087 61.2266 157.574 62.2725 157.574C63.3799 157.574 64.0293 158.189 64.0293 159.215V159.83L61.8145 159.967C60.1738 160.076 59.2646 160.814 59.2646 162.031C59.2646 163.275 60.2217 164.116 61.623 164.116ZM70.3857 164.116C71.5342 164.116 72.4434 163.453 72.8467 162.496H72.8672V164H73.7285V154.136H72.8193V158.354H72.7988C72.4229 157.431 71.5137 156.774 70.3652 156.774C68.5811 156.774 67.3438 158.23 67.3438 160.445C67.3438 162.653 68.5879 164.116 70.3857 164.116ZM70.543 157.574C71.8965 157.574 72.8262 158.729 72.8262 160.445C72.8262 162.168 71.8965 163.316 70.543 163.316C69.1758 163.316 68.2734 162.182 68.2734 160.445C68.2734 158.709 69.1758 157.574 70.543 157.574ZM79.4902 164.116C81.4248 164.116 82.7305 162.701 82.7305 160.445C82.7305 158.183 81.4248 156.774 79.4902 156.774C77.5625 156.774 76.25 158.183 76.25 160.445C76.25 162.701 77.5557 164.116 79.4902 164.116ZM79.4902 163.316C78.0957 163.316 77.1729 162.25 77.1729 160.445C77.1729 158.641 78.0957 157.574 79.4902 157.574C80.8848 157.574 81.8145 158.641 81.8145 160.445C81.8145 162.25 80.8848 163.316 79.4902 163.316ZM91.9775 156.774C90.1729 156.774 88.9492 158.23 88.9492 160.445C88.9492 162.66 90.166 164.116 91.9639 164.116C93.0986 164.116 94.0146 163.46 94.4043 162.517H94.4248V166.352H95.334V156.891H94.4727V158.395H94.4453C94.042 157.438 93.1396 156.774 91.9775 156.774ZM92.1279 163.316C90.7676 163.316 89.8789 162.188 89.8789 160.445C89.8789 158.702 90.7676 157.574 92.1279 157.574C93.4746 157.574 94.4248 158.729 94.4248 160.445C94.4248 162.161 93.4746 163.316 92.1279 163.316ZM103.844 156.891H102.941V161.108C102.941 162.441 102.107 163.31 100.87 163.31C99.6807 163.31 99.0107 162.612 99.0107 161.354V156.891H98.1016V161.512C98.1016 163.111 99.0654 164.116 100.61 164.116C101.738 164.116 102.593 163.556 102.969 162.681H102.989V164H103.844V156.891ZM109.462 157.567C110.747 157.567 111.602 158.545 111.622 159.946H107.233C107.309 158.545 108.19 157.567 109.462 157.567ZM111.567 161.983C111.369 162.763 110.624 163.323 109.551 163.323C108.136 163.323 107.227 162.325 107.227 160.719V160.664H112.552V160.281C112.552 158.162 111.362 156.774 109.476 156.774C107.548 156.774 106.297 158.258 106.297 160.466C106.297 162.722 107.534 164.116 109.53 164.116C111.096 164.116 112.251 163.214 112.463 161.983H111.567ZM121.942 163.269C120.603 163.269 119.707 162.147 119.707 160.432C119.707 158.702 120.603 157.574 121.942 157.574C123.31 157.574 124.232 158.723 124.232 160.425C124.232 162.127 123.31 163.269 121.942 163.269ZM122.031 166.632C123.932 166.632 125.142 165.538 125.142 163.884V156.891H124.28V158.395H124.26C123.843 157.424 122.934 156.774 121.799 156.774C119.98 156.774 118.777 158.217 118.777 160.425C118.777 162.626 119.98 164.068 121.778 164.068C122.913 164.068 123.829 163.405 124.212 162.489H124.232V163.918C124.232 165.08 123.405 165.853 122.072 165.853C121.04 165.853 120.281 165.354 120.049 164.656H119.112C119.311 165.777 120.479 166.632 122.031 166.632ZM130.247 163.337C129.283 163.337 128.62 162.804 128.62 162.031C128.62 161.245 129.242 160.76 130.363 160.685L132.469 160.541V161.327C132.469 162.455 131.491 163.337 130.247 163.337ZM130.062 164.116C131.122 164.116 132.093 163.528 132.489 162.646H132.51V164H133.371V159.133C133.371 157.684 132.353 156.774 130.732 156.774C129.112 156.774 128.066 157.677 127.964 158.948H128.839C128.996 158.087 129.666 157.574 130.712 157.574C131.819 157.574 132.469 158.189 132.469 159.215V159.83L130.254 159.967C128.613 160.076 127.704 160.814 127.704 162.031C127.704 163.275 128.661 164.116 130.062 164.116ZM136.139 164H137.041V159.57C137.041 158.422 137.684 157.636 138.695 157.636C139.003 157.636 139.256 157.684 139.372 157.738V156.85C139.263 156.822 139.051 156.774 138.812 156.774C137.937 156.774 137.273 157.287 137.014 158.155H136.993V156.891H136.139V164ZM143.671 163.337C142.707 163.337 142.044 162.804 142.044 162.031C142.044 161.245 142.666 160.76 143.787 160.685L145.893 160.541V161.327C145.893 162.455 144.915 163.337 143.671 163.337ZM143.486 164.116C144.546 164.116 145.517 163.528 145.913 162.646H145.934V164H146.795V159.133C146.795 157.684 145.776 156.774 144.156 156.774C142.536 156.774 141.49 157.677 141.388 158.948H142.263C142.42 158.087 143.09 157.574 144.136 157.574C145.243 157.574 145.893 158.189 145.893 159.215V159.83L143.678 159.967C142.037 160.076 141.128 160.814 141.128 162.031C141.128 163.275 142.085 164.116 143.486 164.116ZM149.562 164H150.465V159.789C150.465 158.47 151.292 157.581 152.522 157.581C153.712 157.581 154.396 158.292 154.396 159.536V164H155.298V159.393C155.298 157.779 154.341 156.774 152.782 156.774C151.634 156.774 150.8 157.342 150.438 158.203H150.417V156.891H149.562V164ZM158.462 155.113V156.891H157.402V157.643H158.462V162.25C158.462 163.535 158.94 164.041 160.13 164.041C160.321 164.041 160.704 164.021 160.8 164V163.228C160.745 163.241 160.403 163.255 160.308 163.255C159.651 163.255 159.364 162.94 159.364 162.209V157.643H160.766V156.891H159.364V155.113H158.462ZM163.362 164H164.265V156.891H163.362V164ZM163.813 155.455C164.148 155.455 164.422 155.188 164.422 154.854C164.422 154.525 164.148 154.259 163.813 154.259C163.485 154.259 163.212 154.525 163.212 154.854C163.212 155.188 163.485 155.455 163.813 155.455ZM166.902 164H172.187V163.248H167.941V163.228L172.173 157.574V156.891H166.902V157.643H171.134V157.663L166.902 163.33V164ZM176.909 163.337C175.945 163.337 175.282 162.804 175.282 162.031C175.282 161.245 175.904 160.76 177.025 160.685L179.131 160.541V161.327C179.131 162.455 178.153 163.337 176.909 163.337ZM176.725 164.116C177.784 164.116 178.755 163.528 179.151 162.646H179.172V164H180.033V159.133C180.033 157.684 179.015 156.774 177.395 156.774C175.774 156.774 174.729 157.677 174.626 158.948H175.501C175.658 158.087 176.328 157.574 177.374 157.574C178.481 157.574 179.131 158.189 179.131 159.215V159.83L176.916 159.967C175.275 160.076 174.366 160.814 174.366 162.031C174.366 163.275 175.323 164.116 176.725 164.116ZM186.983 164H187.886V154.136H186.983V164ZM193.046 163.337C192.082 163.337 191.419 162.804 191.419 162.031C191.419 161.245 192.041 160.76 193.162 160.685L195.268 160.541V161.327C195.268 162.455 194.29 163.337 193.046 163.337ZM192.861 164.116C193.921 164.116 194.892 163.528 195.288 162.646H195.309V164H196.17V159.133C196.17 157.684 195.151 156.774 193.531 156.774C191.911 156.774 190.865 157.677 190.763 158.948H191.638C191.795 158.087 192.465 157.574 193.511 157.574C194.618 157.574 195.268 158.189 195.268 159.215V159.83L193.053 159.967C191.412 160.076 190.503 160.814 190.503 162.031C190.503 163.275 191.46 164.116 192.861 164.116ZM208.842 159.14C208.664 157.868 207.591 156.774 205.916 156.774C203.981 156.774 202.703 158.203 202.703 160.445C202.703 162.722 203.981 164.116 205.923 164.116C207.495 164.116 208.65 163.159 208.849 161.799H207.953C207.748 162.722 207.003 163.316 205.93 163.316C204.542 163.316 203.626 162.229 203.626 160.445C203.626 158.688 204.535 157.574 205.923 157.574C207.044 157.574 207.762 158.265 207.953 159.14H208.842ZM213.517 163.337C212.553 163.337 211.89 162.804 211.89 162.031C211.89 161.245 212.512 160.76 213.633 160.685L215.738 160.541V161.327C215.738 162.455 214.761 163.337 213.517 163.337ZM213.332 164.116C214.392 164.116 215.362 163.528 215.759 162.646H215.779V164H216.641V159.133C216.641 157.684 215.622 156.774 214.002 156.774C212.382 156.774 211.336 157.677 211.233 158.948H212.108C212.266 158.087 212.936 157.574 213.981 157.574C215.089 157.574 215.738 158.189 215.738 159.215V159.83L213.523 159.967C211.883 160.076 210.974 160.814 210.974 162.031C210.974 163.275 211.931 164.116 213.332 164.116ZM219.47 164H220.372V154.136H219.47V164ZM223.304 164H224.206V156.891H223.304V164ZM223.755 155.455C224.09 155.455 224.363 155.188 224.363 154.854C224.363 154.525 224.09 154.259 223.755 154.259C223.427 154.259 223.153 154.525 223.153 154.854C223.153 155.188 223.427 155.455 223.755 155.455ZM229.763 164.116C230.911 164.116 231.82 163.453 232.224 162.496H232.244V164H233.105V154.136H232.196V158.354H232.176C231.8 157.431 230.891 156.774 229.742 156.774C227.958 156.774 226.721 158.23 226.721 160.445C226.721 162.653 227.965 164.116 229.763 164.116ZM229.92 157.574C231.273 157.574 232.203 158.729 232.203 160.445C232.203 162.168 231.273 163.316 229.92 163.316C228.553 163.316 227.65 162.182 227.65 160.445C227.65 158.709 228.553 157.574 229.92 157.574ZM238.272 163.337C237.309 163.337 236.646 162.804 236.646 162.031C236.646 161.245 237.268 160.76 238.389 160.685L240.494 160.541V161.327C240.494 162.455 239.517 163.337 238.272 163.337ZM238.088 164.116C239.147 164.116 240.118 163.528 240.515 162.646H240.535V164H241.396V159.133C241.396 157.684 240.378 156.774 238.758 156.774C237.138 156.774 236.092 157.677 235.989 158.948H236.864C237.021 158.087 237.691 157.574 238.737 157.574C239.845 157.574 240.494 158.189 240.494 159.215V159.83L238.279 159.967C236.639 160.076 235.729 160.814 235.729 162.031C235.729 163.275 236.687 164.116 238.088 164.116ZM246.851 164.116C247.999 164.116 248.908 163.453 249.312 162.496H249.332V164H250.193V154.136H249.284V158.354H249.264C248.888 157.431 247.979 156.774 246.83 156.774C245.046 156.774 243.809 158.23 243.809 160.445C243.809 162.653 245.053 164.116 246.851 164.116ZM247.008 157.574C248.361 157.574 249.291 158.729 249.291 160.445C249.291 162.168 248.361 163.316 247.008 163.316C245.641 163.316 244.738 162.182 244.738 160.445C244.738 158.709 245.641 157.574 247.008 157.574ZM259.878 164.116C261.026 164.116 261.936 163.453 262.339 162.496H262.359V164H263.221V154.136H262.312V158.354H262.291C261.915 157.431 261.006 156.774 259.857 156.774C258.073 156.774 256.836 158.23 256.836 160.445C256.836 162.653 258.08 164.116 259.878 164.116ZM260.035 157.574C261.389 157.574 262.318 158.729 262.318 160.445C262.318 162.168 261.389 163.316 260.035 163.316C258.668 163.316 257.766 162.182 257.766 160.445C257.766 158.709 258.668 157.574 260.035 157.574ZM268.907 157.567C270.192 157.567 271.047 158.545 271.067 159.946H266.679C266.754 158.545 267.636 157.567 268.907 157.567ZM271.013 161.983C270.814 162.763 270.069 163.323 268.996 163.323C267.581 163.323 266.672 162.325 266.672 160.719V160.664H271.997V160.281C271.997 158.162 270.808 156.774 268.921 156.774C266.993 156.774 265.742 158.258 265.742 160.466C265.742 162.722 266.979 164.116 268.976 164.116C270.541 164.116 271.696 163.214 271.908 161.983H271.013ZM274.519 164H275.421V154.136H274.519V164ZM29.1084 174.774C27.9531 174.774 27.0508 175.451 26.6611 176.395H26.6338V174.891H25.7793V184.352H26.6816V180.537H26.709C27.085 181.46 27.9805 182.116 29.1289 182.116C30.9131 182.116 32.1367 180.66 32.1367 178.445C32.1367 176.237 30.9062 174.774 29.1084 174.774ZM28.9512 181.316C27.6045 181.316 26.6816 180.161 26.6816 178.445C26.6816 176.736 27.6045 175.574 28.9512 175.574C30.3252 175.574 31.2139 176.716 31.2139 178.445C31.2139 180.182 30.3252 181.316 28.9512 181.316ZM34.6035 182H35.5059V177.57C35.5059 176.422 36.1484 175.636 37.1602 175.636C37.4678 175.636 37.7207 175.684 37.8369 175.738V174.85C37.7275 174.822 37.5156 174.774 37.2764 174.774C36.4014 174.774 35.7383 175.287 35.4785 176.155H35.458V174.891H34.6035V182ZM42.5391 182.116C44.4736 182.116 45.7793 180.701 45.7793 178.445C45.7793 176.183 44.4736 174.774 42.5391 174.774C40.6113 174.774 39.2988 176.183 39.2988 178.445C39.2988 180.701 40.6045 182.116 42.5391 182.116ZM42.5391 181.316C41.1445 181.316 40.2217 180.25 40.2217 178.445C40.2217 176.641 41.1445 175.574 42.5391 175.574C43.9336 175.574 44.8633 176.641 44.8633 178.445C44.8633 180.25 43.9336 181.316 42.5391 181.316ZM50.9189 182.116C52.0674 182.116 52.9766 181.453 53.3799 180.496H53.4004V182H54.2617V172.136H53.3525V176.354H53.332C52.9561 175.431 52.0469 174.774 50.8984 174.774C49.1143 174.774 47.877 176.23 47.877 178.445C47.877 180.653 49.1211 182.116 50.9189 182.116ZM51.0762 175.574C52.4297 175.574 53.3594 176.729 53.3594 178.445C53.3594 180.168 52.4297 181.316 51.0762 181.316C49.709 181.316 48.8066 180.182 48.8066 178.445C48.8066 176.709 49.709 175.574 51.0762 175.574ZM62.8398 174.891H61.9375V179.108C61.9375 180.441 61.1035 181.31 59.8662 181.31C58.6768 181.31 58.0068 180.612 58.0068 179.354V174.891H57.0977V179.512C57.0977 181.111 58.0615 182.116 59.6064 182.116C60.7344 182.116 61.5889 181.556 61.9648 180.681H61.9854V182H62.8398V174.891ZM71.4316 177.14C71.2539 175.868 70.1807 174.774 68.5059 174.774C66.5713 174.774 65.293 176.203 65.293 178.445C65.293 180.722 66.5713 182.116 68.5127 182.116C70.085 182.116 71.2402 181.159 71.4385 179.799H70.543C70.3379 180.722 69.5928 181.316 68.5195 181.316C67.1318 181.316 66.2158 180.229 66.2158 178.445C66.2158 176.688 67.125 175.574 68.5127 175.574C69.6338 175.574 70.3516 176.265 70.543 177.14H71.4316ZM74.2061 173.113V174.891H73.1465V175.643H74.2061V180.25C74.2061 181.535 74.6846 182.041 75.874 182.041C76.0654 182.041 76.4482 182.021 76.5439 182V181.228C76.4893 181.241 76.1475 181.255 76.0518 181.255C75.3955 181.255 75.1084 180.94 75.1084 180.209V175.643H76.5098V174.891H75.1084V173.113H74.2061ZM81.6836 182.116C83.6182 182.116 84.9238 180.701 84.9238 178.445C84.9238 176.183 83.6182 174.774 81.6836 174.774C79.7559 174.774 78.4434 176.183 78.4434 178.445C78.4434 180.701 79.749 182.116 81.6836 182.116ZM81.6836 181.316C80.2891 181.316 79.3662 180.25 79.3662 178.445C79.3662 176.641 80.2891 175.574 81.6836 175.574C83.0781 175.574 84.0078 176.641 84.0078 178.445C84.0078 180.25 83.0781 181.316 81.6836 181.316ZM87.8486 182.062C88.2041 182.062 88.4844 181.781 88.4844 181.426C88.4844 181.063 88.2041 180.783 87.8486 180.783C87.4932 180.783 87.2061 181.063 87.2061 181.426C87.2061 181.781 87.4932 182.062 87.8486 182.062Z" fill="black"/>
<path d="M41.7949 278.152H36.8525V269.136H35.9229V279H41.7949V278.152ZM46.374 278.337C45.4102 278.337 44.7471 277.804 44.7471 277.031C44.7471 276.245 45.3691 275.76 46.4902 275.685L48.5957 275.541V276.327C48.5957 277.455 47.6182 278.337 46.374 278.337ZM46.1895 279.116C47.249 279.116 48.2197 278.528 48.6162 277.646H48.6367V279H49.498V274.133C49.498 272.684 48.4795 271.774 46.8594 271.774C45.2393 271.774 44.1934 272.677 44.0908 273.948H44.9658C45.123 273.087 45.793 272.574 46.8389 272.574C47.9463 272.574 48.5957 273.189 48.5957 274.215V274.83L46.3809 274.967C44.7402 275.076 43.8311 275.814 43.8311 277.031C43.8311 278.275 44.7881 279.116 46.1895 279.116ZM62.1699 274.14C61.9922 272.868 60.9189 271.774 59.2441 271.774C57.3096 271.774 56.0312 273.203 56.0312 275.445C56.0312 277.722 57.3096 279.116 59.251 279.116C60.8232 279.116 61.9785 278.159 62.1768 276.799H61.2812C61.0762 277.722 60.3311 278.316 59.2578 278.316C57.8701 278.316 56.9541 277.229 56.9541 275.445C56.9541 273.688 57.8633 272.574 59.251 272.574C60.3721 272.574 61.0898 273.265 61.2812 274.14H62.1699ZM66.8447 278.337C65.8809 278.337 65.2178 277.804 65.2178 277.031C65.2178 276.245 65.8398 275.76 66.9609 275.685L69.0664 275.541V276.327C69.0664 277.455 68.0889 278.337 66.8447 278.337ZM66.6602 279.116C67.7197 279.116 68.6904 278.528 69.0869 277.646H69.1074V279H69.9688V274.133C69.9688 272.684 68.9502 271.774 67.3301 271.774C65.71 271.774 64.6641 272.677 64.5615 273.948H65.4365C65.5938 273.087 66.2637 272.574 67.3096 272.574C68.417 272.574 69.0664 273.189 69.0664 274.215V274.83L66.8516 274.967C65.2109 275.076 64.3018 275.814 64.3018 277.031C64.3018 278.275 65.2588 279.116 66.6602 279.116ZM76.0654 271.774C74.9102 271.774 74.0078 272.451 73.6182 273.395H73.5908V271.891H72.7363V281.352H73.6387V277.537H73.666C74.042 278.46 74.9375 279.116 76.0859 279.116C77.8701 279.116 79.0938 277.66 79.0938 275.445C79.0938 273.237 77.8633 271.774 76.0654 271.774ZM75.9082 278.316C74.5615 278.316 73.6387 277.161 73.6387 275.445C73.6387 273.736 74.5615 272.574 75.9082 272.574C77.2822 272.574 78.1709 273.716 78.1709 275.445C78.1709 277.182 77.2822 278.316 75.9082 278.316ZM83.8506 278.337C82.8867 278.337 82.2236 277.804 82.2236 277.031C82.2236 276.245 82.8457 275.76 83.9668 275.685L86.0723 275.541V276.327C86.0723 277.455 85.0947 278.337 83.8506 278.337ZM83.666 279.116C84.7256 279.116 85.6963 278.528 86.0928 277.646H86.1133V279H86.9746V274.133C86.9746 272.684 85.9561 271.774 84.3359 271.774C82.7158 271.774 81.6699 272.677 81.5674 273.948H82.4424C82.5996 273.087 83.2695 272.574 84.3154 272.574C85.4229 272.574 86.0723 273.189 86.0723 274.215V274.83L83.8574 274.967C82.2168 275.076 81.3076 275.814 81.3076 277.031C81.3076 278.275 82.2646 279.116 83.666 279.116ZM95.5254 274.14C95.3477 272.868 94.2744 271.774 92.5996 271.774C90.665 271.774 89.3867 273.203 89.3867 275.445C89.3867 277.722 90.665 279.116 92.6064 279.116C94.1787 279.116 95.334 278.159 95.5322 276.799H94.6367C94.4316 277.722 93.6865 278.316 92.6133 278.316C91.2256 278.316 90.3096 277.229 90.3096 275.445C90.3096 273.688 91.2188 272.574 92.6064 272.574C93.7275 272.574 94.4453 273.265 94.6367 274.14H95.5254ZM97.9717 279H98.874V271.891H97.9717V279ZM98.4229 270.455C98.7578 270.455 99.0312 270.188 99.0312 269.854C99.0312 269.525 98.7578 269.259 98.4229 269.259C98.0947 269.259 97.8213 269.525 97.8213 269.854C97.8213 270.188 98.0947 270.455 98.4229 270.455ZM104.431 279.116C105.579 279.116 106.488 278.453 106.892 277.496H106.912V279H107.773V269.136H106.864V273.354H106.844C106.468 272.431 105.559 271.774 104.41 271.774C102.626 271.774 101.389 273.23 101.389 275.445C101.389 277.653 102.633 279.116 104.431 279.116ZM104.588 272.574C105.941 272.574 106.871 273.729 106.871 275.445C106.871 277.168 105.941 278.316 104.588 278.316C103.221 278.316 102.318 277.182 102.318 275.445C102.318 273.709 103.221 272.574 104.588 272.574ZM112.94 278.337C111.977 278.337 111.313 277.804 111.313 277.031C111.313 276.245 111.936 275.76 113.057 275.685L115.162 275.541V276.327C115.162 277.455 114.185 278.337 112.94 278.337ZM112.756 279.116C113.815 279.116 114.786 278.528 115.183 277.646H115.203V279H116.064V274.133C116.064 272.684 115.046 271.774 113.426 271.774C111.806 271.774 110.76 272.677 110.657 273.948H111.532C111.689 273.087 112.359 272.574 113.405 272.574C114.513 272.574 115.162 273.189 115.162 274.215V274.83L112.947 274.967C111.307 275.076 110.397 275.814 110.397 277.031C110.397 278.275 111.354 279.116 112.756 279.116ZM121.519 279.116C122.667 279.116 123.576 278.453 123.979 277.496H124V279H124.861V269.136H123.952V273.354H123.932C123.556 272.431 122.646 271.774 121.498 271.774C119.714 271.774 118.477 273.23 118.477 275.445C118.477 277.653 119.721 279.116 121.519 279.116ZM121.676 272.574C123.029 272.574 123.959 273.729 123.959 275.445C123.959 277.168 123.029 278.316 121.676 278.316C120.309 278.316 119.406 277.182 119.406 275.445C119.406 273.709 120.309 272.574 121.676 272.574ZM134.546 279.116C135.694 279.116 136.604 278.453 137.007 277.496H137.027V279H137.889V269.136H136.979V273.354H136.959C136.583 272.431 135.674 271.774 134.525 271.774C132.741 271.774 131.504 273.23 131.504 275.445C131.504 277.653 132.748 279.116 134.546 279.116ZM134.703 272.574C136.057 272.574 136.986 273.729 136.986 275.445C136.986 277.168 136.057 278.316 134.703 278.316C133.336 278.316 132.434 277.182 132.434 275.445C132.434 273.709 133.336 272.574 134.703 272.574ZM143.575 272.567C144.86 272.567 145.715 273.545 145.735 274.946H141.347C141.422 273.545 142.304 272.567 143.575 272.567ZM145.681 276.983C145.482 277.763 144.737 278.323 143.664 278.323C142.249 278.323 141.34 277.325 141.34 275.719V275.664H146.665V275.281C146.665 273.162 145.476 271.774 143.589 271.774C141.661 271.774 140.41 273.258 140.41 275.466C140.41 277.722 141.647 279.116 143.644 279.116C145.209 279.116 146.364 278.214 146.576 276.983H145.681ZM158.947 271.891H158.045V276.108C158.045 277.441 157.211 278.31 155.974 278.31C154.784 278.31 154.114 277.612 154.114 276.354V271.891H153.205V276.512C153.205 278.111 154.169 279.116 155.714 279.116C156.842 279.116 157.696 278.556 158.072 277.681H158.093V279H158.947V271.891ZM161.756 279H162.658V274.789C162.658 273.47 163.485 272.581 164.716 272.581C165.905 272.581 166.589 273.292 166.589 274.536V279H167.491V274.393C167.491 272.779 166.534 271.774 164.976 271.774C163.827 271.774 162.993 272.342 162.631 273.203H162.61V271.891H161.756V279ZM172.556 278.337C171.592 278.337 170.929 277.804 170.929 277.031C170.929 276.245 171.551 275.76 172.672 275.685L174.777 275.541V276.327C174.777 277.455 173.8 278.337 172.556 278.337ZM172.371 279.116C173.431 279.116 174.401 278.528 174.798 277.646H174.818V279H175.68V274.133C175.68 272.684 174.661 271.774 173.041 271.774C171.421 271.774 170.375 272.677 170.272 273.948H171.147C171.305 273.087 171.975 272.574 173.021 272.574C174.128 272.574 174.777 273.189 174.777 274.215V274.83L172.562 274.967C170.922 275.076 170.013 275.814 170.013 277.031C170.013 278.275 170.97 279.116 172.371 279.116ZM182.568 279H183.471V274.632C183.471 273.422 184.223 272.581 185.269 272.581C186.239 272.581 186.896 273.244 186.896 274.263V279H187.805V274.522C187.805 273.388 188.529 272.581 189.582 272.581C190.614 272.581 191.229 273.244 191.229 274.345V279H192.132V274.14C192.132 272.704 191.223 271.774 189.835 271.774C188.762 271.774 187.928 272.396 187.593 273.271H187.572C187.306 272.376 186.554 271.774 185.515 271.774C184.482 271.774 183.751 272.369 183.443 273.203H183.423V271.891H182.568V279ZM197.196 278.337C196.232 278.337 195.569 277.804 195.569 277.031C195.569 276.245 196.191 275.76 197.312 275.685L199.418 275.541V276.327C199.418 277.455 198.44 278.337 197.196 278.337ZM197.012 279.116C198.071 279.116 199.042 278.528 199.438 277.646H199.459V279H200.32V274.133C200.32 272.684 199.302 271.774 197.682 271.774C196.062 271.774 195.016 272.677 194.913 273.948H195.788C195.945 273.087 196.615 272.574 197.661 272.574C198.769 272.574 199.418 273.189 199.418 274.215V274.83L197.203 274.967C195.562 275.076 194.653 275.814 194.653 277.031C194.653 278.275 195.61 279.116 197.012 279.116ZM202.944 273.791C202.944 274.734 203.56 275.343 204.845 275.664L206 275.951C206.95 276.184 207.306 276.512 207.306 277.127C207.306 277.872 206.602 278.371 205.535 278.371C204.469 278.371 203.771 277.852 203.642 277.011H202.739C202.855 278.262 203.956 279.116 205.48 279.116C207.087 279.116 208.215 278.262 208.215 277.059C208.215 276.04 207.682 275.521 206.26 275.165L205.207 274.912C204.257 274.68 203.84 274.324 203.84 273.743C203.84 273.032 204.503 272.52 205.474 272.52C206.458 272.52 207.107 273.039 207.217 273.88H208.085C207.996 272.629 206.957 271.774 205.501 271.774C203.997 271.774 202.944 272.615 202.944 273.791ZM216.465 274.14C216.287 272.868 215.214 271.774 213.539 271.774C211.604 271.774 210.326 273.203 210.326 275.445C210.326 277.722 211.604 279.116 213.546 279.116C215.118 279.116 216.273 278.159 216.472 276.799H215.576C215.371 277.722 214.626 278.316 213.553 278.316C212.165 278.316 211.249 277.229 211.249 275.445C211.249 273.688 212.158 272.574 213.546 272.574C214.667 272.574 215.385 273.265 215.576 274.14H216.465ZM221.14 278.337C220.176 278.337 219.513 277.804 219.513 277.031C219.513 276.245 220.135 275.76 221.256 275.685L223.361 275.541V276.327C223.361 277.455 222.384 278.337 221.14 278.337ZM220.955 279.116C222.015 279.116 222.985 278.528 223.382 277.646H223.402V279H224.264V274.133C224.264 272.684 223.245 271.774 221.625 271.774C220.005 271.774 218.959 272.677 218.856 273.948H219.731C219.889 273.087 220.559 272.574 221.604 272.574C222.712 272.574 223.361 273.189 223.361 274.215V274.83L221.146 274.967C219.506 275.076 218.597 275.814 218.597 277.031C218.597 278.275 219.554 279.116 220.955 279.116ZM227.031 279H227.934V274.57C227.934 273.422 228.576 272.636 229.588 272.636C229.896 272.636 230.148 272.684 230.265 272.738V271.85C230.155 271.822 229.943 271.774 229.704 271.774C228.829 271.774 228.166 272.287 227.906 273.155H227.886V271.891H227.031V279ZM232.554 279H233.456V271.891H232.554V279ZM233.005 270.455C233.34 270.455 233.613 270.188 233.613 269.854C233.613 269.525 233.34 269.259 233.005 269.259C232.677 269.259 232.403 269.525 232.403 269.854C232.403 270.188 232.677 270.455 233.005 270.455ZM236.388 279H237.29V269.136H236.388V279ZM240.222 279H241.124V269.136H240.222V279ZM246.284 278.337C245.32 278.337 244.657 277.804 244.657 277.031C244.657 276.245 245.279 275.76 246.4 275.685L248.506 275.541V276.327C248.506 277.455 247.528 278.337 246.284 278.337ZM246.1 279.116C247.159 279.116 248.13 278.528 248.526 277.646H248.547V279H249.408V274.133C249.408 272.684 248.39 271.774 246.77 271.774C245.149 271.774 244.104 272.677 244.001 273.948H244.876C245.033 273.087 245.703 272.574 246.749 272.574C247.856 272.574 248.506 273.189 248.506 274.215V274.83L246.291 274.967C244.65 275.076 243.741 275.814 243.741 277.031C243.741 278.275 244.698 279.116 246.1 279.116ZM258.983 279.116C260.132 279.116 261.041 278.453 261.444 277.496H261.465V279H262.326V269.136H261.417V273.354H261.396C261.021 272.431 260.111 271.774 258.963 271.774C257.179 271.774 255.941 273.23 255.941 275.445C255.941 277.653 257.186 279.116 258.983 279.116ZM259.141 272.574C260.494 272.574 261.424 273.729 261.424 275.445C261.424 277.168 260.494 278.316 259.141 278.316C257.773 278.316 256.871 277.182 256.871 275.445C256.871 273.709 257.773 272.574 259.141 272.574ZM268.013 272.567C269.298 272.567 270.152 273.545 270.173 274.946H265.784C265.859 273.545 266.741 272.567 268.013 272.567ZM270.118 276.983C269.92 277.763 269.175 278.323 268.102 278.323C266.687 278.323 265.777 277.325 265.777 275.719V275.664H271.103V275.281C271.103 273.162 269.913 271.774 268.026 271.774C266.099 271.774 264.848 273.258 264.848 275.466C264.848 277.722 266.085 279.116 268.081 279.116C269.646 279.116 270.802 278.214 271.014 276.983H270.118ZM38.0693 296.337C37.1055 296.337 36.4424 295.804 36.4424 295.031C36.4424 294.245 37.0645 293.76 38.1855 293.685L40.291 293.541V294.327C40.291 295.455 39.3135 296.337 38.0693 296.337ZM37.8848 297.116C38.9443 297.116 39.915 296.528 40.3115 295.646H40.332V297H41.1934V292.133C41.1934 290.684 40.1748 289.774 38.5547 289.774C36.9346 289.774 35.8887 290.677 35.7861 291.948H36.6611C36.8184 291.087 37.4883 290.574 38.5342 290.574C39.6416 290.574 40.291 291.189 40.291 292.215V292.83L38.0762 292.967C36.4355 293.076 35.5264 293.814 35.5264 295.031C35.5264 296.275 36.4834 297.116 37.8848 297.116ZM44.0225 297H44.9248V289.891H44.0225V297ZM44.4736 288.455C44.8086 288.455 45.082 288.188 45.082 287.854C45.082 287.525 44.8086 287.259 44.4736 287.259C44.1455 287.259 43.8721 287.525 43.8721 287.854C43.8721 288.188 44.1455 288.455 44.4736 288.455ZM47.6514 291.791C47.6514 292.734 48.2666 293.343 49.5518 293.664L50.707 293.951C51.6572 294.184 52.0127 294.512 52.0127 295.127C52.0127 295.872 51.3086 296.371 50.2422 296.371C49.1758 296.371 48.4785 295.852 48.3486 295.011H47.4463C47.5625 296.262 48.6631 297.116 50.1875 297.116C51.7939 297.116 52.9219 296.262 52.9219 295.059C52.9219 294.04 52.3887 293.521 50.9668 293.165L49.9141 292.912C48.9639 292.68 48.5469 292.324 48.5469 291.743C48.5469 291.032 49.21 290.52 50.1807 290.52C51.165 290.52 51.8145 291.039 51.9238 291.88H52.792C52.7031 290.629 51.6641 289.774 50.208 289.774C48.7041 289.774 47.6514 290.615 47.6514 291.791ZM55.4502 297H56.3525V287.136H55.4502V297ZM61.5127 296.337C60.5488 296.337 59.8857 295.804 59.8857 295.031C59.8857 294.245 60.5078 293.76 61.6289 293.685L63.7344 293.541V294.327C63.7344 295.455 62.7568 296.337 61.5127 296.337ZM61.3281 297.116C62.3877 297.116 63.3584 296.528 63.7549 295.646H63.7754V297H64.6367V292.133C64.6367 290.684 63.6182 289.774 61.998 289.774C60.3779 289.774 59.332 290.677 59.2295 291.948H60.1045C60.2617 291.087 60.9316 290.574 61.9775 290.574C63.085 290.574 63.7344 291.189 63.7344 292.215V292.83L61.5195 292.967C59.8789 293.076 58.9697 293.814 58.9697 295.031C58.9697 296.275 59.9268 297.116 61.3281 297.116ZM67.4043 297H68.3066V292.57C68.3066 291.422 68.9492 290.636 69.9609 290.636C70.2686 290.636 70.5215 290.684 70.6377 290.738V289.85C70.5283 289.822 70.3164 289.774 70.0771 289.774C69.2021 289.774 68.5391 290.287 68.2793 291.155H68.2588V289.891H67.4043V297ZM73.3232 288.113V289.891H72.2637V290.643H73.3232V295.25C73.3232 296.535 73.8018 297.041 74.9912 297.041C75.1826 297.041 75.5654 297.021 75.6611 297V296.228C75.6064 296.241 75.2646 296.255 75.1689 296.255C74.5127 296.255 74.2256 295.94 74.2256 295.209V290.643H75.627V289.891H74.2256V288.113H73.3232ZM80.7256 290.567C82.0107 290.567 82.8652 291.545 82.8857 292.946H78.4971C78.5723 291.545 79.4541 290.567 80.7256 290.567ZM82.8311 294.983C82.6328 295.763 81.8877 296.323 80.8145 296.323C79.3994 296.323 78.4902 295.325 78.4902 293.719V293.664H83.8154V293.281C83.8154 291.162 82.626 289.774 80.7393 289.774C78.8115 289.774 77.5605 291.258 77.5605 293.466C77.5605 295.722 78.7979 297.116 80.7939 297.116C82.3594 297.116 83.5146 296.214 83.7266 294.983H82.8311ZM96.1797 292.14C96.002 290.868 94.9287 289.774 93.2539 289.774C91.3193 289.774 90.041 291.203 90.041 293.445C90.041 295.722 91.3193 297.116 93.2607 297.116C94.833 297.116 95.9883 296.159 96.1865 294.799H95.291C95.0859 295.722 94.3408 296.316 93.2676 296.316C91.8799 296.316 90.9639 295.229 90.9639 293.445C90.9639 291.688 91.873 290.574 93.2607 290.574C94.3818 290.574 95.0996 291.265 95.291 292.14H96.1797ZM101.449 297.116C103.384 297.116 104.689 295.701 104.689 293.445C104.689 291.183 103.384 289.774 101.449 289.774C99.5215 289.774 98.209 291.183 98.209 293.445C98.209 295.701 99.5146 297.116 101.449 297.116ZM101.449 296.316C100.055 296.316 99.1318 295.25 99.1318 293.445C99.1318 291.641 100.055 290.574 101.449 290.574C102.844 290.574 103.773 291.641 103.773 293.445C103.773 295.25 102.844 296.316 101.449 296.316ZM107.143 297H108.045V292.789C108.045 291.47 108.872 290.581 110.103 290.581C111.292 290.581 111.976 291.292 111.976 292.536V297H112.878V292.393C112.878 290.779 111.921 289.774 110.362 289.774C109.214 289.774 108.38 290.342 108.018 291.203H107.997V289.891H107.143V297ZM119.773 297H120.676V292.57C120.676 291.422 121.318 290.636 122.33 290.636C122.638 290.636 122.891 290.684 123.007 290.738V289.85C122.897 289.822 122.686 289.774 122.446 289.774C121.571 289.774 120.908 290.287 120.648 291.155H120.628V289.891H119.773V297ZM127.634 290.567C128.919 290.567 129.773 291.545 129.794 292.946H125.405C125.48 291.545 126.362 290.567 127.634 290.567ZM129.739 294.983C129.541 295.763 128.796 296.323 127.723 296.323C126.308 296.323 125.398 295.325 125.398 293.719V293.664H130.724V293.281C130.724 291.162 129.534 289.774 127.647 289.774C125.72 289.774 124.469 291.258 124.469 293.466C124.469 295.722 125.706 297.116 127.702 297.116C129.268 297.116 130.423 296.214 130.635 294.983H129.739ZM133.04 291.791C133.04 292.734 133.655 293.343 134.94 293.664L136.096 293.951C137.046 294.184 137.401 294.512 137.401 295.127C137.401 295.872 136.697 296.371 135.631 296.371C134.564 296.371 133.867 295.852 133.737 295.011H132.835C132.951 296.262 134.052 297.116 135.576 297.116C137.183 297.116 138.311 296.262 138.311 295.059C138.311 294.04 137.777 293.521 136.355 293.165L135.303 292.912C134.353 292.68 133.936 292.324 133.936 291.743C133.936 291.032 134.599 290.52 135.569 290.52C136.554 290.52 137.203 291.039 137.312 291.88H138.181C138.092 290.629 137.053 289.774 135.597 289.774C134.093 289.774 133.04 290.615 133.04 291.791ZM144.106 289.774C142.951 289.774 142.049 290.451 141.659 291.395H141.632V289.891H140.777V299.352H141.68V295.537H141.707C142.083 296.46 142.979 297.116 144.127 297.116C145.911 297.116 147.135 295.66 147.135 293.445C147.135 291.237 145.904 289.774 144.106 289.774ZM143.949 296.316C142.603 296.316 141.68 295.161 141.68 293.445C141.68 291.736 142.603 290.574 143.949 290.574C145.323 290.574 146.212 291.716 146.212 293.445C146.212 295.182 145.323 296.316 143.949 296.316ZM152.411 290.567C153.696 290.567 154.551 291.545 154.571 292.946H150.183C150.258 291.545 151.14 290.567 152.411 290.567ZM154.517 294.983C154.318 295.763 153.573 296.323 152.5 296.323C151.085 296.323 150.176 295.325 150.176 293.719V293.664H155.501V293.281C155.501 291.162 154.312 289.774 152.425 289.774C150.497 289.774 149.246 291.258 149.246 293.466C149.246 295.722 150.483 297.116 152.479 297.116C154.045 297.116 155.2 296.214 155.412 294.983H154.517ZM163.744 292.14C163.566 290.868 162.493 289.774 160.818 289.774C158.884 289.774 157.605 291.203 157.605 293.445C157.605 295.722 158.884 297.116 160.825 297.116C162.397 297.116 163.553 296.159 163.751 294.799H162.855C162.65 295.722 161.905 296.316 160.832 296.316C159.444 296.316 158.528 295.229 158.528 293.445C158.528 291.688 159.438 290.574 160.825 290.574C161.946 290.574 162.664 291.265 162.855 292.14H163.744ZM166.519 288.113V289.891H165.459V290.643H166.519V295.25C166.519 296.535 166.997 297.041 168.187 297.041C168.378 297.041 168.761 297.021 168.856 297V296.228C168.802 296.241 168.46 296.255 168.364 296.255C167.708 296.255 167.421 295.94 167.421 295.209V290.643H168.822V289.891H167.421V288.113H166.519ZM173.996 297.116C175.931 297.116 177.236 295.701 177.236 293.445C177.236 291.183 175.931 289.774 173.996 289.774C172.068 289.774 170.756 291.183 170.756 293.445C170.756 295.701 172.062 297.116 173.996 297.116ZM173.996 296.316C172.602 296.316 171.679 295.25 171.679 293.445C171.679 291.641 172.602 290.574 173.996 290.574C175.391 290.574 176.32 291.641 176.32 293.445C176.32 295.25 175.391 296.316 173.996 296.316ZM186.101 296.337C185.137 296.337 184.474 295.804 184.474 295.031C184.474 294.245 185.096 293.76 186.217 293.685L188.322 293.541V294.327C188.322 295.455 187.345 296.337 186.101 296.337ZM185.916 297.116C186.976 297.116 187.946 296.528 188.343 295.646H188.363V297H189.225V292.133C189.225 290.684 188.206 289.774 186.586 289.774C184.966 289.774 183.92 290.677 183.817 291.948H184.692C184.85 291.087 185.52 290.574 186.565 290.574C187.673 290.574 188.322 291.189 188.322 292.215V292.83L186.107 292.967C184.467 293.076 183.558 293.814 183.558 295.031C183.558 296.275 184.515 297.116 185.916 297.116ZM192.054 297H192.956V287.136H192.054V297ZM205.73 292.14C205.553 290.868 204.479 289.774 202.805 289.774C200.87 289.774 199.592 291.203 199.592 293.445C199.592 295.722 200.87 297.116 202.812 297.116C204.384 297.116 205.539 296.159 205.737 294.799H204.842C204.637 295.722 203.892 296.316 202.818 296.316C201.431 296.316 200.515 295.229 200.515 293.445C200.515 291.688 201.424 290.574 202.812 290.574C203.933 290.574 204.65 291.265 204.842 292.14H205.73ZM211 297.116C212.935 297.116 214.24 295.701 214.24 293.445C214.24 291.183 212.935 289.774 211 289.774C209.072 289.774 207.76 291.183 207.76 293.445C207.76 295.701 209.065 297.116 211 297.116ZM211 296.316C209.605 296.316 208.683 295.25 208.683 293.445C208.683 291.641 209.605 290.574 211 290.574C212.395 290.574 213.324 291.641 213.324 293.445C213.324 295.25 212.395 296.316 211 296.316ZM216.693 297H217.596V292.57C217.596 291.422 218.238 290.636 219.25 290.636C219.558 290.636 219.811 290.684 219.927 290.738V289.85C219.817 289.822 219.605 289.774 219.366 289.774C218.491 289.774 217.828 290.287 217.568 291.155H217.548V289.891H216.693V297ZM224.629 297.116C226.563 297.116 227.869 295.701 227.869 293.445C227.869 291.183 226.563 289.774 224.629 289.774C222.701 289.774 221.389 291.183 221.389 293.445C221.389 295.701 222.694 297.116 224.629 297.116ZM224.629 296.316C223.234 296.316 222.312 295.25 222.312 293.445C222.312 291.641 223.234 290.574 224.629 290.574C226.023 290.574 226.953 291.641 226.953 293.445C226.953 295.25 226.023 296.316 224.629 296.316ZM230.322 297H231.225V292.789C231.225 291.47 232.052 290.581 233.282 290.581C234.472 290.581 235.155 291.292 235.155 292.536V297H236.058V292.393C236.058 290.779 235.101 289.774 233.542 289.774C232.394 289.774 231.56 290.342 231.197 291.203H231.177V289.891H230.322V297ZM241.122 296.337C240.158 296.337 239.495 295.804 239.495 295.031C239.495 294.245 240.117 293.76 241.238 293.685L243.344 293.541V294.327C243.344 295.455 242.366 296.337 241.122 296.337ZM240.938 297.116C241.997 297.116 242.968 296.528 243.364 295.646H243.385V297H244.246V292.133C244.246 290.684 243.228 289.774 241.607 289.774C239.987 289.774 238.941 290.677 238.839 291.948H239.714C239.871 291.087 240.541 290.574 241.587 290.574C242.694 290.574 243.344 291.189 243.344 292.215V292.83L241.129 292.967C239.488 293.076 238.579 293.814 238.579 295.031C238.579 296.275 239.536 297.116 240.938 297.116ZM252.592 289.891H251.648L249.481 296.05H249.461L247.301 289.891H246.344L248.989 297H249.953L252.592 289.891ZM254.792 297H255.694V289.891H254.792V297ZM255.243 288.455C255.578 288.455 255.852 288.188 255.852 287.854C255.852 287.525 255.578 287.259 255.243 287.259C254.915 287.259 254.642 287.525 254.642 287.854C254.642 288.188 254.915 288.455 255.243 288.455ZM258.564 297H259.467V292.57C259.467 291.422 260.109 290.636 261.121 290.636C261.429 290.636 261.682 290.684 261.798 290.738V289.85C261.688 289.822 261.477 289.774 261.237 289.774C260.362 289.774 259.699 290.287 259.439 291.155H259.419V289.891H258.564V297ZM269.727 289.891H268.824V294.108C268.824 295.441 267.99 296.31 266.753 296.31C265.563 296.31 264.894 295.612 264.894 294.354V289.891H263.984V294.512C263.984 296.111 264.948 297.116 266.493 297.116C267.621 297.116 268.476 296.556 268.852 295.681H268.872V297H269.727V289.891ZM272.392 291.791C272.392 292.734 273.007 293.343 274.292 293.664L275.447 293.951C276.397 294.184 276.753 294.512 276.753 295.127C276.753 295.872 276.049 296.371 274.982 296.371C273.916 296.371 273.219 295.852 273.089 295.011H272.187C272.303 296.262 273.403 297.116 274.928 297.116C276.534 297.116 277.662 296.262 277.662 295.059C277.662 294.04 277.129 293.521 275.707 293.165L274.654 292.912C273.704 292.68 273.287 292.324 273.287 291.743C273.287 291.032 273.95 290.52 274.921 290.52C275.905 290.52 276.555 291.039 276.664 291.88H277.532C277.443 290.629 276.404 289.774 274.948 289.774C273.444 289.774 272.392 290.615 272.392 291.791ZM38.4658 315.116C39.6143 315.116 40.5234 314.453 40.9268 313.496H40.9473V315H41.8086V305.136H40.8994V309.354H40.8789C40.5029 308.431 39.5938 307.774 38.4453 307.774C36.6611 307.774 35.4238 309.23 35.4238 311.445C35.4238 313.653 36.668 315.116 38.4658 315.116ZM38.623 308.574C39.9766 308.574 40.9062 309.729 40.9062 311.445C40.9062 313.168 39.9766 314.316 38.623 314.316C37.2559 314.316 36.3535 313.182 36.3535 311.445C36.3535 309.709 37.2559 308.574 38.623 308.574ZM50.3867 307.891H49.4844V312.108C49.4844 313.441 48.6504 314.31 47.4131 314.31C46.2236 314.31 45.5537 313.612 45.5537 312.354V307.891H44.6445V312.512C44.6445 314.111 45.6084 315.116 47.1533 315.116C48.2812 315.116 49.1357 314.556 49.5117 313.681H49.5322V315H50.3867V307.891ZM53.1953 315H54.0977V310.57C54.0977 309.422 54.7402 308.636 55.752 308.636C56.0596 308.636 56.3125 308.684 56.4287 308.738V307.85C56.3193 307.822 56.1074 307.774 55.8682 307.774C54.9932 307.774 54.3301 308.287 54.0703 309.155H54.0498V307.891H53.1953V315ZM60.7275 314.337C59.7637 314.337 59.1006 313.804 59.1006 313.031C59.1006 312.245 59.7227 311.76 60.8438 311.685L62.9492 311.541V312.327C62.9492 313.455 61.9717 314.337 60.7275 314.337ZM60.543 315.116C61.6025 315.116 62.5732 314.528 62.9697 313.646H62.9902V315H63.8516V310.133C63.8516 308.684 62.833 307.774 61.2129 307.774C59.5928 307.774 58.5469 308.677 58.4443 309.948H59.3193C59.4766 309.087 60.1465 308.574 61.1924 308.574C62.2998 308.574 62.9492 309.189 62.9492 310.215V310.83L60.7344 310.967C59.0938 311.076 58.1846 311.814 58.1846 313.031C58.1846 314.275 59.1416 315.116 60.543 315.116ZM66.6191 315H67.5215V310.789C67.5215 309.47 68.3486 308.581 69.5791 308.581C70.7686 308.581 71.4521 309.292 71.4521 310.536V315H72.3545V310.393C72.3545 308.779 71.3975 307.774 69.8389 307.774C68.6904 307.774 67.8564 308.342 67.4941 309.203H67.4736V307.891H66.6191V315ZM75.5186 306.113V307.891H74.459V308.643H75.5186V313.25C75.5186 314.535 75.9971 315.041 77.1865 315.041C77.3779 315.041 77.7607 315.021 77.8564 315V314.228C77.8018 314.241 77.46 314.255 77.3643 314.255C76.708 314.255 76.4209 313.94 76.4209 313.209V308.643H77.8223V307.891H76.4209V306.113H75.5186ZM82.9209 308.567C84.2061 308.567 85.0605 309.545 85.0811 310.946H80.6924C80.7676 309.545 81.6494 308.567 82.9209 308.567ZM85.0264 312.983C84.8281 313.763 84.083 314.323 83.0098 314.323C81.5947 314.323 80.6855 313.325 80.6855 311.719V311.664H86.0107V311.281C86.0107 309.162 84.8213 307.774 82.9346 307.774C81.0068 307.774 79.7559 309.258 79.7559 311.466C79.7559 313.722 80.9932 315.116 82.9893 315.116C84.5547 315.116 85.71 314.214 85.9219 312.983H85.0264ZM98.293 307.891H97.3906V312.108C97.3906 313.441 96.5566 314.31 95.3193 314.31C94.1299 314.31 93.46 313.612 93.46 312.354V307.891H92.5508V312.512C92.5508 314.111 93.5146 315.116 95.0596 315.116C96.1875 315.116 97.042 314.556 97.418 313.681H97.4385V315H98.293V307.891ZM101.102 315H102.004V310.789C102.004 309.47 102.831 308.581 104.062 308.581C105.251 308.581 105.935 309.292 105.935 310.536V315H106.837V310.393C106.837 308.779 105.88 307.774 104.321 307.774C103.173 307.774 102.339 308.342 101.977 309.203H101.956V307.891H101.102V315ZM116.419 315.116C117.567 315.116 118.477 314.453 118.88 313.496H118.9V315H119.762V305.136H118.853V309.354H118.832C118.456 308.431 117.547 307.774 116.398 307.774C114.614 307.774 113.377 309.23 113.377 311.445C113.377 313.653 114.621 315.116 116.419 315.116ZM116.576 308.574C117.93 308.574 118.859 309.729 118.859 311.445C118.859 313.168 117.93 314.316 116.576 314.316C115.209 314.316 114.307 313.182 114.307 311.445C114.307 309.709 115.209 308.574 116.576 308.574ZM125.448 308.567C126.733 308.567 127.588 309.545 127.608 310.946H123.22C123.295 309.545 124.177 308.567 125.448 308.567ZM127.554 312.983C127.355 313.763 126.61 314.323 125.537 314.323C124.122 314.323 123.213 313.325 123.213 311.719V311.664H128.538V311.281C128.538 309.162 127.349 307.774 125.462 307.774C123.534 307.774 122.283 309.258 122.283 311.466C122.283 313.722 123.521 315.116 125.517 315.116C127.082 315.116 128.237 314.214 128.449 312.983H127.554ZM131.388 306.113V307.891H130.328V308.643H131.388V313.25C131.388 314.535 131.866 315.041 133.056 315.041C133.247 315.041 133.63 315.021 133.726 315V314.228C133.671 314.241 133.329 314.255 133.233 314.255C132.577 314.255 132.29 313.94 132.29 313.209V308.643H133.691V307.891H132.29V306.113H131.388ZM138.79 308.567C140.075 308.567 140.93 309.545 140.95 310.946H136.562C136.637 309.545 137.519 308.567 138.79 308.567ZM140.896 312.983C140.697 313.763 139.952 314.323 138.879 314.323C137.464 314.323 136.555 313.325 136.555 311.719V311.664H141.88V311.281C141.88 309.162 140.69 307.774 138.804 307.774C136.876 307.774 135.625 309.258 135.625 311.466C135.625 313.722 136.862 315.116 138.858 315.116C140.424 315.116 141.579 314.214 141.791 312.983H140.896ZM144.34 315H145.242V310.57C145.242 309.422 145.885 308.636 146.896 308.636C147.204 308.636 147.457 308.684 147.573 308.738V307.85C147.464 307.822 147.252 307.774 147.013 307.774C146.138 307.774 145.475 308.287 145.215 309.155H145.194V307.891H144.34V315ZM149.801 315H150.703V310.632C150.703 309.422 151.455 308.581 152.501 308.581C153.472 308.581 154.128 309.244 154.128 310.263V315H155.037V310.522C155.037 309.388 155.762 308.581 156.814 308.581C157.847 308.581 158.462 309.244 158.462 310.345V315H159.364V310.14C159.364 308.704 158.455 307.774 157.067 307.774C155.994 307.774 155.16 308.396 154.825 309.271H154.805C154.538 308.376 153.786 307.774 152.747 307.774C151.715 307.774 150.983 308.369 150.676 309.203H150.655V307.891H149.801V315ZM162.2 315H163.103V307.891H162.2V315ZM162.651 306.455C162.986 306.455 163.26 306.188 163.26 305.854C163.26 305.525 162.986 305.259 162.651 305.259C162.323 305.259 162.05 305.525 162.05 305.854C162.05 306.188 162.323 306.455 162.651 306.455ZM165.973 315H166.875V310.789C166.875 309.47 167.702 308.581 168.933 308.581C170.122 308.581 170.806 309.292 170.806 310.536V315H171.708V310.393C171.708 308.779 170.751 307.774 169.192 307.774C168.044 307.774 167.21 308.342 166.848 309.203H166.827V307.891H165.973V315ZM176.772 314.337C175.809 314.337 175.146 313.804 175.146 313.031C175.146 312.245 175.768 311.76 176.889 311.685L178.994 311.541V312.327C178.994 313.455 178.017 314.337 176.772 314.337ZM176.588 315.116C177.647 315.116 178.618 314.528 179.015 313.646H179.035V315H179.896V310.133C179.896 308.684 178.878 307.774 177.258 307.774C175.638 307.774 174.592 308.677 174.489 309.948H175.364C175.521 309.087 176.191 308.574 177.237 308.574C178.345 308.574 178.994 309.189 178.994 310.215V310.83L176.779 310.967C175.139 311.076 174.229 311.814 174.229 313.031C174.229 314.275 175.187 315.116 176.588 315.116ZM185.351 315.116C186.499 315.116 187.408 314.453 187.812 313.496H187.832V315H188.693V305.136H187.784V309.354H187.764C187.388 308.431 186.479 307.774 185.33 307.774C183.546 307.774 182.309 309.23 182.309 311.445C182.309 313.653 183.553 315.116 185.351 315.116ZM185.508 308.574C186.861 308.574 187.791 309.729 187.791 311.445C187.791 313.168 186.861 314.316 185.508 314.316C184.141 314.316 183.238 313.182 183.238 311.445C183.238 309.709 184.141 308.574 185.508 308.574ZM194.455 315.116C196.39 315.116 197.695 313.701 197.695 311.445C197.695 309.183 196.39 307.774 194.455 307.774C192.527 307.774 191.215 309.183 191.215 311.445C191.215 313.701 192.521 315.116 194.455 315.116ZM194.455 314.316C193.061 314.316 192.138 313.25 192.138 311.445C192.138 309.641 193.061 308.574 194.455 308.574C195.85 308.574 196.779 309.641 196.779 311.445C196.779 313.25 195.85 314.316 194.455 314.316ZM204.659 306.113V307.891H203.6V308.643H204.659V313.25C204.659 314.535 205.138 315.041 206.327 315.041C206.519 315.041 206.901 315.021 206.997 315V314.228C206.942 314.241 206.601 314.255 206.505 314.255C205.849 314.255 205.562 313.94 205.562 313.209V308.643H206.963V307.891H205.562V306.113H204.659ZM209.56 315H210.462V307.891H209.56V315ZM210.011 306.455C210.346 306.455 210.619 306.188 210.619 305.854C210.619 305.525 210.346 305.259 210.011 305.259C209.683 305.259 209.409 305.525 209.409 305.854C209.409 306.188 209.683 306.455 210.011 306.455ZM216.142 308.567C217.427 308.567 218.281 309.545 218.302 310.946H213.913C213.988 309.545 214.87 308.567 216.142 308.567ZM218.247 312.983C218.049 313.763 217.304 314.323 216.23 314.323C214.815 314.323 213.906 313.325 213.906 311.719V311.664H219.231V311.281C219.231 309.162 218.042 307.774 216.155 307.774C214.228 307.774 212.977 309.258 212.977 311.466C212.977 313.722 214.214 315.116 216.21 315.116C217.775 315.116 218.931 314.214 219.143 312.983H218.247ZM221.691 315H222.594V310.632C222.594 309.422 223.346 308.581 224.392 308.581C225.362 308.581 226.019 309.244 226.019 310.263V315H226.928V310.522C226.928 309.388 227.652 308.581 228.705 308.581C229.737 308.581 230.353 309.244 230.353 310.345V315H231.255V310.14C231.255 308.704 230.346 307.774 228.958 307.774C227.885 307.774 227.051 308.396 226.716 309.271H226.695C226.429 308.376 225.677 307.774 224.638 307.774C223.605 307.774 222.874 308.369 222.566 309.203H222.546V307.891H221.691V315ZM237.358 307.774C236.203 307.774 235.301 308.451 234.911 309.395H234.884V307.891H234.029V317.352H234.932V313.537H234.959C235.335 314.46 236.23 315.116 237.379 315.116C239.163 315.116 240.387 313.66 240.387 311.445C240.387 309.237 239.156 307.774 237.358 307.774ZM237.201 314.316C235.854 314.316 234.932 313.161 234.932 311.445C234.932 309.736 235.854 308.574 237.201 308.574C238.575 308.574 239.464 309.716 239.464 311.445C239.464 313.182 238.575 314.316 237.201 314.316ZM245.738 315.116C247.673 315.116 248.979 313.701 248.979 311.445C248.979 309.183 247.673 307.774 245.738 307.774C243.811 307.774 242.498 309.183 242.498 311.445C242.498 313.701 243.804 315.116 245.738 315.116ZM245.738 314.316C244.344 314.316 243.421 313.25 243.421 311.445C243.421 309.641 244.344 308.574 245.738 308.574C247.133 308.574 248.062 309.641 248.062 311.445C248.062 313.25 247.133 314.316 245.738 314.316ZM251.903 315.062C252.259 315.062 252.539 314.781 252.539 314.426C252.539 314.063 252.259 313.783 251.903 313.783C251.548 313.783 251.261 314.063 251.261 314.426C251.261 314.781 251.548 315.062 251.903 315.062Z" fill="black"/>
<path d="M134.508 243.559H128.121V240.004H134.146V237.738H128.121V234.34H134.508V231.908H125.172V246H134.508V243.559ZM137.154 246H140.006V237.68H142.018V235.58H139.938V234.887C139.938 234.145 140.348 233.734 141.285 233.734C141.568 233.734 141.852 233.754 142.057 233.793V231.908C141.725 231.84 141.129 231.781 140.602 231.781C138.121 231.781 137.154 232.738 137.154 234.789V235.58H135.729V237.68H137.154V246ZM143.57 246H146.422V235.531H143.57V246ZM144.996 234.379C145.855 234.379 146.52 233.725 146.52 232.904C146.52 232.074 145.855 231.43 144.996 231.43C144.137 231.43 143.473 232.074 143.473 232.904C143.473 233.725 144.137 234.379 144.996 234.379ZM157.838 239.428C157.711 237.055 155.914 235.307 153.082 235.307C149.947 235.307 147.945 237.396 147.945 240.756C147.945 244.174 149.947 246.225 153.102 246.225C155.855 246.225 157.701 244.633 157.848 242.162H155.191C155.016 243.305 154.273 243.988 153.131 243.988C151.715 243.988 150.836 242.816 150.836 240.756C150.836 238.734 151.715 237.543 153.121 237.543C154.293 237.543 155.025 238.324 155.191 239.428H157.838ZM163.268 244.105C162.301 244.105 161.656 243.617 161.656 242.836C161.656 242.094 162.262 241.615 163.326 241.537L165.533 241.4V242.162C165.533 243.295 164.508 244.105 163.268 244.105ZM162.33 246.166C163.639 246.166 164.938 245.512 165.523 244.398H165.582V246H168.336V238.803C168.336 236.693 166.588 235.307 163.902 235.307C161.129 235.307 159.4 236.703 159.293 238.734H161.9C162.037 237.963 162.711 237.436 163.775 237.436C164.85 237.436 165.533 238.002 165.533 238.979V239.672L162.896 239.828C160.289 239.984 158.824 241.088 158.824 242.992C158.824 244.877 160.338 246.166 162.33 246.166ZM179.693 239.428C179.566 237.055 177.77 235.307 174.938 235.307C171.803 235.307 169.801 237.396 169.801 240.756C169.801 244.174 171.803 246.225 174.957 246.225C177.711 246.225 179.557 244.633 179.703 242.162H177.047C176.871 243.305 176.129 243.988 174.986 243.988C173.57 243.988 172.691 242.816 172.691 240.756C172.691 238.734 173.57 237.543 174.977 237.543C176.148 237.543 176.881 238.324 177.047 239.428H179.693ZM181.129 246H183.98V235.531H181.129V246ZM182.555 234.379C183.414 234.379 184.078 233.725 184.078 232.904C184.078 232.074 183.414 231.43 182.555 231.43C181.695 231.43 181.031 232.074 181.031 232.904C181.031 233.725 181.695 234.379 182.555 234.379ZM189.928 244.105C188.961 244.105 188.316 243.617 188.316 242.836C188.316 242.094 188.922 241.615 189.986 241.537L192.193 241.4V242.162C192.193 243.295 191.168 244.105 189.928 244.105ZM188.99 246.166C190.299 246.166 191.598 245.512 192.184 244.398H192.242V246H194.996V238.803C194.996 236.693 193.248 235.307 190.562 235.307C187.789 235.307 186.061 236.703 185.953 238.734H188.561C188.697 237.963 189.371 237.436 190.436 237.436C191.51 237.436 192.193 238.002 192.193 238.979V239.672L189.557 239.828C186.949 239.984 185.484 241.088 185.484 242.992C185.484 244.877 186.998 246.166 188.99 246.166Z" fill="#0D3F67"/>
<path d="M116.402 108.244C119.859 108.244 122.271 106.252 122.604 103.107H119.732C119.42 104.777 118.16 105.803 116.412 105.803C114.156 105.803 112.74 103.947 112.74 100.939C112.74 97.9707 114.176 96.1055 116.402 96.1055C118.121 96.1055 119.449 97.2383 119.723 98.9668H122.594C122.369 95.8125 119.791 93.6641 116.402 93.6641C112.32 93.6641 109.732 96.4082 109.732 100.949C109.732 105.5 112.301 108.244 116.402 108.244ZM128.883 99.416C130.152 99.416 131.021 100.334 131.08 101.672H126.637C126.734 100.363 127.633 99.416 128.883 99.416ZM131.119 104.797C130.855 105.598 130.055 106.115 129.01 106.115C127.555 106.115 126.607 105.09 126.607 103.596V103.42H133.824V102.551C133.824 99.3672 131.9 97.3066 128.854 97.3066C125.758 97.3066 123.805 99.4746 123.805 102.814C123.805 106.164 125.738 108.225 128.961 108.225C131.549 108.225 133.424 106.848 133.736 104.797H131.119ZM135.299 108H138.15V102.15C138.15 100.676 138.971 99.8164 140.377 99.8164C140.787 99.8164 141.178 99.8848 141.412 99.9824V97.4727C141.217 97.4141 140.934 97.3652 140.602 97.3652C139.371 97.3652 138.482 98.0879 138.111 99.416H138.053V97.5312H135.299V108ZM143.346 95.1191V97.5312H141.871V99.6797H143.346V105.178C143.346 107.219 144.303 108.039 146.764 108.039C147.34 108.039 147.828 107.99 148.121 107.922V105.822C147.945 105.852 147.682 105.871 147.428 105.871C146.588 105.871 146.197 105.49 146.197 104.689V99.6797H148.131V97.5312H146.197V95.1191H143.346ZM149.742 108H152.594V97.5312H149.742V108ZM151.168 96.3789C152.027 96.3789 152.691 95.7246 152.691 94.9043C152.691 94.0742 152.027 93.4297 151.168 93.4297C150.309 93.4297 149.645 94.0742 149.645 94.9043C149.645 95.7246 150.309 96.3789 151.168 96.3789ZM155.26 108H158.111V99.6797H160.123V97.5801H158.043V96.8867C158.043 96.1445 158.453 95.7344 159.391 95.7344C159.674 95.7344 159.957 95.7539 160.162 95.793V93.9082C159.83 93.8398 159.234 93.7812 158.707 93.7812C156.227 93.7812 155.26 94.7383 155.26 96.7891V97.5801H153.834V99.6797H155.26V108ZM161.676 108H164.527V97.5312H161.676V108ZM163.102 96.3789C163.961 96.3789 164.625 95.7246 164.625 94.9043C164.625 94.0742 163.961 93.4297 163.102 93.4297C162.242 93.4297 161.578 94.0742 161.578 94.9043C161.578 95.7246 162.242 96.3789 163.102 96.3789ZM175.943 101.428C175.816 99.0547 174.02 97.3066 171.188 97.3066C168.053 97.3066 166.051 99.3965 166.051 102.756C166.051 106.174 168.053 108.225 171.207 108.225C173.961 108.225 175.807 106.633 175.953 104.162H173.297C173.121 105.305 172.379 105.988 171.236 105.988C169.82 105.988 168.941 104.816 168.941 102.756C168.941 100.734 169.82 99.543 171.227 99.543C172.398 99.543 173.131 100.324 173.297 101.428H175.943ZM181.373 106.105C180.406 106.105 179.762 105.617 179.762 104.836C179.762 104.094 180.367 103.615 181.432 103.537L183.639 103.4V104.162C183.639 105.295 182.613 106.105 181.373 106.105ZM180.436 108.166C181.744 108.166 183.043 107.512 183.629 106.398H183.688V108H186.441V100.803C186.441 98.6934 184.693 97.3066 182.008 97.3066C179.234 97.3066 177.506 98.7031 177.398 100.734H180.006C180.143 99.9629 180.816 99.4355 181.881 99.4355C182.955 99.4355 183.639 100.002 183.639 100.979V101.672L181.002 101.828C178.395 101.984 176.93 103.088 176.93 104.992C176.93 106.877 178.443 108.166 180.436 108.166ZM192.174 108.166C193.717 108.166 194.928 107.355 195.436 106.203H195.484V108H198.297V93.9082H195.445V99.3281H195.387C194.879 98.166 193.707 97.3652 192.193 97.3652C189.566 97.3652 187.906 99.4258 187.906 102.746C187.906 106.096 189.557 108.166 192.174 108.166ZM193.141 99.6504C194.557 99.6504 195.465 100.861 195.465 102.766C195.465 104.68 194.557 105.871 193.141 105.871C191.705 105.871 190.826 104.689 190.826 102.766C190.826 100.852 191.705 99.6504 193.141 99.6504ZM205.006 108.225C208.17 108.225 210.191 106.203 210.191 102.756C210.191 99.3574 208.141 97.3066 205.006 97.3066C201.871 97.3066 199.82 99.3672 199.82 102.756C199.82 106.193 201.842 108.225 205.006 108.225ZM205.006 106.047C203.6 106.047 202.711 104.865 202.711 102.766C202.711 100.686 203.619 99.4844 205.006 99.4844C206.393 99.4844 207.291 100.686 207.291 102.766C207.291 104.865 206.402 106.047 205.006 106.047Z" fill="#0D3F67"/>
<line x1="25" y1="208.5" x2="285" y2="208.5" stroke="#C4C4C4"/>
<path d="M82.998 43V23.2715H78.8691V43H82.998ZM87.1875 43H91.1797V34.5918C91.1797 32.6914 92.3145 31.3789 94.1055 31.3789C95.8965 31.3789 96.7988 32.4727 96.7988 34.3867V43H100.791V33.5527C100.791 30.1211 98.959 28.0703 95.7051 28.0703C93.4492 28.0703 91.9043 29.1367 91.125 30.9551H91.043V28.3438H87.1875V43ZM105.637 43H109.629V31.3516H112.445V28.4121H109.533V27.4414C109.533 26.4023 110.107 25.8281 111.42 25.8281C111.816 25.8281 112.213 25.8555 112.5 25.9102V23.2715C112.035 23.1758 111.201 23.0938 110.463 23.0938C106.99 23.0938 105.637 24.4336 105.637 27.3047V28.4121H103.641V31.3516H105.637V43ZM122.117 43.3145C126.547 43.3145 129.377 40.4844 129.377 35.6582C129.377 30.9004 126.506 28.0293 122.117 28.0293C117.729 28.0293 114.857 30.9141 114.857 35.6582C114.857 40.4707 117.688 43.3145 122.117 43.3145ZM122.117 40.2656C120.148 40.2656 118.904 38.6113 118.904 35.6719C118.904 32.7598 120.176 31.0781 122.117 31.0781C124.059 31.0781 125.316 32.7598 125.316 35.6719C125.316 38.6113 124.072 40.2656 122.117 40.2656ZM132.691 43H136.684V34.8105C136.684 32.7461 137.832 31.543 139.801 31.543C140.375 31.543 140.922 31.6387 141.25 31.7754V28.2617C140.977 28.1797 140.58 28.1113 140.115 28.1113C138.393 28.1113 137.148 29.123 136.629 30.9824H136.547V28.3438H132.691V43ZM144.141 43H148.133V34.1543C148.133 32.5137 149.158 31.3652 150.676 31.3652C152.152 31.3652 153.041 32.2949 153.041 33.8672V43H156.883V34.0996C156.883 32.4727 157.881 31.3652 159.398 31.3652C160.943 31.3652 161.791 32.2949 161.791 33.9902V43H165.783V32.9922C165.783 30.0391 163.855 28.0703 160.984 28.0703C158.838 28.0703 157.088 29.2324 156.432 31.0781H156.35C155.857 29.1641 154.381 28.0703 152.262 28.0703C150.266 28.0703 148.693 29.2324 148.078 30.9961H147.996V28.3438H144.141V43ZM175.223 40.3477C173.869 40.3477 172.967 39.6641 172.967 38.5703C172.967 37.5312 173.814 36.8613 175.305 36.752L178.395 36.5605V37.627C178.395 39.2129 176.959 40.3477 175.223 40.3477ZM173.91 43.2324C175.742 43.2324 177.561 42.3164 178.381 40.7578H178.463V43H182.318V32.9238C182.318 29.9707 179.871 28.0293 176.111 28.0293C172.229 28.0293 169.809 29.9844 169.658 32.8281H173.309C173.5 31.748 174.443 31.0098 175.934 31.0098C177.438 31.0098 178.395 31.8027 178.395 33.1699V34.1406L174.703 34.3594C171.053 34.5781 169.002 36.123 169.002 38.7891C169.002 41.4277 171.121 43.2324 173.91 43.2324ZM199.469 33.7988C199.291 30.4766 196.775 28.0293 192.811 28.0293C188.422 28.0293 185.619 30.9551 185.619 35.6582C185.619 40.4434 188.422 43.3145 192.838 43.3145C196.693 43.3145 199.277 41.0859 199.482 37.627H195.764C195.518 39.2266 194.479 40.1836 192.879 40.1836C190.896 40.1836 189.666 38.543 189.666 35.6582C189.666 32.8281 190.896 31.1602 192.865 31.1602C194.506 31.1602 195.531 32.2539 195.764 33.7988H199.469ZM202.729 43H206.721V28.3438H202.729V43ZM204.725 26.7305C205.928 26.7305 206.857 25.8145 206.857 24.666C206.857 23.5039 205.928 22.6016 204.725 22.6016C203.521 22.6016 202.592 23.5039 202.592 24.666C202.592 25.8145 203.521 26.7305 204.725 26.7305ZM217.363 43.3145C221.793 43.3145 224.623 40.4844 224.623 35.6582C224.623 30.9004 221.752 28.0293 217.363 28.0293C212.975 28.0293 210.104 30.9141 210.104 35.6582C210.104 40.4707 212.934 43.3145 217.363 43.3145ZM217.363 40.2656C215.395 40.2656 214.15 38.6113 214.15 35.6719C214.15 32.7598 215.422 31.0781 217.363 31.0781C219.305 31.0781 220.562 32.7598 220.562 35.6719C220.562 38.6113 219.318 40.2656 217.363 40.2656ZM218.922 26.2793L222.422 22.041H218.758L215.736 26.2793H218.922ZM227.938 43H231.93V34.5918C231.93 32.6914 233.064 31.3789 234.855 31.3789C236.646 31.3789 237.549 32.4727 237.549 34.3867V43H241.541V33.5527C241.541 30.1211 239.709 28.0703 236.455 28.0703C234.199 28.0703 232.654 29.1367 231.875 30.9551H231.793V28.3438H227.938V43Z" fill="#001A47"/>
<defs>
<filter id="filter0_d" x="-4" y="0" width="328" height="360" filterUnits="userSpaceOnUse" color-interpolation-filters="sRGB">
<feFlood flood-opacity="0" result="BackgroundImageFix"/>
<feColorMatrix in="SourceAlpha" type="matrix" values="0 0 0 0 0 0 0 0 0 0 0 0 0 0 0 0 0 0 127 0"/>
<feOffset dy="4"/>
<feGaussianBlur stdDeviation="2"/>
<feColorMatrix type="matrix" values="0 0 0 0 0 0 0 0 0 0 0 0 0 0 0 0 0 0 0.25 0"/>
<feBlend mode="normal" in2="BackgroundImageFix" result="effect1_dropShadow"/>
<feBlend mode="normal" in="SourceGraphic" in2="effect1_dropShadow" result="shape"/>
</filter>
</defs>
</svg>
