<svg width="283" height="325" viewBox="0 0 283 325" fill="none" xmlns="http://www.w3.org/2000/svg">
<path d="M92.7344 17.582H83.793V12.6055H92.2285V9.43359H83.793V4.67578H92.7344V1.27148H79.6641V21H92.7344V17.582ZM97.6895 2.9668V6.34375H95.625V9.35156H97.6895V17.0488C97.6895 19.9062 99.0293 21.0547 102.475 21.0547C103.281 21.0547 103.965 20.9863 104.375 20.8906V17.9512C104.129 17.9922 103.76 18.0195 103.404 18.0195C102.229 18.0195 101.682 17.4863 101.682 16.3652V9.35156H104.389V6.34375H101.682V2.9668H97.6895ZM107.895 21H111.887V6.34375H107.895V21ZM109.891 4.73047C111.094 4.73047 112.023 3.81445 112.023 2.66602C112.023 1.50391 111.094 0.601562 109.891 0.601562C108.688 0.601562 107.758 1.50391 107.758 2.66602C107.758 3.81445 108.688 4.73047 109.891 4.73047ZM121.285 6.11133C117.58 6.11133 115.27 8.98242 115.27 13.6445C115.27 18.334 117.553 21.2324 121.217 21.2324C123.35 21.2324 125.059 20.1113 125.742 18.498H125.824V25.7852H129.816V6.34375H125.879V8.90039H125.797C125.045 7.23242 123.418 6.11133 121.285 6.11133ZM122.57 18.0195C120.574 18.0195 119.357 16.3652 119.357 13.6719C119.357 10.9785 120.574 9.31055 122.57 9.31055C124.539 9.31055 125.838 11.0059 125.838 13.6719C125.838 16.3516 124.553 18.0195 122.57 18.0195ZM147.213 6.34375H143.221V14.7383C143.221 16.6797 142.113 17.9512 140.336 17.9512C138.572 17.9512 137.602 16.9121 137.602 14.957V6.34375H133.609V15.791C133.609 19.209 135.715 21.2734 138.887 21.2734C141.102 21.2734 142.551 20.207 143.275 18.3613H143.357V21H147.213V6.34375ZM157.637 8.98242C159.414 8.98242 160.631 10.2676 160.713 12.1406H154.492C154.629 10.3086 155.887 8.98242 157.637 8.98242ZM160.768 16.5156C160.398 17.6367 159.277 18.3613 157.814 18.3613C155.777 18.3613 154.451 16.9258 154.451 14.834V14.5879H164.555V13.3711C164.555 8.91406 161.861 6.0293 157.596 6.0293C153.262 6.0293 150.527 9.06445 150.527 13.7402C150.527 18.4297 153.234 21.3145 157.746 21.3145C161.369 21.3145 163.994 19.3867 164.432 16.5156H160.768ZM168.936 2.9668V6.34375H166.871V9.35156H168.936V17.0488C168.936 19.9062 170.275 21.0547 173.721 21.0547C174.527 21.0547 175.211 20.9863 175.621 20.8906V17.9512C175.375 17.9922 175.006 18.0195 174.65 18.0195C173.475 18.0195 172.928 17.4863 172.928 16.3652V9.35156H175.635V6.34375H172.928V2.9668H168.936ZM184.596 18.3477C183.242 18.3477 182.34 17.6641 182.34 16.5703C182.34 15.5312 183.188 14.8613 184.678 14.752L187.768 14.5605V15.627C187.768 17.2129 186.332 18.3477 184.596 18.3477ZM183.283 21.2324C185.115 21.2324 186.934 20.3164 187.754 18.7578H187.836V21H191.691V10.9238C191.691 7.9707 189.244 6.0293 185.484 6.0293C181.602 6.0293 179.182 7.98438 179.031 10.8281H182.682C182.873 9.74805 183.816 9.00977 185.307 9.00977C186.811 9.00977 187.768 9.80273 187.768 11.1699V12.1406L184.076 12.3594C180.426 12.5781 178.375 14.123 178.375 16.7891C178.375 19.4277 180.494 21.2324 183.283 21.2324Z" fill="#132968"/>
<path d="M0.94043 54.3203C1.04297 56.0156 2.49219 57.1572 4.55664 57.1572C6.7373 57.1572 8.13184 56.0225 8.13184 54.293C8.13184 52.9189 7.29785 52.1602 5.31543 51.6611L4.24902 51.3877C2.7998 51.0186 2.18457 50.5195 2.18457 49.6719C2.18457 48.585 3.19629 47.8262 4.56348 47.8262C5.96484 47.8262 6.94922 48.5645 7.03809 49.6787H7.97461C7.91992 48.1133 6.51172 46.9785 4.59082 46.9785C2.64941 46.9785 1.21387 48.1133 1.21387 49.7061C1.21387 51.0049 2.02734 51.7773 3.85254 52.2422L5.07617 52.5566C6.53906 52.9258 7.1748 53.4727 7.1748 54.3955C7.1748 55.5029 6.11523 56.3096 4.63867 56.3096C3.09375 56.3096 1.97949 55.5029 1.87695 54.3203H0.94043ZM13.415 50.5674C14.7002 50.5674 15.5547 51.5449 15.5752 52.9463H11.1865C11.2617 51.5449 12.1436 50.5674 13.415 50.5674ZM15.5205 54.9834C15.3223 55.7627 14.5771 56.3232 13.5039 56.3232C12.0889 56.3232 11.1797 55.3252 11.1797 53.7188V53.6641H16.5049V53.2812C16.5049 51.1621 15.3154 49.7744 13.4287 49.7744C11.501 49.7744 10.25 51.2578 10.25 53.4658C10.25 55.7217 11.4873 57.1162 13.4834 57.1162C15.0488 57.1162 16.2041 56.2139 16.416 54.9834H15.5205ZM25.8955 50.5674C27.1807 50.5674 28.0352 51.5449 28.0557 52.9463H23.667C23.7422 51.5449 24.624 50.5674 25.8955 50.5674ZM28.001 54.9834C27.8027 55.7627 27.0576 56.3232 25.9844 56.3232C24.5693 56.3232 23.6602 55.3252 23.6602 53.7188V53.6641H28.9854V53.2812C28.9854 51.1621 27.7959 49.7744 25.9092 49.7744C23.9814 49.7744 22.7305 51.2578 22.7305 53.4658C22.7305 55.7217 23.9678 57.1162 25.9639 57.1162C27.5293 57.1162 28.6846 56.2139 28.8965 54.9834H28.001ZM31.3018 51.791C31.3018 52.7344 31.917 53.3428 33.2021 53.6641L34.3574 53.9512C35.3076 54.1836 35.6631 54.5117 35.6631 55.127C35.6631 55.8721 34.959 56.3711 33.8926 56.3711C32.8262 56.3711 32.1289 55.8516 31.999 55.0107H31.0967C31.2129 56.2617 32.3135 57.1162 33.8379 57.1162C35.4443 57.1162 36.5723 56.2617 36.5723 55.0586C36.5723 54.04 36.0391 53.5205 34.6172 53.165L33.5645 52.9121C32.6143 52.6797 32.1973 52.3242 32.1973 51.7432C32.1973 51.0322 32.8604 50.5195 33.8311 50.5195C34.8154 50.5195 35.4648 51.0391 35.5742 51.8799H36.4424C36.3535 50.6289 35.3145 49.7744 33.8584 49.7744C32.3545 49.7744 31.3018 50.6152 31.3018 51.791ZM39.4287 48.1133V49.8906H38.3691V50.6426H39.4287V55.25C39.4287 56.5352 39.9072 57.041 41.0967 57.041C41.2881 57.041 41.6709 57.0205 41.7666 57V56.2275C41.7119 56.2412 41.3701 56.2549 41.2744 56.2549C40.6182 56.2549 40.3311 55.9404 40.3311 55.209V50.6426H41.7324V49.8906H40.3311V48.1133H39.4287ZM46.3525 56.3369C45.3887 56.3369 44.7256 55.8037 44.7256 55.0312C44.7256 54.2451 45.3477 53.7598 46.4688 53.6846L48.5742 53.541V54.3271C48.5742 55.4551 47.5967 56.3369 46.3525 56.3369ZM46.168 57.1162C47.2275 57.1162 48.1982 56.5283 48.5947 55.6465H48.6152V57H49.4766V52.1328C49.4766 50.6836 48.458 49.7744 46.8379 49.7744C45.2178 49.7744 44.1719 50.6768 44.0693 51.9482H44.9443C45.1016 51.0869 45.7715 50.5742 46.8174 50.5742C47.9248 50.5742 48.5742 51.1895 48.5742 52.2148V52.8301L46.3594 52.9668C44.7188 53.0762 43.8096 53.8145 43.8096 55.0312C43.8096 56.2754 44.7666 57.1162 46.168 57.1162ZM47.1523 48.8037L48.834 46.7393H47.8359L46.3389 48.8037H47.1523ZM59.1748 56.2686C57.835 56.2686 56.9395 55.1475 56.9395 53.4316C56.9395 51.7021 57.835 50.5742 59.1748 50.5742C60.542 50.5742 61.4648 51.7227 61.4648 53.4248C61.4648 55.127 60.542 56.2686 59.1748 56.2686ZM59.2637 59.6318C61.1641 59.6318 62.374 58.5381 62.374 56.8838V49.8906H61.5127V51.3945H61.4922C61.0752 50.4238 60.166 49.7744 59.0312 49.7744C57.2129 49.7744 56.0098 51.2168 56.0098 53.4248C56.0098 55.626 57.2129 57.0684 59.0107 57.0684C60.1455 57.0684 61.0615 56.4053 61.4443 55.4893H61.4648V56.918C61.4648 58.0801 60.6377 58.8525 59.3047 58.8525C58.2725 58.8525 57.5137 58.3535 57.2812 57.6562H56.3447C56.543 58.7773 57.7119 59.6318 59.2637 59.6318ZM67.999 50.5674C69.2842 50.5674 70.1387 51.5449 70.1592 52.9463H65.7705C65.8457 51.5449 66.7275 50.5674 67.999 50.5674ZM70.1045 54.9834C69.9062 55.7627 69.1611 56.3232 68.0879 56.3232C66.6729 56.3232 65.7637 55.3252 65.7637 53.7188V53.6641H71.0889V53.2812C71.0889 51.1621 69.8994 49.7744 68.0127 49.7744C66.085 49.7744 64.834 51.2578 64.834 53.4658C64.834 55.7217 66.0713 57.1162 68.0674 57.1162C69.6328 57.1162 70.7881 56.2139 71 54.9834H70.1045ZM73.5488 57H74.4512V52.7891C74.4512 51.4697 75.2783 50.5811 76.5088 50.5811C77.6982 50.5811 78.3818 51.292 78.3818 52.5361V57H79.2842V52.3926C79.2842 50.7793 78.3271 49.7744 76.7686 49.7744C75.6201 49.7744 74.7861 50.3418 74.4238 51.2031H74.4033V49.8906H73.5488V57ZM84.8682 50.5674C86.1533 50.5674 87.0078 51.5449 87.0283 52.9463H82.6396C82.7148 51.5449 83.5967 50.5674 84.8682 50.5674ZM86.9736 54.9834C86.7754 55.7627 86.0303 56.3232 84.957 56.3232C83.542 56.3232 82.6328 55.3252 82.6328 53.7188V53.6641H87.958V53.2812C87.958 51.1621 86.7686 49.7744 84.8818 49.7744C82.9541 49.7744 81.7031 51.2578 81.7031 53.4658C81.7031 55.7217 82.9404 57.1162 84.9365 57.1162C86.502 57.1162 87.6572 56.2139 87.8691 54.9834H86.9736ZM90.418 57H91.3203V52.5703C91.3203 51.4219 91.9629 50.6357 92.9746 50.6357C93.2822 50.6357 93.5352 50.6836 93.6514 50.7383V49.8496C93.542 49.8223 93.3301 49.7744 93.0908 49.7744C92.2158 49.7744 91.5527 50.2871 91.293 51.1553H91.2725V49.8906H90.418V57ZM97.9502 56.3369C96.9863 56.3369 96.3232 55.8037 96.3232 55.0312C96.3232 54.2451 96.9453 53.7598 98.0664 53.6846L100.172 53.541V54.3271C100.172 55.4551 99.1943 56.3369 97.9502 56.3369ZM97.7656 57.1162C98.8252 57.1162 99.7959 56.5283 100.192 55.6465H100.213V57H101.074V52.1328C101.074 50.6836 100.056 49.7744 98.4355 49.7744C96.8154 49.7744 95.7695 50.6768 95.667 51.9482H96.542C96.6992 51.0869 97.3691 50.5742 98.415 50.5742C99.5225 50.5742 100.172 51.1895 100.172 52.2148V52.8301L97.957 52.9668C96.3164 53.0762 95.4072 53.8145 95.4072 55.0312C95.4072 56.2754 96.3643 57.1162 97.7656 57.1162ZM103.842 57H104.744V52.7891C104.744 51.4697 105.571 50.5811 106.802 50.5811C107.991 50.5811 108.675 51.292 108.675 52.5361V57H109.577V52.3926C109.577 50.7793 108.62 49.7744 107.062 49.7744C105.913 49.7744 105.079 50.3418 104.717 51.2031H104.696V49.8906H103.842V57ZM115.038 57.1162C116.187 57.1162 117.096 56.4531 117.499 55.4961H117.52V57H118.381V47.1357H117.472V51.3535H117.451C117.075 50.4307 116.166 49.7744 115.018 49.7744C113.233 49.7744 111.996 51.2305 111.996 53.4453C111.996 55.6533 113.24 57.1162 115.038 57.1162ZM115.195 50.5742C116.549 50.5742 117.479 51.7295 117.479 53.4453C117.479 55.168 116.549 56.3164 115.195 56.3164C113.828 56.3164 112.926 55.1816 112.926 53.4453C112.926 51.709 113.828 50.5742 115.195 50.5742ZM124.143 57.1162C126.077 57.1162 127.383 55.7012 127.383 53.4453C127.383 51.1826 126.077 49.7744 124.143 49.7744C122.215 49.7744 120.902 51.1826 120.902 53.4453C120.902 55.7012 122.208 57.1162 124.143 57.1162ZM124.143 56.3164C122.748 56.3164 121.825 55.25 121.825 53.4453C121.825 51.6406 122.748 50.5742 124.143 50.5742C125.537 50.5742 126.467 51.6406 126.467 53.4453C126.467 55.25 125.537 56.3164 124.143 56.3164ZM134.019 57H134.921V47.1357H134.019V57ZM140.081 56.3369C139.117 56.3369 138.454 55.8037 138.454 55.0312C138.454 54.2451 139.076 53.7598 140.197 53.6846L142.303 53.541V54.3271C142.303 55.4551 141.325 56.3369 140.081 56.3369ZM139.896 57.1162C140.956 57.1162 141.927 56.5283 142.323 55.6465H142.344V57H143.205V52.1328C143.205 50.6836 142.187 49.7744 140.566 49.7744C138.946 49.7744 137.9 50.6768 137.798 51.9482H138.673C138.83 51.0869 139.5 50.5742 140.546 50.5742C141.653 50.5742 142.303 51.1895 142.303 52.2148V52.8301L140.088 52.9668C138.447 53.0762 137.538 53.8145 137.538 55.0312C137.538 56.2754 138.495 57.1162 139.896 57.1162ZM150.155 57H151.058V49.8906H150.155V57ZM150.606 48.4551C150.941 48.4551 151.215 48.1885 151.215 47.8535C151.215 47.5254 150.941 47.2588 150.606 47.2588C150.278 47.2588 150.005 47.5254 150.005 47.8535C150.005 48.1885 150.278 48.4551 150.606 48.4551ZM153.928 57H154.83V52.7891C154.83 51.4697 155.657 50.5811 156.888 50.5811C158.077 50.5811 158.761 51.292 158.761 52.5361V57H159.663V52.3926C159.663 50.7793 158.706 49.7744 157.147 49.7744C155.999 49.7744 155.165 50.3418 154.803 51.2031H154.782V49.8906H153.928V57ZM162.8 57H163.709V50.6426H165.233V49.8906H163.702V49.0088C163.702 48.2158 164.064 47.8672 164.748 47.8672C164.939 47.8672 165.131 47.8877 165.274 47.915V47.1699C165.124 47.1426 164.864 47.1152 164.618 47.1152C163.429 47.1152 162.8 47.7031 162.8 48.9883V49.8906H161.809V50.6426H162.8V57ZM170.141 57.1162C172.075 57.1162 173.381 55.7012 173.381 53.4453C173.381 51.1826 172.075 49.7744 170.141 49.7744C168.213 49.7744 166.9 51.1826 166.9 53.4453C166.9 55.7012 168.206 57.1162 170.141 57.1162ZM170.141 56.3164C168.746 56.3164 167.823 55.25 167.823 53.4453C167.823 51.6406 168.746 50.5742 170.141 50.5742C171.535 50.5742 172.465 51.6406 172.465 53.4453C172.465 55.25 171.535 56.3164 170.141 56.3164ZM175.834 57H176.736V52.5703C176.736 51.4219 177.379 50.6357 178.391 50.6357C178.698 50.6357 178.951 50.6836 179.067 50.7383V49.8496C178.958 49.8223 178.746 49.7744 178.507 49.7744C177.632 49.7744 176.969 50.2871 176.709 51.1553H176.688V49.8906H175.834V57ZM181.295 57H182.197V52.6318C182.197 51.4219 182.949 50.5811 183.995 50.5811C184.966 50.5811 185.622 51.2441 185.622 52.2627V57H186.531V52.5225C186.531 51.3877 187.256 50.5811 188.309 50.5811C189.341 50.5811 189.956 51.2441 189.956 52.3447V57H190.858V52.1396C190.858 50.7041 189.949 49.7744 188.562 49.7744C187.488 49.7744 186.654 50.3965 186.319 51.2715H186.299C186.032 50.376 185.28 49.7744 184.241 49.7744C183.209 49.7744 182.478 50.3691 182.17 51.2031H182.149V49.8906H181.295V57ZM195.923 56.3369C194.959 56.3369 194.296 55.8037 194.296 55.0312C194.296 54.2451 194.918 53.7598 196.039 53.6846L198.145 53.541V54.3271C198.145 55.4551 197.167 56.3369 195.923 56.3369ZM195.738 57.1162C196.798 57.1162 197.769 56.5283 198.165 55.6465H198.186V57H199.047V52.1328C199.047 50.6836 198.028 49.7744 196.408 49.7744C194.788 49.7744 193.742 50.6768 193.64 51.9482H194.515C194.672 51.0869 195.342 50.5742 196.388 50.5742C197.495 50.5742 198.145 51.1895 198.145 52.2148V52.8301L195.93 52.9668C194.289 53.0762 193.38 53.8145 193.38 55.0312C193.38 56.2754 194.337 57.1162 195.738 57.1162ZM207.598 52.1396C207.42 50.8682 206.347 49.7744 204.672 49.7744C202.737 49.7744 201.459 51.2031 201.459 53.4453C201.459 55.7217 202.737 57.1162 204.679 57.1162C206.251 57.1162 207.406 56.1592 207.604 54.7988H206.709C206.504 55.7217 205.759 56.3164 204.686 56.3164C203.298 56.3164 202.382 55.2295 202.382 53.4453C202.382 51.6885 203.291 50.5742 204.679 50.5742C205.8 50.5742 206.518 51.2646 206.709 52.1396H207.598ZM210.044 57H210.946V49.8906H210.044V57ZM210.495 48.4551C210.83 48.4551 211.104 48.1885 211.104 47.8535C211.104 47.5254 210.83 47.2588 210.495 47.2588C210.167 47.2588 209.894 47.5254 209.894 47.8535C209.894 48.1885 210.167 48.4551 210.495 48.4551ZM216.701 57.1162C218.636 57.1162 219.941 55.7012 219.941 53.4453C219.941 51.1826 218.636 49.7744 216.701 49.7744C214.773 49.7744 213.461 51.1826 213.461 53.4453C213.461 55.7012 214.767 57.1162 216.701 57.1162ZM216.701 56.3164C215.307 56.3164 214.384 55.25 214.384 53.4453C214.384 51.6406 215.307 50.5742 216.701 50.5742C218.096 50.5742 219.025 51.6406 219.025 53.4453C219.025 55.25 218.096 56.3164 216.701 56.3164ZM217.07 48.8105L218.752 46.7461H217.754L216.257 48.8105H217.07ZM222.395 57H223.297V52.7891C223.297 51.4697 224.124 50.5811 225.354 50.5811C226.544 50.5811 227.228 51.292 227.228 52.5361V57H228.13V52.3926C228.13 50.7793 227.173 49.7744 225.614 49.7744C224.466 49.7744 223.632 50.3418 223.27 51.2031H223.249V49.8906H222.395V57ZM231.444 58.8867L232.306 55.5918H231.342L230.686 58.8867H231.444ZM241.532 50.5674C242.817 50.5674 243.672 51.5449 243.692 52.9463H239.304C239.379 51.5449 240.261 50.5674 241.532 50.5674ZM243.638 54.9834C243.439 55.7627 242.694 56.3232 241.621 56.3232C240.206 56.3232 239.297 55.3252 239.297 53.7188V53.6641H244.622V53.2812C244.622 51.1621 243.433 49.7744 241.546 49.7744C239.618 49.7744 238.367 51.2578 238.367 53.4658C238.367 55.7217 239.604 57.1162 241.601 57.1162C243.166 57.1162 244.321 56.2139 244.533 54.9834H243.638ZM246.938 51.791C246.938 52.7344 247.554 53.3428 248.839 53.6641L249.994 53.9512C250.944 54.1836 251.3 54.5117 251.3 55.127C251.3 55.8721 250.596 56.3711 249.529 56.3711C248.463 56.3711 247.766 55.8516 247.636 55.0107H246.733C246.85 56.2617 247.95 57.1162 249.475 57.1162C251.081 57.1162 252.209 56.2617 252.209 55.0586C252.209 54.04 251.676 53.5205 250.254 53.165L249.201 52.9121C248.251 52.6797 247.834 52.3242 247.834 51.7432C247.834 51.0322 248.497 50.5195 249.468 50.5195C250.452 50.5195 251.102 51.0391 251.211 51.8799H252.079C251.99 50.6289 250.951 49.7744 249.495 49.7744C247.991 49.7744 246.938 50.6152 246.938 51.791ZM258.005 49.7744C256.85 49.7744 255.947 50.4512 255.558 51.3945H255.53V49.8906H254.676V59.3516H255.578V55.5371H255.605C255.981 56.46 256.877 57.1162 258.025 57.1162C259.81 57.1162 261.033 55.6602 261.033 53.4453C261.033 51.2373 259.803 49.7744 258.005 49.7744ZM257.848 56.3164C256.501 56.3164 255.578 55.1611 255.578 53.4453C255.578 51.7363 256.501 50.5742 257.848 50.5742C259.222 50.5742 260.11 51.7158 260.11 53.4453C260.11 55.1816 259.222 56.3164 257.848 56.3164ZM266.31 50.5674C267.595 50.5674 268.449 51.5449 268.47 52.9463H264.081C264.156 51.5449 265.038 50.5674 266.31 50.5674ZM268.415 54.9834C268.217 55.7627 267.472 56.3232 266.398 56.3232C264.983 56.3232 264.074 55.3252 264.074 53.7188V53.6641H269.399V53.2812C269.399 51.1621 268.21 49.7744 266.323 49.7744C264.396 49.7744 263.145 51.2578 263.145 53.4658C263.145 55.7217 264.382 57.1162 266.378 57.1162C267.943 57.1162 269.099 56.2139 269.311 54.9834H268.415ZM271.859 57H272.762V52.5703C272.762 51.4219 273.404 50.6357 274.416 50.6357C274.724 50.6357 274.977 50.6836 275.093 50.7383V49.8496C274.983 49.8223 274.771 49.7744 274.532 49.7744C273.657 49.7744 272.994 50.2871 272.734 51.1553H272.714V49.8906H271.859V57ZM279.392 56.3369C278.428 56.3369 277.765 55.8037 277.765 55.0312C277.765 54.2451 278.387 53.7598 279.508 53.6846L281.613 53.541V54.3271C281.613 55.4551 280.636 56.3369 279.392 56.3369ZM279.207 57.1162C280.267 57.1162 281.237 56.5283 281.634 55.6465H281.654V57H282.516V52.1328C282.516 50.6836 281.497 49.7744 279.877 49.7744C278.257 49.7744 277.211 50.6768 277.108 51.9482H277.983C278.141 51.0869 278.811 50.5742 279.856 50.5742C280.964 50.5742 281.613 51.1895 281.613 52.2148V52.8301L279.398 52.9668C277.758 53.0762 276.849 53.8145 276.849 55.0312C276.849 56.2754 277.806 57.1162 279.207 57.1162ZM95.0449 67.8906H94.1426V72.1084C94.1426 73.4414 93.3086 74.3096 92.0713 74.3096C90.8818 74.3096 90.2119 73.6123 90.2119 72.3545V67.8906H89.3027V72.5117C89.3027 74.1113 90.2666 75.1162 91.8115 75.1162C92.9395 75.1162 93.7939 74.5557 94.1699 73.6807H94.1904V75H95.0449V67.8906ZM97.8535 75H98.7559V70.7891C98.7559 69.4697 99.583 68.5811 100.813 68.5811C102.003 68.5811 102.687 69.292 102.687 70.5361V75H103.589V70.3926C103.589 68.7793 102.632 67.7744 101.073 67.7744C99.9248 67.7744 99.0908 68.3418 98.7285 69.2031H98.708V67.8906H97.8535V75ZM109.248 75.1162C111.183 75.1162 112.488 73.7012 112.488 71.4453C112.488 69.1826 111.183 67.7744 109.248 67.7744C107.32 67.7744 106.008 69.1826 106.008 71.4453C106.008 73.7012 107.313 75.1162 109.248 75.1162ZM109.248 74.3164C107.854 74.3164 106.931 73.25 106.931 71.4453C106.931 69.6406 107.854 68.5742 109.248 68.5742C110.643 68.5742 111.572 69.6406 111.572 71.4453C111.572 73.25 110.643 74.3164 109.248 74.3164ZM114.798 69.791C114.798 70.7344 115.413 71.3428 116.698 71.6641L117.854 71.9512C118.804 72.1836 119.159 72.5117 119.159 73.127C119.159 73.8721 118.455 74.3711 117.389 74.3711C116.322 74.3711 115.625 73.8516 115.495 73.0107H114.593C114.709 74.2617 115.81 75.1162 117.334 75.1162C118.94 75.1162 120.068 74.2617 120.068 73.0586C120.068 72.04 119.535 71.5205 118.113 71.165L117.061 70.9121C116.11 70.6797 115.693 70.3242 115.693 69.7432C115.693 69.0322 116.356 68.5195 117.327 68.5195C118.312 68.5195 118.961 69.0391 119.07 69.8799H119.938C119.85 68.6289 118.811 67.7744 117.354 67.7744C115.851 67.7744 114.798 68.6152 114.798 69.791ZM126.513 69.791C126.513 70.7344 127.128 71.3428 128.413 71.6641L129.568 71.9512C130.519 72.1836 130.874 72.5117 130.874 73.127C130.874 73.8721 130.17 74.3711 129.104 74.3711C128.037 74.3711 127.34 73.8516 127.21 73.0107H126.308C126.424 74.2617 127.524 75.1162 129.049 75.1162C130.655 75.1162 131.783 74.2617 131.783 73.0586C131.783 72.04 131.25 71.5205 129.828 71.165L128.775 70.9121C127.825 70.6797 127.408 70.3242 127.408 69.7432C127.408 69.0322 128.071 68.5195 129.042 68.5195C130.026 68.5195 130.676 69.0391 130.785 69.8799H131.653C131.564 68.6289 130.525 67.7744 129.069 67.7744C127.565 67.7744 126.513 68.6152 126.513 69.791ZM137.06 68.5674C138.345 68.5674 139.199 69.5449 139.22 70.9463H134.831C134.906 69.5449 135.788 68.5674 137.06 68.5674ZM139.165 72.9834C138.967 73.7627 138.222 74.3232 137.148 74.3232C135.733 74.3232 134.824 73.3252 134.824 71.7188V71.6641H140.149V71.2812C140.149 69.1621 138.96 67.7744 137.073 67.7744C135.146 67.7744 133.895 69.2578 133.895 71.4658C133.895 73.7217 135.132 75.1162 137.128 75.1162C138.693 75.1162 139.849 74.2139 140.061 72.9834H139.165ZM145.419 74.2686C144.079 74.2686 143.184 73.1475 143.184 71.4316C143.184 69.7021 144.079 68.5742 145.419 68.5742C146.786 68.5742 147.709 69.7227 147.709 71.4248C147.709 73.127 146.786 74.2686 145.419 74.2686ZM145.508 77.6318C147.408 77.6318 148.618 76.5381 148.618 74.8838V67.8906H147.757V69.3945H147.736C147.319 68.4238 146.41 67.7744 145.275 67.7744C143.457 67.7744 142.254 69.2168 142.254 71.4248C142.254 73.626 143.457 75.0684 145.255 75.0684C146.39 75.0684 147.306 74.4053 147.688 73.4893H147.709V74.918C147.709 76.0801 146.882 76.8525 145.549 76.8525C144.517 76.8525 143.758 76.3535 143.525 75.6562H142.589C142.787 76.7773 143.956 77.6318 145.508 77.6318ZM157.135 67.8906H156.232V72.1084C156.232 73.4414 155.398 74.3096 154.161 74.3096C152.972 74.3096 152.302 73.6123 152.302 72.3545V67.8906H151.393V72.5117C151.393 74.1113 152.356 75.1162 153.901 75.1162C155.029 75.1162 155.884 74.5557 156.26 73.6807H156.28V75H157.135V67.8906ZM159.943 75H160.846V70.7891C160.846 69.4697 161.673 68.5811 162.903 68.5811C164.093 68.5811 164.776 69.292 164.776 70.5361V75H165.679V70.3926C165.679 68.7793 164.722 67.7744 163.163 67.7744C162.015 67.7744 161.181 68.3418 160.818 69.2031H160.798V67.8906H159.943V75ZM171.14 75.1162C172.288 75.1162 173.197 74.4531 173.601 73.4961H173.621V75H174.482V65.1357H173.573V69.3535H173.553C173.177 68.4307 172.268 67.7744 171.119 67.7744C169.335 67.7744 168.098 69.2305 168.098 71.4453C168.098 73.6533 169.342 75.1162 171.14 75.1162ZM171.297 68.5742C172.65 68.5742 173.58 69.7295 173.58 71.4453C173.58 73.168 172.65 74.3164 171.297 74.3164C169.93 74.3164 169.027 73.1816 169.027 71.4453C169.027 69.709 169.93 68.5742 171.297 68.5742ZM180.244 75.1162C182.179 75.1162 183.484 73.7012 183.484 71.4453C183.484 69.1826 182.179 67.7744 180.244 67.7744C178.316 67.7744 177.004 69.1826 177.004 71.4453C177.004 73.7012 178.31 75.1162 180.244 75.1162ZM180.244 74.3164C178.85 74.3164 177.927 73.25 177.927 71.4453C177.927 69.6406 178.85 68.5742 180.244 68.5742C181.639 68.5742 182.568 69.6406 182.568 71.4453C182.568 73.25 181.639 74.3164 180.244 74.3164ZM185.794 69.791C185.794 70.7344 186.409 71.3428 187.694 71.6641L188.85 71.9512C189.8 72.1836 190.155 72.5117 190.155 73.127C190.155 73.8721 189.451 74.3711 188.385 74.3711C187.318 74.3711 186.621 73.8516 186.491 73.0107H185.589C185.705 74.2617 186.806 75.1162 188.33 75.1162C189.937 75.1162 191.064 74.2617 191.064 73.0586C191.064 72.04 190.531 71.5205 189.109 71.165L188.057 70.9121C187.106 70.6797 186.689 70.3242 186.689 69.7432C186.689 69.0322 187.353 68.5195 188.323 68.5195C189.308 68.5195 189.957 69.0391 190.066 69.8799H190.935C190.846 68.6289 189.807 67.7744 188.351 67.7744C186.847 67.7744 185.794 68.6152 185.794 69.791ZM194.345 75.0615C194.7 75.0615 194.98 74.7812 194.98 74.4258C194.98 74.0635 194.7 73.7832 194.345 73.7832C193.989 73.7832 193.702 74.0635 193.702 74.4258C193.702 74.7812 193.989 75.0615 194.345 75.0615Z" fill="#132968"/>
<g opacity="0.7">
<path d="M170.516 162.703C168.316 162.703 166.531 164.488 166.531 166.688C166.531 168.887 168.316 170.672 170.516 170.672C172.715 170.672 174.5 168.887 174.5 166.688C174.5 164.488 172.715 162.703 170.516 162.703Z" fill="#132968"/>
<path fill-rule="evenodd" clip-rule="evenodd" d="M246.331 263.794L193.147 210.611C201.811 197.56 206.375 182.448 206.375 166.688C206.375 122.748 170.627 87 126.688 87C82.7478 87 47 122.748 47 166.688C47 210.627 82.7478 246.375 126.688 246.375C142.448 246.375 157.561 241.811 170.611 233.148L185.311 247.848L185.318 247.854L223.794 286.331C226.805 289.342 230.807 291 235.062 291C239.318 291 243.32 289.342 246.33 286.332C249.341 283.323 251 279.321 251 275.062C251 270.804 249.341 266.802 246.331 263.794ZM168.736 224.751L168.737 224.751C174.894 220.282 180.282 214.894 184.751 208.737C193.684 196.438 198.406 181.898 198.406 166.688C198.406 127.142 166.233 94.9688 126.688 94.9688C87.1418 94.9688 54.9688 127.142 54.9688 166.688C54.9688 206.233 87.1418 238.406 126.688 238.406C141.898 238.406 156.438 233.684 168.736 224.751ZM188.363 217.096C184.99 221.22 181.22 224.989 177.096 228.363L188.4 239.667C192.458 236.23 196.229 232.458 199.667 228.4L188.363 217.096ZM235.062 283.031C237.189 283.031 239.19 282.202 240.696 280.696C242.202 279.191 243.031 277.191 243.031 275.062C243.031 272.934 242.202 270.934 240.697 269.431L205.316 234.05C201.854 238.085 198.085 241.854 194.05 245.317L229.429 280.696C230.935 282.202 232.936 283.031 235.062 283.031Z" fill="#132968"/>
<path d="M240.696 280.696C239.19 282.202 237.189 283.031 235.062 283.031C232.936 283.031 230.935 282.202 229.429 280.696L194.05 245.317C198.085 241.854 201.854 238.085 205.316 234.05L240.697 269.431C242.202 270.934 243.031 272.934 243.031 275.062C243.031 277.191 242.202 279.191 240.696 280.696Z" fill="#132968"/>
<path d="M177.096 228.363C181.22 224.989 184.99 221.22 188.363 217.096L199.667 228.4C196.229 232.458 192.458 236.23 188.4 239.667L177.096 228.363Z" fill="#132968"/>
<path d="M126.688 102.938C91.5354 102.938 62.9375 131.535 62.9375 166.688C62.9375 201.84 91.5354 230.438 126.688 230.438C161.84 230.438 190.438 201.84 190.438 166.688C190.438 131.535 161.84 102.938 126.688 102.938ZM126.688 222.469C95.9297 222.469 70.9062 197.445 70.9062 166.688C70.9062 135.93 95.9297 110.906 126.688 110.906C157.445 110.906 182.469 135.93 182.469 166.688C182.469 197.445 157.445 222.469 126.688 222.469Z" fill="#00CACE"/>
<path d="M171.338 149.584C167.907 140.654 161.934 133.019 154.062 127.505C146.003 121.859 136.537 118.875 126.687 118.875C124.487 118.875 122.703 120.659 122.703 122.859C122.703 125.06 124.487 126.844 126.687 126.844C143.063 126.844 158.017 137.131 163.9 152.442C164.509 154.026 166.018 154.999 167.62 154.999C168.095 154.999 168.578 154.913 169.048 154.732C171.102 153.943 172.128 151.638 171.338 149.584Z" fill="#132968"/>
<g opacity="0.8">
<path d="M157.412 176.027L132.392 201.674C131.936 202.141 131.227 202.178 130.807 201.757L94.8554 165.806C94.4343 165.384 94.4622 164.668 94.9178 164.201C98.5274 160.501 98.7489 154.777 95.4129 151.441C94.9929 151.021 95.0208 150.302 95.4753 149.837L105.757 139.297C106.212 138.831 106.922 138.794 107.342 139.214C110.678 142.55 116.328 142.254 119.938 138.554C120.392 138.088 121.101 138.05 121.522 138.471L157.474 174.423C157.894 174.843 157.866 175.562 157.412 176.027ZM131.693 199.309L155.067 175.35L120.598 140.881C116.379 144.481 110.452 144.792 106.497 141.621L97.78 150.556C100.961 154.522 100.727 160.524 97.2245 164.84L131.693 199.309Z" fill="#132968"/>
<path d="M155.066 175.35L131.693 199.309L97.2244 164.84C100.727 160.524 100.961 154.522 97.7798 150.556L106.496 141.621C110.452 144.792 116.379 144.481 120.598 140.881L155.066 175.35ZM132.625 195.661L151.476 176.339C151.93 175.873 151.958 175.154 151.538 174.734L120.858 144.054C120.525 143.721 119.995 143.666 119.552 143.921C115.638 146.17 111.063 146.41 107.311 144.563C106.884 144.355 106.349 144.464 105.988 144.834L100.947 150.001C100.587 150.371 100.484 150.915 100.696 151.343C102.566 155.12 102.386 159.755 100.214 163.744C99.9678 164.195 100.028 164.731 100.361 165.064L131.041 195.744C131.461 196.164 132.17 196.128 132.625 195.661Z" fill="#00CACE"/>
<path d="M151.476 176.339L132.625 195.661C132.17 196.128 131.461 196.164 131.041 195.744L100.361 165.064C100.028 164.731 99.9679 164.195 100.214 163.744C102.386 159.755 102.566 155.12 100.696 151.343C100.484 150.915 100.587 150.371 100.947 150.001L105.988 144.834C106.349 144.464 106.885 144.355 107.311 144.563C111.063 146.41 115.638 146.17 119.552 143.921C119.995 143.666 120.525 143.721 120.858 144.054L151.538 174.734C151.958 175.154 151.93 175.873 151.476 176.339ZM131.927 193.295L149.131 175.661L119.757 146.287C115.608 148.4 110.92 148.646 106.92 146.96L103.059 150.918C104.772 154.948 104.588 159.696 102.554 163.922L131.927 193.295Z" fill="#132968"/>
<path d="M142.178 175.27C142.598 175.69 142.57 176.409 142.115 176.875C141.66 177.342 140.951 177.378 140.531 176.958L121.043 157.47C120.623 157.05 120.649 156.332 121.105 155.865C121.559 155.399 122.269 155.362 122.689 155.782L142.178 175.27Z" fill="#132968"/>
<path d="M137.639 179.922C138.059 180.342 138.031 181.061 137.577 181.527C137.122 181.993 136.413 182.03 135.993 181.61L116.504 162.122C116.084 161.702 116.112 160.983 116.567 160.517C117.021 160.051 117.731 160.014 118.151 160.434L137.639 179.922Z" fill="#132968"/>
<path d="M133.102 184.573C133.522 184.993 133.494 185.712 133.039 186.178C132.585 186.644 131.875 186.681 131.455 186.261L111.967 166.773C111.547 166.353 111.575 165.634 112.029 165.168C112.484 164.702 113.194 164.665 113.614 165.085L133.102 184.573Z" fill="#132968"/>
<path d="M113.405 152.353C114.664 153.612 114.58 155.771 113.217 157.168C111.856 158.563 109.724 158.676 108.465 157.417C107.206 156.159 107.291 153.998 108.652 152.602C110.014 151.206 112.147 151.095 113.405 152.353ZM111.696 155.646C112.15 155.18 112.178 154.461 111.758 154.041C111.339 153.622 110.628 153.658 110.174 154.124C109.72 154.589 109.692 155.31 110.111 155.729C110.531 156.149 111.242 156.111 111.696 155.646Z" fill="#132968"/>
</g>
</g>
<path d="M68.9297 324C72.5391 324 74.7773 322.137 74.7773 319.16C74.7773 316.922 73.0898 315.246 70.793 315.07V314.977C72.5859 314.707 73.9688 313.16 73.9688 311.309C73.9688 308.719 71.9766 307.09 68.8008 307.09H61.4414V324H68.9297ZM64.9805 309.727H67.8867C69.5391 309.727 70.4883 310.5 70.4883 311.859C70.4883 313.289 69.4102 314.121 67.5234 314.121H64.9805V309.727ZM64.9805 321.363V316.453H67.9453C70.0312 316.453 71.168 317.297 71.168 318.879C71.168 320.496 70.0664 321.363 68.0273 321.363H64.9805ZM81.582 307.09H78.043V318.023C78.043 321.75 80.7969 324.293 85.1328 324.293C89.457 324.293 92.2109 321.75 92.2109 318.023V307.09H88.6719V317.672C88.6719 319.84 87.3945 321.258 85.1328 321.258C82.8594 321.258 81.582 319.84 81.582 317.672V307.09ZM95.6523 319.184C95.7578 322.359 98.3477 324.293 102.414 324.293C106.609 324.293 109.27 322.219 109.27 318.938C109.27 316.359 107.793 314.906 104.406 314.18L102.355 313.746C100.41 313.301 99.5898 312.715 99.5898 311.672C99.5898 310.418 100.762 309.586 102.508 309.586C104.277 309.586 105.531 310.453 105.648 311.883H108.965C108.906 308.824 106.434 306.797 102.496 306.797C98.7227 306.797 96.0273 308.859 96.0273 311.977C96.0273 314.449 97.5625 316.031 100.68 316.699L102.883 317.18C104.922 317.637 105.73 318.246 105.73 319.348C105.73 320.59 104.441 321.492 102.555 321.492C100.68 321.492 99.2266 320.578 99.0625 319.184H95.6523ZM120.176 324.293C124.324 324.293 127.219 321.902 127.617 318.129H124.172C123.797 320.133 122.285 321.363 120.188 321.363C117.48 321.363 115.781 319.137 115.781 315.527C115.781 311.965 117.504 309.727 120.176 309.727C122.238 309.727 123.832 311.086 124.16 313.16H127.605C127.336 309.375 124.242 306.797 120.176 306.797C115.277 306.797 112.172 310.09 112.172 315.539C112.172 321 115.254 324.293 120.176 324.293ZM141.547 324H145.309L139.426 307.09H135.266L129.395 324H133.027L134.316 319.898H140.258L141.547 324ZM137.246 310.324H137.328L139.496 317.25H135.078L137.246 310.324ZM151.68 324V312.926H151.785L159.695 324H162.625V307.09H159.238V318.105H159.145L151.246 307.09H148.293V324H151.68ZM166.699 307.09V324H173.156C178.23 324 181.219 320.848 181.219 315.48C181.219 310.113 178.23 307.09 173.156 307.09H166.699ZM170.238 310.008H172.734C175.852 310.008 177.609 311.953 177.609 315.492C177.609 319.148 175.898 321.07 172.734 321.07H170.238V310.008ZM192.383 306.797C187.367 306.797 184.227 310.16 184.227 315.551C184.227 320.93 187.367 324.293 192.383 324.293C197.387 324.293 200.539 320.93 200.539 315.551C200.539 310.16 197.387 306.797 192.383 306.797ZM192.383 309.75C195.148 309.75 196.918 312 196.918 315.551C196.918 319.09 195.148 321.328 192.383 321.328C189.605 321.328 187.836 319.09 187.836 315.551C187.836 312 189.617 309.75 192.383 309.75ZM204.766 324.141C205.809 324.141 206.652 323.297 206.652 322.254C206.652 321.199 205.809 320.367 204.766 320.367C203.711 320.367 202.879 321.199 202.879 322.254C202.879 323.297 203.711 324.141 204.766 324.141ZM212.695 324.141C213.738 324.141 214.582 323.297 214.582 322.254C214.582 321.199 213.738 320.367 212.695 320.367C211.641 320.367 210.809 321.199 210.809 322.254C210.809 323.297 211.641 324.141 212.695 324.141ZM220.625 324.141C221.668 324.141 222.512 323.297 222.512 322.254C222.512 321.199 221.668 320.367 220.625 320.367C219.57 320.367 218.738 321.199 218.738 322.254C218.738 323.297 219.57 324.141 220.625 324.141Z" fill="#132968"/>
</svg>
