<svg width="46" height="44" viewBox="0 0 46 44" fill="none" xmlns="http://www.w3.org/2000/svg">
<path d="M7.41797 15.1213C6.72894 14.6922 5.82251 14.9029 5.39341 15.5919C4.9643 16.2809 5.17502 17.1874 5.86405 17.6165L7.41797 15.1213ZM13.6856 16.3689L13.2321 14.9708L13.6856 16.3689ZM23.9002 10.7754L23.9002 12.2451L23.9002 10.7754ZM34.3173 16.3689L34.1302 17.8267L34.3173 16.3689ZM24.5921 41.9789L24.6714 43.4465L24.5921 41.9789ZM43.9852 15.7626L45.4528 15.8424L43.9852 15.7626ZM5.86405 17.6165C6.64936 18.1055 7.83255 18.4164 9.18791 18.4839C10.582 18.5534 12.2719 18.3726 14.1391 17.7669L13.2321 14.9708C11.6953 15.4693 10.362 15.5993 9.3342 15.5481C8.26776 15.4949 7.63062 15.2537 7.41797 15.1213L5.86405 17.6165ZM14.1391 17.7669C18.0797 16.4886 19.938 14.9614 21.2487 13.7541C21.9179 13.1376 22.2514 12.8036 22.642 12.5617C22.9438 12.3747 23.2875 12.2451 23.9002 12.2451L23.9002 9.30563C22.7643 9.30563 21.8806 9.57554 21.0941 10.0628C20.3963 10.495 19.7805 11.1099 19.257 11.5921C18.1823 12.5821 16.682 13.8517 13.2321 14.9708L14.1391 17.7669ZM23.9002 12.2451C25.2134 12.2451 26.4992 13.1334 28.251 14.5413C29.0546 15.1872 29.9562 15.9334 30.8866 16.5323C31.8256 17.1367 32.9083 17.6699 34.1302 17.8267L34.5043 14.9111C33.8932 14.8326 33.2366 14.5491 32.4777 14.0606C31.7102 13.5666 30.9556 12.9438 30.0924 12.2501C28.5107 10.9789 26.421 9.30564 23.9002 9.30563L23.9002 12.2451ZM34.1302 17.8267C37.3841 18.2442 40.2846 18.2106 43.7616 16.592L42.521 13.9271C39.7261 15.2282 37.4417 15.288 34.5043 14.9111L34.1302 17.8267ZM42.5176 15.6828C42.3892 18.0443 41.3053 24.1934 38.4563 29.8071C35.6029 35.4293 31.1849 40.1505 24.5127 40.5113L24.6714 43.4465C32.8839 43.0024 38.0245 37.1532 41.0775 31.1374C44.1349 25.113 45.3052 18.5563 45.4528 15.8424L42.5176 15.6828ZM24.5127 40.5113C21.554 40.6712 18.5101 39.8379 15.509 37.3774C12.4745 34.8895 9.43399 30.6942 6.64658 24.058L3.93643 25.1964C6.83449 32.096 10.1153 36.7565 13.6453 39.6505C17.2085 42.5719 20.9722 43.6465 24.6714 43.4465L24.5127 40.5113ZM43.7616 16.592C43.5627 16.6846 43.2744 16.7041 42.9966 16.5451C42.6862 16.3675 42.4992 16.0219 42.5176 15.6828L45.4528 15.8424C45.4959 15.0505 45.0924 14.3577 44.4567 13.9939C43.8535 13.6487 43.131 13.6431 42.521 13.9271L43.7616 16.592Z" fill="#00CACE"/>
<path d="M2 26.2832C2.77303 25.4192 5.33647 23.648 9.40605 23.4752" stroke="#00CACE" stroke-width="2.6129" stroke-linecap="round"/>
<path d="M14.2485 26.8795H35.043" stroke="#00CACE" stroke-width="1.63306" stroke-linecap="round"/>
<path d="M16.4614 21.9005C18.6254 20.9243 24.5966 19.5575 31.1697 21.9005" stroke="#00CACE" stroke-width="1.63306" stroke-linecap="round"/>
<path d="M31.3914 5.12533C33.0615 2.3415 38.6457 2.17864 40.8597 5.12533" stroke="#00CACE" stroke-width="3.91935" stroke-linecap="round"/>
<path d="M31.1697 31.8585C29.0057 32.8348 23.0345 34.2015 16.4614 31.8585" stroke="#00CACE" stroke-width="1.63306" stroke-linecap="round"/>
<ellipse cx="11.136" cy="5.12534" rx="5.32538" ry="5.12534" fill="#00CACE"/>
</svg>
