<svg width="140" height="102" viewBox="0 0 140 102" fill="none" xmlns="http://www.w3.org/2000/svg">
<path d="M96.25 44.25C96.25 45.4103 95.7891 46.5231 94.9686 47.3436C94.1481 48.1641 93.0353 48.625 91.875 48.625H48.125C46.9647 48.625 45.8519 48.1641 45.0314 47.3436C44.2109 46.5231 43.75 45.4103 43.75 44.25C43.75 43.0897 44.2109 41.9769 45.0314 41.1564C45.8519 40.336 46.9647 39.875 48.125 39.875H91.875C93.0353 39.875 94.1481 40.336 94.9686 41.1564C95.7891 41.9769 96.25 43.0897 96.25 44.25ZM91.875 57.375H48.125C46.9647 57.375 45.8519 57.836 45.0314 58.6564C44.2109 59.4769 43.75 60.5897 43.75 61.75C43.75 62.9103 44.2109 64.0231 45.0314 64.8436C45.8519 65.6641 46.9647 66.125 48.125 66.125H91.875C93.0353 66.125 94.1481 65.6641 94.9686 64.8436C95.7891 64.0231 96.25 62.9103 96.25 61.75C96.25 60.5897 95.7891 59.4769 94.9686 58.6564C94.1481 57.836 93.0353 57.375 91.875 57.375ZM140 39.875V53C139.995 57.6397 138.149 62.0879 134.869 65.3686C131.588 68.6494 127.14 70.4948 122.5 70.5H119.658C116.07 78.3641 109.128 85.2651 99.0779 90.8482C87.5815 97.2346 75.2757 100.123 71.7779 100.856C70.6054 101.104 69.3941 101.104 68.2216 100.856C64.7243 100.123 52.4185 97.2346 40.9216 90.8482C30.8722 85.2646 23.9302 78.3646 20.3421 70.5H17.5C12.8603 70.4948 8.41214 68.6494 5.13139 65.3686C1.85063 62.0879 0.00521086 57.6397 0 53L0 39.875C0.00521086 35.2353 1.85063 30.7872 5.13139 27.5064C8.41214 24.2256 12.8603 22.3802 17.5 22.375H18.0638C18.5071 21.1916 19.2009 20.1179 20.0977 19.2276C20.9945 18.3372 22.0731 17.6511 23.2597 17.2163L67.0097 1.30721C68.9416 0.605932 71.0584 0.605932 72.9903 1.30721L116.74 17.2158C117.927 17.6508 119.005 18.337 119.902 19.2274C120.799 20.1179 121.492 21.1916 121.936 22.375H122.5C127.14 22.3802 131.588 24.2256 134.869 27.5064C138.149 30.7872 139.995 35.2353 140 39.875ZM17.8024 61.75C17.602 60.3003 17.5009 58.8386 17.5 57.375V31.125C15.1802 31.1276 12.9561 32.0503 11.3157 33.6907C9.67531 35.3311 8.75261 37.5552 8.75 39.875V53C8.75261 55.3199 9.67531 57.5439 11.3157 59.1843C12.9561 60.8247 15.1802 61.7474 17.5 61.75H17.8024ZM113.75 57.375V25.4397L70 9.53056L26.25 25.4392V57.375C26.25 82.3967 65.5375 91.3535 70.017 92.2924C74.4631 91.3535 113.75 82.3967 113.75 57.375ZM131.25 39.875C131.247 37.5552 130.325 35.3311 128.684 33.6907C127.044 32.0503 124.82 31.1276 122.5 31.125V57.375C122.499 58.8386 122.398 60.3003 122.198 61.75H122.5C124.82 61.7474 127.044 60.8247 128.684 59.1843C130.325 57.5439 131.247 55.3199 131.25 53V39.875Z" fill="white"/>
</svg>
