<svg width="151" height="44" viewBox="0 0 151 44" fill="none" xmlns="http://www.w3.org/2000/svg">
<path d="M7.90625 33H12.4688V16.25H7.90625V33ZM10.1875 14.4062C11.5625 14.4062 12.625 13.3594 12.625 12.0469C12.625 10.7188 11.5625 9.6875 10.1875 9.6875C8.8125 9.6875 7.75 10.7188 7.75 12.0469C7.75 13.3594 8.8125 14.4062 10.1875 14.4062ZM39.7812 33V10.4531H34.3125L27.9062 26.4375H27.7812L21.375 10.4531H15.9062V33H20.1094V17.7812H20.2344L26.3594 32.7812H29.3281L35.4531 17.7812H35.5781V33H39.7812ZM49.2344 29.9688C47.6875 29.9688 46.6562 29.1875 46.6562 27.9375C46.6562 26.75 47.625 25.9844 49.3281 25.8594L52.8594 25.6406V26.8594C52.8594 28.6719 51.2188 29.9688 49.2344 29.9688ZM47.7344 33.2656C49.8281 33.2656 51.9062 32.2188 52.8438 30.4375H52.9375V33H57.3438V21.4844C57.3438 18.1094 54.5469 15.8906 50.25 15.8906C45.8125 15.8906 43.0469 18.125 42.875 21.375H47.0469C47.2656 20.1406 48.3438 19.2969 50.0469 19.2969C51.7656 19.2969 52.8594 20.2031 52.8594 21.7656V22.875L48.6406 23.125C44.4688 23.375 42.125 25.1406 42.125 28.1875C42.125 31.2031 44.5469 33.2656 47.7344 33.2656ZM60.0156 21.1719C60.0156 23.6406 61.6406 25.2969 64.8125 26.0156L67.9062 26.7031C69.4062 27.0625 69.9688 27.5312 69.9688 28.375C69.9688 29.4688 68.9219 30.1562 67.1875 30.1562C65.375 30.1562 64.2656 29.3438 64.0469 27.9375H59.5938C59.8438 31.2031 62.5938 33.3594 67.0625 33.3594C71.4844 33.3594 74.5156 31.1875 74.5156 27.8906C74.5156 25.3906 73.1562 24.0625 69.7969 23.3125L66.5938 22.625C65.125 22.2812 64.4062 21.7188 64.4062 20.8906C64.4062 19.8125 65.4375 19.0938 67.0156 19.0938C68.7031 19.0938 69.7812 19.9219 69.875 21.2656H74.0781C74.0156 18.0156 71.2812 15.8906 67.0781 15.8906C62.7812 15.8906 60.0156 17.9844 60.0156 21.1719ZM81.5312 22.9688H81.4688V10.4531H76.9062V33H81.4688V27.4688L82.6562 26.1875L87.4531 33H92.7031L86 23.4375L92.3906 16.25H87.2188L81.5312 22.9688Z" fill="#132968"/>
<path d="M112.418 15.1213C111.729 14.6922 110.823 14.9029 110.393 15.5919C109.964 16.2809 110.175 17.1874 110.864 17.6165L112.418 15.1213ZM118.686 16.3689L118.232 14.9708L118.686 16.3689ZM128.9 10.7754L128.9 12.2451L128.9 10.7754ZM139.317 16.3689L139.13 17.8267L139.317 16.3689ZM129.592 41.9789L129.671 43.4465L129.592 41.9789ZM148.985 15.7626L150.453 15.8424L148.985 15.7626ZM110.864 17.6165C111.649 18.1055 112.833 18.4164 114.188 18.4839C115.582 18.5534 117.272 18.3726 119.139 17.7669L118.232 14.9708C116.695 15.4693 115.362 15.5993 114.334 15.5481C113.268 15.4949 112.631 15.2537 112.418 15.1213L110.864 17.6165ZM119.139 17.7669C123.08 16.4886 124.938 14.9614 126.249 13.7541C126.918 13.1376 127.251 12.8036 127.642 12.5617C127.944 12.3747 128.287 12.2451 128.9 12.2451L128.9 9.30563C127.764 9.30563 126.881 9.57554 126.094 10.0628C125.396 10.495 124.78 11.1099 124.257 11.5921C123.182 12.5821 121.682 13.8517 118.232 14.9708L119.139 17.7669ZM128.9 12.2451C130.213 12.2451 131.499 13.1334 133.251 14.5413C134.055 15.1872 134.956 15.9334 135.887 16.5323C136.826 17.1367 137.908 17.6699 139.13 17.8267L139.504 14.9111C138.893 14.8326 138.237 14.5491 137.478 14.0606C136.71 13.5666 135.956 12.9438 135.092 12.2501C133.511 10.9789 131.421 9.30564 128.9 9.30563L128.9 12.2451ZM139.13 17.8267C142.384 18.2442 145.285 18.2106 148.762 16.592L147.521 13.9271C144.726 15.2282 142.442 15.288 139.504 14.9111L139.13 17.8267ZM147.518 15.6828C147.389 18.0443 146.305 24.1934 143.456 29.8071C140.603 35.4293 136.185 40.1505 129.513 40.5113L129.671 43.4465C137.884 43.0024 143.024 37.1532 146.078 31.1374C149.135 25.113 150.305 18.5563 150.453 15.8424L147.518 15.6828ZM129.513 40.5113C126.554 40.6712 123.51 39.8379 120.509 37.3774C117.474 34.8895 114.434 30.6942 111.647 24.058L108.936 25.1964C111.834 32.096 115.115 36.7565 118.645 39.6505C122.208 42.5719 125.972 43.6465 129.671 43.4465L129.513 40.5113ZM148.762 16.592C148.563 16.6846 148.274 16.7041 147.997 16.5451C147.686 16.3675 147.499 16.0219 147.518 15.6828L150.453 15.8424C150.496 15.0505 150.092 14.3577 149.457 13.9939C148.854 13.6487 148.131 13.6431 147.521 13.9271L148.762 16.592Z" fill="white"/>
<path d="M107 26.2832C107.773 25.4192 110.336 23.648 114.406 23.4752" stroke="white" stroke-width="2.6129" stroke-linecap="round"/>
<path d="M119.249 26.8795H140.043" stroke="white" stroke-width="1.63306" stroke-linecap="round"/>
<path d="M121.461 21.9005C123.625 20.9243 129.597 19.5575 136.17 21.9005" stroke="white" stroke-width="1.63306" stroke-linecap="round"/>
<path d="M136.391 5.12533C138.061 2.3415 143.646 2.17864 145.86 5.12533" stroke="white" stroke-width="3.91935" stroke-linecap="round"/>
<path d="M136.17 31.8585C134.006 32.8348 128.034 34.2015 121.461 31.8585" stroke="white" stroke-width="1.63306" stroke-linecap="round"/>
<ellipse cx="116.136" cy="5.12534" rx="5.32538" ry="5.12534" fill="white"/>
</svg>
