<svg width="272" height="232" viewBox="0 0 272 232" fill="none" xmlns="http://www.w3.org/2000/svg">
<path d="M86.7344 17.582H77.793V12.6055H86.2285V9.43359H77.793V4.67578H86.7344V1.27148H73.6641V21H86.7344V17.582ZM91.6895 2.9668V6.34375H89.625V9.35156H91.6895V17.0488C91.6895 19.9062 93.0293 21.0547 96.4746 21.0547C97.2812 21.0547 97.9648 20.9863 98.375 20.8906V17.9512C98.1289 17.9922 97.7598 18.0195 97.4043 18.0195C96.2285 18.0195 95.6816 17.4863 95.6816 16.3652V9.35156H98.3887V6.34375H95.6816V2.9668H91.6895ZM101.895 21H105.887V6.34375H101.895V21ZM103.891 4.73047C105.094 4.73047 106.023 3.81445 106.023 2.66602C106.023 1.50391 105.094 0.601562 103.891 0.601562C102.688 0.601562 101.758 1.50391 101.758 2.66602C101.758 3.81445 102.688 4.73047 103.891 4.73047ZM115.285 6.11133C111.58 6.11133 109.27 8.98242 109.27 13.6445C109.27 18.334 111.553 21.2324 115.217 21.2324C117.35 21.2324 119.059 20.1113 119.742 18.498H119.824V25.7852H123.816V6.34375H119.879V8.90039H119.797C119.045 7.23242 117.418 6.11133 115.285 6.11133ZM116.57 18.0195C114.574 18.0195 113.357 16.3652 113.357 13.6719C113.357 10.9785 114.574 9.31055 116.57 9.31055C118.539 9.31055 119.838 11.0059 119.838 13.6719C119.838 16.3516 118.553 18.0195 116.57 18.0195ZM141.213 6.34375H137.221V14.7383C137.221 16.6797 136.113 17.9512 134.336 17.9512C132.572 17.9512 131.602 16.9121 131.602 14.957V6.34375H127.609V15.791C127.609 19.209 129.715 21.2734 132.887 21.2734C135.102 21.2734 136.551 20.207 137.275 18.3613H137.357V21H141.213V6.34375ZM151.637 8.98242C153.414 8.98242 154.631 10.2676 154.713 12.1406H148.492C148.629 10.3086 149.887 8.98242 151.637 8.98242ZM154.768 16.5156C154.398 17.6367 153.277 18.3613 151.814 18.3613C149.777 18.3613 148.451 16.9258 148.451 14.834V14.5879H158.555V13.3711C158.555 8.91406 155.861 6.0293 151.596 6.0293C147.262 6.0293 144.527 9.06445 144.527 13.7402C144.527 18.4297 147.234 21.3145 151.746 21.3145C155.369 21.3145 157.994 19.3867 158.432 16.5156H154.768ZM162.936 2.9668V6.34375H160.871V9.35156H162.936V17.0488C162.936 19.9062 164.275 21.0547 167.721 21.0547C168.527 21.0547 169.211 20.9863 169.621 20.8906V17.9512C169.375 17.9922 169.006 18.0195 168.65 18.0195C167.475 18.0195 166.928 17.4863 166.928 16.3652V9.35156H169.635V6.34375H166.928V2.9668H162.936ZM178.596 18.3477C177.242 18.3477 176.34 17.6641 176.34 16.5703C176.34 15.5312 177.188 14.8613 178.678 14.752L181.768 14.5605V15.627C181.768 17.2129 180.332 18.3477 178.596 18.3477ZM177.283 21.2324C179.115 21.2324 180.934 20.3164 181.754 18.7578H181.836V21H185.691V10.9238C185.691 7.9707 183.244 6.0293 179.484 6.0293C175.602 6.0293 173.182 7.98438 173.031 10.8281H176.682C176.873 9.74805 177.816 9.00977 179.307 9.00977C180.811 9.00977 181.768 9.80273 181.768 11.1699V12.1406L178.076 12.3594C174.426 12.5781 172.375 14.123 172.375 16.7891C172.375 19.4277 174.494 21.2324 177.283 21.2324Z" fill="#132968"/>
<path d="M8.07227 57V47.1357H7.13574V51.5244H1.36621V47.1357H0.436523V57H1.36621V52.3721H7.13574V57H8.07227ZM13.1299 56.3369C12.166 56.3369 11.5029 55.8037 11.5029 55.0312C11.5029 54.2451 12.125 53.7598 13.2461 53.6846L15.3516 53.541V54.3271C15.3516 55.4551 14.374 56.3369 13.1299 56.3369ZM12.9453 57.1162C14.0049 57.1162 14.9756 56.5283 15.3721 55.6465H15.3926V57H16.2539V52.1328C16.2539 50.6836 15.2354 49.7744 13.6152 49.7744C11.9951 49.7744 10.9492 50.6768 10.8467 51.9482H11.7217C11.8789 51.0869 12.5488 50.5742 13.5947 50.5742C14.7021 50.5742 15.3516 51.1895 15.3516 52.2148V52.8301L13.1367 52.9668C11.4961 53.0762 10.5869 53.8145 10.5869 55.0312C10.5869 56.2754 11.5439 57.1162 12.9453 57.1162ZM18.7344 57H24.0186V56.248H19.7734V56.2275L24.0049 50.5742V49.8906H18.7344V50.6426H22.9658V50.6631L18.7344 56.3301V57ZM31.0713 57H31.9805V50.6426H33.5049V49.8906H31.9736V49.0088C31.9736 48.2158 32.3359 47.8672 33.0195 47.8672C33.2109 47.8672 33.4023 47.8877 33.5459 47.915V47.1699C33.3955 47.1426 33.1357 47.1152 32.8896 47.1152C31.7002 47.1152 31.0713 47.7031 31.0713 48.9883V49.8906H30.0801V50.6426H31.0713V57ZM38.4121 57.1162C40.3467 57.1162 41.6523 55.7012 41.6523 53.4453C41.6523 51.1826 40.3467 49.7744 38.4121 49.7744C36.4844 49.7744 35.1719 51.1826 35.1719 53.4453C35.1719 55.7012 36.4775 57.1162 38.4121 57.1162ZM38.4121 56.3164C37.0176 56.3164 36.0947 55.25 36.0947 53.4453C36.0947 51.6406 37.0176 50.5742 38.4121 50.5742C39.8066 50.5742 40.7363 51.6406 40.7363 53.4453C40.7363 55.25 39.8066 56.3164 38.4121 56.3164ZM44.4951 48.1133V49.8906H43.4355V50.6426H44.4951V55.25C44.4951 56.5352 44.9736 57.041 46.1631 57.041C46.3545 57.041 46.7373 57.0205 46.833 57V56.2275C46.7783 56.2412 46.4365 56.2549 46.3408 56.2549C45.6846 56.2549 45.3975 55.9404 45.3975 55.209V50.6426H46.7988V49.8906H45.3975V48.1133H44.4951ZM51.9727 57.1162C53.9072 57.1162 55.2129 55.7012 55.2129 53.4453C55.2129 51.1826 53.9072 49.7744 51.9727 49.7744C50.0449 49.7744 48.7324 51.1826 48.7324 53.4453C48.7324 55.7012 50.0381 57.1162 51.9727 57.1162ZM51.9727 56.3164C50.5781 56.3164 49.6553 55.25 49.6553 53.4453C49.6553 51.6406 50.5781 50.5742 51.9727 50.5742C53.3672 50.5742 54.2969 51.6406 54.2969 53.4453C54.2969 55.25 53.3672 56.3164 51.9727 56.3164ZM64.4736 57.1162C65.6221 57.1162 66.5312 56.4531 66.9346 55.4961H66.9551V57H67.8164V47.1357H66.9072V51.3535H66.8867C66.5107 50.4307 65.6016 49.7744 64.4531 49.7744C62.6689 49.7744 61.4316 51.2305 61.4316 53.4453C61.4316 55.6533 62.6758 57.1162 64.4736 57.1162ZM64.6309 50.5742C65.9844 50.5742 66.9141 51.7295 66.9141 53.4453C66.9141 55.168 65.9844 56.3164 64.6309 56.3164C63.2637 56.3164 62.3613 55.1816 62.3613 53.4453C62.3613 51.709 63.2637 50.5742 64.6309 50.5742ZM73.5029 50.5674C74.7881 50.5674 75.6426 51.5449 75.6631 52.9463H71.2744C71.3496 51.5449 72.2314 50.5674 73.5029 50.5674ZM75.6084 54.9834C75.4102 55.7627 74.665 56.3232 73.5918 56.3232C72.1768 56.3232 71.2676 55.3252 71.2676 53.7188V53.6641H76.5928V53.2812C76.5928 51.1621 75.4033 49.7744 73.5166 49.7744C71.5889 49.7744 70.3379 51.2578 70.3379 53.4658C70.3379 55.7217 71.5752 57.1162 73.5713 57.1162C75.1367 57.1162 76.292 56.2139 76.5039 54.9834H75.6084ZM83.2354 57H84.1377V47.1357H83.2354V57ZM89.2979 56.3369C88.334 56.3369 87.6709 55.8037 87.6709 55.0312C87.6709 54.2451 88.293 53.7598 89.4141 53.6846L91.5195 53.541V54.3271C91.5195 55.4551 90.542 56.3369 89.2979 56.3369ZM89.1133 57.1162C90.1729 57.1162 91.1436 56.5283 91.54 55.6465H91.5605V57H92.4219V52.1328C92.4219 50.6836 91.4033 49.7744 89.7832 49.7744C88.1631 49.7744 87.1172 50.6768 87.0146 51.9482H87.8896C88.0469 51.0869 88.7168 50.5742 89.7627 50.5742C90.8701 50.5742 91.5195 51.1895 91.5195 52.2148V52.8301L89.3047 52.9668C87.6641 53.0762 86.7549 53.8145 86.7549 55.0312C86.7549 56.2754 87.7119 57.1162 89.1133 57.1162ZM102.12 50.5674C103.405 50.5674 104.26 51.5449 104.28 52.9463H99.8916C99.9668 51.5449 100.849 50.5674 102.12 50.5674ZM104.226 54.9834C104.027 55.7627 103.282 56.3232 102.209 56.3232C100.794 56.3232 99.8848 55.3252 99.8848 53.7188V53.6641H105.21V53.2812C105.21 51.1621 104.021 49.7744 102.134 49.7744C100.206 49.7744 98.9551 51.2578 98.9551 53.4658C98.9551 55.7217 100.192 57.1162 102.188 57.1162C103.754 57.1162 104.909 56.2139 105.121 54.9834H104.226ZM108.06 48.1133V49.8906H107V50.6426H108.06V55.25C108.06 56.5352 108.538 57.041 109.728 57.041C109.919 57.041 110.302 57.0205 110.397 57V56.2275C110.343 56.2412 110.001 56.2549 109.905 56.2549C109.249 56.2549 108.962 55.9404 108.962 55.209V50.6426H110.363V49.8906H108.962V48.1133H108.06ZM112.96 57H113.862V49.8906H112.96V57ZM113.411 48.4551C113.746 48.4551 114.02 48.1885 114.02 47.8535C114.02 47.5254 113.746 47.2588 113.411 47.2588C113.083 47.2588 112.81 47.5254 112.81 47.8535C112.81 48.1885 113.083 48.4551 113.411 48.4551ZM119.405 49.7744C117.601 49.7744 116.377 51.2305 116.377 53.4453C116.377 55.6602 117.594 57.1162 119.392 57.1162C120.526 57.1162 121.442 56.46 121.832 55.5166H121.853V59.3516H122.762V49.8906H121.9V51.3945H121.873C121.47 50.4375 120.567 49.7744 119.405 49.7744ZM119.556 56.3164C118.195 56.3164 117.307 55.1885 117.307 53.4453C117.307 51.7021 118.195 50.5742 119.556 50.5742C120.902 50.5742 121.853 51.7295 121.853 53.4453C121.853 55.1611 120.902 56.3164 119.556 56.3164ZM131.271 49.8906H130.369V54.1084C130.369 55.4414 129.535 56.3096 128.298 56.3096C127.108 56.3096 126.438 55.6123 126.438 54.3545V49.8906H125.529V54.5117C125.529 56.1113 126.493 57.1162 128.038 57.1162C129.166 57.1162 130.021 56.5557 130.396 55.6807H130.417V57H131.271V49.8906ZM136.89 50.5674C138.175 50.5674 139.029 51.5449 139.05 52.9463H134.661C134.736 51.5449 135.618 50.5674 136.89 50.5674ZM138.995 54.9834C138.797 55.7627 138.052 56.3232 136.979 56.3232C135.563 56.3232 134.654 55.3252 134.654 53.7188V53.6641H139.979V53.2812C139.979 51.1621 138.79 49.7744 136.903 49.7744C134.976 49.7744 133.725 51.2578 133.725 53.4658C133.725 55.7217 134.962 57.1162 136.958 57.1162C138.523 57.1162 139.679 56.2139 139.891 54.9834H138.995ZM142.829 48.1133V49.8906H141.77V50.6426H142.829V55.25C142.829 56.5352 143.308 57.041 144.497 57.041C144.688 57.041 145.071 57.0205 145.167 57V56.2275C145.112 56.2412 144.771 56.2549 144.675 56.2549C144.019 56.2549 143.731 55.9404 143.731 55.209V50.6426H145.133V49.8906H143.731V48.1133H142.829ZM149.753 56.3369C148.789 56.3369 148.126 55.8037 148.126 55.0312C148.126 54.2451 148.748 53.7598 149.869 53.6846L151.975 53.541V54.3271C151.975 55.4551 150.997 56.3369 149.753 56.3369ZM149.568 57.1162C150.628 57.1162 151.599 56.5283 151.995 55.6465H152.016V57H152.877V52.1328C152.877 50.6836 151.858 49.7744 150.238 49.7744C148.618 49.7744 147.572 50.6768 147.47 51.9482H148.345C148.502 51.0869 149.172 50.5742 150.218 50.5742C151.325 50.5742 151.975 51.1895 151.975 52.2148V52.8301L149.76 52.9668C148.119 53.0762 147.21 53.8145 147.21 55.0312C147.21 56.2754 148.167 57.1162 149.568 57.1162ZM163.095 49.7744C161.939 49.7744 161.037 50.4512 160.647 51.3945H160.62V49.8906H159.766V59.3516H160.668V55.5371H160.695C161.071 56.46 161.967 57.1162 163.115 57.1162C164.899 57.1162 166.123 55.6602 166.123 53.4453C166.123 51.2373 164.893 49.7744 163.095 49.7744ZM162.938 56.3164C161.591 56.3164 160.668 55.1611 160.668 53.4453C160.668 51.7363 161.591 50.5742 162.938 50.5742C164.312 50.5742 165.2 51.7158 165.2 53.4453C165.2 55.1816 164.312 56.3164 162.938 56.3164ZM170.88 56.3369C169.916 56.3369 169.253 55.8037 169.253 55.0312C169.253 54.2451 169.875 53.7598 170.996 53.6846L173.102 53.541V54.3271C173.102 55.4551 172.124 56.3369 170.88 56.3369ZM170.695 57.1162C171.755 57.1162 172.726 56.5283 173.122 55.6465H173.143V57H174.004V52.1328C174.004 50.6836 172.985 49.7744 171.365 49.7744C169.745 49.7744 168.699 50.6768 168.597 51.9482H169.472C169.629 51.0869 170.299 50.5742 171.345 50.5742C172.452 50.5742 173.102 51.1895 173.102 52.2148V52.8301L170.887 52.9668C169.246 53.0762 168.337 53.8145 168.337 55.0312C168.337 56.2754 169.294 57.1162 170.695 57.1162ZM176.771 57H177.674V52.5703C177.674 51.4219 178.316 50.6357 179.328 50.6357C179.636 50.6357 179.889 50.6836 180.005 50.7383V49.8496C179.896 49.8223 179.684 49.7744 179.444 49.7744C178.569 49.7744 177.906 50.2871 177.646 51.1553H177.626V49.8906H176.771V57ZM184.304 56.3369C183.34 56.3369 182.677 55.8037 182.677 55.0312C182.677 54.2451 183.299 53.7598 184.42 53.6846L186.525 53.541V54.3271C186.525 55.4551 185.548 56.3369 184.304 56.3369ZM184.119 57.1162C185.179 57.1162 186.149 56.5283 186.546 55.6465H186.566V57H187.428V52.1328C187.428 50.6836 186.409 49.7744 184.789 49.7744C183.169 49.7744 182.123 50.6768 182.021 51.9482H182.896C183.053 51.0869 183.723 50.5742 184.769 50.5742C185.876 50.5742 186.525 51.1895 186.525 52.2148V52.8301L184.311 52.9668C182.67 53.0762 181.761 53.8145 181.761 55.0312C181.761 56.2754 182.718 57.1162 184.119 57.1162ZM200.1 52.1396C199.922 50.8682 198.849 49.7744 197.174 49.7744C195.239 49.7744 193.961 51.2031 193.961 53.4453C193.961 55.7217 195.239 57.1162 197.181 57.1162C198.753 57.1162 199.908 56.1592 200.106 54.7988H199.211C199.006 55.7217 198.261 56.3164 197.188 56.3164C195.8 56.3164 194.884 55.2295 194.884 53.4453C194.884 51.6885 195.793 50.5742 197.181 50.5742C198.302 50.5742 199.02 51.2646 199.211 52.1396H200.1ZM205.369 57.1162C207.304 57.1162 208.609 55.7012 208.609 53.4453C208.609 51.1826 207.304 49.7744 205.369 49.7744C203.441 49.7744 202.129 51.1826 202.129 53.4453C202.129 55.7012 203.435 57.1162 205.369 57.1162ZM205.369 56.3164C203.975 56.3164 203.052 55.25 203.052 53.4453C203.052 51.6406 203.975 50.5742 205.369 50.5742C206.764 50.5742 207.693 51.6406 207.693 53.4453C207.693 55.25 206.764 56.3164 205.369 56.3164ZM211.062 57H211.965V52.7891C211.965 51.4697 212.792 50.5811 214.022 50.5811C215.212 50.5811 215.896 51.292 215.896 52.5361V57H216.798V52.3926C216.798 50.7793 215.841 49.7744 214.282 49.7744C213.134 49.7744 212.3 50.3418 211.938 51.2031H211.917V49.8906H211.062V57ZM222.457 57.1162C224.392 57.1162 225.697 55.7012 225.697 53.4453C225.697 51.1826 224.392 49.7744 222.457 49.7744C220.529 49.7744 219.217 51.1826 219.217 53.4453C219.217 55.7012 220.522 57.1162 222.457 57.1162ZM222.457 56.3164C221.062 56.3164 220.14 55.25 220.14 53.4453C220.14 51.6406 221.062 50.5742 222.457 50.5742C223.852 50.5742 224.781 51.6406 224.781 53.4453C224.781 55.25 223.852 56.3164 222.457 56.3164ZM233.934 52.1396C233.756 50.8682 232.683 49.7744 231.008 49.7744C229.073 49.7744 227.795 51.2031 227.795 53.4453C227.795 55.7217 229.073 57.1162 231.015 57.1162C232.587 57.1162 233.742 56.1592 233.94 54.7988H233.045C232.84 55.7217 232.095 56.3164 231.021 56.3164C229.634 56.3164 228.718 55.2295 228.718 53.4453C228.718 51.6885 229.627 50.5742 231.015 50.5742C232.136 50.5742 232.854 51.2646 233.045 52.1396H233.934ZM239.128 50.5674C240.413 50.5674 241.268 51.5449 241.288 52.9463H236.899C236.975 51.5449 237.856 50.5674 239.128 50.5674ZM241.233 54.9834C241.035 55.7627 240.29 56.3232 239.217 56.3232C237.802 56.3232 236.893 55.3252 236.893 53.7188V53.6641H242.218V53.2812C242.218 51.1621 241.028 49.7744 239.142 49.7744C237.214 49.7744 235.963 51.2578 235.963 53.4658C235.963 55.7217 237.2 57.1162 239.196 57.1162C240.762 57.1162 241.917 56.2139 242.129 54.9834H241.233ZM244.678 57H245.58V52.5703C245.58 51.4219 246.223 50.6357 247.234 50.6357C247.542 50.6357 247.795 50.6836 247.911 50.7383V49.8496C247.802 49.8223 247.59 49.7744 247.351 49.7744C246.476 49.7744 245.812 50.2871 245.553 51.1553H245.532V49.8906H244.678V57ZM254.321 57H255.224V47.1357H254.321V57ZM260.979 57.1162C262.913 57.1162 264.219 55.7012 264.219 53.4453C264.219 51.1826 262.913 49.7744 260.979 49.7744C259.051 49.7744 257.738 51.1826 257.738 53.4453C257.738 55.7012 259.044 57.1162 260.979 57.1162ZM260.979 56.3164C259.584 56.3164 258.661 55.25 258.661 53.4453C258.661 51.6406 259.584 50.5742 260.979 50.5742C262.373 50.5742 263.303 51.6406 263.303 53.4453C263.303 55.25 262.373 56.3164 260.979 56.3164ZM266.528 51.791C266.528 52.7344 267.144 53.3428 268.429 53.6641L269.584 53.9512C270.534 54.1836 270.89 54.5117 270.89 55.127C270.89 55.8721 270.186 56.3711 269.119 56.3711C268.053 56.3711 267.355 55.8516 267.226 55.0107H266.323C266.439 56.2617 267.54 57.1162 269.064 57.1162C270.671 57.1162 271.799 56.2617 271.799 55.0586C271.799 54.04 271.266 53.5205 269.844 53.165L268.791 52.9121C267.841 52.6797 267.424 52.3242 267.424 51.7432C267.424 51.0322 268.087 50.5195 269.058 50.5195C270.042 50.5195 270.691 51.0391 270.801 51.8799H271.669C271.58 50.6289 270.541 49.7744 269.085 49.7744C267.581 49.7744 266.528 50.6152 266.528 51.791ZM57.0576 75.1162C58.2061 75.1162 59.1152 74.4531 59.5186 73.4961H59.5391V75H60.4004V65.1357H59.4912V69.3535H59.4707C59.0947 68.4307 58.1855 67.7744 57.0371 67.7744C55.2529 67.7744 54.0156 69.2305 54.0156 71.4453C54.0156 73.6533 55.2598 75.1162 57.0576 75.1162ZM57.2148 68.5742C58.5684 68.5742 59.498 69.7295 59.498 71.4453C59.498 73.168 58.5684 74.3164 57.2148 74.3164C55.8477 74.3164 54.9453 73.1816 54.9453 71.4453C54.9453 69.709 55.8477 68.5742 57.2148 68.5742ZM66.0869 68.5674C67.3721 68.5674 68.2266 69.5449 68.2471 70.9463H63.8584C63.9336 69.5449 64.8154 68.5674 66.0869 68.5674ZM68.1924 72.9834C67.9941 73.7627 67.249 74.3232 66.1758 74.3232C64.7607 74.3232 63.8516 73.3252 63.8516 71.7188V71.6641H69.1768V71.2812C69.1768 69.1621 67.9873 67.7744 66.1006 67.7744C64.1729 67.7744 62.9219 69.2578 62.9219 71.4658C62.9219 73.7217 64.1592 75.1162 66.1553 75.1162C67.7207 75.1162 68.876 74.2139 69.0879 72.9834H68.1924ZM72.0264 66.1133V67.8906H70.9668V68.6426H72.0264V73.25C72.0264 74.5352 72.5049 75.041 73.6943 75.041C73.8857 75.041 74.2686 75.0205 74.3643 75V74.2275C74.3096 74.2412 73.9678 74.2549 73.8721 74.2549C73.2158 74.2549 72.9287 73.9404 72.9287 73.209V68.6426H74.3301V67.8906H72.9287V66.1133H72.0264ZM78.9502 74.3369C77.9863 74.3369 77.3232 73.8037 77.3232 73.0312C77.3232 72.2451 77.9453 71.7598 79.0664 71.6846L81.1719 71.541V72.3271C81.1719 73.4551 80.1943 74.3369 78.9502 74.3369ZM78.7656 75.1162C79.8252 75.1162 80.7959 74.5283 81.1924 73.6465H81.2129V75H82.0742V70.1328C82.0742 68.6836 81.0557 67.7744 79.4355 67.7744C77.8154 67.7744 76.7695 68.6768 76.667 69.9482H77.542C77.6992 69.0869 78.3691 68.5742 79.415 68.5742C80.5225 68.5742 81.1719 69.1895 81.1719 70.2148V70.8301L78.957 70.9668C77.3164 71.0762 76.4072 71.8145 76.4072 73.0312C76.4072 74.2754 77.3643 75.1162 78.7656 75.1162ZM84.9033 75H85.8057V65.1357H84.9033V75ZM88.7373 75H89.6396V65.1357H88.7373V75ZM95.3193 68.5674C96.6045 68.5674 97.459 69.5449 97.4795 70.9463H93.0908C93.166 69.5449 94.0479 68.5674 95.3193 68.5674ZM97.4248 72.9834C97.2266 73.7627 96.4814 74.3232 95.4082 74.3232C93.9932 74.3232 93.084 73.3252 93.084 71.7188V71.6641H98.4092V71.2812C98.4092 69.1621 97.2197 67.7744 95.333 67.7744C93.4053 67.7744 92.1543 69.2578 92.1543 71.4658C92.1543 73.7217 93.3916 75.1162 95.3877 75.1162C96.9531 75.1162 98.1084 74.2139 98.3203 72.9834H97.4248ZM100.726 69.791C100.726 70.7344 101.341 71.3428 102.626 71.6641L103.781 71.9512C104.731 72.1836 105.087 72.5117 105.087 73.127C105.087 73.8721 104.383 74.3711 103.316 74.3711C102.25 74.3711 101.553 73.8516 101.423 73.0107H100.521C100.637 74.2617 101.737 75.1162 103.262 75.1162C104.868 75.1162 105.996 74.2617 105.996 73.0586C105.996 72.04 105.463 71.5205 104.041 71.165L102.988 70.9121C102.038 70.6797 101.621 70.3242 101.621 69.7432C101.621 69.0322 102.284 68.5195 103.255 68.5195C104.239 68.5195 104.889 69.0391 104.998 69.8799H105.866C105.777 68.6289 104.738 67.7744 103.282 67.7744C101.778 67.7744 100.726 68.6152 100.726 69.791ZM115.271 75.1162C116.419 75.1162 117.328 74.4531 117.731 73.4961H117.752V75H118.613V65.1357H117.704V69.3535H117.684C117.308 68.4307 116.398 67.7744 115.25 67.7744C113.466 67.7744 112.229 69.2305 112.229 71.4453C112.229 73.6533 113.473 75.1162 115.271 75.1162ZM115.428 68.5742C116.781 68.5742 117.711 69.7295 117.711 71.4453C117.711 73.168 116.781 74.3164 115.428 74.3164C114.061 74.3164 113.158 73.1816 113.158 71.4453C113.158 69.709 114.061 68.5742 115.428 68.5742ZM124.3 68.5674C125.585 68.5674 126.439 69.5449 126.46 70.9463H122.071C122.146 69.5449 123.028 68.5674 124.3 68.5674ZM126.405 72.9834C126.207 73.7627 125.462 74.3232 124.389 74.3232C122.974 74.3232 122.064 73.3252 122.064 71.7188V71.6641H127.39V71.2812C127.39 69.1621 126.2 67.7744 124.313 67.7744C122.386 67.7744 121.135 69.2578 121.135 71.4658C121.135 73.7217 122.372 75.1162 124.368 75.1162C125.934 75.1162 127.089 74.2139 127.301 72.9834H126.405ZM134.36 66.1133V67.8906H133.301V68.6426H134.36V73.25C134.36 74.5352 134.839 75.041 136.028 75.041C136.22 75.041 136.603 75.0205 136.698 75V74.2275C136.644 74.2412 136.302 74.2549 136.206 74.2549C135.55 74.2549 135.263 73.9404 135.263 73.209V68.6426H136.664V67.8906H135.263V66.1133H134.36ZM144.9 67.8906H143.998V72.1084C143.998 73.4414 143.164 74.3096 141.927 74.3096C140.737 74.3096 140.067 73.6123 140.067 72.3545V67.8906H139.158V72.5117C139.158 74.1113 140.122 75.1162 141.667 75.1162C142.795 75.1162 143.649 74.5557 144.025 73.6807H144.046V75H144.9V67.8906ZM151.83 75H152.732V70.6318C152.732 69.4219 153.484 68.5811 154.53 68.5811C155.501 68.5811 156.157 69.2441 156.157 70.2627V75H157.066V70.5225C157.066 69.3877 157.791 68.5811 158.844 68.5811C159.876 68.5811 160.491 69.2441 160.491 70.3447V75H161.394V70.1396C161.394 68.7041 160.484 67.7744 159.097 67.7744C158.023 67.7744 157.189 68.3965 156.854 69.2715H156.834C156.567 68.376 155.815 67.7744 154.776 67.7744C153.744 67.7744 153.013 68.3691 152.705 69.2031H152.685V67.8906H151.83V75ZM166.458 74.3369C165.494 74.3369 164.831 73.8037 164.831 73.0312C164.831 72.2451 165.453 71.7598 166.574 71.6846L168.68 71.541V72.3271C168.68 73.4551 167.702 74.3369 166.458 74.3369ZM166.273 75.1162C167.333 75.1162 168.304 74.5283 168.7 73.6465H168.721V75H169.582V70.1328C169.582 68.6836 168.563 67.7744 166.943 67.7744C165.323 67.7744 164.277 68.6768 164.175 69.9482H165.05C165.207 69.0869 165.877 68.5742 166.923 68.5742C168.03 68.5742 168.68 69.1895 168.68 70.2148V70.8301L166.465 70.9668C164.824 71.0762 163.915 71.8145 163.915 73.0312C163.915 74.2754 164.872 75.1162 166.273 75.1162ZM172.206 69.791C172.206 70.7344 172.821 71.3428 174.106 71.6641L175.262 71.9512C176.212 72.1836 176.567 72.5117 176.567 73.127C176.567 73.8721 175.863 74.3711 174.797 74.3711C173.73 74.3711 173.033 73.8516 172.903 73.0107H172.001C172.117 74.2617 173.218 75.1162 174.742 75.1162C176.349 75.1162 177.477 74.2617 177.477 73.0586C177.477 72.04 176.943 71.5205 175.521 71.165L174.469 70.9121C173.519 70.6797 173.102 70.3242 173.102 69.7432C173.102 69.0322 173.765 68.5195 174.735 68.5195C175.72 68.5195 176.369 69.0391 176.479 69.8799H177.347C177.258 68.6289 176.219 67.7744 174.763 67.7744C173.259 67.7744 172.206 68.6152 172.206 69.791ZM185.727 70.1396C185.549 68.8682 184.476 67.7744 182.801 67.7744C180.866 67.7744 179.588 69.2031 179.588 71.4453C179.588 73.7217 180.866 75.1162 182.808 75.1162C184.38 75.1162 185.535 74.1592 185.733 72.7988H184.838C184.633 73.7217 183.888 74.3164 182.814 74.3164C181.427 74.3164 180.511 73.2295 180.511 71.4453C180.511 69.6885 181.42 68.5742 182.808 68.5742C183.929 68.5742 184.646 69.2646 184.838 70.1396H185.727ZM190.401 74.3369C189.438 74.3369 188.774 73.8037 188.774 73.0312C188.774 72.2451 189.396 71.7598 190.518 71.6846L192.623 71.541V72.3271C192.623 73.4551 191.646 74.3369 190.401 74.3369ZM190.217 75.1162C191.276 75.1162 192.247 74.5283 192.644 73.6465H192.664V75H193.525V70.1328C193.525 68.6836 192.507 67.7744 190.887 67.7744C189.267 67.7744 188.221 68.6768 188.118 69.9482H188.993C189.15 69.0869 189.82 68.5742 190.866 68.5742C191.974 68.5742 192.623 69.1895 192.623 70.2148V70.8301L190.408 70.9668C188.768 71.0762 187.858 71.8145 187.858 73.0312C187.858 74.2754 188.815 75.1162 190.217 75.1162ZM196.293 75H197.195V70.5703C197.195 69.4219 197.838 68.6357 198.85 68.6357C199.157 68.6357 199.41 68.6836 199.526 68.7383V67.8496C199.417 67.8223 199.205 67.7744 198.966 67.7744C198.091 67.7744 197.428 68.2871 197.168 69.1553H197.147V67.8906H196.293V75ZM201.815 75H202.718V67.8906H201.815V75ZM202.267 66.4551C202.602 66.4551 202.875 66.1885 202.875 65.8535C202.875 65.5254 202.602 65.2588 202.267 65.2588C201.938 65.2588 201.665 65.5254 201.665 65.8535C201.665 66.1885 201.938 66.4551 202.267 66.4551ZM205.649 75H206.552V65.1357H205.649V75ZM209.483 75H210.386V65.1357H209.483V75ZM215.546 74.3369C214.582 74.3369 213.919 73.8037 213.919 73.0312C213.919 72.2451 214.541 71.7598 215.662 71.6846L217.768 71.541V72.3271C217.768 73.4551 216.79 74.3369 215.546 74.3369ZM215.361 75.1162C216.421 75.1162 217.392 74.5283 217.788 73.6465H217.809V75H218.67V70.1328C218.67 68.6836 217.651 67.7744 216.031 67.7744C214.411 67.7744 213.365 68.6768 213.263 69.9482H214.138C214.295 69.0869 214.965 68.5742 216.011 68.5742C217.118 68.5742 217.768 69.1895 217.768 70.2148V70.8301L215.553 70.9668C213.912 71.0762 213.003 71.8145 213.003 73.0312C213.003 74.2754 213.96 75.1162 215.361 75.1162Z" fill="#132968"/>
<path d="M203.767 178.184L153.063 229.52C152.14 230.454 150.714 230.52 149.876 229.671L78.1138 157.016C77.2734 156.165 77.3403 154.724 78.2635 153.789C85.5785 146.383 86.1101 134.875 79.4514 128.133C78.6129 127.285 78.68 125.839 79.601 124.906L100.438 103.81C101.359 102.877 102.787 102.81 103.625 103.658C110.284 110.4 121.653 109.86 128.968 102.454C129.889 101.521 131.315 101.451 132.155 102.302L203.917 174.957C204.755 175.806 204.688 177.252 203.767 178.184ZM151.694 224.755L199.061 176.798L130.26 107.141C121.721 114.339 109.797 114.908 101.889 108.491L84.225 126.376C90.5622 134.382 90.0024 146.452 82.8929 155.097L151.694 224.755Z" fill="#132968"/>
<path d="M199.061 176.798L151.694 224.755L82.8929 155.097C90.0024 146.452 90.5622 134.382 84.225 126.376L101.889 108.491C109.797 114.908 121.721 114.339 130.26 107.14L199.061 176.798ZM153.624 217.429L191.825 178.752C192.746 177.82 192.813 176.374 191.975 175.525L130.736 113.524C130.071 112.851 129.006 112.736 128.111 113.245C120.206 117.729 111.001 118.167 103.483 114.416C102.629 113.993 101.55 114.207 100.818 114.948L90.6022 125.291C89.8725 126.03 89.6585 127.124 90.0786 127.987C93.7815 135.601 93.3492 144.921 88.922 152.921C88.4199 153.828 88.5331 154.906 89.1974 155.579L150.437 217.58C151.275 218.429 152.701 218.363 153.624 217.429Z" fill="#00CACE"/>
<path d="M191.825 178.752L153.624 217.429C152.701 218.363 151.275 218.429 150.436 217.58L89.1974 155.579C88.5331 154.906 88.4199 153.828 88.922 152.921C93.3492 144.921 93.7815 135.601 90.0786 127.987C89.6585 127.124 89.8725 126.03 90.6022 125.291L100.818 114.948C101.55 114.207 102.629 113.993 103.483 114.416C111.001 118.167 120.206 117.729 128.111 113.245C129.006 112.736 130.071 112.851 130.736 113.524L191.975 175.525C192.813 176.374 192.746 177.82 191.825 178.752ZM152.255 212.664L187.119 177.366L128.488 118.005C120.111 122.214 110.68 122.662 102.661 119.233L94.8369 127.155C98.2216 135.276 97.7787 144.824 93.6241 153.303L152.255 212.664Z" fill="#132968"/>
<path d="M173.141 176.513C173.98 177.362 173.913 178.807 172.991 179.74C172.068 180.675 170.642 180.74 169.804 179.891L130.905 140.508C130.066 139.659 130.131 138.215 131.054 137.281C131.975 136.348 133.403 136.28 134.242 137.129L173.141 176.513Z" fill="#132968"/>
<path d="M163.944 185.824C164.783 186.673 164.715 188.119 163.794 189.051C162.873 189.984 161.445 190.052 160.607 189.203L121.708 149.819C120.869 148.97 120.936 147.525 121.857 146.592C122.778 145.66 124.206 145.592 125.045 146.441L163.944 185.824Z" fill="#132968"/>
<path d="M154.749 195.134C155.588 195.982 155.521 197.428 154.6 198.361C153.679 199.293 152.251 199.361 151.412 198.512L112.513 159.129C111.674 158.28 111.741 156.834 112.662 155.901C113.583 154.969 115.011 154.901 115.85 155.75L154.749 195.134Z" fill="#132968"/>
<path d="M115.621 130.142C118.134 132.687 117.933 137.029 115.172 139.824C112.413 142.617 108.123 142.823 105.61 140.278C103.099 137.736 103.3 133.39 106.059 130.597C108.82 127.802 113.11 127.6 115.621 130.142ZM112.134 136.748C113.055 135.816 113.122 134.37 112.284 133.521C111.448 132.674 110.018 132.74 109.097 133.673C108.178 134.603 108.111 136.053 108.947 136.9C109.785 137.749 111.216 137.678 112.134 136.748Z" fill="#132968"/>
</svg>
