<svg width="88" height="37" viewBox="0 0 88 37" fill="none" xmlns="http://www.w3.org/2000/svg">
<path d="M2.16504 25.749H3.92188C4.94727 25.749 5.58984 26.3643 5.58984 27.3213C5.58984 28.2988 4.98145 28.8936 3.94238 28.8936H2.16504V25.749ZM2.16504 30.3906H3.81934L5.6582 34H7.99609L5.91797 30.083C7.05273 29.6387 7.70898 28.5449 7.70898 27.2803C7.70898 25.332 6.41016 24.1357 4.14062 24.1357H0.100586V34H2.16504V30.3906ZM13.3682 27.9912C14.2568 27.9912 14.8652 28.6338 14.9062 29.5703H11.7959C11.8643 28.6543 12.4932 27.9912 13.3682 27.9912ZM14.9336 31.7578C14.749 32.3184 14.1885 32.6807 13.457 32.6807C12.4385 32.6807 11.7754 31.9629 11.7754 30.917V30.7939H16.8271V30.1855C16.8271 27.957 15.4805 26.5146 13.3477 26.5146C11.1807 26.5146 9.81348 28.0322 9.81348 30.3701C9.81348 32.7148 11.167 34.1572 13.4229 34.1572C15.2344 34.1572 16.5469 33.1934 16.7656 31.7578H14.9336ZM23.3887 26.5557C22.3291 26.5557 21.5156 27.0889 21.1191 27.9502H21.0781V26.6719H19.1094V36.3926H21.1055V32.7695H21.1465C21.5361 33.5967 22.3564 34.1162 23.4229 34.1162C25.2549 34.1162 26.3896 32.6943 26.3896 30.3359C26.3896 27.9707 25.248 26.5557 23.3887 26.5557ZM22.7188 32.5098C21.7412 32.5098 21.0986 31.6621 21.0986 30.3359C21.0986 29.0234 21.7412 28.1553 22.7188 28.1553C23.7168 28.1553 24.3457 29.0098 24.3457 30.3359C24.3457 31.6689 23.7168 32.5098 22.7188 32.5098ZM31.96 27.9912C32.8486 27.9912 33.457 28.6338 33.498 29.5703H30.3877C30.4561 28.6543 31.085 27.9912 31.96 27.9912ZM33.5254 31.7578C33.3408 32.3184 32.7803 32.6807 32.0488 32.6807C31.0303 32.6807 30.3672 31.9629 30.3672 30.917V30.7939H35.4189V30.1855C35.4189 27.957 34.0723 26.5146 31.9395 26.5146C29.7725 26.5146 28.4053 28.0322 28.4053 30.3701C28.4053 32.7148 29.7588 34.1572 32.0146 34.1572C33.8262 34.1572 35.1387 33.1934 35.3574 31.7578H33.5254ZM38.2344 24.9834V26.6719H37.2021V28.1758H38.2344V32.0244C38.2344 33.4531 38.9043 34.0273 40.627 34.0273C41.0303 34.0273 41.3721 33.9932 41.5771 33.9453V32.4756C41.4541 32.4961 41.2695 32.5098 41.0918 32.5098C40.5039 32.5098 40.2305 32.2432 40.2305 31.6826V28.1758H41.584V26.6719H40.2305V24.9834H38.2344ZM43.9619 34H45.958V26.6719H43.9619V34ZM44.96 25.8652C45.5615 25.8652 46.0264 25.4072 46.0264 24.833C46.0264 24.252 45.5615 23.8008 44.96 23.8008C44.3584 23.8008 43.8936 24.252 43.8936 24.833C43.8936 25.4072 44.3584 25.8652 44.96 25.8652ZM48.541 34H50.5371V29.9053C50.5371 28.873 51.1113 28.2715 52.0957 28.2715C52.3828 28.2715 52.6562 28.3193 52.8203 28.3877V26.6309C52.6836 26.5898 52.4854 26.5557 52.2529 26.5557C51.3916 26.5557 50.7695 27.0615 50.5098 27.9912H50.4688V26.6719H48.541V34ZM59.4492 34H61.4453V28.1758H62.8535V26.7061H61.3975V26.2207C61.3975 25.7012 61.6846 25.4141 62.3408 25.4141C62.5391 25.4141 62.7373 25.4277 62.8809 25.4551V24.1357C62.6484 24.0879 62.2314 24.0469 61.8623 24.0469C60.126 24.0469 59.4492 24.7168 59.4492 26.1523V26.7061H58.4512V28.1758H59.4492V34ZM68.3145 34.1572C70.5293 34.1572 71.9443 32.7422 71.9443 30.3291C71.9443 27.9502 70.5088 26.5146 68.3145 26.5146C66.1201 26.5146 64.6846 27.957 64.6846 30.3291C64.6846 32.7354 66.0996 34.1572 68.3145 34.1572ZM68.3145 32.6328C67.3301 32.6328 66.708 31.8057 66.708 30.3359C66.708 28.8799 67.3438 28.0391 68.3145 28.0391C69.2852 28.0391 69.9141 28.8799 69.9141 30.3359C69.9141 31.8057 69.292 32.6328 68.3145 32.6328ZM74.7598 24.9834V26.6719H73.7275V28.1758H74.7598V32.0244C74.7598 33.4531 75.4297 34.0273 77.1523 34.0273C77.5557 34.0273 77.8975 33.9932 78.1025 33.9453V32.4756C77.9795 32.4961 77.7949 32.5098 77.6172 32.5098C77.0293 32.5098 76.7559 32.2432 76.7559 31.6826V28.1758H78.1094V26.6719H76.7559V24.9834H74.7598ZM83.707 34.1572C85.9219 34.1572 87.3369 32.7422 87.3369 30.3291C87.3369 27.9502 85.9014 26.5146 83.707 26.5146C81.5127 26.5146 80.0771 27.957 80.0771 30.3291C80.0771 32.7354 81.4922 34.1572 83.707 34.1572ZM83.707 32.6328C82.7227 32.6328 82.1006 31.8057 82.1006 30.3359C82.1006 28.8799 82.7363 28.0391 83.707 28.0391C84.6777 28.0391 85.3066 28.8799 85.3066 30.3359C85.3066 31.8057 84.6846 32.6328 83.707 32.6328Z" fill="white"/>
<path d="M49 7H37.14L40.77 2.64C40.9397 2.43578 41.0214 2.1725 40.997 1.90808C40.9726 1.64365 40.8442 1.39974 40.64 1.23C40.4358 1.06026 40.1725 0.978601 39.9081 1.00298C39.6437 1.02736 39.3997 1.15578 39.23 1.36L34.23 7.36C34.1964 7.40772 34.1663 7.45786 34.14 7.51C34.14 7.56 34.14 7.59 34.07 7.64C34.0247 7.75466 34.0009 7.87671 34 8C34.0009 8.12329 34.0247 8.24534 34.07 8.36C34.07 8.41 34.07 8.44 34.14 8.49C34.1663 8.54214 34.1964 8.59228 34.23 8.64L39.23 14.64C39.324 14.7529 39.4418 14.8437 39.5748 14.9059C39.7079 14.9681 39.8531 15.0002 40 15C40.2337 15.0005 40.4601 14.9191 40.64 14.77C40.7413 14.6861 40.825 14.583 40.8863 14.4666C40.9477 14.3503 40.9855 14.2229 40.9975 14.092C41.0096 13.961 40.9957 13.8289 40.9567 13.7033C40.9176 13.5777 40.8542 13.4611 40.77 13.36L37.14 9H49C49.2652 9 49.5196 8.89464 49.7071 8.70711C49.8946 8.51957 50 8.26522 50 8C50 7.73478 49.8946 7.48043 49.7071 7.29289C49.5196 7.10536 49.2652 7 49 7Z" fill="white"/>
</svg>
