<svg width="29" height="28" viewBox="0 0 29 28" fill="none" xmlns="http://www.w3.org/2000/svg">
<path d="M0.714764 17.2666C0.457031 17.2679 0.247053 17.06 0.245764 16.8023C0.244475 16.5446 0.452364 16.3346 0.710097 16.3333H0.714764C0.972497 16.3333 1.18143 16.5422 1.18143 16.8C1.18143 17.0577 0.972497 17.2666 0.714764 17.2666Z" fill="#132968"/>
<path d="M3.0388 28C5.63913 28.0066 8.13404 26.9727 9.9674 25.1286C11.8115 23.2952 12.8454 20.8003 12.8388 18.2V10.2415C13.3273 10.0145 13.7957 9.74648 14.2388 9.4402C14.6819 9.74648 15.1503 10.0145 15.6388 10.2415V18.2C15.6409 23.6115 20.0273 27.9979 25.4388 28C26.9846 27.9985 28.2373 26.7458 28.2388 25.2V14.9333C28.2329 9.5234 23.8487 5.13925 18.4388 5.13333C17.289 5.13162 16.2561 5.8358 15.8376 6.90667C15.7081 6.67907 15.6396 6.42186 15.6388 6.16V1.4C15.6388 0.626801 15.012 0 14.2388 0C13.4656 0 12.8388 0.626801 12.8388 1.4V6.16C12.838 6.42186 12.7695 6.67907 12.64 6.90667C12.2215 5.8358 11.1886 5.13162 10.0388 5.13333C4.62886 5.13925 0.244716 9.5234 0.2388 14.9333C0.2388 15.1911 0.447734 15.4 0.705467 15.4C0.9632 15.4 1.17213 15.1911 1.17213 14.9333C1.17753 10.0386 5.14411 6.07207 10.0388 6.06667C10.9287 6.0659 11.6937 6.69732 11.8616 7.5712C11.6679 7.66453 11.3949 7.79193 11.3175 7.82973C10.668 8.05368 10.2792 8.718 10.4019 9.3939C10.5246 10.0698 11.1222 10.555 11.8089 10.5364C11.8411 10.5364 11.8733 10.5308 11.9055 10.5285V18.2C11.9114 20.5527 10.9759 22.81 9.30753 24.4687C7.64876 26.1371 5.39148 27.0726 3.0388 27.0667C2.00787 27.0667 1.17213 26.2309 1.17213 25.2V18.6667C1.17213 18.4089 0.9632 18.2 0.705467 18.2C0.447734 18.2 0.2388 18.4089 0.2388 18.6667V25.2C0.240343 26.7458 1.49304 27.9985 3.0388 28ZM18.4388 6.06667C23.3335 6.07207 27.3001 10.0386 27.3055 14.9333V25.2C27.3055 26.2309 26.4697 27.0667 25.4388 27.0667C20.5426 27.0649 16.5739 23.0962 16.5721 18.2V10.5266C17.2711 10.5907 17.9083 10.1238 18.0578 9.43799C18.2073 8.75218 17.8223 8.06246 17.1601 7.82973C17.0808 7.79193 16.8097 7.66407 16.616 7.5712C16.7839 6.69732 17.5489 6.0659 18.4388 6.06667ZM11.3665 9.352C11.3076 9.23095 11.3042 9.09029 11.3571 8.96653C11.4101 8.84273 11.5135 8.74758 11.6413 8.7052C11.6588 8.69917 11.676 8.69216 11.6927 8.6842C11.6927 8.6842 12.3628 8.36827 12.4785 8.31087C12.5075 8.29593 12.5331 8.2768 12.5616 8.26047C12.5686 8.2572 12.5742 8.25253 12.5807 8.2488C13.324 7.81682 13.7787 7.01963 13.7721 6.16V1.4C13.7721 1.14227 13.9811 0.933333 14.2388 0.933333C14.4965 0.933333 14.7055 1.14227 14.7055 1.4V6.16C14.6989 7.01963 15.1536 7.81682 15.8969 8.2488C15.9034 8.25253 15.909 8.2572 15.916 8.26047C15.9445 8.2768 15.9701 8.29593 15.9991 8.31087C16.1148 8.37013 16.7849 8.6842 16.7849 8.6842C16.8016 8.69216 16.8188 8.69917 16.8363 8.7052C16.9643 8.7472 17.0679 8.84248 17.1205 8.96653C17.1734 9.09029 17.17 9.23095 17.1111 9.352C16.9795 9.57145 16.7084 9.66345 16.4704 9.56947C15.7746 9.30255 15.1187 8.9414 14.5211 8.49613C14.3542 8.3691 14.123 8.3691 13.956 8.49613C13.3586 8.94173 12.7027 9.3029 12.0067 9.56947C11.7688 9.66339 11.4979 9.57138 11.3665 9.352Z" fill="#132968"/>
<path d="M5.8388 14.4667C6.09653 14.4667 6.30546 14.2577 6.30546 14C6.30546 13.7423 6.09653 13.5333 5.8388 13.5333C5.58107 13.5333 5.37213 13.7423 5.37213 14C5.37213 14.2577 5.58107 14.4667 5.8388 14.4667Z" fill="#132968"/>
<path d="M8.63879 9.79997C8.89652 9.79997 9.10545 9.59104 9.10545 9.3333C9.10545 9.07557 8.89652 8.86664 8.63879 8.86664C8.38105 8.86664 8.17212 9.07557 8.17212 9.3333C8.17212 9.59104 8.38105 9.79997 8.63879 9.79997Z" fill="#132968"/>
<path d="M8.63879 20.0666C8.89652 20.0666 9.10545 19.8577 9.10545 19.6C9.10545 19.3422 8.89652 19.1333 8.63879 19.1333C8.38105 19.1333 8.17212 19.3422 8.17212 19.6C8.17212 19.8577 8.38105 20.0666 8.63879 20.0666Z" fill="#132968"/>
<path d="M2.57213 24.2666C2.82987 24.2666 3.0388 24.0577 3.0388 23.8C3.0388 23.5422 2.82987 23.3333 2.57213 23.3333C2.3144 23.3333 2.10547 23.5422 2.10547 23.8C2.10547 24.0577 2.3144 24.2666 2.57213 24.2666Z" fill="#132968"/>
<path d="M3.50545 20.5333C3.76319 20.5333 3.97212 20.3244 3.97212 20.0666C3.97212 19.8089 3.76319 19.6 3.50545 19.6C3.24772 19.6 3.03879 19.8089 3.03879 20.0666C3.03879 20.3244 3.24772 20.5333 3.50545 20.5333Z" fill="#132968"/>
<path d="M6.77212 21.9333C7.02985 21.9333 7.23878 21.7244 7.23878 21.4667C7.23878 21.2089 7.02985 21 6.77212 21C6.51438 21 6.30545 21.2089 6.30545 21.4667C6.30545 21.7244 6.51438 21.9333 6.77212 21.9333Z" fill="#132968"/>
<path d="M5.37212 25.2C5.62985 25.2 5.83879 24.9911 5.83879 24.7333C5.83879 24.4756 5.62985 24.2667 5.37212 24.2667C5.11439 24.2667 4.90546 24.4756 4.90546 24.7333C4.90546 24.9911 5.11439 25.2 5.37212 25.2Z" fill="#132968"/>
<path d="M24.5055 11.6667C24.7632 11.6667 24.9722 11.4577 24.9722 11.2C24.9722 10.9423 24.7632 10.7333 24.5055 10.7333C24.2478 10.7333 24.0388 10.9423 24.0388 11.2C24.0388 11.4577 24.2478 11.6667 24.5055 11.6667Z" fill="#132968"/>
<path d="M24.9721 15.8667C25.2299 15.8667 25.4388 15.6577 25.4388 15.4C25.4388 15.1423 25.2299 14.9333 24.9721 14.9333C24.7144 14.9333 24.5055 15.1423 24.5055 15.4C24.5055 15.6577 24.7144 15.8667 24.9721 15.8667Z" fill="#132968"/>
<path d="M18.4388 15.8667C18.6965 15.8667 18.9054 15.6577 18.9054 15.4C18.9054 15.1423 18.6965 14.9333 18.4388 14.9333C18.181 14.9333 17.9721 15.1423 17.9721 15.4C17.9721 15.6577 18.181 15.8667 18.4388 15.8667Z" fill="#132968"/>
<path d="M19.3721 12.1333C19.6298 12.1333 19.8388 11.9244 19.8388 11.6667C19.8388 11.4089 19.6298 11.2 19.3721 11.2C19.1144 11.2 18.9054 11.4089 18.9054 11.6667C18.9054 11.9244 19.1144 12.1333 19.3721 12.1333Z" fill="#132968"/>
<path d="M21.7055 14C21.9632 14 22.1721 13.791 22.1721 13.5333C22.1721 13.2756 21.9632 13.0667 21.7055 13.0667C21.4477 13.0667 21.2388 13.2756 21.2388 13.5333C21.2388 13.791 21.4477 14 21.7055 14Z" fill="#132968"/>
<path d="M21.7055 9.79997C21.9632 9.79997 22.1721 9.59104 22.1721 9.3333C22.1721 9.07557 21.9632 8.86664 21.7055 8.86664C21.4477 8.86664 21.2388 9.07557 21.2388 9.3333C21.2388 9.59104 21.4477 9.79997 21.7055 9.79997Z" fill="#132968"/>
<path d="M19.8388 8.86668C20.0965 8.86668 20.3055 8.65775 20.3055 8.40002C20.3055 8.14228 20.0965 7.93335 19.8388 7.93335C19.5811 7.93335 19.3721 8.14228 19.3721 8.40002C19.3721 8.65775 19.5811 8.86668 19.8388 8.86668Z" fill="#132968"/>
<path d="M20.8547 18.8435C20.719 18.9562 20.594 19.0812 20.4814 19.2169L20.0422 18.9635C19.8192 18.8367 19.5357 18.9137 19.4074 19.1358C19.2792 19.358 19.3543 19.642 19.5756 19.7717L20.0161 20.0265C19.9552 20.1909 19.9099 20.3605 19.8808 20.5333H19.3721C19.1144 20.5333 18.9054 20.7423 18.9054 21C18.9054 21.2577 19.1144 21.4667 19.3721 21.4667H19.8808C19.9101 21.6398 19.9558 21.8098 20.017 21.9744L19.5765 22.2292C19.4309 22.312 19.3408 22.4664 19.3405 22.6339C19.3401 22.8013 19.4295 22.9561 19.5747 23.0395C19.7199 23.123 19.8987 23.1222 20.0432 23.0375L20.4823 22.7841C20.595 22.9197 20.72 23.0447 20.8556 23.1574L20.6022 23.5965C20.5175 23.741 20.5167 23.9198 20.6001 24.065C20.6836 24.2102 20.8384 24.2996 21.0058 24.2992C21.1733 24.2988 21.3277 24.2088 21.4105 24.0632L21.6653 23.6227C21.8296 23.6836 21.9993 23.7289 22.1721 23.758V24.2667C22.1721 24.5244 22.381 24.7333 22.6388 24.7333C22.8965 24.7333 23.1054 24.5244 23.1054 24.2667V23.758C23.2786 23.7286 23.4486 23.683 23.6132 23.6217L23.8679 24.0623C23.9977 24.2836 24.2817 24.3587 24.5039 24.2304C24.726 24.1021 24.803 23.8186 24.6762 23.5956L24.4228 23.1565C24.5585 23.0438 24.6835 22.9188 24.7961 22.7831L25.2353 23.0365C25.4583 23.1633 25.7418 23.0863 25.8701 22.8642C25.9983 22.642 25.9232 22.358 25.7019 22.2283L25.2614 21.9735C25.3223 21.8091 25.3676 21.6395 25.3967 21.4667H25.9054C26.1631 21.4667 26.3721 21.2577 26.3721 21C26.3721 20.7423 26.1631 20.5333 25.9054 20.5333H25.3967C25.3674 20.3602 25.3217 20.1902 25.2605 20.0256L25.701 19.7708C25.9223 19.6411 25.9974 19.357 25.8691 19.1349C25.7409 18.9127 25.4573 18.8357 25.2343 18.9625L24.7952 19.2159C24.6825 19.0803 24.5576 18.9553 24.4219 18.8426L24.6753 18.4035C24.8021 18.1805 24.7251 17.8969 24.5029 17.7687C24.2808 17.6404 23.9968 17.7155 23.867 17.9368L23.6122 18.3773C23.4479 18.3164 23.2782 18.2711 23.1054 18.242V17.7333C23.1054 17.4756 22.8965 17.2667 22.6388 17.2667C22.381 17.2667 22.1721 17.4756 22.1721 17.7333V18.242C21.9989 18.2714 21.8289 18.317 21.6644 18.3783L21.4096 17.9377C21.3268 17.7922 21.1724 17.7021 21.0049 17.7017C20.8374 17.7013 20.6826 17.7907 20.5992 17.9359C20.5158 18.0812 20.5166 18.2599 20.6013 18.4044L20.8547 18.8435ZM22.6388 19.1333C23.6697 19.1333 24.5054 19.9691 24.5054 21C24.5054 22.0309 23.6697 22.8667 22.6388 22.8667C21.6078 22.8667 20.7721 22.0309 20.7721 21C20.7721 19.9691 21.6078 19.1333 22.6388 19.1333Z" fill="#132968"/>
<path d="M22.1722 21C22.4299 21 22.6388 20.791 22.6388 20.5333C22.6388 20.2756 22.4299 20.0667 22.1722 20.0667C21.9144 20.0667 21.7055 20.2756 21.7055 20.5333C21.7055 20.791 21.9144 21 22.1722 21Z" fill="#132968"/>
</svg>
