<svg width="95" height="35" viewBox="0 0 95 35" fill="none" xmlns="http://www.w3.org/2000/svg">
<path d="M10.082 29.8574V28.7432H5.92578V30.2471H8.07227L8.06543 30.4043C8.02441 31.6279 7.08789 32.4551 5.74121 32.4551C4.10059 32.4551 3.06152 31.1494 3.06152 29.0098C3.06152 26.9111 4.03906 25.6738 5.66602 25.6738C6.78027 25.6738 7.62109 26.2891 7.92188 27.3213H9.99316C9.69922 25.3252 7.96289 23.9648 5.65918 23.9648C2.76074 23.9648 0.956055 25.8789 0.956055 29.0371C0.956055 32.2432 2.76074 34.1709 5.70703 34.1709C8.45508 34.1709 10.082 32.5439 10.082 29.8574ZM19.2959 26.6719H17.2998V30.8691C17.2998 31.8398 16.7461 32.4756 15.8574 32.4756C14.9756 32.4756 14.4902 31.9561 14.4902 30.9785V26.6719H12.4941V31.3955C12.4941 33.1045 13.5469 34.1367 15.1328 34.1367C16.2402 34.1367 16.9648 33.6035 17.3271 32.6807H17.3682V34H19.2959V26.6719ZM24.6748 32.6738C23.998 32.6738 23.5469 32.332 23.5469 31.7852C23.5469 31.2656 23.9707 30.9307 24.7158 30.876L26.2607 30.7803V31.3135C26.2607 32.1064 25.543 32.6738 24.6748 32.6738ZM24.0186 34.1162C24.9346 34.1162 25.8438 33.6582 26.2539 32.8789H26.2949V34H28.2227V28.9619C28.2227 27.4854 26.999 26.5146 25.1191 26.5146C23.1777 26.5146 21.9678 27.4922 21.8926 28.9141H23.7178C23.8135 28.374 24.2852 28.0049 25.0303 28.0049C25.7822 28.0049 26.2607 28.4014 26.2607 29.085V29.5703L24.415 29.6797C22.5898 29.7891 21.5645 30.5615 21.5645 31.8945C21.5645 33.2139 22.624 34.1162 24.0186 34.1162ZM30.7646 34H32.7607V29.9053C32.7607 28.873 33.335 28.2715 34.3193 28.2715C34.6064 28.2715 34.8799 28.3193 35.0439 28.3877V26.6309C34.9072 26.5898 34.709 26.5557 34.4766 26.5557C33.6152 26.5557 32.9932 27.0615 32.7334 27.9912H32.6924V26.6719H30.7646V34ZM39.5889 34.1162C40.6689 34.1162 41.5166 33.5488 41.8721 32.7422H41.9062V34H43.875V24.1357H41.8789V27.9297H41.8379C41.4824 27.1162 40.6621 26.5557 39.6025 26.5557C37.7637 26.5557 36.6016 27.998 36.6016 30.3223C36.6016 32.667 37.7568 34.1162 39.5889 34.1162ZM40.2656 28.1553C41.2568 28.1553 41.8926 29.0029 41.8926 30.3359C41.8926 31.6758 41.2568 32.5098 40.2656 32.5098C39.2607 32.5098 38.6455 31.6826 38.6455 30.3359C38.6455 28.9961 39.2607 28.1553 40.2656 28.1553ZM49.2881 32.6738C48.6113 32.6738 48.1602 32.332 48.1602 31.7852C48.1602 31.2656 48.584 30.9307 49.3291 30.876L50.874 30.7803V31.3135C50.874 32.1064 50.1562 32.6738 49.2881 32.6738ZM48.6318 34.1162C49.5479 34.1162 50.457 33.6582 50.8672 32.8789H50.9082V34H52.8359V28.9619C52.8359 27.4854 51.6123 26.5146 49.7324 26.5146C47.791 26.5146 46.5811 27.4922 46.5059 28.9141H48.3311C48.4268 28.374 48.8984 28.0049 49.6436 28.0049C50.3955 28.0049 50.874 28.4014 50.874 29.085V29.5703L49.0283 29.6797C47.2031 29.7891 46.1777 30.5615 46.1777 31.8945C46.1777 33.2139 47.2373 34.1162 48.6318 34.1162ZM55.3779 34H57.374V29.9053C57.374 28.873 57.9482 28.2715 58.9326 28.2715C59.2197 28.2715 59.4932 28.3193 59.6572 28.3877V26.6309C59.5205 26.5898 59.3223 26.5557 59.0898 26.5557C58.2285 26.5557 57.6064 27.0615 57.3467 27.9912H57.3057V26.6719H55.3779V34ZM66.2861 34H68.2822V28.1758H69.6904V26.7061H68.2344V26.2207C68.2344 25.7012 68.5215 25.4141 69.1777 25.4141C69.376 25.4141 69.5742 25.4277 69.7178 25.4551V24.1357C69.4854 24.0879 69.0684 24.0469 68.6992 24.0469C66.9629 24.0469 66.2861 24.7168 66.2861 26.1523V26.7061H65.2881V28.1758H66.2861V34ZM75.1514 34.1572C77.3662 34.1572 78.7812 32.7422 78.7812 30.3291C78.7812 27.9502 77.3457 26.5146 75.1514 26.5146C72.957 26.5146 71.5215 27.957 71.5215 30.3291C71.5215 32.7354 72.9365 34.1572 75.1514 34.1572ZM75.1514 32.6328C74.167 32.6328 73.5449 31.8057 73.5449 30.3359C73.5449 28.8799 74.1807 28.0391 75.1514 28.0391C76.1221 28.0391 76.751 28.8799 76.751 30.3359C76.751 31.8057 76.1289 32.6328 75.1514 32.6328ZM81.5967 24.9834V26.6719H80.5645V28.1758H81.5967V32.0244C81.5967 33.4531 82.2666 34.0273 83.9893 34.0273C84.3926 34.0273 84.7344 33.9932 84.9395 33.9453V32.4756C84.8164 32.4961 84.6318 32.5098 84.4541 32.5098C83.8662 32.5098 83.5928 32.2432 83.5928 31.6826V28.1758H84.9463V26.6719H83.5928V24.9834H81.5967ZM90.5439 34.1572C92.7588 34.1572 94.1738 32.7422 94.1738 30.3291C94.1738 27.9502 92.7383 26.5146 90.5439 26.5146C88.3496 26.5146 86.9141 27.957 86.9141 30.3291C86.9141 32.7354 88.3291 34.1572 90.5439 34.1572ZM90.5439 32.6328C89.5596 32.6328 88.9375 31.8057 88.9375 30.3359C88.9375 28.8799 89.5732 28.0391 90.5439 28.0391C91.5146 28.0391 92.1436 28.8799 92.1436 30.3359C92.1436 31.8057 91.5215 32.6328 90.5439 32.6328Z" fill="white"/>
<path d="M40 7H51.86L48.23 2.64C48.0603 2.43578 47.9786 2.1725 48.003 1.90808C48.0274 1.64365 48.1558 1.39974 48.36 1.23C48.5642 1.06026 48.8275 0.978601 49.0919 1.00298C49.3563 1.02736 49.6003 1.15578 49.77 1.36L54.77 7.36C54.8036 7.40772 54.8337 7.45786 54.86 7.51C54.86 7.56 54.86 7.59 54.93 7.64C54.9753 7.75466 54.9991 7.87671 55 8C54.9991 8.12329 54.9753 8.24534 54.93 8.36C54.93 8.41 54.93 8.44 54.86 8.49C54.8337 8.54214 54.8036 8.59228 54.77 8.64L49.77 14.64C49.676 14.7529 49.5582 14.8437 49.4252 14.9059C49.2921 14.9681 49.1469 15.0002 49 15C48.7663 15.0005 48.5399 14.9191 48.36 14.77C48.2587 14.6861 48.175 14.583 48.1137 14.4666C48.0523 14.3503 48.0145 14.2229 48.0025 14.092C47.9904 13.961 48.0043 13.8289 48.0433 13.7033C48.0824 13.5777 48.1458 13.4611 48.23 13.36L51.86 9H40C39.7348 9 39.4804 8.89464 39.2929 8.70711C39.1054 8.51957 39 8.26522 39 8C39 7.73478 39.1054 7.48043 39.2929 7.29289C39.4804 7.10536 39.7348 7 40 7Z" fill="white"/>
</svg>
