<svg width="29" height="28" viewBox="0 0 29 28" fill="none" xmlns="http://www.w3.org/2000/svg">
<g clip-path="url(#clip0)">
<path d="M27.2856 8.0314C26.3632 8.0314 25.6153 7.28372 25.6153 6.36108V2.93628C25.6153 2.62866 25.366 2.37915 25.0582 2.37915H23.8916C23.5837 2.37915 23.3342 2.62866 23.3342 2.93628V4.94113C23.3342 6.39932 22.1785 7.61911 20.7208 7.64346C19.2314 7.66846 18.0163 6.46854 18.0163 4.98492V2.93628C18.0163 2.62866 17.7668 2.37915 17.459 2.37915H16.2924C15.9845 2.37915 15.735 2.62866 15.735 2.93628V6.36108C15.735 7.28372 14.9873 8.0314 14.0647 8.0314C13.765 8.0314 13.5219 8.27451 13.5219 8.57443V19.688C13.5219 20.4574 14.1457 21.0814 14.9153 21.0814H26.4352C27.2049 21.0814 27.8286 20.4574 27.8286 19.688V8.57443C27.8286 8.27451 27.5855 8.0314 27.2856 8.0314Z" fill="#A3C1F6"/>
<path d="M27.2856 8.0314C26.3632 8.0314 25.6153 7.28372 25.6153 6.36108V2.93628C25.6153 2.62866 25.366 2.37915 25.0582 2.37915H23.8916C23.8715 2.37915 23.8516 2.38022 23.8322 2.38235C24.112 2.41183 24.3301 2.64853 24.3301 2.93628V6.3613C24.3301 7.28372 25.078 8.0314 26.0005 8.0314C26.3004 8.0314 26.5435 8.27451 26.5435 8.57443V19.688C26.5435 20.4574 25.9197 21.0814 25.15 21.0814H26.4352C27.2049 21.0814 27.8286 20.4574 27.8286 19.688V8.57443C27.8286 8.27451 27.5855 8.0314 27.2856 8.0314Z" fill="#7FABF9"/>
<path d="M27.2856 8.0314C26.3632 8.0314 25.6153 7.28372 25.6153 6.36108V2.93628C25.6153 2.62866 25.366 2.37915 25.0582 2.37915H23.8916C23.5837 2.37915 23.3342 2.62866 23.3342 2.93628V4.94113C23.3342 6.39932 22.1785 7.61911 20.7208 7.64346C19.2314 7.66846 18.0163 6.46854 18.0163 4.98492V2.93628C18.0163 2.62866 17.7668 2.37915 17.459 2.37915H16.2924C15.9845 2.37915 15.735 2.62866 15.735 2.93628V6.36108C15.735 7.28372 14.9873 8.0314 14.0647 8.0314C13.765 8.0314 13.5219 8.27451 13.5219 8.57443V10.5272L20.6753 13.9594L27.8286 10.5274V8.57443C27.8286 8.27451 27.5855 8.0314 27.2856 8.0314Z" fill="white"/>
<path d="M27.2856 8.0314C26.3632 8.0314 25.6153 7.28372 25.6153 6.36108V2.93628C25.6153 2.62866 25.366 2.37915 25.0582 2.37915H23.8916C23.8864 2.37915 23.8815 2.37915 23.8766 2.37936C23.8764 2.37936 23.8762 2.37936 23.8758 2.37936C23.8612 2.37979 23.8467 2.38065 23.8322 2.38214C24.112 2.41183 24.3301 2.64853 24.3301 2.93628V6.36108C24.3301 7.28372 25.078 8.0314 26.0005 8.0314C26.3004 8.0314 26.5435 8.27451 26.5435 8.57443V11.1439L27.8286 10.5272V8.57443C27.8286 8.27451 27.5855 8.0314 27.2856 8.0314Z" fill="#E7ECFB"/>
<path d="M6.72525 25.6001H5.50525C5.26364 25.6001 5.06775 25.4042 5.06775 25.1626V4.4679C5.06775 4.22629 5.26364 4.0304 5.50525 4.0304H6.72525C6.96686 4.0304 7.16275 4.22629 7.16275 4.4679V25.1626C7.16275 25.4042 6.96686 25.6001 6.72525 25.6001Z" fill="white"/>
<path d="M5.06775 10.8623H7.16275V12.0928H5.06775V10.8623Z" fill="#C5C4CC"/>
<path d="M10.0202 10.8623H2.21033C1.34793 10.8623 0.648956 10.1633 0.648956 9.30093C0.648956 8.43854 1.34793 7.73956 2.21033 7.73956H10.0202C10.8826 7.73956 11.5815 8.43854 11.5815 9.30093C11.5815 10.1633 10.8826 10.8623 10.0202 10.8623Z" fill="#A3C1F6"/>
<path d="M7.98071 5.68195H4.24979C3.58734 5.68195 3.05008 6.21899 3.05008 6.88144V7.73956H9.18021V6.88144C9.18021 6.21899 8.64316 5.68195 7.98071 5.68195Z" fill="#A3C1F6"/>
<path d="M10.0202 18.7683H2.21033C1.34793 18.7683 0.648956 19.4673 0.648956 20.3297C0.648956 21.1919 1.34793 21.8908 2.21033 21.8908H10.0202C10.8826 21.8908 11.5815 21.1919 11.5815 20.3297C11.5815 19.4673 10.8826 18.7683 10.0202 18.7683Z" fill="#A3C1F6"/>
<path d="M10.0202 7.73956H8.70767C9.57007 7.73956 10.269 8.43875 10.269 9.30093C10.269 10.1633 9.57007 10.8623 8.70767 10.8623H10.0202C10.8826 10.8623 11.5815 10.1633 11.5815 9.30093C11.5815 8.43875 10.8826 7.73956 10.0202 7.73956Z" fill="#7FABF9"/>
<path d="M7.98071 23.9486H4.24979C3.58734 23.9486 3.05008 23.4116 3.05008 22.7489V21.8908H9.18021V22.7489C9.18021 23.4116 8.64316 23.9486 7.98071 23.9486Z" fill="#A3C1F6"/>
<path d="M7.98071 5.68195H6.66821C7.33066 5.68195 7.86771 6.21899 7.86771 6.88144V7.73956H9.18021V6.88144C9.18021 6.21899 8.64316 5.68195 7.98071 5.68195Z" fill="#7FABF9"/>
<path d="M9.86295 25.077H24.6501C25.2887 25.077 25.8061 24.5594 25.8061 23.9209V17.1189C25.8061 16.5118 25.3139 16.0196 24.7068 16.0196H24.4519C24.1336 16.0196 23.8508 16.2221 23.7482 16.5235C23.3453 17.7076 22.2332 18.504 20.9825 18.504C19.7528 18.504 18.6548 17.7341 18.2357 16.578C18.1141 16.2428 17.7958 16.0196 17.4393 16.0196H16.4432C16.2443 16.0196 16.0488 16.0739 15.8781 16.176L8.60599 20.5349C7.86899 20.9767 7.41803 21.7729 7.41803 22.6321C7.41803 23.9824 8.51263 25.077 9.86295 25.077Z" fill="#E7ECFB"/>
<path d="M24.7068 16.0196H24.4519C24.2556 16.0196 24.0727 16.0967 23.9375 16.2266C24.2144 16.4261 24.3947 16.7515 24.3947 17.1189V23.9211C24.3947 24.5594 23.877 25.077 23.2387 25.077H24.6501C25.2885 25.077 25.8061 24.5594 25.8061 23.9211V17.1189C25.8061 16.5118 25.3139 16.0196 24.7068 16.0196Z" fill="#C9D8FB"/>
<path d="M15.2264 16.5667L13.8269 17.4053L19.1799 25.077H21.1647L15.2264 16.5667Z" fill="white"/>
<path d="M15.2394 25.077H17.224L12.4478 18.2321L11.0483 19.071L15.2394 25.077Z" fill="white"/>
<path d="M7.41953 22.6962C7.4537 24.0168 8.53421 25.077 9.86295 25.077H24.6501C25.2887 25.077 25.8061 24.5594 25.8061 23.9209V22.6962H7.41953Z" fill="#E7ECFB"/>
<path d="M24.3947 23.9211C24.3947 24.559 23.8777 25.0764 23.2398 25.077H24.6501C25.2887 25.077 25.8061 24.5596 25.8061 23.9211V22.6962H24.3949V23.9211H24.3947Z" fill="#C9D8FB"/>
<path d="M11.6802 20.2861L16.0146 17.688C16.3265 17.5013 16.5173 17.1644 16.5173 16.8008V16.0196H16.4432C16.2441 16.0196 16.0486 16.0736 15.8779 16.176L10.5134 19.3916C10.2863 19.5277 10.2286 19.8313 10.3899 20.041C10.6954 20.4384 11.2504 20.5439 11.6802 20.2861Z" fill="#E9E9EA"/>
<path d="M20.2474 9.19543H19.9718C19.7451 9.19543 19.5616 9.37894 19.5616 9.60559C19.5616 9.83203 19.7451 10.0157 19.9718 10.0157H20.0585V11.4344H20.0085C19.7819 11.4344 19.5984 11.6179 19.5984 11.8446C19.5984 12.0712 19.7819 12.2547 20.0085 12.2547H20.9288C21.1555 12.2547 21.339 12.0712 21.339 11.8446C21.339 11.6179 21.1555 11.4344 20.9288 11.4344H20.8788V9.8269C20.8788 9.4787 20.5956 9.19543 20.2474 9.19543Z" fill="#428DFF"/>
<path d="M28.2388 10.5197V8.5744C28.2388 8.04889 27.8111 7.62122 27.2856 7.62122C26.9489 7.62122 26.6326 7.49026 26.3946 7.25272C26.1566 7.01431 26.0255 6.69772 26.0255 6.36127V2.93604C26.0255 2.40262 25.5916 1.96875 25.0582 1.96875H23.8916C23.3582 1.96875 22.9243 2.40283 22.9243 2.93604V4.94089C22.9243 6.1846 21.9324 7.21298 20.7135 7.23349C20.1075 7.24289 19.5315 7.01453 19.0983 6.58835C18.6649 6.16196 18.4262 5.59244 18.4262 4.98468V2.93604C18.4262 2.40262 17.9922 1.96875 17.4587 1.96875H16.2924C15.7589 1.96875 15.3249 2.40283 15.3249 2.93604V4.17206C15.3249 4.39871 15.5086 4.58221 15.735 4.58221C15.9617 4.58221 16.1452 4.39871 16.1452 4.17206V2.93604C16.1452 2.85507 16.2112 2.78906 16.2924 2.78906H17.4587C17.5399 2.78906 17.6059 2.85507 17.6059 2.93604V4.98468C17.6059 5.81418 17.9317 6.59134 18.523 7.17303C19.1143 7.75473 19.897 8.06577 20.7272 8.0538C22.3911 8.0256 23.7446 6.62915 23.7446 4.94089V2.93604C23.7446 2.85507 23.8106 2.78906 23.8916 2.78906H25.0582C25.1391 2.78906 25.2051 2.85507 25.2051 2.93604V6.36127C25.2051 6.91647 25.4213 7.439 25.8146 7.8327C26.2079 8.22534 26.7302 8.44153 27.2856 8.44153C27.3589 8.44153 27.4185 8.50113 27.4185 8.5744V10.2691L20.675 13.5044L13.932 10.2693V8.5744C13.932 8.52911 13.9532 8.49835 13.9718 8.47977C13.9861 8.46545 14.0171 8.44153 14.0649 8.44153C15.2121 8.44153 16.1452 7.50842 16.1452 6.36127V5.81268C16.1452 5.58624 15.9617 5.40253 15.735 5.40253C15.5086 5.40253 15.3249 5.58624 15.3249 5.81268V6.36127C15.3249 7.05597 14.7596 7.62122 14.0649 7.62122C13.8094 7.62122 13.5697 7.72055 13.3909 7.90042C13.2108 8.08051 13.1117 8.31998 13.1117 8.5744V10.5132C13.1115 10.5224 13.1115 10.5316 13.1117 10.5408V17.356L11.0024 18.6202C10.7053 18.4498 10.3652 18.3579 10.0202 18.3579H7.57291V11.2725H10.0202C11.1073 11.2725 11.9917 10.3881 11.9917 9.30093C11.9917 8.21381 11.1073 7.32941 10.0202 7.32941H9.59058V6.88144C9.59058 5.99384 8.86832 5.27179 7.98071 5.27179H7.57291V4.46793C7.57291 4.00052 7.19266 3.62027 6.72525 3.62027H5.50525C5.03784 3.62027 4.65759 4.00052 4.65759 4.46793V5.27179H4.24979C3.36218 5.27179 2.63992 5.99384 2.63992 6.88144V7.32941H2.21033C2.03024 7.32941 1.85187 7.35376 1.6799 7.40161C1.46179 7.46249 1.33405 7.68872 1.39493 7.90704C1.45581 8.12515 1.68182 8.25247 1.90036 8.1918C2.00055 8.16382 2.1048 8.14972 2.21033 8.14972H10.0202C10.6551 8.14972 11.1714 8.66605 11.1714 9.30093C11.1714 9.93561 10.6551 10.4519 10.0202 10.4519H2.21033C1.57544 10.4519 1.05911 9.93561 1.05911 9.30093C1.05911 9.23578 1.06467 9.1702 1.07535 9.10654C1.11316 8.88309 0.962769 8.67139 0.739532 8.63358C0.516296 8.59555 0.304382 8.74615 0.266571 8.9696C0.248199 9.07855 0.2388 9.19006 0.2388 9.30093C0.2388 10.3881 1.1232 11.2725 2.21033 11.2725H4.65759V18.3579H2.21033C1.1232 18.3579 0.2388 19.2423 0.2388 20.3294C0.2388 20.8554 0.443665 21.3506 0.816437 21.724C1.18921 22.0961 1.68439 22.301 2.21033 22.301H2.64014V22.7487C2.64014 23.6365 3.36218 24.3588 4.24957 24.3588H4.65759V25.1627C4.65759 25.6301 5.03784 26.0103 5.50525 26.0103H6.72525C7.19266 26.0103 7.57291 25.6301 7.57291 25.1627V24.3588H7.58914C7.67395 24.4701 7.7673 24.5758 7.8692 24.6752C8.42014 25.2133 9.1347 25.4872 9.86295 25.4872H24.6501C25.5136 25.4872 26.2162 24.7845 26.2162 23.9209V21.4915H26.4352C27.4298 21.4915 28.2388 20.6823 28.2388 19.6879V10.5338C28.2388 10.5291 28.2388 10.5244 28.2388 10.5197ZM5.47791 4.46793C5.47791 4.45297 5.49008 4.44058 5.50525 4.44058H6.72525C6.74042 4.44058 6.75259 4.45297 6.75259 4.46793V5.27179H5.47791V4.46793ZM3.46024 7.32941V6.88144C3.46024 6.44608 3.81442 6.0921 4.24979 6.0921H5.0592H5.06775H5.07608H7.15421H7.16275H7.1713H7.98071C8.41608 6.0921 8.77026 6.44608 8.77026 6.88144V7.32941H3.46024ZM17.4393 16.4297C17.6226 16.4297 17.7875 16.5455 17.8501 16.7177C18.3263 18.0315 19.5851 18.9142 20.9822 18.9142C22.4092 18.9142 23.6769 18.0065 24.1364 16.6555C24.1823 16.5205 24.3092 16.4297 24.4519 16.4297H24.7068C25.0868 16.4297 25.3959 16.7389 25.3959 17.1189V22.286H19.7174L18.372 20.3583C18.2425 20.1726 17.9866 20.1271 17.801 20.2568C17.6153 20.3863 17.5698 20.642 17.6993 20.8278L18.717 22.286H17.7328L15.1992 18.6551L15.8933 18.2389L16.7608 19.4824C16.8407 19.5967 16.968 19.658 17.0977 19.658C17.1787 19.658 17.2605 19.6341 17.3318 19.5841C17.5177 19.4544 17.5632 19.1987 17.4337 19.0131L16.5607 17.7617C16.7927 17.5002 16.9275 17.158 16.9275 16.8008V16.4297H17.4393ZM15.7767 22.286L13.8199 19.4818L14.4939 19.0778L16.7324 22.286H15.7767ZM13.7919 22.286L12.4204 20.3207L13.1145 19.9048L14.7763 22.2862H13.7919V22.286ZM9.99326 20.1814C10.0142 20.2194 10.0381 20.2562 10.0648 20.291C10.338 20.6465 10.752 20.8368 11.1735 20.8368C11.3532 20.8368 11.5343 20.8022 11.7065 20.7308L12.7917 22.286H7.85809C7.95892 21.7094 8.30713 21.192 8.81683 20.8868L9.99326 20.1814ZM16.1071 16.5173V16.801C16.1071 17.0166 15.9935 17.2193 15.8102 17.3323C15.8029 17.3366 15.7957 17.3409 15.7886 17.3456L14.4116 18.1708C14.4046 18.1748 14.3975 18.1791 14.3905 18.1836L13.0256 19.0016C13.0231 19.0031 13.0203 19.0048 13.0177 19.0065L11.4694 19.9344C11.218 20.0853 10.8939 20.0235 10.7151 19.7911C10.713 19.7883 10.7063 19.7796 10.7091 19.7653C10.7115 19.7527 10.7189 19.7469 10.7228 19.7443L11.1925 19.4628C11.1979 19.4598 11.2034 19.4564 11.2088 19.4529L16.0888 16.5278C16.095 16.5242 16.101 16.5208 16.1071 16.5173ZM5.47791 11.2725H6.75259V18.3579H5.47791V11.2725ZM3.46045 22.7489V22.301H5.77762C6.00406 22.301 6.18777 22.1175 6.18777 21.8908C6.18777 21.6644 6.00406 21.4807 5.77762 21.4807H2.21033C1.90314 21.4807 1.61389 21.361 1.39642 21.144C1.17896 20.9259 1.05911 20.6366 1.05911 20.3294C1.05911 19.6948 1.57544 19.1782 2.21033 19.1782H10.0202C10.0368 19.1782 10.0533 19.1786 10.0697 19.1793L8.39514 20.1831C7.53937 20.696 7.00787 21.6342 7.00787 22.6321C7.00787 22.9047 7.04633 23.1685 7.11789 23.4182C7.11874 23.4214 7.11981 23.4246 7.12067 23.4278C7.12131 23.43 7.12195 23.4321 7.12259 23.4342C7.13263 23.4693 7.14352 23.5039 7.15506 23.5385H4.24957C3.81442 23.5385 3.46045 23.1843 3.46045 22.7489ZM6.75259 25.1627C6.75259 25.1776 6.7402 25.19 6.72525 25.19H5.50525C5.4903 25.19 5.47791 25.1776 5.47791 25.1627V24.3588H6.75259V25.1627ZM25.3959 23.9209C25.3959 24.3323 25.0614 24.6668 24.6499 24.6668C15.189 24.6668 9.85226 24.6673 9.80869 24.6662C8.87387 24.6416 8.09415 23.9835 7.88394 23.1063H13.5678C13.5714 23.1065 13.5749 23.1065 13.5785 23.1065C13.5821 23.1065 13.5858 23.1065 13.5894 23.1063H15.5524C15.556 23.1065 15.5594 23.1065 15.563 23.1065C15.5667 23.1065 15.5703 23.1065 15.5739 23.1063H17.5085C17.5121 23.1065 17.5158 23.1065 17.5192 23.1065C17.5228 23.1065 17.5265 23.1065 17.5301 23.1063H19.4931C19.4967 23.1065 19.5001 23.1065 19.5038 23.1065C19.5074 23.1065 19.511 23.1065 19.5146 23.1063H25.3959V23.9209ZM26.4352 20.6712H26.2162V17.1189C26.2162 16.2866 25.539 15.6094 24.7068 15.6094H24.4519C23.9578 15.6094 23.519 15.9237 23.3596 16.3913C23.0134 17.4096 22.0578 18.0937 20.9822 18.0937C19.9289 18.0937 18.9802 17.4284 18.6211 16.4383C18.4414 15.9425 17.9665 15.6094 17.4391 15.6094C16.5248 15.6329 16.1764 15.5197 15.6671 15.8243L13.9318 16.8643V11.1791L20.4975 14.3292C20.5537 14.3561 20.6144 14.3696 20.675 14.3696C20.7357 14.3696 20.7964 14.3561 20.8524 14.3292L27.4183 11.1789V19.6879C27.4185 20.2301 26.9774 20.6712 26.4352 20.6712Z" fill="#428DFF"/>
</g>
<defs>
<clipPath id="clip0">
<rect width="28" height="28" fill="white" transform="translate(0.2388)"/>
</clipPath>
</defs>
</svg>
