<svg width="320" height="249" viewBox="0 0 320 249" fill="none" xmlns="http://www.w3.org/2000/svg">
<g filter="url(#filter0_d)">
<g filter="url(#filter1_d)">
<rect x="20" y="21" width="280" height="200" fill="#FCA426"/>
<rect x="20" y="21" width="280" height="200" fill="url(#paint0_linear)"/>
</g>
</g>
<path d="M101.911 113.216C100.183 113.216 98.6714 112.856 97.3754 112.136C96.0954 111.4 95.1114 110.376 94.4234 109.064C93.7354 107.736 93.3914 106.192 93.3914 104.432C93.3914 102.688 93.7354 101.16 94.4234 99.848C95.1114 98.52 96.0954 97.496 97.3754 96.776C98.6714 96.056 100.183 95.696 101.911 95.696C103.047 95.696 104.127 95.872 105.151 96.224C106.191 96.56 107.039 97.04 107.695 97.664L106.519 100.352C105.751 99.776 104.999 99.36 104.263 99.104C103.543 98.832 102.783 98.696 101.983 98.696C100.447 98.696 99.2714 99.184 98.4554 100.16C97.6394 101.136 97.2314 102.56 97.2314 104.432C97.2314 106.32 97.6394 107.76 98.4554 108.752C99.2714 109.728 100.447 110.216 101.983 110.216C102.783 110.216 103.543 110.088 104.263 109.832C104.999 109.56 105.751 109.136 106.519 108.56L107.695 111.248C107.039 111.872 106.191 112.36 105.151 112.712C104.127 113.048 103.047 113.216 101.911 113.216ZM121.491 109.208H113.499L111.867 113H108.099L115.947 95.912H118.971L126.819 113H123.123L121.491 109.208ZM120.267 106.352L117.507 99.944L114.747 106.352H120.267ZM145.246 95.912V113H141.934V103.664L137.998 113H135.574L131.614 103.784V113H128.326V95.912H131.302L136.822 108.512L142.294 95.912H145.246ZM159.66 104.168C160.652 104.456 161.42 104.96 161.964 105.68C162.508 106.4 162.78 107.28 162.78 108.32C162.78 109.76 162.244 110.904 161.172 111.752C160.1 112.584 158.644 113 156.804 113H148.692V95.912H156.564C158.34 95.912 159.74 96.312 160.764 97.112C161.804 97.896 162.324 98.976 162.324 100.352C162.324 101.248 162.084 102.032 161.604 102.704C161.14 103.376 160.492 103.864 159.66 104.168ZM152.34 102.872H155.94C156.9 102.872 157.612 102.712 158.076 102.392C158.556 102.056 158.796 101.544 158.796 100.856C158.796 100.152 158.556 99.632 158.076 99.296C157.612 98.96 156.9 98.792 155.94 98.792H152.34V102.872ZM156.372 110.12C157.38 110.12 158.108 109.952 158.556 109.616C159.02 109.264 159.252 108.712 159.252 107.96C159.252 107.192 159.02 106.632 158.556 106.28C158.108 105.928 157.38 105.752 156.372 105.752H152.34V110.12H156.372ZM165.403 95.912H169.147V113H165.403V95.912ZM183.999 109.208H176.007L174.375 113H170.607L178.455 95.912H181.479L189.327 113H185.631L183.999 109.208ZM182.775 106.352L180.015 99.944L177.255 106.352H182.775ZM201.472 98.96H196.12V95.912H210.616V98.96H205.264V113H201.472V98.96ZM219.854 113.216C217.454 113.216 215.63 112.6 214.382 111.368C213.134 110.136 212.51 108.328 212.51 105.944V95.912H216.182V106.112C216.182 107.472 216.494 108.512 217.118 109.232C217.758 109.936 218.67 110.288 219.854 110.288C221.038 110.288 221.942 109.936 222.566 109.232C223.19 108.512 223.502 107.472 223.502 106.112V95.912H227.198V105.944C227.198 108.312 226.566 110.12 225.302 111.368C224.054 112.6 222.238 113.216 219.854 113.216ZM100.059 135.912V153H96.7467V143.664L92.8107 153H90.3867L86.4267 143.784V153H83.1387V135.912H86.1147L91.6347 148.512L97.1067 135.912H100.059ZM114.929 149.208H106.937L105.305 153H101.537L109.385 135.912H112.409L120.257 153H116.561L114.929 149.208ZM113.705 146.352L110.945 139.944L108.185 146.352H113.705ZM127.457 153.216C126.161 153.216 124.913 153.048 123.713 152.712C122.529 152.36 121.545 151.872 120.761 151.248L121.961 148.56C123.609 149.712 125.449 150.288 127.481 150.288C128.569 150.288 129.401 150.12 129.977 149.784C130.569 149.432 130.865 148.944 130.865 148.32C130.865 147.776 130.593 147.352 130.049 147.048C129.521 146.728 128.585 146.424 127.241 146.136C125.737 145.832 124.537 145.464 123.641 145.032C122.761 144.584 122.113 144.048 121.697 143.424C121.297 142.784 121.097 141.992 121.097 141.048C121.097 140.024 121.377 139.104 121.937 138.288C122.513 137.472 123.313 136.84 124.337 136.392C125.361 135.928 126.545 135.696 127.889 135.696C129.105 135.696 130.273 135.872 131.393 136.224C132.513 136.576 133.409 137.056 134.081 137.664L132.881 140.352C131.377 139.2 129.721 138.624 127.913 138.624C126.953 138.624 126.185 138.816 125.609 139.2C125.033 139.584 124.745 140.104 124.745 140.76C124.745 141.144 124.849 141.464 125.057 141.72C125.281 141.976 125.649 142.208 126.161 142.416C126.673 142.608 127.401 142.8 128.345 142.992C130.537 143.472 132.113 144.096 133.073 144.864C134.049 145.632 134.537 146.68 134.537 148.008C134.537 149.608 133.913 150.88 132.665 151.824C131.417 152.752 129.681 153.216 127.457 153.216ZM145.271 153.216C143.543 153.216 142.031 152.856 140.735 152.136C139.455 151.4 138.471 150.376 137.783 149.064C137.095 147.736 136.751 146.192 136.751 144.432C136.751 142.688 137.095 141.16 137.783 139.848C138.471 138.52 139.455 137.496 140.735 136.776C142.031 136.056 143.543 135.696 145.271 135.696C146.407 135.696 147.487 135.872 148.511 136.224C149.551 136.56 150.399 137.04 151.055 137.664L149.879 140.352C149.111 139.776 148.359 139.36 147.623 139.104C146.903 138.832 146.143 138.696 145.343 138.696C143.807 138.696 142.631 139.184 141.815 140.16C140.999 141.136 140.591 142.56 140.591 144.432C140.591 146.32 140.999 147.76 141.815 148.752C142.631 149.728 143.807 150.216 145.343 150.216C146.143 150.216 146.903 150.088 147.623 149.832C148.359 149.56 149.111 149.136 149.879 148.56L151.055 151.248C150.399 151.872 149.551 152.36 148.511 152.712C147.487 153.048 146.407 153.216 145.271 153.216ZM164.851 149.208H156.859L155.227 153H151.459L159.307 135.912H162.331L170.179 153H166.483L164.851 149.208ZM163.627 146.352L160.867 139.944L158.107 146.352H163.627ZM186.062 153H182.102L179.918 147.312C179.742 146.864 179.47 146.552 179.102 146.376C178.75 146.2 178.302 146.112 177.758 146.112H175.334V153H171.638V135.912H179.246C181.23 135.912 182.734 136.344 183.758 137.208C184.782 138.072 185.294 139.312 185.294 140.928C185.294 142.064 184.99 143.04 184.382 143.856C183.79 144.672 182.934 145.256 181.814 145.608C182.822 145.816 183.55 146.512 183.998 147.696L186.062 153ZM178.694 143.256C179.766 143.256 180.55 143.08 181.046 142.728C181.542 142.36 181.79 141.792 181.79 141.024C181.79 140.256 181.542 139.696 181.046 139.344C180.55 138.976 179.766 138.792 178.694 138.792H175.286V143.256H178.694ZM188.63 135.912H192.374V153H188.63V135.912ZM195.802 135.912H199.546V149.952H207.178V153H195.802V135.912ZM209.466 135.912H213.21V149.952H220.842V153H209.466V135.912ZM234.53 149.208H226.538L224.906 153H221.138L228.986 135.912H232.01L239.858 153H236.162L234.53 149.208ZM233.306 146.352L230.546 139.944L227.786 146.352H233.306Z" fill="white"/>
<path d="M85 85H236V83H85V85ZM245 94V148H247V94H245ZM236 157H85V159H236V157ZM76 148V94H74V148H76ZM85 157C80.0294 157 76 152.971 76 148H74C74 154.075 78.9249 159 85 159V157ZM245 148C245 152.971 240.971 157 236 157V159C242.075 159 247 154.075 247 148H245ZM236 85C240.971 85 245 89.0294 245 94H247C247 87.9249 242.075 83 236 83V85ZM85 83C78.9249 83 74 87.9249 74 94H76C76 89.0294 80.0294 85 85 85V83Z" fill="#FCA426"/>
<path d="M55.0003 33.184H57.3223V44.092H63.3163V46H55.0003V33.184ZM73.5518 36.91V46H71.3378V44.542C71.0618 45.046 70.6658 45.442 70.1498 45.73C69.6338 46.006 69.0458 46.144 68.3858 46.144C67.5938 46.144 66.8918 45.952 66.2798 45.568C65.6678 45.184 65.1938 44.638 64.8578 43.93C64.5218 43.222 64.3538 42.4 64.3538 41.464C64.3538 40.528 64.5218 39.7 64.8578 38.98C65.2058 38.248 65.6858 37.684 66.2978 37.288C66.9098 36.88 67.6058 36.676 68.3858 36.676C69.0458 36.676 69.6338 36.82 70.1498 37.108C70.6658 37.384 71.0618 37.774 71.3378 38.278V36.91H73.5518ZM68.9978 44.38C69.7418 44.38 70.3178 44.122 70.7258 43.606C71.1338 43.09 71.3378 42.364 71.3378 41.428C71.3378 40.468 71.1338 39.73 70.7258 39.214C70.3178 38.698 69.7358 38.44 68.9798 38.44C68.2358 38.44 67.6538 38.71 67.2338 39.25C66.8258 39.778 66.6218 40.516 66.6218 41.464C66.6218 42.4 66.8258 43.12 67.2338 43.624C67.6538 44.128 68.2418 44.38 68.9978 44.38ZM91.6698 36.676C92.7018 36.676 93.4698 36.988 93.9738 37.612C94.4778 38.224 94.7298 39.16 94.7298 40.42V46H92.4798V40.492C92.4798 39.772 92.3598 39.256 92.1198 38.944C91.8918 38.62 91.5078 38.458 90.9678 38.458C90.3438 38.458 89.8518 38.68 89.4918 39.124C89.1438 39.556 88.9698 40.156 88.9698 40.924V46H86.7198V40.492C86.7198 39.784 86.5938 39.268 86.3418 38.944C86.1018 38.62 85.7178 38.458 85.1898 38.458C84.5658 38.458 84.0738 38.68 83.7138 39.124C83.3538 39.556 83.1738 40.156 83.1738 40.924V46H80.9418V39.484C80.9418 38.524 80.8938 37.666 80.7978 36.91H82.9038L83.0658 38.35C83.3298 37.81 83.7078 37.396 84.1998 37.108C84.7038 36.82 85.2798 36.676 85.9278 36.676C87.3198 36.676 88.2258 37.252 88.6458 38.404C88.9338 37.864 89.3418 37.444 89.8698 37.144C90.4098 36.832 91.0098 36.676 91.6698 36.676ZM105.825 36.91V46H103.611V44.542C103.335 45.046 102.939 45.442 102.423 45.73C101.907 46.006 101.319 46.144 100.659 46.144C99.8672 46.144 99.1652 45.952 98.5532 45.568C97.9412 45.184 97.4672 44.638 97.1312 43.93C96.7952 43.222 96.6272 42.4 96.6272 41.464C96.6272 40.528 96.7952 39.7 97.1312 38.98C97.4792 38.248 97.9592 37.684 98.5712 37.288C99.1832 36.88 99.8792 36.676 100.659 36.676C101.319 36.676 101.907 36.82 102.423 37.108C102.939 37.384 103.335 37.774 103.611 38.278V36.91H105.825ZM101.271 44.38C102.015 44.38 102.591 44.122 102.999 43.606C103.407 43.09 103.611 42.364 103.611 41.428C103.611 40.468 103.407 39.73 102.999 39.214C102.591 38.698 102.009 38.44 101.253 38.44C100.509 38.44 99.9272 38.71 99.5072 39.25C99.0992 39.778 98.8952 40.516 98.8952 41.464C98.8952 42.4 99.0992 43.12 99.5072 43.624C99.9272 44.128 100.515 44.38 101.271 44.38ZM111.606 46.144C109.962 46.144 108.654 45.76 107.682 44.992L108.312 43.408C109.284 44.128 110.394 44.488 111.642 44.488C112.182 44.488 112.596 44.398 112.884 44.218C113.184 44.038 113.334 43.786 113.334 43.462C113.334 43.186 113.232 42.97 113.028 42.814C112.824 42.646 112.476 42.502 111.984 42.382L110.472 42.04C108.816 41.68 107.988 40.834 107.988 39.502C107.988 38.95 108.144 38.464 108.456 38.044C108.768 37.612 109.206 37.276 109.77 37.036C110.334 36.796 110.988 36.676 111.732 36.676C112.38 36.676 113.004 36.778 113.604 36.982C114.204 37.174 114.732 37.456 115.188 37.828L114.522 39.358C113.61 38.686 112.674 38.35 111.714 38.35C111.198 38.35 110.796 38.446 110.508 38.638C110.22 38.83 110.076 39.094 110.076 39.43C110.076 39.694 110.16 39.904 110.328 40.06C110.508 40.216 110.808 40.348 111.228 40.456L112.776 40.798C113.676 41.002 114.33 41.32 114.738 41.752C115.158 42.172 115.368 42.724 115.368 43.408C115.368 44.248 115.032 44.914 114.36 45.406C113.688 45.898 112.77 46.144 111.606 46.144ZM121.415 46.144C120.467 46.144 119.645 45.952 118.949 45.568C118.253 45.184 117.719 44.644 117.347 43.948C116.975 43.24 116.789 42.412 116.789 41.464C116.789 40.516 116.981 39.682 117.365 38.962C117.761 38.242 118.313 37.684 119.021 37.288C119.741 36.88 120.569 36.676 121.505 36.676C122.153 36.676 122.777 36.778 123.377 36.982C123.989 37.186 124.475 37.468 124.835 37.828L124.205 39.412C123.821 39.1 123.413 38.866 122.981 38.71C122.549 38.542 122.123 38.458 121.703 38.458C120.887 38.458 120.251 38.716 119.795 39.232C119.339 39.736 119.111 40.468 119.111 41.428C119.111 42.388 119.333 43.12 119.777 43.624C120.233 44.128 120.875 44.38 121.703 44.38C122.123 44.38 122.549 44.296 122.981 44.128C123.413 43.96 123.821 43.72 124.205 43.408L124.835 44.992C124.451 45.352 123.953 45.634 123.341 45.838C122.729 46.042 122.087 46.144 121.415 46.144ZM135.04 36.91V46H132.826V44.542C132.55 45.046 132.154 45.442 131.638 45.73C131.122 46.006 130.534 46.144 129.874 46.144C129.082 46.144 128.38 45.952 127.768 45.568C127.156 45.184 126.682 44.638 126.346 43.93C126.01 43.222 125.842 42.4 125.842 41.464C125.842 40.528 126.01 39.7 126.346 38.98C126.694 38.248 127.174 37.684 127.786 37.288C128.398 36.88 129.094 36.676 129.874 36.676C130.534 36.676 131.122 36.82 131.638 37.108C132.154 37.384 132.55 37.774 132.826 38.278V36.91H135.04ZM130.486 44.38C131.23 44.38 131.806 44.122 132.214 43.606C132.622 43.09 132.826 42.364 132.826 41.428C132.826 40.468 132.622 39.73 132.214 39.214C131.806 38.698 131.224 38.44 130.468 38.44C129.724 38.44 129.142 38.71 128.722 39.25C128.314 39.778 128.11 40.516 128.11 41.464C128.11 42.4 128.314 43.12 128.722 43.624C129.142 44.128 129.73 44.38 130.486 44.38ZM142.387 36.694C142.735 36.694 143.035 36.742 143.287 36.838L143.269 38.89C142.885 38.734 142.489 38.656 142.081 38.656C141.313 38.656 140.725 38.878 140.317 39.322C139.921 39.766 139.723 40.354 139.723 41.086V46H137.491V39.484C137.491 38.524 137.443 37.666 137.347 36.91H139.453L139.633 38.512C139.861 37.924 140.221 37.474 140.713 37.162C141.205 36.85 141.763 36.694 142.387 36.694ZM144.539 36.91H146.771V46H144.539V36.91ZM146.897 32.788V35.002H144.395V32.788H146.897ZM149.233 32.752H151.465V46H149.233V32.752ZM153.926 32.752H156.158V46H153.926V32.752ZM167.314 36.91V46H165.1V44.542C164.824 45.046 164.428 45.442 163.912 45.73C163.396 46.006 162.808 46.144 162.148 46.144C161.356 46.144 160.654 45.952 160.042 45.568C159.43 45.184 158.956 44.638 158.62 43.93C158.284 43.222 158.116 42.4 158.116 41.464C158.116 40.528 158.284 39.7 158.62 38.98C158.968 38.248 159.448 37.684 160.06 37.288C160.672 36.88 161.368 36.676 162.148 36.676C162.808 36.676 163.396 36.82 163.912 37.108C164.428 37.384 164.824 37.774 165.1 38.278V36.91H167.314ZM162.76 44.38C163.504 44.38 164.08 44.122 164.488 43.606C164.896 43.09 165.1 42.364 165.1 41.428C165.1 40.468 164.896 39.73 164.488 39.214C164.08 38.698 163.498 38.44 162.742 38.44C161.998 38.44 161.416 38.71 160.996 39.25C160.588 39.778 160.384 40.516 160.384 41.464C160.384 42.4 160.588 43.12 160.996 43.624C161.416 44.128 162.004 44.38 162.76 44.38ZM182.659 41.572H176.395C176.443 42.544 176.683 43.264 177.115 43.732C177.559 44.188 178.213 44.416 179.077 44.416C180.073 44.416 180.997 44.092 181.849 43.444L182.497 44.992C182.065 45.34 181.531 45.622 180.895 45.838C180.271 46.042 179.635 46.144 178.987 46.144C177.499 46.144 176.329 45.724 175.477 44.884C174.625 44.044 174.199 42.892 174.199 41.428C174.199 40.504 174.385 39.682 174.757 38.962C175.129 38.242 175.651 37.684 176.323 37.288C176.995 36.88 177.757 36.676 178.609 36.676C179.857 36.676 180.841 37.084 181.561 37.9C182.293 38.704 182.659 39.814 182.659 41.23V41.572ZM178.663 38.296C178.063 38.296 177.571 38.476 177.187 38.836C176.815 39.184 176.575 39.694 176.467 40.366H180.697C180.625 39.682 180.415 39.166 180.067 38.818C179.731 38.47 179.263 38.296 178.663 38.296ZM187.895 46.144C186.251 46.144 184.943 45.76 183.971 44.992L184.601 43.408C185.573 44.128 186.683 44.488 187.931 44.488C188.471 44.488 188.885 44.398 189.173 44.218C189.473 44.038 189.623 43.786 189.623 43.462C189.623 43.186 189.521 42.97 189.317 42.814C189.113 42.646 188.765 42.502 188.273 42.382L186.761 42.04C185.105 41.68 184.277 40.834 184.277 39.502C184.277 38.95 184.433 38.464 184.745 38.044C185.057 37.612 185.495 37.276 186.059 37.036C186.623 36.796 187.277 36.676 188.021 36.676C188.669 36.676 189.293 36.778 189.893 36.982C190.493 37.174 191.021 37.456 191.477 37.828L190.811 39.358C189.899 38.686 188.963 38.35 188.003 38.35C187.487 38.35 187.085 38.446 186.797 38.638C186.509 38.83 186.365 39.094 186.365 39.43C186.365 39.694 186.449 39.904 186.617 40.06C186.797 40.216 187.097 40.348 187.517 40.456L189.065 40.798C189.965 41.002 190.619 41.32 191.027 41.752C191.447 42.172 191.657 42.724 191.657 43.408C191.657 44.248 191.321 44.914 190.649 45.406C189.977 45.898 189.059 46.144 187.895 46.144ZM196.357 38.602V42.67C196.357 43.738 196.855 44.272 197.851 44.272C198.127 44.272 198.427 44.224 198.751 44.128V45.91C198.355 46.054 197.875 46.126 197.311 46.126C196.279 46.126 195.487 45.838 194.935 45.262C194.383 44.686 194.107 43.858 194.107 42.778V38.602H192.361V36.91H194.107V34.696L196.357 33.94V36.91H198.769V38.602H196.357ZM209.009 36.91V46H206.795V44.542C206.519 45.046 206.123 45.442 205.607 45.73C205.091 46.006 204.503 46.144 203.843 46.144C203.051 46.144 202.349 45.952 201.737 45.568C201.125 45.184 200.651 44.638 200.315 43.93C199.979 43.222 199.811 42.4 199.811 41.464C199.811 40.528 199.979 39.7 200.315 38.98C200.663 38.248 201.143 37.684 201.755 37.288C202.367 36.88 203.063 36.676 203.843 36.676C204.503 36.676 205.091 36.82 205.607 37.108C206.123 37.384 206.519 37.774 206.795 38.278V36.91H209.009ZM204.455 44.38C205.199 44.38 205.775 44.122 206.183 43.606C206.591 43.09 206.795 42.364 206.795 41.428C206.795 40.468 206.591 39.73 206.183 39.214C205.775 38.698 205.193 38.44 204.437 38.44C203.693 38.44 203.111 38.71 202.691 39.25C202.283 39.778 202.079 40.516 202.079 41.464C202.079 42.4 202.283 43.12 202.691 43.624C203.111 44.128 203.699 44.38 204.455 44.38ZM203.915 35.74L205.715 32.032H208.019L205.373 35.74H203.915ZM220.701 34.534C219.729 34.534 219.243 35.068 219.243 36.136V36.91H221.277V38.602H219.243V46H216.993V38.602H215.265V36.91H216.993V36.028C216.993 34.948 217.263 34.12 217.803 33.544C218.355 32.956 219.141 32.662 220.161 32.662C220.725 32.662 221.199 32.734 221.583 32.878V34.66C221.247 34.576 220.953 34.534 220.701 34.534ZM231.288 36.91V46H229.092V44.596C228.804 45.1 228.42 45.484 227.94 45.748C227.46 46.012 226.908 46.144 226.284 46.144C224.064 46.144 222.954 44.896 222.954 42.4V36.91H225.186V42.418C225.186 43.078 225.318 43.564 225.582 43.876C225.858 44.188 226.278 44.344 226.842 44.344C227.502 44.344 228.03 44.128 228.426 43.696C228.822 43.264 229.02 42.688 229.02 41.968V36.91H231.288ZM241.687 41.572H235.423C235.471 42.544 235.711 43.264 236.143 43.732C236.587 44.188 237.241 44.416 238.105 44.416C239.101 44.416 240.025 44.092 240.877 43.444L241.525 44.992C241.093 45.34 240.559 45.622 239.923 45.838C239.299 46.042 238.663 46.144 238.015 46.144C236.527 46.144 235.357 45.724 234.505 44.884C233.653 44.044 233.227 42.892 233.227 41.428C233.227 40.504 233.413 39.682 233.785 38.962C234.157 38.242 234.679 37.684 235.351 37.288C236.023 36.88 236.785 36.676 237.637 36.676C238.885 36.676 239.869 37.084 240.589 37.9C241.321 38.704 241.687 39.814 241.687 41.23V41.572ZM237.691 38.296C237.091 38.296 236.599 38.476 236.215 38.836C235.843 39.184 235.603 39.694 235.495 40.366H239.725C239.653 39.682 239.443 39.166 239.095 38.818C238.759 38.47 238.291 38.296 237.691 38.296ZM248.488 36.694C248.836 36.694 249.136 36.742 249.388 36.838L249.37 38.89C248.986 38.734 248.59 38.656 248.182 38.656C247.414 38.656 246.826 38.878 246.418 39.322C246.022 39.766 245.824 40.354 245.824 41.086V46H243.592V39.484C243.592 38.524 243.544 37.666 243.448 36.91H245.554L245.734 38.512C245.962 37.924 246.322 37.474 246.814 37.162C247.306 36.85 247.864 36.694 248.488 36.694ZM259.159 36.91V46H256.945V44.542C256.669 45.046 256.273 45.442 255.757 45.73C255.241 46.006 254.653 46.144 253.993 46.144C253.201 46.144 252.499 45.952 251.887 45.568C251.275 45.184 250.801 44.638 250.465 43.93C250.129 43.222 249.961 42.4 249.961 41.464C249.961 40.528 250.129 39.7 250.465 38.98C250.813 38.248 251.293 37.684 251.905 37.288C252.517 36.88 253.213 36.676 253.993 36.676C254.653 36.676 255.241 36.82 255.757 37.108C256.273 37.384 256.669 37.774 256.945 38.278V36.91H259.159ZM254.605 44.38C255.349 44.38 255.925 44.122 256.333 43.606C256.741 43.09 256.945 42.364 256.945 41.428C256.945 40.468 256.741 39.73 256.333 39.214C255.925 38.698 255.343 38.44 254.587 38.44C253.843 38.44 253.261 38.71 252.841 39.25C252.433 39.778 252.229 40.516 252.229 41.464C252.229 42.4 252.433 43.12 252.841 43.624C253.261 44.128 253.849 44.38 254.605 44.38ZM89.0117 50.752V64H86.7978V62.542C86.5218 63.046 86.1258 63.442 85.6098 63.73C85.0938 64.006 84.5058 64.144 83.8457 64.144C83.0658 64.144 82.3698 63.946 81.7578 63.55C81.1458 63.154 80.6658 62.596 80.3178 61.876C79.9818 61.144 79.8138 60.31 79.8138 59.374C79.8138 58.438 79.9818 57.616 80.3178 56.908C80.6538 56.2 81.1278 55.654 81.7397 55.27C82.3518 54.874 83.0538 54.676 83.8457 54.676C84.4938 54.676 85.0698 54.814 85.5738 55.09C86.0898 55.354 86.4858 55.732 86.7618 56.224V50.752H89.0117ZM84.4398 62.38C85.1838 62.38 85.7598 62.122 86.1678 61.606C86.5878 61.09 86.7978 60.358 86.7978 59.41C86.7978 58.462 86.5938 57.73 86.1858 57.214C85.7778 56.698 85.2018 56.44 84.4578 56.44C83.7018 56.44 83.1138 56.698 82.6938 57.214C82.2858 57.718 82.0818 58.438 82.0818 59.374C82.0818 60.322 82.2858 61.06 82.6938 61.588C83.1138 62.116 83.6958 62.38 84.4398 62.38ZM99.4183 59.572H93.1543C93.2023 60.544 93.4423 61.264 93.8743 61.732C94.3183 62.188 94.9723 62.416 95.8363 62.416C96.8323 62.416 97.7563 62.092 98.6083 61.444L99.2563 62.992C98.8243 63.34 98.2903 63.622 97.6543 63.838C97.0303 64.042 96.3943 64.144 95.7463 64.144C94.2583 64.144 93.0883 63.724 92.2363 62.884C91.3843 62.044 90.9583 60.892 90.9583 59.428C90.9583 58.504 91.1443 57.682 91.5163 56.962C91.8883 56.242 92.4103 55.684 93.0823 55.288C93.7543 54.88 94.5163 54.676 95.3683 54.676C96.6163 54.676 97.6003 55.084 98.3203 55.9C99.0523 56.704 99.4183 57.814 99.4183 59.23V59.572ZM95.4223 56.296C94.8223 56.296 94.3303 56.476 93.9463 56.836C93.5743 57.184 93.3343 57.694 93.2263 58.366H97.4563C97.3843 57.682 97.1743 57.166 96.8263 56.818C96.4903 56.47 96.0223 56.296 95.4223 56.296ZM101.324 50.752H103.556V64H101.324V50.752ZM113.818 56.602V60.67C113.818 61.738 114.316 62.272 115.312 62.272C115.588 62.272 115.888 62.224 116.212 62.128V63.91C115.816 64.054 115.336 64.126 114.772 64.126C113.74 64.126 112.948 63.838 112.396 63.262C111.844 62.686 111.568 61.858 111.568 60.778V56.602H109.822V54.91H111.568V52.696L113.818 51.94V54.91H116.23V56.602H113.818ZM117.777 54.91H120.009V64H117.777V54.91ZM120.135 50.788V53.002H117.633V50.788H120.135ZM130.426 59.572H124.162C124.21 60.544 124.45 61.264 124.882 61.732C125.326 62.188 125.98 62.416 126.844 62.416C127.84 62.416 128.764 62.092 129.616 61.444L130.264 62.992C129.832 63.34 129.298 63.622 128.662 63.838C128.038 64.042 127.402 64.144 126.754 64.144C125.266 64.144 124.096 63.724 123.244 62.884C122.392 62.044 121.966 60.892 121.966 59.428C121.966 58.504 122.152 57.682 122.524 56.962C122.896 56.242 123.418 55.684 124.09 55.288C124.762 54.88 125.524 54.676 126.376 54.676C127.624 54.676 128.608 55.084 129.328 55.9C130.06 56.704 130.426 57.814 130.426 59.23V59.572ZM126.43 56.296C125.83 56.296 125.338 56.476 124.954 56.836C124.582 57.184 124.342 57.694 124.234 58.366H128.464C128.392 57.682 128.182 57.166 127.834 56.818C127.498 56.47 127.03 56.296 126.43 56.296ZM143.059 54.676C144.091 54.676 144.859 54.988 145.363 55.612C145.867 56.224 146.119 57.16 146.119 58.42V64H143.869V58.492C143.869 57.772 143.749 57.256 143.509 56.944C143.281 56.62 142.897 56.458 142.357 56.458C141.733 56.458 141.241 56.68 140.881 57.124C140.533 57.556 140.359 58.156 140.359 58.924V64H138.109V58.492C138.109 57.784 137.983 57.268 137.731 56.944C137.491 56.62 137.107 56.458 136.579 56.458C135.955 56.458 135.463 56.68 135.103 57.124C134.743 57.556 134.563 58.156 134.563 58.924V64H132.331V57.484C132.331 56.524 132.283 55.666 132.187 54.91H134.293L134.455 56.35C134.719 55.81 135.097 55.396 135.589 55.108C136.093 54.82 136.669 54.676 137.317 54.676C138.709 54.676 139.615 55.252 140.035 56.404C140.323 55.864 140.731 55.444 141.259 55.144C141.799 54.832 142.399 54.676 143.059 54.676ZM153.705 54.676C154.485 54.676 155.175 54.88 155.775 55.288C156.387 55.684 156.861 56.248 157.197 56.98C157.545 57.7 157.719 58.528 157.719 59.464C157.719 60.4 157.551 61.222 157.215 61.93C156.879 62.638 156.405 63.184 155.793 63.568C155.193 63.952 154.497 64.144 153.705 64.144C153.045 64.144 152.457 64.006 151.941 63.73C151.425 63.442 151.029 63.046 150.753 62.542V67.888H148.521V57.484C148.521 56.524 148.473 55.666 148.377 54.91H150.483L150.663 56.476C150.903 55.912 151.293 55.474 151.833 55.162C152.373 54.838 152.997 54.676 153.705 54.676ZM153.093 62.38C153.849 62.38 154.431 62.128 154.839 61.624C155.247 61.12 155.451 60.4 155.451 59.464C155.451 58.516 155.247 57.778 154.839 57.25C154.431 56.71 153.855 56.44 153.111 56.44C152.343 56.44 151.755 56.698 151.347 57.214C150.939 57.73 150.735 58.468 150.735 59.428C150.735 60.376 150.939 61.108 151.347 61.624C151.755 62.128 152.337 62.38 153.093 62.38ZM163.805 64.144C162.881 64.144 162.065 63.952 161.357 63.568C160.661 63.184 160.121 62.638 159.737 61.93C159.365 61.21 159.179 60.37 159.179 59.41C159.179 58.45 159.365 57.616 159.737 56.908C160.121 56.188 160.661 55.636 161.357 55.252C162.065 54.868 162.881 54.676 163.805 54.676C164.717 54.676 165.521 54.868 166.217 55.252C166.913 55.636 167.447 56.188 167.819 56.908C168.203 57.616 168.395 58.45 168.395 59.41C168.395 60.37 168.203 61.21 167.819 61.93C167.447 62.638 166.913 63.184 166.217 63.568C165.521 63.952 164.717 64.144 163.805 64.144ZM163.787 62.38C164.555 62.38 165.137 62.134 165.533 61.642C165.941 61.138 166.145 60.394 166.145 59.41C166.145 58.438 165.941 57.7 165.533 57.196C165.125 56.68 164.549 56.422 163.805 56.422C163.049 56.422 162.467 56.68 162.059 57.196C161.651 57.7 161.447 58.438 161.447 59.41C161.447 60.394 161.645 61.138 162.041 61.642C162.449 62.134 163.031 62.38 163.787 62.38ZM183.969 50.752V64H181.755V62.542C181.479 63.046 181.083 63.442 180.567 63.73C180.051 64.006 179.463 64.144 178.803 64.144C178.023 64.144 177.327 63.946 176.715 63.55C176.103 63.154 175.623 62.596 175.275 61.876C174.939 61.144 174.771 60.31 174.771 59.374C174.771 58.438 174.939 57.616 175.275 56.908C175.611 56.2 176.085 55.654 176.697 55.27C177.309 54.874 178.011 54.676 178.803 54.676C179.451 54.676 180.027 54.814 180.531 55.09C181.047 55.354 181.443 55.732 181.719 56.224V50.752H183.969ZM179.397 62.38C180.141 62.38 180.717 62.122 181.125 61.606C181.545 61.09 181.755 60.358 181.755 59.41C181.755 58.462 181.551 57.73 181.143 57.214C180.735 56.698 180.159 56.44 179.415 56.44C178.659 56.44 178.071 56.698 177.651 57.214C177.243 57.718 177.039 58.438 177.039 59.374C177.039 60.322 177.243 61.06 177.651 61.588C178.071 62.116 178.653 62.38 179.397 62.38ZM194.375 59.572H188.111C188.159 60.544 188.399 61.264 188.831 61.732C189.275 62.188 189.929 62.416 190.793 62.416C191.789 62.416 192.713 62.092 193.565 61.444L194.213 62.992C193.781 63.34 193.247 63.622 192.611 63.838C191.987 64.042 191.351 64.144 190.703 64.144C189.215 64.144 188.045 63.724 187.193 62.884C186.341 62.044 185.915 60.892 185.915 59.428C185.915 58.504 186.101 57.682 186.473 56.962C186.845 56.242 187.367 55.684 188.039 55.288C188.711 54.88 189.473 54.676 190.325 54.676C191.573 54.676 192.557 55.084 193.277 55.9C194.009 56.704 194.375 57.814 194.375 59.23V59.572ZM190.379 56.296C189.779 56.296 189.287 56.476 188.903 56.836C188.531 57.184 188.291 57.694 188.183 58.366H192.413C192.341 57.682 192.131 57.166 191.783 56.818C191.447 56.47 190.979 56.296 190.379 56.296ZM209.5 54.91V64H207.304V62.596C207.016 63.1 206.632 63.484 206.152 63.748C205.672 64.012 205.12 64.144 204.496 64.144C202.276 64.144 201.166 62.896 201.166 60.4V54.91H203.398V60.418C203.398 61.078 203.53 61.564 203.794 61.876C204.07 62.188 204.49 62.344 205.054 62.344C205.714 62.344 206.242 62.128 206.638 61.696C207.034 61.264 207.232 60.688 207.232 59.968V54.91H209.5ZM215.273 64.144C213.629 64.144 212.321 63.76 211.349 62.992L211.979 61.408C212.951 62.128 214.061 62.488 215.309 62.488C215.849 62.488 216.263 62.398 216.551 62.218C216.851 62.038 217.001 61.786 217.001 61.462C217.001 61.186 216.899 60.97 216.695 60.814C216.491 60.646 216.143 60.502 215.651 60.382L214.139 60.04C212.483 59.68 211.655 58.834 211.655 57.502C211.655 56.95 211.811 56.464 212.123 56.044C212.435 55.612 212.873 55.276 213.437 55.036C214.001 54.796 214.655 54.676 215.399 54.676C216.047 54.676 216.671 54.778 217.271 54.982C217.871 55.174 218.399 55.456 218.855 55.828L218.189 57.358C217.277 56.686 216.341 56.35 215.381 56.35C214.865 56.35 214.463 56.446 214.175 56.638C213.887 56.83 213.743 57.094 213.743 57.43C213.743 57.694 213.827 57.904 213.995 58.06C214.175 58.216 214.475 58.348 214.895 58.456L216.443 58.798C217.343 59.002 217.997 59.32 218.405 59.752C218.825 60.172 219.035 60.724 219.035 61.408C219.035 62.248 218.699 62.914 218.027 63.406C217.355 63.898 216.437 64.144 215.273 64.144ZM225.082 64.144C224.158 64.144 223.342 63.952 222.634 63.568C221.938 63.184 221.398 62.638 221.014 61.93C220.642 61.21 220.456 60.37 220.456 59.41C220.456 58.45 220.642 57.616 221.014 56.908C221.398 56.188 221.938 55.636 222.634 55.252C223.342 54.868 224.158 54.676 225.082 54.676C225.994 54.676 226.798 54.868 227.494 55.252C228.19 55.636 228.724 56.188 229.096 56.908C229.48 57.616 229.672 58.45 229.672 59.41C229.672 60.37 229.48 61.21 229.096 61.93C228.724 62.638 228.19 63.184 227.494 63.568C226.798 63.952 225.994 64.144 225.082 64.144ZM225.064 62.38C225.832 62.38 226.414 62.134 226.81 61.642C227.218 61.138 227.422 60.394 227.422 59.41C227.422 58.438 227.218 57.7 226.81 57.196C226.402 56.68 225.826 56.422 225.082 56.422C224.326 56.422 223.744 56.68 223.336 57.196C222.928 57.7 222.724 58.438 222.724 59.41C222.724 60.394 222.922 61.138 223.318 61.642C223.726 62.134 224.308 62.38 225.064 62.38ZM233.899 55.108V57.61H231.379V55.108H233.899ZM233.899 61.48V64H231.379V61.48H233.899Z" fill="white"/>
<defs>
<filter id="filter0_d" x="16" y="21" width="288" height="208" filterUnits="userSpaceOnUse" color-interpolation-filters="sRGB">
<feFlood flood-opacity="0" result="BackgroundImageFix"/>
<feColorMatrix in="SourceAlpha" type="matrix" values="0 0 0 0 0 0 0 0 0 0 0 0 0 0 0 0 0 0 127 0"/>
<feOffset dy="4"/>
<feGaussianBlur stdDeviation="2"/>
<feColorMatrix type="matrix" values="0 0 0 0 0.988235 0 0 0 0 0.643137 0 0 0 0 0.14902 0 0 0 1 0"/>
<feBlend mode="normal" in2="BackgroundImageFix" result="effect1_dropShadow"/>
<feBlend mode="normal" in="SourceGraphic" in2="effect1_dropShadow" result="shape"/>
</filter>
<filter id="filter1_d" x="-14.1333" y="0.519999" width="348.267" height="268.267" filterUnits="userSpaceOnUse" color-interpolation-filters="sRGB">
<feFlood flood-opacity="0" result="BackgroundImageFix"/>
<feColorMatrix in="SourceAlpha" type="matrix" values="0 0 0 0 0 0 0 0 0 0 0 0 0 0 0 0 0 0 127 0"/>
<feOffset dy="13.6533"/>
<feGaussianBlur stdDeviation="17.0667"/>
<feColorMatrix type="matrix" values="0 0 0 0 0.0509804 0 0 0 0 0.247059 0 0 0 0 0.403922 0 0 0 0.1 0"/>
<feBlend mode="normal" in2="BackgroundImageFix" result="effect1_dropShadow"/>
<feBlend mode="normal" in="SourceGraphic" in2="effect1_dropShadow" result="shape"/>
</filter>
<linearGradient id="paint0_linear" x1="-133.708" y1="-335.336" x2="381.295" y2="-272.993" gradientUnits="userSpaceOnUse">
<stop stop-color="#FFCA42"/>
<stop offset="1" stop-color="white" stop-opacity="0"/>
</linearGradient>
</defs>
</svg>
