<svg width="28" height="28" viewBox="0 0 28 28" fill="none" xmlns="http://www.w3.org/2000/svg">
<path d="M12.1218 12.5593L11.5032 11.9407L9.76154 13.6824L12.0545 14.8291L12.4456 14.0459L11.2385 13.4426L12.1218 12.5593Z" fill="#132968"/>
<path d="M23.1875 24.3967V20.2834L24.5227 18.6808C26.4832 16.3284 27.5625 13.3472 27.5625 10.2856C27.5625 4.85538 23.1446 0.4375 17.7148 0.4375C16.6552 0.4375 15.6074 0.607688 14.6003 0.942813L14.2542 1.05831C13.2418 1.39562 12.1336 1.39562 11.1204 1.05831L9.74094 0.5985C9.42156 0.49175 9.08775 0.4375 8.75 0.4375C6.09656 0.4375 3.9375 2.59656 3.9375 5.25V5.38125C3.9375 7.8085 5.80038 9.80875 8.17513 10.0393C7.97869 10.7839 7.875 11.5483 7.875 12.3209V13.9055C7.875 14.5128 7.80019 15.1196 7.65275 15.7093L7.36531 16.8595L7.77175 17.0625C8.24119 17.297 8.75656 17.4409 9.27981 17.4856L9.72081 19.25H11.7534C11.6773 19.5304 11.5286 19.7899 11.3221 19.9968L10.8618 20.4575L11.0049 20.8149C11.5815 22.2561 12.9566 23.1875 14.5088 23.1875C14.7844 23.1875 15.0601 23.1573 15.3274 23.0978L17.0625 22.7124V22.7246C17.0625 23.1477 16.8569 23.5467 16.513 23.7926L15.309 24.6527C14.4966 25.2328 13.9003 26.04 13.5848 26.9867L13.3932 27.5625H25.5443L25.2385 26.6442C24.8951 25.6143 24.1356 24.8185 23.1875 24.3967ZM4.8125 5.38125V5.25C4.8125 3.07869 6.57912 1.3125 8.75 1.3125C8.99369 1.3125 9.23387 1.35144 9.46444 1.42888L10.8439 1.88825C12.0356 2.2855 13.3394 2.2855 14.5311 1.88825L14.8772 1.77319C15.7942 1.46738 16.7488 1.3125 17.7148 1.3125C22.6625 1.3125 26.6875 5.3375 26.6875 10.2856C26.6875 13.1429 25.6799 15.9259 23.8507 18.1204L22.7207 19.4771L19.4307 16.1866C20.1613 15.4223 20.5629 14.4218 20.5638 13.3311C20.5642 12.8087 20.3608 12.3174 19.9911 11.9481C19.6214 11.5784 19.1306 11.375 18.5837 11.375C18.0499 11.375 17.5494 11.5815 17.1741 11.9569L16.9842 12.1472C16.0982 11.6222 15.4376 10.8054 15.1091 9.81794L14.7801 8.8305C14.5023 7.99706 13.7257 7.4375 12.8271 7.4375C12.3493 7.4375 11.9013 7.59369 11.5316 7.88944L10.7572 8.5085C10.2104 8.94644 9.52437 9.1875 8.82481 9.1875H8.63319C6.52619 9.1875 4.8125 7.47994 4.8125 5.38125ZM18.0596 26.6875H14.6602C14.9354 26.1647 15.3282 25.7136 15.8174 25.3645L17.0214 24.5044C17.5949 24.0944 17.9375 23.429 17.9375 22.7242V22.5177L18.9074 22.302L18.7176 21.4476L15.1375 22.2438C14.9319 22.2893 14.7206 22.3125 14.5088 22.3125C13.3801 22.3125 12.3729 21.6711 11.893 20.6631L11.9407 20.6154C12.4154 20.1407 12.6875 19.4836 12.6875 18.8125V18.375H10.4042L9.96669 16.625H9.625C9.20237 16.625 8.77887 16.5414 8.38688 16.3809L8.50194 15.9211C8.66644 15.2626 8.75 14.5845 8.75 13.9055V12.3209C8.75 11.5509 8.86594 10.7896 9.08162 10.0516C9.88881 9.99862 10.6697 9.69938 11.3037 9.19231L12.0785 8.57281C12.2911 8.40262 12.5501 8.3125 12.8472 8.3125C13.3486 8.3125 13.7913 8.63144 13.9497 9.107L14.2787 10.0944C14.7144 11.4021 15.6332 12.4622 16.8665 13.0786L17.1487 13.2195L17.7931 12.5746C18.0031 12.3655 18.284 12.25 18.6082 12.25C18.8969 12.25 19.1682 12.3624 19.3725 12.5668C19.5764 12.7711 19.6888 13.0419 19.6888 13.3608C19.6884 14.2205 19.3533 15.0286 18.7456 15.6358L18.1939 16.1875L22.3125 20.3061V24.1237C22.0981 24.0861 21.8798 24.0625 21.6562 24.0625C20.0283 24.0625 18.5885 25.1003 18.074 26.6442L18.0596 26.6875ZM18.9932 26.6875C19.4486 25.6314 20.4894 24.9375 21.6562 24.9375C22.8231 24.9375 23.8639 25.6314 24.3193 26.6875H18.9932Z" fill="#132968"/>
<path d="M8.35756 26.5444C8.23287 26.6381 8.08456 26.6875 7.92794 26.6875C7.65756 26.6875 7.4375 26.4674 7.4375 26.1971C7.4375 26.068 7.49 25.9416 7.581 25.8501L7.91262 25.5185C8.16681 25.2643 8.3125 24.9126 8.3125 24.5529C8.3125 23.8 7.7 23.1875 6.94706 23.1875H6.888C6.57912 23.1875 6.27637 23.2938 6.03487 23.4867L4.56575 24.6623C4.39162 24.8014 4.16106 24.8426 3.94756 24.7721C3.68025 24.6824 3.5 24.4326 3.5 24.15C3.5 23.9501 3.58969 23.7632 3.74587 23.6386L5.19094 22.4823C5.50637 22.2303 5.6875 21.8531 5.6875 21.4489C5.6875 20.7187 5.09381 20.125 4.36362 20.125H1.75C1.50894 20.125 1.3125 19.929 1.3125 19.6875C1.3125 19.446 1.50894 19.25 1.75 19.25H4.43887C5.1275 19.25 5.6875 18.69 5.6875 18.0014C5.6875 17.5258 5.42325 17.0979 4.99712 16.8844L4.31069 16.5414C4.08056 16.4264 3.9375 16.1945 3.9375 15.9368C3.9375 15.5925 4.2175 15.3125 4.56181 15.3125C4.65806 15.3125 4.75475 15.3353 4.84094 15.3781L6.3665 16.1411L6.75806 15.3584L5.23162 14.595C5.02425 14.4922 4.79281 14.4375 4.56181 14.4375C3.73537 14.4375 3.0625 15.1099 3.0625 15.9368C3.0625 16.5287 3.39106 17.0599 3.91956 17.3241L4.60556 17.6671C4.73331 17.7306 4.8125 17.8588 4.8125 18.0014C4.8125 18.207 4.64494 18.375 4.43887 18.375H1.75C1.02637 18.375 0.4375 18.9639 0.4375 19.6875C0.4375 20.4111 1.02637 21 1.75 21H4.36362C4.61125 21 4.8125 21.2013 4.8125 21.4489C4.8125 21.5858 4.75081 21.7136 4.64406 21.7993L3.199 22.9556C2.83412 23.2479 2.625 23.6832 2.625 24.15C2.625 24.8098 3.04544 25.3929 3.67325 25.6021C4.16762 25.7666 4.70531 25.6703 5.11262 25.3453L6.58175 24.1697C6.66837 24.1006 6.77731 24.0625 6.888 24.0625H6.94706C7.21744 24.0625 7.4375 24.2826 7.4375 24.5529C7.4375 24.682 7.385 24.8084 7.294 24.8999L6.96237 25.2315C6.70819 25.4857 6.5625 25.8374 6.5625 26.1971C6.5625 26.95 7.175 27.5625 7.92794 27.5625C8.27006 27.5625 8.60956 27.4492 8.88256 27.244L10.325 26.1625L9.8 25.4625L8.35756 26.5444Z" fill="#132968"/>
<path d="M6.5625 20.125H7.4375V21H6.5625V20.125Z" fill="#132968"/>
<path d="M7.4375 18.375H8.3125V19.25H7.4375V18.375Z" fill="#132968"/>
<path d="M8.3125 21H9.1875V21.875H8.3125V21Z" fill="#132968"/>
<path d="M9.1875 22.75H10.0625V23.625H9.1875V22.75Z" fill="#132968"/>
</svg>
